<?xml version="1.0" encoding="UTF-8" standalone="no"?>
<!-- Created with Inkscape (http://www.inkscape.org/) -->

<svg
   width="58.071205mm"
   height="58.071198mm"
   viewBox="0 0 58.071205 58.071198"
   version="1.1"
   id="svg1"
   xml:space="preserve"
   xmlns="http://www.w3.org/2000/svg"
   xmlns:svg="http://www.w3.org/2000/svg"><defs
     id="defs1"><filter
       style="color-interpolation-filters:sRGB"
       id="filter156"
       x="-0.16486838"
       y="-0.1648684"
       width="1.3297368"
       height="1.3297368"><feFlood
         result="flood"
         in="SourceGraphic"
         flood-opacity="0.498039"
         flood-color="rgb(0,0,0)"
         id="feFlood154" /><feGaussianBlur
         result="blur"
         in="SourceGraphic"
         stdDeviation="3.000000"
         id="feGaussianBlur154" /><feOffset
         result="offset"
         in="blur"
         dx="0.000000"
         dy="0.000000"
         id="feOffset154" /><feComposite
         result="comp1"
         operator="in"
         in="flood"
         in2="offset"
         id="feComposite155" /><feComposite
         result="comp2"
         operator="over"
         in="SourceGraphic"
         in2="comp1"
         id="feComposite156" /></filter><filter
       style="color-interpolation-filters:sRGB"
       id="filter158"
       x="-0.16486841"
       y="-0.16486841"
       width="1.3297368"
       height="1.3297368"><feFlood
         result="flood"
         in="SourceGraphic"
         flood-opacity="0.498039"
         flood-color="rgb(0,0,0)"
         id="feFlood156" /><feGaussianBlur
         result="blur"
         in="SourceGraphic"
         stdDeviation="3.000000"
         id="feGaussianBlur156" /><feOffset
         result="offset"
         in="blur"
         dx="0.000000"
         dy="0.000000"
         id="feOffset156" /><feComposite
         result="comp1"
         operator="in"
         in="flood"
         in2="offset"
         id="feComposite157" /><feComposite
         result="comp2"
         operator="over"
         in="SourceGraphic"
         in2="comp1"
         id="feComposite158" /></filter><filter
       style="color-interpolation-filters:sRGB"
       id="filter847"
       x="-0.18807208"
       y="-0.094034984"
       width="1.3761442"
       height="1.18807"><feFlood
         result="flood"
         in="SourceGraphic"
         flood-opacity="0.541176"
         flood-color="rgb(0,175,231)"
         id="feFlood845" /><feGaussianBlur
         result="blur"
         in="SourceGraphic"
         stdDeviation="1.400000"
         id="feGaussianBlur845" /><feOffset
         result="offset"
         in="blur"
         dx="0.000000"
         dy="0.000000"
         id="feOffset845" /><feComposite
         result="comp1"
         operator="in"
         in="flood"
         in2="offset"
         id="feComposite846" /><feComposite
         result="comp2"
         operator="over"
         in="SourceGraphic"
         in2="comp1"
         id="feComposite847" /></filter><filter
       style="color-interpolation-filters:sRGB"
       id="filter849"
       x="-0.1173808"
       y="-0.1100594"
       width="1.2347616"
       height="1.2201188"><feFlood
         result="flood"
         in="SourceGraphic"
         flood-opacity="0.541176"
         flood-color="rgb(0,175,231)"
         id="feFlood847" /><feGaussianBlur
         result="blur"
         in="SourceGraphic"
         stdDeviation="1.400000"
         id="feGaussianBlur847" /><feOffset
         result="offset"
         in="blur"
         dx="0.000000"
         dy="0.000000"
         id="feOffset847" /><feComposite
         result="comp1"
         operator="in"
         in="flood"
         in2="offset"
         id="feComposite848" /><feComposite
         result="comp2"
         operator="over"
         in="SourceGraphic"
         in2="comp1"
         id="feComposite849" /></filter></defs><g
     id="layer1"
     transform="translate(-72.243538,-207.43449)"><g
       id="g21"
       transform="translate(131.48199,152.7014)"
       style="filter:url(#filter156)"><path
         id="rect2-1"
         style="fill:#032055;stroke-width:1.288"
         d="m -30.202848,61.933076 c 12.09692,0 21.8356001,9.738677 21.8356001,21.835595 0,12.09692 -9.7386801,21.835599 -21.8356001,21.835599 -12.09692,0 -21.8356,-9.738679 -21.8356,-21.835599 0,-12.096918 9.73868,-21.835595 21.8356,-21.835595 z" /><path
         style="fill:#bddaff;fill-opacity:1;filter:url(#filter847)"
         d="m -38.925627,101.49667 c -0.07583,-0.0758 -0.158604,-0.22048 -0.183947,-0.32146 -0.07073,-0.28183 0.01278,-1.290948 0.129979,-1.570608 0.144036,-0.34369 0.492313,-0.72398 0.794241,-0.86726 0.138842,-0.0659 0.979143,-0.28908 1.867335,-0.496 0.888192,-0.20691 1.763494,-0.41084 1.945116,-0.45316 l 0.330221,-0.077 0.01889,-4.67757 0.01889,-4.67758 0.195907,-0.16849 c 0.240009,-0.20642 0.393044,-0.21217 0.632551,-0.0238 l 0.183973,0.14471 v 4.63815 4.63815 h 4.398835 4.398836 v -7.74092 c 0,-7.725541 2.87e-4,-7.741271 0.144713,-7.924881 0.200132,-0.25443 0.557784,-0.25443 0.757916,0 0.144434,0.18362 0.144713,0.19893 0.144713,7.959801 0,6.66311 0.01416,7.77582 0.09895,7.77582 0.191371,0 0.721228,0.26802 0.981318,0.49638 0.587527,0.51585 0.839636,1.23014 0.791265,2.241848 -0.0331,0.69228 -0.140308,0.91054 -0.549859,1.11937 -0.223984,0.11421 -0.778365,0.12209 -8.600695,0.12219 -8.232353,1.1e-4 -8.363405,-0.002 -8.499148,-0.13776 z m 4.885819,-1.821868 c 0,-0.8366 -0.01015,-0.90931 -0.12219,-0.87515 -0.0672,0.0205 -0.870632,0.2112 -1.785396,0.42381 -0.914763,0.21261 -1.723509,0.41884 -1.797214,0.45828 -0.178653,0.0956 -0.344922,0.429438 -0.344922,0.692518 v 0.21294 h 2.024861 2.024861 z m 11.727164,0.475998 c -0.0053,-0.748408 -0.217651,-1.152018 -0.730075,-1.387318 -0.262368,-0.12048 -0.572277,-0.12835 -5.114519,-0.12979 l -4.835228,-0.002 v 0.97752 0.977518 h 5.341443 5.341443 z m -8.370603,-5.612688 c -0.07959,-0.10119 -0.144713,-0.23834 -0.144713,-0.30479 0,-0.0664 0.06512,-0.2036 0.144713,-0.30478 l 0.144714,-0.18398 h 2.008971 c 1.857585,0 2.017679,0.01 2.124528,0.12769 0.145485,0.16076 0.148758,0.49207 0.0069,0.69465 -0.108053,0.15427 -0.120574,0.15518 -2.124527,0.15518 h -2.015834 z m 0.02667,-1.8028 c -0.205551,-0.20555 -0.219401,-0.45204 -0.03799,-0.67621 l 0.133387,-0.16484 1.948009,-0.0205 c 1.893807,-0.0199 1.953235,-0.0164 2.135853,0.12726 0.23439,0.18437 0.2578,0.55642 0.0482,0.76602 -0.133007,0.13301 -0.232743,0.13965 -2.097858,0.13965 h -1.958211 z m 0,-1.8154 c -0.09426,-0.0943 -0.171383,-0.25279 -0.171383,-0.35228 0,-0.0995 0.07712,-0.25803 0.171383,-0.35229 l 0.171384,-0.17138 h 1.945046 c 1.86092,0 1.951655,0.006 2.097857,0.14236 0.221546,0.2064 0.206507,0.57331 -0.03116,0.76026 -0.175958,0.13841 -0.267357,0.14472 -2.097857,0.14472 h -1.913884 z m -3.169868,-4.08391 c -0.07466,-0.0747 -0.154621,-0.23962 -0.177683,-0.36657 -0.02306,-0.12695 -0.03267,-3.074351 -0.02135,-6.549781 0.01954,-5.998044 0.02712,-6.329764 0.149401,-6.531624 0.07085,-0.11696 0.241359,-0.28978 0.378909,-0.38403 0.223255,-0.15297 0.321818,-0.17118 0.918524,-0.16971 0.757474,0.002 1.006259,0.0934 1.273877,0.4686 0.146071,0.20479 0.164945,0.3185 0.18561,1.11822 l 0.02301,0.890244 h 0.510724 c 1.119676,0 3.004315,-0.28844 4.103938,-0.628094 l 0.471304,-0.14557 v -3.21129 c 0,-2.74524 -0.01574,-3.24896 -0.108439,-3.47088 -0.399035,-0.95526 -1.617014,-1.22256 -2.359048,-0.51772 -0.363227,0.34502 -0.426472,0.54314 -0.464565,1.45535 -0.0294,0.70398 -0.05802,0.87306 -0.168429,0.99497 -0.17359,0.19168 -0.551629,0.19537 -0.739773,0.007 -0.124734,-0.12474 -0.139402,-0.23098 -0.137366,-0.99498 0.0026,-0.98142 0.108249,-1.38988 0.487061,-1.88333 1.184949,-1.54355 3.485904,-1.28127 4.317232,0.4921 l 0.185757,0.39626 0.02118,2.14657 0.02118,2.14657 0.278494,-0.14208 c 0.441354,-0.22516 0.993412,-0.30393 1.239215,-0.17682 0.490224,0.2535 0.321959,0.88816 -0.25603,0.96569 -0.414688,0.0556 -0.775192,0.25686 -0.957723,0.53461 -0.166546,0.25344 -0.33903,0.84442 -0.24645,0.84442 0.02756,0 0.303873,-0.10997 0.614032,-0.24438 0.310159,-0.13441 0.615612,-0.24438 0.678784,-0.24438 0.06317,0 0.191982,0.0771 0.286243,0.17138 l 0.171383,0.17139 v 3.166944 c 0,3.0906 -0.0034,3.17063 -0.142366,3.31976 -0.191355,0.20539 -0.571255,0.20539 -0.76261,0 -0.126053,-0.1353 -0.142366,-0.24424 -0.142366,-0.95075 0,-0.7289 -0.01057,-0.79442 -0.12219,-0.75726 -0.0672,0.0224 -0.577783,0.19618 -1.13462,0.38622 -2.074291,0.70793 -3.729206,0.95318 -6.057127,0.89764 l -1.483734,-0.0354 v 3.34075 3.340751 l -0.152812,0.14237 c -0.193019,0.17982 -0.504928,0.18285 -0.681167,0.007 z m 4.589706,-7.897611 c 1.45904,-0.15832 3.428637,-0.67284 4.640463,-1.21225 l 0.401481,-0.1787 v -1.28594 -1.28594 l -0.610949,0.24086 c -2.090602,0.8242 -4.369972,1.19687 -6.844167,1.11899 l -1.345621,-0.0423 0.01899,1.30708 0.01899,1.30708 0.349114,0.0414 c 0.609956,0.0723 2.668384,0.0661 3.371702,-0.0102 z m -2.917854,-4.398584 v -0.70171 l -0.401481,0.0209 -0.401481,0.0209 -0.02034,0.6225 c -0.02327,0.712114 -0.0071,0.736374 0.491646,0.737984 l 0.331658,0.001 z m 2.304152,-2.51013 c -0.112768,-0.11277 -0.139645,-0.23275 -0.139645,-0.62334 0,-0.43938 0.01685,-0.49695 0.183973,-0.62841 0.101185,-0.0796 0.225388,-0.14471 0.276006,-0.14471 0.198908,0 0.442318,0.16751 0.521626,0.35898 0.111243,0.26856 0.0485,0.86364 -0.109461,1.03818 -0.166377,0.18385 -0.548315,0.18348 -0.732499,-7e-4 z"
         id="path16" /></g><g
       id="g20"
       transform="translate(127.16473,145.64277)"
       style="filter:url(#filter158)"><path
         id="rect2-9"
         style="fill:#032055;stroke-width:1.288"
         d="m -82.766415,55.434218 c 12.096918,0 21.835598,9.73867 21.835598,21.835603 0,12.09692 -9.73868,21.83559 -21.835598,21.83559 -12.09692,0 -21.835595,-9.73867 -21.835595,-21.83559 0,-12.096933 9.738675,-21.835603 21.835595,-21.835603 z" /><path
         style="fill:#bddaff;fill-opacity:1;filter:url(#filter849)"
         d="m -96.549122,92.400128 c -0.66241,-0.33434 -0.71548,-1.32666 -0.0916,-1.71226 0.17213,-0.10637 2.35741,-0.49011 12.57216,-2.20768 6.8001,-1.1434 13.00354,-2.18711 13.7854,-2.31934 1.4857,-0.25127 1.63887,-0.2526 1.76584,-0.0154 0.0422,0.0788 0.0633,1.11438 0.0633,3.10714 v 2.98891 l -0.1464,0.1464 -0.14641,0.1464 h -3.1857 c -3.13258,0 -3.18833,-0.002 -3.34286,-0.12362 -0.21735,-0.17096 -0.21735,-0.47648 0,-0.64744 0.15407,-0.12119 0.21379,-0.12362 3.04192,-0.12362 h 2.88477 v -2.356 c 0,-1.5342 -0.0209,-2.356 -0.0598,-2.356 -0.0329,0 -6.04759,1.00652 -13.36604,2.23671 -7.31844,1.23019 -13.33066,2.23671 -13.36048,2.23671 -0.0298,0 -0.0542,0.0537 -0.0542,0.11929 0,0.1188 0.0398,0.11929 9.74717,0.11929 5.36095,0 9.79062,0.0167 9.84373,0.037 0.0531,0.0204 0.13793,0.11707 0.18851,0.21488 0.0757,0.14632 0.0791,0.20887 0.0194,0.35293 -0.0399,0.0963 -0.12076,0.2009 -0.17972,0.23246 -0.0674,0.036 -3.74859,0.0574 -9.91017,0.0574 h -9.80297 z m 7.54719,-5.35968 c -0.99878,-0.14397 -2.3439,-0.6068 -3.22086,-1.10823 -1.61204,-0.92173 -3.04175,-2.45104 -3.81248,-4.07807 -0.91201,-1.92526 -1.1499,-4.11079 -0.66508,-6.11013 0.6552,-2.70198 2.42348,-4.94962 4.84257,-6.15534 l 0.66324,-0.33057 0.0329,-0.72343 c 0.0389,-0.85621 0.0963,-1.07616 0.37685,-1.44364 0.11573,-0.15162 0.20188,-0.28068 0.19143,-0.2868 -0.23221,-0.13607 -0.65339,-0.55514 -0.82537,-0.82122 -1.00784,-1.55933 -0.0888,-3.62824 1.75187,-3.94352 1.10708,-0.18964 2.23488,0.42422 2.74052,1.49167 0.17884,0.37753 0.19095,0.44475 0.19095,1.05921 0,0.58747 -0.0168,0.69189 -0.16033,0.9982 -0.20716,0.44202 -0.42875,0.72906 -0.77285,1.00112 l -0.27709,0.21908 0.14498,0.18524 c 0.34479,0.44056 0.4039,0.68273 0.42828,1.75446 l 0.0227,0.99689 2.8421,0.0171 2.84211,0.0171 0.3332,0.15626 c 0.42356,0.19863 0.74342,0.51849 0.942,0.94202 0.20343,0.43387 0.21445,1.08398 0.0255,1.5036 -0.18272,0.40575 -0.53498,0.76305 -0.94281,0.9563 l -0.35787,0.16957 -2.84808,5e-5 -2.84808,5e-5 v 1.07362 1.07362 h 0.70771 c 0.62565,0 0.72592,0.0143 0.86486,0.12362 0.21734,0.17096 0.21734,0.47648 0,0.64744 -0.14477,0.11387 -0.23583,0.12362 -1.15505,0.12362 -0.91922,0 -1.01027,-0.01 -1.15504,-0.12362 l -0.15716,-0.12362 v -1.68417 c 0,-1.35984 0.0163,-1.70647 0.0846,-1.79995 0.0814,-0.11138 0.20331,-0.11691 3.20595,-0.1456 3.47306,-0.0332 3.33327,-0.0161 3.66244,-0.44766 0.3329,-0.43646 0.21626,-1.08384 -0.25247,-1.40135 l -0.22013,-0.14912 -3.10383,-0.0165 c -3.0819,-0.0164 -3.10479,-0.0174 -3.2402,-0.1446 -0.13279,-0.12476 -0.13638,-0.15794 -0.1367,-1.2659 -1.9e-4,-0.62578 -0.0276,-1.23579 -0.0608,-1.35558 -0.0766,-0.27585 -0.45937,-0.62741 -0.7405,-0.68015 -0.50876,-0.0954 -1.02774,0.21917 -1.1613,0.70402 -0.0514,0.18659 -0.0653,1.5298 -0.0525,5.08487 l 0.0173,4.83129 0.13526,0.2175 c 0.29138,0.46857 -0.0437,0.43503 4.67981,0.46842 l 4.2186,0.0298 0.14266,0.14911 c 0.0785,0.082 0.92831,1.4643 1.88855,3.07175 0.96025,1.60744 1.81365,2.99582 1.89645,3.08528 0.28738,0.31047 0.91859,0.37273 1.25236,0.12354 0.3064,-0.22877 0.39948,-0.41806 0.39948,-0.81246 v -0.36841 l -2.02142,-3.36998 c -1.11179,-1.85348 -2.09147,-3.44709 -2.17707,-3.54134 -0.29647,-0.32644 -0.3658,-0.33562 -2.53467,-0.33562 -1.09734,0 -2.03861,-0.0167 -2.09171,-0.0371 -0.0531,-0.0204 -0.13794,-0.11708 -0.18852,-0.21489 -0.11788,-0.22795 -0.0254,-0.48323 0.21037,-0.5809 0.11419,-0.0473 0.7908,-0.0623 2.2465,-0.0498 2.04174,0.0175 2.08928,0.0206 2.39408,0.15845 0.17104,0.0773 0.42739,0.26522 0.56966,0.41752 0.29013,0.31055 4.2343,6.83999 4.40815,7.29755 0.44185,1.16284 -0.50233,2.49281 -1.7697,2.49281 -0.43679,0 -0.92265,-0.1924 -1.25174,-0.4957 -0.18423,-0.16979 -0.52541,-0.67383 -1.06458,-1.57275 l -0.79346,-1.32289 -0.38359,0.54348 c -1.42514,2.0192 -3.59393,3.39252 -6.00983,3.80554 -0.72749,0.12437 -2.20945,0.1498 -2.90308,0.0498 z m 2.24316,-0.85812 c 2.28115,-0.16847 4.72053,-1.65344 6.06583,-3.69256 0.236,-0.35771 0.42909,-0.67851 0.42909,-0.71288 0,-0.0716 -1.06695,-1.87626 -1.13367,-1.91749 -0.0242,-0.0149 -0.0916,0.0998 -0.14981,0.25495 -0.73823,1.96755 -2.45882,3.51961 -4.48987,4.05007 -0.71442,0.1866 -1.85029,0.24869 -2.58475,0.14129 -2.33787,-0.34184 -4.36709,-1.99622 -5.17974,-4.22292 -0.66385,-1.81899 -0.45993,-3.89009 0.55039,-5.58993 0.3563,-0.59947 1.23107,-1.55917 1.74182,-1.91095 l 0.33049,-0.22761 v -1.06889 -1.06888 l -0.46226,0.24898 c -2.18001,1.17425 -3.73194,3.26747 -4.25899,5.74452 -0.17322,0.81409 -0.18482,2.30816 -0.0244,3.14263 0.31708,1.64936 1.04838,3.07041 2.20002,4.27505 1.16295,1.21646 2.50654,1.98922 4.14529,2.38414 0.63536,0.15311 1.61919,0.25782 2.09835,0.22332 0.14763,-0.0106 0.47261,-0.0344 0.7222,-0.0528 z m 0.15676,-2.80028 c 1.86035,-0.39134 3.39632,-1.63333 4.10861,-3.32225 0.11088,-0.2629 0.2016,-0.51614 0.2016,-0.56275 0,-0.0723 -0.53789,-0.0847 -3.66597,-0.0847 -3.52479,0 -3.67829,-0.005 -3.98607,-0.11977 -0.45533,-0.17036 -0.77794,-0.47092 -1.00898,-0.94 l -0.19635,-0.39866 -0.0298,-2.25788 -0.0298,-2.25789 -0.45406,0.46707 c -1.10761,1.13935 -1.62713,2.41711 -1.62071,3.98616 0.003,0.63378 0.0311,0.88181 0.15604,1.35802 0.41144,1.56812 1.4204,2.83516 2.85856,3.58972 0.85925,0.45083 1.54256,0.61746 2.56045,0.62438 0.39818,0.003 0.87252,-0.0322 1.10653,-0.0814 z m -1.90938,-17.30651 c 1.05288,-0.50819 1.23854,-1.96811 0.34979,-2.75042 -0.81492,-0.71732 -2.02123,-0.51164 -2.57875,0.4397 -0.18996,0.32413 -0.25646,0.94957 -0.1392,1.3092 0.32855,1.00767 1.40885,1.46455 2.36816,1.00152 z"
         id="path18" /></g></g></svg>
