<?xml version="1.0" encoding="UTF-8" standalone="no"?>
<!-- Created with Inkscape (http://www.inkscape.org/) -->

<svg
   width="58.071198mm"
   height="58.071194mm"
   viewBox="0 0 58.071198 58.071194"
   version="1.1"
   id="svg1"
   xml:space="preserve"
   xmlns="http://www.w3.org/2000/svg"
   xmlns:svg="http://www.w3.org/2000/svg"><defs
     id="defs1"><filter
       style="color-interpolation-filters:sRGB"
       id="filter148"
       x="-0.21247662"
       y="-0.21234341"
       width="1.4249532"
       height="1.4246867"><feFlood
         result="flood"
         in="SourceGraphic"
         flood-opacity="0.498039"
         flood-color="rgb(0,0,0)"
         id="feFlood147" /><feGaussianBlur
         result="blur"
         in="SourceGraphic"
         stdDeviation="3.000000"
         id="feGaussianBlur147" /><feOffset
         result="offset"
         in="blur"
         dx="0.000000"
         dy="0.000000"
         id="feOffset147" /><feComposite
         result="comp1"
         operator="in"
         in="flood"
         in2="offset"
         id="feComposite147" /><feComposite
         result="comp2"
         operator="over"
         in="SourceGraphic"
         in2="comp1"
         id="feComposite148" /></filter><filter
       style="color-interpolation-filters:sRGB"
       id="filter160"
       x="-0.16486844"
       y="-0.16486838"
       width="1.3297369"
       height="1.3297368"><feFlood
         result="flood"
         in="SourceGraphic"
         flood-opacity="0.498039"
         flood-color="rgb(0,0,0)"
         id="feFlood158" /><feGaussianBlur
         result="blur"
         in="SourceGraphic"
         stdDeviation="3.000000"
         id="feGaussianBlur158" /><feOffset
         result="offset"
         in="blur"
         dx="0.000000"
         dy="0.000000"
         id="feOffset158" /><feComposite
         result="comp1"
         operator="in"
         in="flood"
         in2="offset"
         id="feComposite159" /><feComposite
         result="comp2"
         operator="over"
         in="SourceGraphic"
         in2="comp1"
         id="feComposite160" /></filter><filter
       style="color-interpolation-filters:sRGB"
       id="filter162"
       x="-0.16486839"
       y="-0.16486842"
       width="1.3297368"
       height="1.3297368"><feFlood
         result="flood"
         in="SourceGraphic"
         flood-opacity="0.498039"
         flood-color="rgb(0,0,0)"
         id="feFlood160" /><feGaussianBlur
         result="blur"
         in="SourceGraphic"
         stdDeviation="3.000000"
         id="feGaussianBlur160" /><feOffset
         result="offset"
         in="blur"
         dx="0.000000"
         dy="0.000000"
         id="feOffset160" /><feComposite
         result="comp1"
         operator="in"
         in="flood"
         in2="offset"
         id="feComposite161" /><feComposite
         result="comp2"
         operator="over"
         in="SourceGraphic"
         in2="comp1"
         id="feComposite162" /></filter><filter
       style="color-interpolation-filters:sRGB"
       id="filter839"
       x="-0.081733119"
       y="-0.081756264"
       width="1.1634662"
       height="1.1635125"><feFlood
         result="flood"
         in="SourceGraphic"
         flood-opacity="0.541176"
         flood-color="rgb(0,175,231)"
         id="feFlood838" /><feGaussianBlur
         result="blur"
         in="SourceGraphic"
         stdDeviation="1.400000"
         id="feGaussianBlur838" /><feOffset
         result="offset"
         in="blur"
         dx="0.000000"
         dy="0.000000"
         id="feOffset838" /><feComposite
         result="comp1"
         operator="in"
         in="flood"
         in2="offset"
         id="feComposite838" /><feComposite
         result="comp2"
         operator="over"
         in="SourceGraphic"
         in2="comp1"
         id="feComposite839" /></filter><filter
       style="color-interpolation-filters:sRGB"
       id="filter851"
       x="-0.13607347"
       y="-0.097195362"
       width="1.2721469"
       height="1.1943907"><feFlood
         result="flood"
         in="SourceGraphic"
         flood-opacity="0.541176"
         flood-color="rgb(0,175,231)"
         id="feFlood849" /><feGaussianBlur
         result="blur"
         in="SourceGraphic"
         stdDeviation="1.400000"
         id="feGaussianBlur849" /><feOffset
         result="offset"
         in="blur"
         dx="0.000000"
         dy="0.000000"
         id="feOffset849" /><feComposite
         result="comp1"
         operator="in"
         in="flood"
         in2="offset"
         id="feComposite850" /><feComposite
         result="comp2"
         operator="over"
         in="SourceGraphic"
         in2="comp1"
         id="feComposite851" /></filter><filter
       style="color-interpolation-filters:sRGB"
       id="filter853"
       x="-0.1173799"
       y="-0.10565106"
       width="1.2347598"
       height="1.2113021"><feFlood
         result="flood"
         in="SourceGraphic"
         flood-opacity="0.541176"
         flood-color="rgb(0,175,231)"
         id="feFlood851" /><feGaussianBlur
         result="blur"
         in="SourceGraphic"
         stdDeviation="1.400000"
         id="feGaussianBlur851" /><feOffset
         result="offset"
         in="blur"
         dx="0.000000"
         dy="0.000000"
         id="feOffset851" /><feComposite
         result="comp1"
         operator="in"
         in="flood"
         in2="offset"
         id="feComposite852" /><feComposite
         result="comp2"
         operator="over"
         in="SourceGraphic"
         in2="comp1"
         id="feComposite853" /></filter></defs><g
     id="layer1"
     transform="translate(-36.574138,-22.28717)"><g
       id="g22"
       transform="translate(131.11764,-78.687119)"
       style="filter:url(#filter148)"><path
         id="rect2-15"
         style="fill:#032055;stroke-width:1.288"
         d="m -7.8736559,119.3501 c 12.096921,0 21.8356009,9.73867 21.8356009,21.8356 0,12.09692 -9.7386799,21.83559 -21.8356009,21.83559 -12.0969201,0 -21.8355901,-9.73867 -21.8355901,-21.83559 0,-12.09693 9.73867,-21.8356 21.8355901,-21.8356 z" /><path
         style="fill:#bddaff;fill-opacity:1;filter:url(#filter839)"
         d="m -9.3544793,161.708 c -2.9544267,-0.30141 -5.1764267,-0.90582 -7.4977657,-2.03949 -2.215617,-1.08203 -3.679927,-2.13688 -5.518141,-3.97509 -1.828085,-1.82808 -2.807189,-3.18254 -3.927545,-5.43321 -3.453078,-6.93684 -2.666068,-15.17979 2.052435,-21.49671 0.749788,-1.00378 2.934445,-3.19128 3.928405,-3.93352 4.528963,-3.38198 9.994974,-4.78205 15.4859617,-3.96658 1.233736,0.18323 2.910528,0.60731 4.02270499,1.0174 0.980972,0.36171 3.00076001,1.34681 3.78482301,1.84595 1.756028,1.1179 3.631185,2.75293 4.920145,4.29007 1.38434,1.65089 2.8022303,4.09882 3.5529603,6.13405 0.86555,2.34649 1.31513,5.1957 1.21868,7.72333 -0.16522,4.32963 -1.56151,8.26618 -4.1717803,11.76149 -0.74029,0.99129 -2.929154,3.18015 -3.920445,3.92044 -2.828944,2.11263 -6.009647,3.45284 -9.414748,3.96697 -1.016797,0.15352 -3.733066,0.26474 -4.51569,0.1849 z m 4.217402,-1.51627 c 2.007535,-0.30301 3.846997,-0.87706 5.66336699,-1.7674 5.10514301,-2.50239 8.80658401,-7.04718 10.19839431,-12.52205 0.4497,-1.76894 0.5636,-2.74554 0.55883,-4.79123 -0.004,-1.93445 -0.12949,-2.9883 -0.55253,-4.65922 -0.59941,-2.36755 -1.7794303,-4.82053 -3.2845403,-6.82775 -0.71391,-0.95208 -2.266157,-2.55757 -3.222918,-3.33348 -3.37518201,-2.73718 -7.766898,-4.2983 -12.091873,-4.2983 -4.0909567,0 -8.2494677,1.39642 -11.5673057,3.88429 -0.952076,0.71391 -2.557567,2.26616 -3.333473,3.22292 -2.741418,3.38041 -4.29703,7.75683 -4.298096,12.09187 -0.0011,4.32485 1.561805,8.71785 4.304766,12.10008 1.185751,1.46211 3.042989,3.10845 4.692015,4.15922 0.860641,0.5484 2.8682,1.51449 3.85591,1.85556 1.426882,0.49271 2.999117,0.8409 4.5387267,1.00513 0.924282,0.0986 3.551772,0.0293 4.538727,-0.11964 z m -4.016573,-1.21622 c -5.9266407,-0.54416 -10.9319417,-3.61223 -13.9428257,-8.54644 -1.716912,-2.81366 -2.557885,-5.85079 -2.557885,-9.23769 0,-2.94671 0.58765,-5.44895 1.877153,-7.99298 2.664358,-5.25645 7.520184,-8.74914 13.418586,-9.65168 1.2641327,-0.19343 3.7182767,-0.19363 4.9692887,-4.1e-4 3.975368,0.61401 7.345896,2.30526 10.09655,5.06619 1.816347,1.82314 3.064437,3.71765 4.001587,6.07416 0.81838,2.05783 1.20886,4.15899 1.20886,6.50472 0,2.22333 -0.29433,3.98382 -0.99385,5.94453 -2.22196,6.22796 -7.6657,10.70084 -14.221554,11.68521 -0.83509,0.12539 -3.158521,0.21842 -3.85591,0.15439 z m 3.709879,-1.51285 c 5.44988799,-0.83447 10.178782,-4.36679 12.478015,-9.32062 2.11261,-4.55175 2.05402,-9.73636 -0.16071,-14.22066 -2.247218,-4.55008 -6.45681501,-7.81485 -11.385809,-8.8303 -5.33777,-1.09966 -10.7959637,0.46941 -14.7360667,4.23617 -3.51545,3.36079 -5.413943,8.29341 -5.022381,13.04902 0.664879,8.07513 6.724368,14.29918 14.7957467,15.19755 0.890859,0.0991 3.045716,0.0397 4.031205,-0.11116 z m -8.2602267,-2.73114 c -0.414459,-0.18034 -0.881225,-0.66111 -1.07169,-1.10386 -0.337014,-0.78341 -0.30894,-0.88246 1.646562,-5.80893 l 1.753761,-4.41823 0.03283,-1.3255 0.03283,-1.32549 -0.207379,-0.19482 c -0.199489,-0.18741 -0.329212,-0.20609 -3.409455,-0.49088 -2.863645,-0.26477 -3.242336,-0.31616 -3.582997,-0.4863 -0.886476,-0.44273 -1.298205,-1.47898 -0.992735,-2.49855 0.136633,-0.45604 0.627929,-0.97419 1.127557,-1.18919 0.512176,-0.2204 0.566514,-0.21825 5.164323,0.20471 3.035203,0.27922 3.2181207,0.2871 5.8641957,0.25262 2.341814,-0.0305 3.166025,-0.0771 5.780236,-0.32692 1.67693199,-0.16024 3.231346,-0.29098 3.454253,-0.29055 1.085676,0.002 1.965726,0.90903 1.969984,2.03016 0.003,0.79928 -0.349775,1.39999 -1.044242,1.77797 -0.409909,0.2231 -0.519369,0.23899 -3.62447301,0.52608 -3.07996599,0.28476 -3.20968999,0.30344 -3.40917799,0.49085 l -0.207379,0.19482 0.03283,1.32549 0.03283,1.3255 1.752463,4.41823 c 1.191548,3.00407 1.76428899,4.54699 1.78940899,4.82051 0.146315,1.59318 -1.53978099,2.72756 -2.95425299,1.98758 -0.232249,-0.12151 -0.522639,-0.34744 -0.645311,-0.50208 -0.125427,-0.15811 -0.879982,-1.88078 -1.724124,-3.93624 -0.825597,-2.01029 -1.553588,-3.7816 -1.617759,-3.93624 l -0.116674,-0.28116 -1.607727,3.93624 c -0.9297827,2.27641 -1.7021167,4.0548 -1.8315687,4.2174 -0.359276,0.45128 -0.965105,0.7236 -1.601445,0.71984 -0.293186,-0.002 -0.646741,-0.0526 -0.78568,-0.11306 z m 1.26855,-1.39196 c 0.07306,-0.0762 0.844194,-1.87379 1.71362,-3.99454 0.8694257,-2.12075 1.6650867,-3.98582 1.7681357,-4.14459 0.480673,-0.74063 1.690018,-0.74063 2.17069,0 0.103049,0.15877 0.898711,2.02384 1.768137,4.14459 0.869425,2.12075 1.640555,3.9183 1.71362,3.99454 0.07306,0.0762 0.243626,0.16078 0.379023,0.18786 0.341845,0.0684 0.757408,-0.27543 0.757408,-0.62661 0,-0.13513 -0.774174,-2.21953 -1.720386,-4.632 -0.946213,-2.41248 -1.759367,-4.53092 -1.80701,-4.70765 -0.04764,-0.17673 -0.08603,-0.93586 -0.08531,-1.68696 0.0015,-1.52983 0.06378,-1.78076 0.567169,-2.28415 0.513807,-0.51381 0.692906,-0.55204 3.990741,-0.85201 1.66715999,-0.15164 3.113455,-0.29521 3.213989,-0.31903 0.750175,-0.17777 0.609823,-1.32453 -0.162109,-1.32453 -0.147282,0 -1.86917201,0.14459 -3.826424,0.32132 -3.153621,0.28476 -3.821041,0.32133 -5.864196,0.32133 -2.043155,0 -2.7105737,-0.0366 -5.8641957,-0.32133 -1.957252,-0.17673 -3.677124,-0.32132 -3.821938,-0.32132 -0.144814,0 -0.358547,0.0749 -0.474961,0.16649 -0.405474,0.31895 -0.226757,1.03648 0.288366,1.15776 0.100534,0.0237 1.543492,0.16576 3.206573,0.31575 3.295414,0.29721 3.479106,0.33652 3.998158,0.85557 0.50439,0.50439 0.5656407,0.7527 0.5676157,2.30117 0.0016,1.23751 -0.01816,1.44412 -0.1880237,1.96812 -0.104384,0.32201 -0.91774,2.43377 -1.807458,4.69281 -0.889718,2.25904 -1.617669,4.21323 -1.617669,4.34263 0,0.57196 0.737823,0.86074 1.136432,0.44478 z m 3.4826267,-18.48365 c -1.7850477,-0.51293 -3.0124297,-2.12108 -3.0124297,-3.94695 0,-2.24307 1.853837,-4.09691 4.0969037,-4.09691 2.243068,0 4.096904,1.85384 4.096904,4.09691 0,2.67705 -2.629641,4.6802 -5.181378,3.94695 z m 2.352524,-1.53427 c 0.570725,-0.30422 0.882134,-0.62311 1.201906,-1.23076 0.195306,-0.37114 0.22042,-0.50559 0.220762,-1.18192 3.62e-4,-0.71629 -0.01642,-0.79416 -0.273391,-1.26805 -0.310263,-0.57219 -0.630144,-0.8834 -1.235403,-1.20191 -0.371366,-0.19543 -0.505169,-0.22038 -1.181924,-0.22038 -0.676754,0 -0.810557,0.0249 -1.181923,0.22038 -0.60526,0.31851 -0.92514,0.62972 -1.2354027,1.20191 -0.256966,0.47389 -0.273754,0.55176 -0.273391,1.26805 3.4e-4,0.67271 0.02599,0.81176 0.216461,1.17343 0.296276,0.56258 0.5787437,0.88035 1.0041567,1.12965 0.613005,0.35925 0.901029,0.43253 1.590597,0.40468 0.546268,-0.0221 0.718375,-0.0663 1.147552,-0.29508 z"
         id="path15" /></g><g
       id="g28"
       transform="translate(184.00703,-129.75243)"
       style="filter:url(#filter160)"><path
         id="rect2-5"
         style="fill:#032055;stroke-width:1.288"
         d="m -110.29572,212.64505 c 12.096925,0 21.835595,9.73868 21.835595,21.8356 0,12.09692 -9.73867,21.8356 -21.835595,21.8356 -12.09692,0 -21.83559,-9.73868 -21.83559,-21.8356 0,-12.09692 9.73867,-21.8356 21.83559,-21.8356 z" /><path
         style="fill:#bddaff;fill-opacity:1;filter:url(#filter851)"
         d="m -122.46373,251.58712 -0.17826,-0.17826 v -5.29514 c 0,-5.24698 0.001,-5.29688 0.15052,-5.4865 0.12573,-0.15983 0.20868,-0.19136 0.50349,-0.19136 0.40789,0 0.35534,0.0952 0.61436,-1.11334 l 0.18413,-0.85915 v -4.36053 c 0,-4.79683 0.0267,-5.19617 0.44192,-6.61357 0.11975,-0.40878 0.40919,-1.13541 0.6432,-1.61474 1.65164,-3.38311 4.93376,-5.63684 8.68296,-5.96235 l 0.581,-0.0504 0.45143,-0.42034 c 0.31526,-0.29354 0.58361,-0.46853 0.88966,-0.58012 l 0.43823,-0.15978 v -0.57457 c 0,-0.51321 0.019,-0.59361 0.17826,-0.75284 l 0.17826,-0.17826 h 5.1993 5.199292 l 0.17827,0.17826 c 0.17003,0.17003 0.17826,0.2197 0.17826,1.07569 0,0.7688 -0.019,0.91783 -0.13273,1.03988 -0.0924,0.0992 -0.91938,0.36249 -2.723332,0.86704 -1.42484,0.39852 -2.59066,0.74344 -2.59072,0.76649 -6e-5,0.0231 0.20848,0.0804 0.46343,0.12733 1.08065,0.19911 3.443342,1.07542 3.803192,1.41057 0.20391,0.18992 0.21221,0.51382 0.0182,0.70788 -0.2063,0.20629 -0.36673,0.18414 -1.116102,-0.15414 -1.34231,-0.60595 -2.96024,-1.05007 -4.47701,-1.22895 -1.0195,-0.12024 -1.15472,-0.0939 -1.2715,0.24751 -0.0528,0.15434 -0.19659,0.44247 -0.31956,0.6403 -0.22238,0.35772 -0.2236,0.3653 -0.2236,1.39296 v 1.03328 l 0.68757,0.15606 c 1.13769,0.25823 2.0464,0.78316 2.85839,1.65118 0.861,0.92041 1.3371,1.99723 1.46891,3.32235 0.0477,0.47926 0.0668,4.15372 0.0534,10.26053 l -0.0208,9.51389 -0.20343,0.41426 c -0.21678,0.44145 -0.46827,0.69316 -0.95011,0.95093 l -0.29896,0.15994 h -5.59214 c -5.5468,0 -5.59483,-0.001 -5.92543,-0.15417 -0.40168,-0.18578 -0.7876,-0.55738 -0.97854,-0.94222 -0.1368,-0.27571 -0.14118,-0.55909 -0.15957,-10.32493 -0.0205,-10.87466 -0.0328,-10.49303 0.36944,-11.48877 0.29864,-0.73936 0.6379,-1.24305 1.24857,-1.85372 0.84643,-0.84643 1.70265,-1.30756 2.87986,-1.55098 l 0.56848,-0.11755 v -1.02035 c 0,-1.35442 -0.0156,-1.37936 -0.82815,-1.32075 -0.68992,0.0498 -1.6627,0.31825 -2.41878,0.66759 -2.02836,0.93715 -3.53874,2.75569 -4.18151,5.03464 -0.1525,0.54071 -0.15796,0.69792 -0.18185,5.24175 l -0.0246,4.68431 0.19641,0.92597 0.19641,0.92597 h 0.35292 c 0.25609,0 0.39278,0.0399 0.49818,0.14526 0.14263,0.14263 0.14525,0.24208 0.14525,5.51423 v 5.36899 l -0.19136,0.15052 c -0.18541,0.14584 -0.27131,0.15052 -2.76306,0.15052 h -2.57169 z m 4.68762,-5.4865 v -4.648 h -1.92456 -1.92457 v 4.648 4.64801 h 1.92457 1.92456 z m 14.73774,4.5208 c 0.13696,-0.0698 0.31671,-0.21925 0.39944,-0.33203 0.1504,-0.20504 0.15041,-0.20591 0.15041,-10.1312 0,-9.15919 -0.01,-9.96097 -0.12475,-10.37678 -0.46011,-1.66199 -1.6721,-2.87576 -3.33114,-3.336 -0.39505,-0.1096 -0.78052,-0.12969 -2.53568,-0.13219 -2.34879,-0.003 -2.60794,0.0319 -3.55863,0.4845 -1.15198,0.54836 -2.10962,1.72803 -2.43185,2.99567 -0.0957,0.37627 -0.11,1.7292 -0.10976,10.34908 2.7e-4,9.81431 0.002,9.91869 0.14668,10.15636 0.2793,0.4581 0.0917,0.44384 5.88093,0.44684 4.87267,0.003 5.28389,-0.007 5.51435,-0.12425 z m -10.21882,-7.10311 -0.16141,-0.11304 0.001,-4.84362 c 6.1e-4,-2.66398 0.0251,-4.87957 0.0545,-4.92352 0.15778,-0.23629 0.36705,-0.2469 4.87011,-0.2469 4.32167,0 4.50626,0.005 4.67093,0.13881 l 0.17146,0.13881 0.0197,4.78798 c 0.0196,4.76393 0.0189,4.78895 -0.13236,4.98126 l -0.15203,0.19328 h -4.59027 c -4.037,0 -4.60971,-0.0136 -4.75167,-0.11306 z m 8.62623,-5.00701 v -4.10332 h -3.88116 c -2.45886,0 -3.89729,0.0261 -3.92519,0.0712 -0.0242,0.0392 -0.0209,1.88568 0.007,4.10332 l 0.0513,4.03208 h 3.87389 3.8739 z m -14.1619,1.89374 c 0,-0.017 -0.0686,-0.3287 -0.1524,-0.69276 l -0.15241,-0.66193 -0.59115,0.021 -0.59116,0.021 -0.12201,0.50838 c -0.21535,0.89725 -0.27016,0.83518 0.73763,0.83518 0.47933,0 0.8715,-0.0139 0.8715,-0.0308 z m -0.36312,-6.53223 c 0,-4.57449 0.0194,-4.84261 0.44199,-6.10393 0.44682,-1.33365 1.18051,-2.47189 2.25178,-3.4934 1.29497,-1.23482 2.84671,-1.99691 4.65952,-2.28844 l 0.56284,-0.0905 v -0.50287 -0.50286 l -0.34497,0.0458 c -0.74222,0.0985 -1.53413,0.28011 -2.12428,0.48725 -2.7863,0.97805 -5.03041,3.24009 -5.95639,6.00396 -0.46898,1.39978 -0.45542,1.22907 -0.4867,6.12684 l -0.0286,4.4846 h 0.51242 0.51243 z m 11.6047,-9.25968 0.021,-0.68039 -0.27518,0.0621 c -0.34783,0.0785 -1.0639,0.0816 -1.41903,0.006 l -0.27234,-0.0577 v 0.69533 0.69534 l 0.96228,-0.0203 0.96228,-0.0203 z m -0.48278,-1.61895 c 0.3664,-0.10978 0.82732,-0.50867 1.0167,-0.87989 0.18778,-0.36808 0.20232,-0.99469 0.0324,-1.39614 -0.32037,-0.75689 -1.13472,-1.17143 -1.92758,-0.98123 -0.50905,0.12212 -0.89133,0.42267 -1.11918,0.8799 -0.67046,1.34544 0.55887,2.80843 1.99766,2.37736 z m 5.45883,-3.18803 c 1.72533,-0.48163 3.243183,-0.90902 3.372993,-0.94976 0.21359,-0.067 0.23604,-0.10116 0.23604,-0.35894 v -0.28487 h -4.539073 -4.53907 v 0.25281 c 0,0.21571 0.0293,0.25986 0.19972,0.30089 0.70623,0.17004 1.48663,0.83828 1.76593,1.51214 0.092,0.22188 0.21204,0.40342 0.26685,0.40342 0.0548,0 1.51128,-0.39405 3.23661,-0.87569 z"
         id="path12" /></g><g
       id="g25"
       transform="translate(-19.129061,-163.18229)"
       style="filter:url(#filter162)"><path
         id="rect2"
         style="fill:#032055;stroke-width:1.288"
         d="m 84.738804,192.66946 c 12.09692,0 21.835596,9.73867 21.835596,21.83559 0,12.09693 -9.738676,21.8356 -21.835596,21.8356 -12.09692,0 -21.835601,-9.73867 -21.835601,-21.8356 0,-12.09692 9.738681,-21.83559 21.835601,-21.83559 z" /><path
         style="fill:#bddaff;fill-opacity:1;filter:url(#filter853)"
         d="m 72.454415,230.35873 c -0.75088,-0.17794 -1.43607,-0.735 -1.7899,-1.45517 l -0.21333,-0.43419 -0.0161,-13.84186 c -0.0179,-15.39156 -0.0532,-14.1325 0.41613,-14.85858 0.28853,-0.44642 0.83614,-0.88046 1.32653,-1.05144 0.31213,-0.10882 0.86587,-0.11384 12.55173,-0.11384 11.68586,0 12.23961,0.005 12.55173,0.11384 0.7379,0.25727 1.44303,0.99566 1.66519,1.74373 0.13988,0.47106 0.13988,27.60554 0,28.0766 -0.21525,0.7248 -0.83634,1.39498 -1.58732,1.71277 l -0.34218,0.1448 -12.16299,0.01 c -7.03812,0.006 -12.26264,-0.0139 -12.3995,-0.0464 z m 4.35046,-1.1843 c -0.0214,-0.10693 -0.0389,-1.66851 -0.0389,-3.47018 v -3.27575 l -0.48217,6.5e-4 c -0.54259,7.3e-4 -0.83918,-0.11659 -1.18249,-0.46773 -0.43227,-0.44213 -0.41954,-0.33466 -0.41954,-3.54237 v -2.89298 l 0.18408,-0.36365 c 0.23009,-0.45453 0.67993,-0.86528 1.13348,-1.03498 0.33793,-0.12643 0.43217,-0.12943 3.52767,-0.11222 l 3.18048,0.0177 0.27996,0.14649 c 0.38127,0.1995 0.78543,0.59884 0.98512,0.97338 l 0.16586,0.31107 0.018,2.86188 c 0.0204,3.23638 0.0255,3.19495 -0.45292,3.67334 -0.34217,0.34217 -0.78401,0.49407 -1.28485,0.44173 l -0.36444,-0.0381 -8.5e-4,3.34309 c -4.7e-4,1.8387 -0.0177,3.40609 -0.0384,3.48308 l -0.0375,0.13998 h 2.75196 2.75196 l -0.0375,-0.13998 c -0.0206,-0.077 -0.0379,-1.64438 -0.0384,-3.48308 l -8.5e-4,-3.34309 -0.36444,0.0381 c -0.50084,0.0523 -0.94268,-0.0996 -1.28485,-0.44173 -0.47839,-0.47839 -0.47328,-0.43696 -0.45291,-3.67334 l 0.018,-2.86188 0.14649,-0.27997 c 0.19949,-0.38127 0.59883,-0.78542 0.97337,-0.98512 l 0.31108,-0.16585 3.18047,-0.0177 c 3.141,-0.0175 3.18499,-0.016 3.54431,0.11845 0.43613,0.16317 0.92039,0.6194 1.14779,1.08132 l 0.15313,0.31108 v 2.89298 c 0,3.20771 0.0127,3.10024 -0.41954,3.54237 -0.3433,0.35114 -0.6399,0.46846 -1.18249,0.46773 l -0.48216,-6.5e-4 v 3.27575 c 0,1.80167 -0.0175,3.36325 -0.0389,3.47018 l -0.0389,0.19442 h 1.62536 1.62536 v -10.45491 -10.45491 l -0.15271,-0.1527 -0.15271,-0.15271 h -10.85481 -10.85479 l -0.12894,0.16392 -0.12895,0.16393 v 10.44369 10.44369 h 1.62536 1.62536 z m 2.12211,-15.79644 c -0.59184,-0.14906 -1.14708,-0.60002 -1.41705,-1.15093 -0.11257,-0.22972 -0.15719,-0.43769 -0.1732,-0.80717 -0.0298,-0.68918 0.13392,-1.11902 0.60636,-1.59145 0.47702,-0.47702 0.90542,-0.63927 1.59145,-0.60272 0.97547,0.052 1.68799,0.64086 1.93224,1.59695 0.32129,1.25761 -0.59608,2.49823 -1.91346,2.58769 -0.21564,0.0146 -0.49749,8e-5 -0.62634,-0.0324 z m 0.91863,-1.11078 c 1.05247,-0.48329 0.71106,-1.99829 -0.45032,-1.99829 -0.36047,0 -0.64791,0.16385 -0.87571,0.4992 -0.12345,0.18173 -0.14322,0.27631 -0.12378,0.5922 0.0282,0.45878 0.20512,0.73844 0.57265,0.90535 0.32169,0.1461 0.56145,0.14652 0.87716,0.002 z m 9.67,1.09345 c -1.90617,-0.5398 -2.15893,-3.0339 -0.4,-3.94694 0.45348,-0.2354 1.16773,-0.26685 1.67934,-0.0739 0.51121,0.19276 1.01737,0.69919 1.2089,1.20956 0.18981,0.50578 0.16625,1.22655 -0.0548,1.67772 -0.43336,0.88434 -1.52227,1.39161 -2.43339,1.1336 z m 0.97488,-1.09499 c 0.36754,-0.16691 0.54443,-0.44657 0.57266,-0.90535 0.0194,-0.31589 -3.3e-4,-0.41047 -0.12379,-0.5922 -0.22779,-0.33535 -0.51524,-0.4992 -0.8757,-0.4992 -0.75798,0 -1.29129,0.73683 -1.01387,1.40079 0.13494,0.32295 0.26427,0.46007 0.56354,0.5975 0.31571,0.14498 0.55548,0.14456 0.87716,-0.002 z m -11.89893,17.03409 c 0.0834,-0.038 0.18273,-0.12898 0.22074,-0.20219 0.0476,-0.0917 0.0739,-1.18492 0.0846,-3.51379 l 0.0155,-3.38068 0.14687,-0.1189 c 0.22352,-0.18095 0.59028,-0.15895 0.75073,0.045 0.12683,0.16124 0.12894,0.21896 0.12894,3.51992 v 3.35599 l 0.18186,0.18186 c 0.10002,0.10002 0.2414,0.18186 0.31416,0.18186 0.10485,0 0.44083,-0.13325 0.51387,-0.2038 0.008,-0.008 0.0289,-2.63639 0.0467,-5.8416 l 0.0322,-5.82764 0.15082,-0.16053 c 0.18351,-0.19531 0.48555,-0.21336 0.69774,-0.0417 l 0.14687,0.11882 0.0311,1.84643 0.0311,1.84644 0.17456,0.15005 c 0.22814,0.19609 0.50156,0.19505 0.69928,-0.003 l 0.15271,-0.15271 v -2.66886 -2.66886 l -0.14147,-0.20992 c -0.20195,-0.29968 -0.49975,-0.47861 -0.87266,-0.52435 -0.17792,-0.0218 -1.51335,-0.0307 -2.96762,-0.0196 -2.95068,0.0224 -2.86877,0.0105 -3.2164,0.46612 l -0.1743,0.22845 -0.0176,2.64904 c -0.0187,2.80962 -0.0148,2.85175 0.27624,2.98435 0.22936,0.10451 0.37006,0.0842 0.56225,-0.0809 l 0.17456,-0.15003 0.0311,-1.84644 0.0311,-1.84644 0.14688,-0.11883 c 0.20949,-0.16949 0.53894,-0.15414 0.72696,0.0339 l 0.15271,0.1527 v 5.76248 5.76248 l 0.18186,0.18186 c 0.19447,0.19448 0.34371,0.22319 0.58606,0.11277 z m 10.74659,-0.11277 0.18186,-0.18186 v -3.35599 c 0,-3.30096 0.002,-3.35868 0.12894,-3.51992 0.12935,-0.16443 0.40474,-0.21784 0.64596,-0.12528 0.27474,0.10543 0.28264,0.2083 0.28473,3.7067 0.002,3.49873 -0.004,3.42982 0.28945,3.58583 0.2191,0.11669 0.39026,0.0846 0.58436,-0.10948 l 0.18186,-0.18186 v -5.76248 -5.76248 l 0.15271,-0.1527 c 0.18802,-0.18802 0.51747,-0.20337 0.72696,-0.0339 l 0.14687,0.11883 0.0311,1.84644 0.0311,1.84644 0.17456,0.15003 c 0.23425,0.20133 0.44769,0.19061 0.67206,-0.0337 l 0.18378,-0.18379 -0.0175,-2.66745 -0.0175,-2.66746 -0.17431,-0.22845 c -0.34763,-0.45563 -0.26571,-0.44376 -3.21639,-0.46612 -1.45427,-0.011 -2.7897,-0.002 -2.96762,0.0196 -0.37292,0.0457 -0.67071,0.22467 -0.87266,0.52435 l -0.14147,0.20992 v 2.66886 2.66886 l 0.15271,0.15271 c 0.19772,0.19772 0.47114,0.19876 0.69928,0.003 l 0.17456,-0.15005 0.0311,-1.84644 0.0311,-1.84643 0.14687,-0.11882 c 0.21219,-0.17166 0.51422,-0.15361 0.69773,0.0417 l 0.15083,0.16053 0.0322,5.82764 c 0.0177,3.20521 0.0387,5.83375 0.0467,5.84122 0.008,0.007 0.0914,0.0553 0.18554,0.10638 0.25909,0.14056 0.44177,0.11665 0.64249,-0.0841 z m -16.80216,-10.4102 6e-4,-10.46764 0.14647,-0.31453 c 0.1713,-0.36787 0.55982,-0.72418 0.90116,-0.82645 0.34608,-0.10369 21.94443,-0.10369 22.2905,0 0.34135,0.10227 0.72987,0.45858 0.90117,0.82645 l 0.14646,0.31453 6.1e-4,10.46764 c 3.3e-4,5.7572 0.0191,10.46763 0.0418,10.46763 0.0227,0 0.1576,-0.0682 0.29988,-0.1516 0.26341,-0.15437 0.53251,-0.48562 0.65088,-0.80122 0.0454,-0.12099 0.0657,-4.39253 0.0657,-13.81502 v -13.63987 l -0.16115,-0.32339 c -0.0886,-0.17786 -0.26204,-0.40655 -0.38536,-0.5082 -0.48679,-0.40125 0.40542,-0.37493 -12.70523,-0.37493 -13.11065,0 -12.21844,-0.0263 -12.70524,0.37493 -0.12331,0.10165 -0.29672,0.33034 -0.38536,0.5082 l -0.16115,0.32339 v 13.63987 c 0,9.42249 0.0203,13.69403 0.0657,13.81502 0.11692,0.31172 0.38429,0.64331 0.64448,0.79928 0.13979,0.0838 0.27516,0.15263 0.30082,0.15295 0.0257,3.3e-4 0.0469,-4.70984 0.0473,-10.46704 z m 6.17077,-12.96184 c -0.17786,-0.0886 -0.4083,-0.26361 -0.51207,-0.38884 -0.33156,-0.40011 -0.3822,-0.71447 -0.35985,-2.23391 0.0225,-1.53021 0.0519,-1.64373 0.54051,-2.08514 0.47869,-0.43246 0.27788,-0.41922 6.35412,-0.41922 6.07624,0 5.87543,-0.0132 6.35412,0.41922 0.48859,0.44141 0.51801,0.55493 0.54052,2.08514 0.0224,1.51944 -0.0283,1.8338 -0.35985,2.23391 -0.10378,0.12523 -0.33421,0.30021 -0.51207,0.38884 l -0.32339,0.16115 h -5.69933 -5.69932 z m 11.69292,-1.01532 c 0.14452,-0.11692 0.14718,-0.13933 0.166,-1.40105 l 0.0191,-1.28223 -0.18543,-0.18543 -0.18543,-0.18542 h -5.48447 -5.48447 l -0.18543,0.18542 -0.18542,0.18543 0.0191,1.28223 c 0.0188,1.26172 0.0215,1.28413 0.16599,1.40105 0.1421,0.11495 0.32657,0.11882 5.67021,0.11882 5.34364,0 5.52811,-0.004 5.6702,-0.11882 z m -7.97215,-0.42196 c -0.19157,-0.0682 -1.36438,-1.28865 -1.40171,-1.45863 -0.0701,-0.31904 0.17646,-0.60836 0.5212,-0.61163 0.17361,-0.002 0.27967,0.067 0.6377,0.41262 l 0.42945,0.4146 0.42945,-0.4146 c 0.35937,-0.34693 0.46422,-0.4146 0.64242,-0.4146 0.28959,0 0.4835,0.21081 0.4835,0.52566 0,0.2159 -0.0527,0.29157 -0.57549,0.82591 -0.6934,0.70877 -0.87863,0.8232 -1.16652,0.72067 z m 3.14184,-0.0321 c -0.19648,-0.11268 -0.27585,-0.25022 -0.27799,-0.48168 -0.002,-0.19099 0.0721,-0.2887 0.66994,-0.88656 0.90189,-0.90189 0.87666,-0.90184 1.76269,-0.003 0.36265,0.36784 0.67596,0.71701 0.69623,0.77593 0.0619,0.17988 -0.0839,0.48155 -0.2824,0.58419 -0.27109,0.14019 -0.44941,0.068 -0.89955,-0.36427 l -0.39736,-0.38156 -0.35581,0.34681 c -0.49709,0.48451 -0.65944,0.55724 -0.91575,0.41025 z"
         id="path14" /></g></g></svg>
