<?xml version="1.0" encoding="UTF-8" standalone="no"?>
<!-- Created with Inkscape (http://www.inkscape.org/) -->

<svg
   width="58.071205mm"
   height="58.071198mm"
   viewBox="0 0 58.071205 58.071198"
   version="1.1"
   id="svg1"
   xml:space="preserve"
   xmlns="http://www.w3.org/2000/svg"
   xmlns:svg="http://www.w3.org/2000/svg"><defs
     id="defs1"><filter
       style="color-interpolation-filters:sRGB"
       id="filter150"
       x="-0.16486838"
       y="-0.16486842"
       width="1.3297368"
       height="1.3297368"><feFlood
         result="flood"
         in="SourceGraphic"
         flood-opacity="0.498039"
         flood-color="rgb(0,0,0)"
         id="feFlood148" /><feGaussianBlur
         result="blur"
         in="SourceGraphic"
         stdDeviation="3.000000"
         id="feGaussianBlur148" /><feOffset
         result="offset"
         in="blur"
         dx="0.000000"
         dy="0.000000"
         id="feOffset148" /><feComposite
         result="comp1"
         operator="in"
         in="flood"
         in2="offset"
         id="feComposite149" /><feComposite
         result="comp2"
         operator="over"
         in="SourceGraphic"
         in2="comp1"
         id="feComposite150" /></filter><filter
       style="color-interpolation-filters:sRGB"
       id="filter164"
       x="-0.16486838"
       y="-0.16486842"
       width="1.3297368"
       height="1.3297368"><feFlood
         result="flood"
         in="SourceGraphic"
         flood-opacity="0.498039"
         flood-color="rgb(0,0,0)"
         id="feFlood162" /><feGaussianBlur
         result="blur"
         in="SourceGraphic"
         stdDeviation="3.000000"
         id="feGaussianBlur162" /><feOffset
         result="offset"
         in="blur"
         dx="0.000000"
         dy="0.000000"
         id="feOffset162" /><feComposite
         result="comp1"
         operator="in"
         in="flood"
         in2="offset"
         id="feComposite163" /><feComposite
         result="comp2"
         operator="over"
         in="SourceGraphic"
         in2="comp1"
         id="feComposite164" /></filter><filter
       style="color-interpolation-filters:sRGB"
       id="filter841"
       x="-0.1087691"
       y="-0.10887033"
       width="1.2175382"
       height="1.2177407"><feFlood
         result="flood"
         in="SourceGraphic"
         flood-opacity="0.541176"
         flood-color="rgb(0,175,231)"
         id="feFlood839" /><feGaussianBlur
         result="blur"
         in="SourceGraphic"
         stdDeviation="1.400000"
         id="feGaussianBlur839" /><feOffset
         result="offset"
         in="blur"
         dx="0.000000"
         dy="0.000000"
         id="feOffset839" /><feComposite
         result="comp1"
         operator="in"
         in="flood"
         in2="offset"
         id="feComposite840" /><feComposite
         result="comp2"
         operator="over"
         in="SourceGraphic"
         in2="comp1"
         id="feComposite841" /></filter><filter
       style="color-interpolation-filters:sRGB"
       id="filter855"
       x="-0.11470411"
       y="-0.11470395"
       width="1.2294082"
       height="1.2294079"><feFlood
         result="flood"
         in="SourceGraphic"
         flood-opacity="0.541176"
         flood-color="rgb(0,175,231)"
         id="feFlood853" /><feGaussianBlur
         result="blur"
         in="SourceGraphic"
         stdDeviation="1.400000"
         id="feGaussianBlur853" /><feOffset
         result="offset"
         in="blur"
         dx="0.000000"
         dy="0.000000"
         id="feOffset853" /><feComposite
         result="comp1"
         operator="in"
         in="flood"
         in2="offset"
         id="feComposite854" /><feComposite
         result="comp2"
         operator="over"
         in="SourceGraphic"
         in2="comp1"
         id="feComposite855" /></filter></defs><g
     id="layer1"
     transform="translate(-112.35602,-97.54537)"><g
       id="g27"
       transform="translate(272.15338,-43.053909)"
       style="filter:url(#filter150)"><path
         id="rect2-8"
         style="fill:#032055;stroke-width:1.288"
         d="m -130.76176,147.79928 c 12.09692,0 21.8356,9.73867 21.8356,21.83559 0,12.09693 -9.73868,21.8356 -21.8356,21.8356 -12.09692,0 -21.8356,-9.73867 -21.8356,-21.8356 0,-12.09692 9.73868,-21.83559 21.8356,-21.83559 z" /><path
         style="fill:#bddaff;fill-opacity:1;filter:url(#filter841)"
         d="m -141.51033,185.03336 c -0.0849,-0.0277 -0.22076,-0.0851 -0.30182,-0.12754 -0.32561,-0.1703 -3.98917,-2.92106 -4.10269,-3.08049 -0.28491,-0.40011 -0.37163,-0.96095 -0.21599,-1.39673 0.0435,-0.12187 0.53646,-0.96212 1.0954,-1.86722 0.55895,-0.90511 1.07683,-1.81248 1.15084,-2.01638 0.074,-0.2039 0.16467,-0.59963 0.20146,-0.87938 0.15723,-1.1956 0.19991,-1.45988 0.37462,-2.3196 0.20987,-1.03271 0.20628,-1.26609 -0.0347,-2.25804 -0.40929,-1.68489 -0.34709,-3.44476 0.18214,-5.15318 0.2104,-0.67922 0.85447,-1.96473 1.27597,-2.54676 0.23192,-0.32024 0.44726,-0.54186 0.64519,-0.66401 0.26329,-0.16249 0.34915,-0.18319 0.75456,-0.18195 0.53849,0.002 0.82591,0.12566 1.16748,0.50374 0.2096,0.232 0.40675,0.71863 0.40675,1.00399 0,0.28472 -0.19332,0.74561 -0.47367,1.12924 -0.49131,0.67231 -0.9356,1.69211 -1.05967,2.43229 l -0.0405,0.24146 0.13038,-0.21128 c 0.47151,-0.76407 1.21039,-1.80891 1.64351,-2.32405 0.64089,-0.76225 1.65435,-1.73756 1.9887,-1.91384 0.33482,-0.17654 0.99893,-0.18897 1.31239,-0.0246 0.72298,0.37916 1.06099,1.16742 0.81638,1.90386 -0.0866,0.26059 -0.21894,0.42874 -0.7788,0.98919 -0.56378,0.56436 -1.19111,1.27265 -1.60905,1.81671 -0.0628,0.0818 0.008,0.0584 0.24344,-0.0807 1.13587,-0.67054 2.91717,-1.33341 3.57697,-1.33109 1.27729,0.005 1.95106,1.40744 1.18954,2.4769 -0.17906,0.25146 -0.55203,0.45186 -1.17712,0.63248 -0.64317,0.18584 -1.49883,0.55408 -1.95953,0.84331 -0.37252,0.23387 -0.36098,0.24301 0.15091,0.11941 0.81131,-0.1959 2.22122,-0.0742 2.90617,0.25082 0.84615,0.40152 1.12503,1.53297 0.56754,2.30256 -0.3845,0.53079 -1.0409,0.7252 -1.77635,0.52612 -1.33912,-0.36248 -2.54561,0.47017 -2.53703,1.75091 0.01,1.48441 1.74656,2.20885 2.97234,1.23993 0.19609,-0.15501 0.36047,-0.36439 0.5111,-0.65105 0.39373,-0.74927 0.92591,-1.08775 1.61237,-1.02551 1.19383,0.10825 1.72926,1.26867 1.12982,2.44861 -0.66304,1.30514 -1.82423,2.23087 -3.27318,2.60947 -0.36398,0.0951 -0.70595,0.13025 -1.3884,0.14267 -0.49801,0.009 -1.02517,0.05 -1.17147,0.0909 -0.40481,0.11329 -1.2478,0.51861 -1.569,0.75439 -0.15761,0.1157 -0.92277,0.95788 -1.70036,1.87152 -1.56315,1.83664 -1.70667,1.95939 -2.33945,2.00087 -0.18854,0.0124 -0.41229,-2.4e-4 -0.49723,-0.028 z m 0.65794,-1.06921 c 0.0759,-0.0532 0.76359,-0.82842 1.52822,-1.72281 1.54718,-1.80973 1.78637,-2.01991 2.80917,-2.46848 0.87481,-0.38366 1.08504,-0.42787 2.13127,-0.44816 1.08649,-0.0211 1.4966,-0.10802 2.17741,-0.4616 0.74384,-0.38631 1.34313,-0.99037 1.71288,-1.72651 0.19707,-0.39238 0.19887,-0.64256 0.006,-0.83543 -0.17009,-0.1701 -0.4248,-0.19313 -0.62041,-0.0561 -0.0723,0.0506 -0.21727,0.25312 -0.3222,0.44998 -0.53636,1.00631 -1.47842,1.57074 -2.62167,1.57074 -1.15358,0 -2.06366,-0.57675 -2.54716,-1.61424 -0.70976,-1.52297 0.23624,-3.40043 1.94351,-3.85716 0.40164,-0.10745 1.14753,-0.10365 1.51462,0.008 0.42303,0.12833 0.61034,0.11468 0.78199,-0.057 0.19333,-0.19333 0.19234,-0.45409 -0.003,-0.68578 -0.20054,-0.23833 -0.81128,-0.39028 -1.56158,-0.38853 -0.97342,0.002 -1.84536,0.3296 -2.62401,0.98503 -0.32081,0.27005 -0.4719,0.35818 -0.61405,0.35818 -0.44098,0 -0.58202,-0.26888 -0.44627,-0.85078 0.26654,-1.14256 1.30794,-2.18545 2.86136,-2.86548 0.31541,-0.13807 0.76362,-0.31088 0.99603,-0.38402 0.8787,-0.27652 0.94291,-0.30898 1.03175,-0.52161 0.0931,-0.22282 0.066,-0.35262 -0.11561,-0.55441 -0.17627,-0.19583 -0.43654,-0.17355 -1.27726,0.10932 -2.14526,0.72182 -3.45519,1.70297 -4.19702,3.14361 -0.16477,0.31998 -0.34293,0.59841 -0.3959,0.61874 -0.34535,0.13253 -0.75086,-0.0989 -0.75003,-0.42812 6.7e-4,-0.26894 0.2181,-1.10357 0.42278,-1.6229 0.52351,-1.32832 1.62682,-2.85875 3.02317,-4.19354 0.40576,-0.38786 0.47735,-0.48589 0.47735,-0.65357 0,-0.24299 -0.28087,-0.55017 -0.50304,-0.55017 -0.20756,0 -0.63646,0.3545 -1.32334,1.09378 -1.49337,1.60731 -2.38033,3.02551 -2.85764,4.56924 -0.23685,0.76605 -0.34507,0.91677 -0.65828,0.91677 -0.46129,0 -0.62195,-0.4246 -0.6738,-1.78077 -0.0627,-1.63953 0.32355,-3.00386 1.22527,-4.32812 0.18454,-0.27102 0.33441,-0.55928 0.33693,-0.64808 0.0106,-0.37268 -0.33972,-0.62659 -0.67365,-0.48827 -0.35911,0.14875 -1.18229,1.58064 -1.53724,2.67397 -0.47707,1.4695 -0.51826,3.11043 -0.11776,4.692 0.22345,0.88243 0.22434,1.64069 0.003,2.64497 -0.0901,0.40892 -0.21809,1.17221 -0.28443,1.69621 -0.19627,1.55002 -0.23481,1.64303 -1.58935,3.83507 -0.64826,1.04908 -1.00516,1.68436 -1.00516,1.78917 0,0.0894 0.0475,0.21758 0.10564,0.28488 0.0992,0.11492 3.48171,2.63247 3.7324,2.77797 0.16427,0.0953 0.33863,0.0864 0.49863,-0.0257 z m 19.49921,-7.2473 c -0.31264,-0.0536 -0.79499,-0.40109 -0.98557,-0.71004 -0.16724,-0.27112 -0.18326,-0.34293 -0.18326,-0.82145 V 174.661 l 0.37692,-0.55689 c 0.56338,-0.83239 0.94002,-1.69754 1.06587,-2.44831 l 0.0405,-0.24146 -0.13038,0.21127 c -0.47309,0.76664 -1.21066,1.80908 -1.64436,2.32406 -0.66283,0.78704 -1.64169,1.73172 -1.97775,1.90869 -0.36349,0.19141 -1.00491,0.19681 -1.35268,0.0114 -0.7039,-0.3753 -1.02803,-1.15744 -0.78405,-1.89198 0.0876,-0.26363 0.20557,-0.41752 0.66594,-0.86846 0.61499,-0.60238 1.10462,-1.14469 1.5219,-1.68566 l 0.27219,-0.35287 -0.32489,0.19213 c -1.12492,0.66523 -2.91169,1.32953 -3.56984,1.32722 -1.23298,-0.004 -1.92455,-1.31325 -1.25319,-2.37187 0.21608,-0.34072 0.5458,-0.53671 1.24077,-0.73752 0.64317,-0.18583 1.49883,-0.55408 1.95953,-0.84331 0.37252,-0.23387 0.36097,-0.24301 -0.15091,-0.11941 -0.80245,0.19376 -2.22104,0.0743 -2.89058,-0.24342 -0.49425,-0.23453 -0.88268,-0.84774 -0.87899,-1.38764 0.007,-1.09318 0.95021,-1.75215 2.07221,-1.44844 1.02711,0.27803 1.99684,-0.13634 2.40236,-1.02652 0.19889,-0.43659 0.18808,-1.03756 -0.0262,-1.4542 -0.30363,-0.5905 -0.86497,-0.93772 -1.52212,-0.94151 -0.78738,-0.005 -1.42422,0.36934 -1.77744,1.04352 -0.35908,0.68538 -0.76249,1.00137 -1.35599,1.06216 -0.6312,0.0647 -1.19912,-0.24591 -1.49884,-0.81963 -0.31308,-0.59932 -0.21025,-1.20832 0.35037,-2.07495 0.52459,-0.81093 1.20704,-1.40849 2.0821,-1.82308 0.73511,-0.34829 1.28333,-0.46197 2.3187,-0.48082 0.49801,-0.009 1.02517,-0.05 1.17147,-0.0909 0.39126,-0.10949 1.23084,-0.50968 1.55174,-0.73963 0.15378,-0.1102 0.8706,-0.89305 1.59293,-1.73967 1.51297,-1.77331 1.57583,-1.83983 1.90066,-2.01141 0.36565,-0.19314 0.99798,-0.18241 1.359,0.0231 0.47363,0.26956 3.97372,2.89081 4.10362,3.07323 0.28751,0.40378 0.3748,0.96301 0.21859,1.40039 -0.0435,0.12187 -0.53646,0.96212 -1.09541,1.86722 -0.55895,0.90511 -1.07849,1.81706 -1.15453,2.02657 -0.0787,0.21674 -0.19206,0.79091 -0.26306,1.33212 -0.0686,0.52316 -0.20739,1.35866 -0.30835,1.85667 -0.20914,1.03165 -0.20582,1.26405 0.0324,2.26369 0.52307,2.1951 0.26568,4.49979 -0.72223,6.46684 -0.28325,0.56399 -0.77563,1.34599 -1.01558,1.61295 -0.28389,0.31586 -0.96878,0.53193 -1.43357,0.45226 z m 0.51362,-1.04383 c 0.31456,-0.1196 1.13027,-1.54375 1.47669,-2.57817 0.3218,-0.96088 0.40098,-1.49851 0.39863,-2.70672 -0.002,-1.02447 -0.0138,-1.13487 -0.20658,-1.93168 -0.25142,-1.03923 -0.27201,-1.80476 -0.0709,-2.63523 0.0696,-0.28735 0.18166,-0.92571 0.24902,-1.41858 0.1924,-1.40758 0.24024,-1.64853 0.41727,-2.10136 0.0913,-0.23354 0.63282,-1.18433 1.2034,-2.11286 0.66286,-1.07873 1.0374,-1.74649 1.0374,-1.84954 0,-0.0887 -0.0475,-0.21658 -0.10564,-0.28416 -0.16041,-0.18658 -3.64105,-2.73968 -3.83461,-2.81273 -0.1309,-0.0494 -0.20624,-0.0432 -0.33288,0.0275 -0.09,0.0503 -0.80573,0.84032 -1.59045,1.7557 -1.57948,1.84247 -1.80465,2.03878 -2.85916,2.49264 -0.83916,0.36117 -1.05218,0.4046 -2.08259,0.4246 -1.09505,0.0213 -1.49524,0.10746 -2.20332,0.47471 -0.84967,0.44068 -1.75531,1.49443 -1.82639,2.12509 -0.025,0.22169 -0.006,0.28427 0.12609,0.4164 0.29904,0.29904 0.66282,0.17134 0.91185,-0.3201 0.52343,-1.03295 1.50542,-1.63717 2.66074,-1.63717 1.40505,0 2.50256,0.90982 2.75865,2.28688 0.24897,1.33877 -0.74306,2.80868 -2.14803,3.18278 -0.4093,0.10899 -1.15323,0.10607 -1.52257,-0.006 -0.42302,-0.12832 -0.61034,-0.11468 -0.78199,0.057 -0.31299,0.31299 -0.0866,0.79243 0.44127,0.93458 1.35704,0.36541 2.69258,0.0547 3.79875,-0.88365 0.27836,-0.23613 0.42591,-0.31982 0.56389,-0.31982 0.44812,0 0.59952,0.28226 0.45467,0.84766 -0.15727,0.6139 -0.43332,1.06512 -0.99774,1.63088 -0.74794,0.74971 -1.65526,1.24663 -3.09011,1.69241 -0.33446,0.10391 -0.65939,0.24019 -0.72205,0.30285 -0.15954,0.15955 -0.15061,0.51985 0.0173,0.6986 0.18764,0.19974 0.44099,0.17897 1.28625,-0.10543 1.38396,-0.46566 2.50794,-1.09786 3.24753,-1.82661 0.45293,-0.44629 0.66866,-0.75029 0.99819,-1.40664 0.13539,-0.26968 0.29057,-0.50737 0.34484,-0.5282 0.2154,-0.0827 0.45863,-0.0357 0.61256,0.11822 0.1394,0.1394 0.15246,0.18939 0.12221,0.46783 -0.0541,0.49779 -0.32842,1.3493 -0.64501,2.00197 -0.55332,1.1407 -1.3737,2.24231 -2.55069,3.4251 -0.59499,0.59791 -0.70998,0.74326 -0.70998,0.89742 0,0.22955 0.28795,0.53686 0.50304,0.53686 0.20726,0 0.63673,-0.35464 1.32517,-1.09427 1.48302,-1.59327 2.37902,-3.02672 2.85581,-4.56875 0.23685,-0.76605 0.34507,-0.91677 0.65828,-0.91677 0.46434,0 0.62284,0.4253 0.67488,1.81095 0.0609,1.62248 -0.32323,2.97162 -1.22207,4.29165 -0.42393,0.62259 -0.4389,0.92268 -0.0565,1.13186 0.1508,0.0825 0.22444,0.0847 0.4148,0.0123 z"
         id="path20" /></g><g
       id="g26"
       transform="translate(125.03727,-54.02887)"
       style="filter:url(#filter164)"><path
         id="rect2-2"
         style="fill:#032055;stroke-width:1.288"
         d="m -35.11251,202.13105 c 12.096923,0 21.835603,9.73867 21.835603,21.83559 0,12.09693 -9.73868,21.8356 -21.835603,21.8356 -12.096921,0 -21.835598,-9.73867 -21.835598,-21.8356 0,-12.09692 9.738677,-21.83559 21.835598,-21.83559 z" /><path
         style="fill:#bddaff;fill-opacity:1;filter:url(#filter855)"
         d="m -49.618458,238.47247 -0.14043,-0.14043 v -11.2671 c 0,-10.92326 0.003,-11.27114 0.10706,-11.39931 0.14875,-0.18371 0.49532,-0.18371 0.64408,0 0.10224,0.12627 0.10705,0.3066 0.10705,4.01654 v 3.88435 l 6.67955,-0.0145 6.67954,-0.0145 0.0146,-6.67954 0.0145,-6.67955 h -6.69409 -6.69409 v 1.93751 c 0,1.87349 -0.004,1.94248 -0.11858,2.08825 -0.16398,0.20847 -0.45704,0.20847 -0.62103,0 -0.11535,-0.14664 -0.11858,-0.21139 -0.11858,-2.37692 v -2.22617 l 0.14043,-0.14043 0.14043,-0.14043 h 14.36552 14.36551 l 0.14043,0.14043 0.140431,0.14043 v 7.23226 c 0,7.22654 -9e-5,7.23237 -0.118401,7.38277 l -0.1184,0.15052 -6.99024,0.0145 -6.99024,0.0145 -0.0286,4.42428 c -0.0278,4.29613 -0.0318,4.42664 -0.13966,4.50548 -0.15127,0.11059 -0.39447,0.10209 -0.54111,-0.0189 l -0.12132,-0.10012 -0.0137,-4.40536 -0.0138,-4.40535 -6.67954,-0.0145 -6.67955,-0.0145 v 6.69409 6.69409 h 6.69385 6.69385 v -1.47866 c 0,-1.6575 0.003,-1.66803 0.41043,-1.66803 0.3913,0 0.39054,-0.004 0.39054,1.98849 v 1.77923 l -0.15074,0.11857 c -0.1507,0.11854 -0.15296,0.11858 -7.383,0.11858 h -7.23226 z m 28.29414,-21.60028 v -6.69385 h -6.69386 -6.69385 v 6.65571 c 0,3.66064 0.0172,6.67287 0.0382,6.69385 0.021,0.021 3.03321,0.0381 6.69385,0.0381 h 6.65571 z m -11.16316,5.41412 c -0.34186,-0.12334 -0.59879,-0.30922 -0.75616,-0.54702 -0.40833,-0.61703 -0.31598,-1.41433 0.21814,-1.88329 0.40813,-0.35834 0.34815,-0.35203 3.351,-0.35203 h 2.73506 l 0.11857,0.15074 c 0.14959,0.19017 0.14959,0.30932 0,0.49949 l -0.11857,0.15074 -2.5275,3.2e-4 c -1.50855,1.9e-4 -2.61053,0.0234 -2.73347,0.0575 -0.2698,0.0749 -0.39738,0.22383 -0.43553,0.50823 -0.0279,0.20822 -0.0106,0.25213 0.17076,0.43352 l 0.20184,0.20185 h 4.20711 c 2.53524,0 4.26424,-0.0217 4.35087,-0.0546 0.19633,-0.0747 0.33283,-0.30114 0.33283,-0.55225 0,-0.15762 -0.0438,-0.2528 -0.17794,-0.38698 l -0.17795,-0.17795 -0.82669,-0.0291 c -0.74045,-0.0261 -0.83568,-0.0411 -0.91299,-0.14355 -0.1215,-0.16108 -0.11024,-0.38573 0.0267,-0.53273 0.11024,-0.11833 0.1645,-0.12514 0.98692,-0.12395 0.97671,0.001 1.17378,0.0536 1.5238,0.40363 0.37272,0.37271 0.50241,0.94408 0.33849,1.49122 -0.086,0.28697 -0.39805,0.64883 -0.69782,0.80914 l -0.237,0.12675 -4.37675,0.0125 c -3.48154,0.01 -4.41908,-0.003 -4.58373,-0.0622 z m 0,-4.06208 c -0.34186,-0.12335 -0.59879,-0.30922 -0.75616,-0.54702 -0.40833,-0.61703 -0.31598,-1.41433 0.21814,-1.88329 0.42024,-0.36898 0.17922,-0.35216 5.02861,-0.35077 4.92642,0.001 4.64127,-0.0213 5.06622,0.40362 0.37272,0.37272 0.50241,0.94409 0.33849,1.49122 -0.086,0.28697 -0.39805,0.64883 -0.69782,0.80915 l -0.237,0.12675 -4.37675,0.0125 c -3.48154,0.01 -4.41908,-0.003 -4.58373,-0.0622 z m 8.78212,-0.83457 c 0.19633,-0.0747 0.33283,-0.30114 0.33283,-0.55225 0,-0.15774 -0.0438,-0.25282 -0.17843,-0.38749 l -0.17844,-0.17846 -4.0467,-0.0172 c -2.22568,-0.009 -4.1566,-10e-4 -4.29092,0.018 -0.33539,0.0483 -0.52731,0.22649 -0.56761,0.52696 -0.0295,0.21985 -0.0143,0.25953 0.16945,0.4433 l 0.20184,0.20184 h 4.20711 c 2.53524,0 4.26424,-0.0217 4.35087,-0.0546 z m -8.78212,-3.22751 c -0.34186,-0.12335 -0.59879,-0.30922 -0.75616,-0.54702 -0.40833,-0.61703 -0.31598,-1.41433 0.21814,-1.88329 0.42024,-0.36898 0.17922,-0.35216 5.02861,-0.35078 4.92642,0.001 4.64127,-0.0213 5.06622,0.40363 0.37272,0.37272 0.50241,0.94409 0.33849,1.49122 -0.086,0.28697 -0.39805,0.64883 -0.69782,0.80915 l -0.237,0.12675 -4.37675,0.0125 c -3.48154,0.01 -4.41908,-0.003 -4.58373,-0.0622 z m 8.78212,-0.83458 c 0.19633,-0.0746 0.33283,-0.30113 0.33283,-0.55224 0,-0.15774 -0.0438,-0.25282 -0.17843,-0.38749 l -0.17844,-0.17846 -4.0467,-0.0172 c -2.22568,-0.009 -4.1566,-0.001 -4.29092,0.018 -0.33539,0.0483 -0.52731,0.22649 -0.56761,0.52696 -0.0295,0.21985 -0.0143,0.25953 0.16945,0.4433 l 0.20184,0.20184 h 4.20711 c 2.53524,0 4.26424,-0.0217 4.35087,-0.0547 z m -23.16557,23.11864 c -0.29378,-0.13346 -0.5878,-0.42748 -0.72126,-0.72127 -0.0983,-0.21641 -0.10461,-0.49291 -0.10579,-4.64279 -10e-4,-4.84939 -0.0182,-4.60837 0.35078,-5.0286 0.28518,-0.32481 0.58191,-0.45299 1.04966,-0.45347 0.607,-6.1e-4 1.05628,0.27297 1.31951,0.80351 0.10674,0.21513 0.1108,0.38693 0.1108,4.68589 v 4.46257 l -0.12535,0.23426 c -0.14922,0.27887 -0.45846,0.56281 -0.74195,0.68126 -0.28352,0.11846 -0.85213,0.10778 -1.1364,-0.0214 z m 1.02902,-0.92386 c 0.11484,-0.11483 0.11672,-0.17763 0.13187,-4.4105 l 0.0154,-4.29401 -0.20291,-0.20291 c -0.1849,-0.1849 -0.22433,-0.20003 -0.44437,-0.17052 -0.30047,0.0403 -0.47864,0.23222 -0.52696,0.56761 -0.0194,0.13432 -0.0274,2.06404 -0.018,4.28827 l 0.0172,4.04404 0.16522,0.17242 c 0.0909,0.0948 0.21959,0.18121 0.28606,0.19195 0.18229,0.0295 0.44582,-0.0557 0.57647,-0.18635 z m 3.03306,0.92386 c -0.29378,-0.13346 -0.5878,-0.42748 -0.72126,-0.72127 -0.0983,-0.21641 -0.10461,-0.49291 -0.10579,-4.64279 -0.001,-4.84939 -0.0182,-4.60837 0.35078,-5.0286 0.28518,-0.32481 0.58191,-0.45299 1.04966,-0.45347 0.607,-6.1e-4 1.05628,0.27297 1.31951,0.80351 0.10674,0.21513 0.1108,0.38693 0.1108,4.68589 v 4.46257 l -0.12535,0.23426 c -0.14922,0.27887 -0.45846,0.56281 -0.74195,0.68126 -0.28352,0.11846 -0.85213,0.10778 -1.1364,-0.0214 z m 1.02902,-0.92386 c 0.11484,-0.11483 0.11672,-0.17763 0.13187,-4.4105 l 0.0154,-4.29401 -0.20291,-0.20291 c -0.1849,-0.1849 -0.22433,-0.20003 -0.44437,-0.17052 -0.30047,0.0403 -0.47864,0.23222 -0.52696,0.56761 -0.0194,0.13432 -0.0274,2.06404 -0.018,4.28827 l 0.0172,4.04404 0.16522,0.17242 c 0.0909,0.0948 0.21959,0.18121 0.28606,0.19195 0.18229,0.0295 0.44582,-0.0557 0.57647,-0.18635 z m 3.03306,0.92386 c -0.29378,-0.13346 -0.5878,-0.42748 -0.72126,-0.72127 -0.0983,-0.21641 -0.10461,-0.49291 -0.10579,-4.64279 -10e-4,-4.84939 -0.0182,-4.60837 0.35078,-5.0286 0.28518,-0.32481 0.58191,-0.45299 1.04966,-0.45347 0.607,-6.1e-4 1.05628,0.27297 1.31951,0.80351 0.10674,0.21513 0.1108,0.38693 0.1108,4.68589 v 4.46257 l -0.12535,0.23426 c -0.14922,0.27887 -0.45846,0.56281 -0.74195,0.68126 -0.28352,0.11846 -0.85213,0.10778 -1.1364,-0.0214 z m 1.02902,-0.92386 c 0.11484,-0.11483 0.11672,-0.17763 0.13187,-4.4105 l 0.0154,-4.29401 -0.20291,-0.20291 c -0.1849,-0.1849 -0.22433,-0.20003 -0.44437,-0.17052 -0.30047,0.0403 -0.47864,0.23222 -0.52696,0.56761 -0.0194,0.13432 -0.0274,2.06404 -0.018,4.28827 l 0.0172,4.04404 0.16522,0.17242 c 0.0909,0.0948 0.21959,0.18121 0.28606,0.19195 0.18229,0.0295 0.44582,-0.0557 0.57647,-0.18635 z m -8.95204,-13.20782 c -0.43154,-0.14152 -0.77888,-0.45406 -0.94815,-0.85318 -0.14837,-0.34984 -0.0918,-0.95919 0.12113,-1.30351 0.25458,-0.41176 0.6201,-0.61867 1.13649,-0.6433 0.46539,-0.0222 0.71677,0.0606 1.03664,0.34146 0.3248,0.28518 0.45299,0.58191 0.45346,1.04966 6.1e-4,0.60561 -0.2788,1.06569 -0.79634,1.31128 -0.2438,0.11569 -0.78693,0.16852 -1.00323,0.0976 z m 0.77846,-1.00265 c 0.38864,-0.38865 0.14301,-0.96118 -0.41238,-0.96118 -0.29118,0 -0.54879,0.25761 -0.54879,0.54879 0,0.55686 0.5715,0.80205 0.96117,0.41239 z m 2.99016,0.89327 c -0.51444,-0.26725 -0.84138,-0.88145 -0.77382,-1.45374 0.0383,-0.32485 0.16197,-0.58257 0.40181,-0.83767 0.88796,-0.94443 2.49814,-0.30957 2.49608,0.98415 -0.002,1.11755 -1.14037,1.81829 -2.12407,1.30726 z m 1.09921,-0.86599 c 0.29599,-0.29598 0.20047,-0.82105 -0.17788,-0.97776 -0.3415,-0.14146 -0.74113,0.0587 -0.8297,0.41554 -0.14531,0.58547 0.57976,0.99004 1.00758,0.56222 z m 2.96287,0.86599 c -0.51444,-0.26725 -0.84138,-0.88145 -0.77382,-1.45374 0.0383,-0.32485 0.16197,-0.58257 0.40181,-0.83767 0.88796,-0.94443 2.49814,-0.30957 2.49608,0.98415 -0.002,1.11755 -1.14037,1.81829 -2.12407,1.30726 z m 1.09921,-0.86599 c 0.29599,-0.29598 0.20047,-0.82105 -0.17788,-0.97776 -0.3415,-0.14146 -0.74113,0.0587 -0.8297,0.41554 -0.14531,0.58547 0.57976,0.99004 1.00758,0.56222 z m -8.92991,-3.08671 c -0.28059,-0.092 -0.50005,-0.23301 -0.6778,-0.43546 -0.28046,-0.31942 -0.36325,-0.57097 -0.34107,-1.03619 0.0375,-0.7864 0.54194,-1.29083 1.32834,-1.32834 0.46539,-0.0222 0.71677,0.0606 1.03664,0.34146 0.3248,0.28518 0.45299,0.58191 0.45346,1.04966 6.1e-4,0.60561 -0.2788,1.06569 -0.79634,1.31128 -0.2438,0.11569 -0.78693,0.16852 -1.00323,0.0976 z m 0.77846,-1.00266 c 0.38864,-0.38864 0.14301,-0.96117 -0.41238,-0.96117 -0.29118,0 -0.54879,0.25761 -0.54879,0.54879 0,0.55686 0.5715,0.80205 0.96117,0.41238 z m 2.99016,0.89327 c -0.51444,-0.26724 -0.84138,-0.88145 -0.77382,-1.45373 0.0383,-0.32485 0.16197,-0.58257 0.40181,-0.83767 0.88796,-0.94444 2.49814,-0.30957 2.49608,0.98415 -0.002,1.11755 -1.14037,1.81829 -2.12407,1.30725 z m 1.09921,-0.86598 c 0.29599,-0.29599 0.20047,-0.82106 -0.17788,-0.97777 -0.3415,-0.14146 -0.74113,0.0587 -0.8297,0.41555 -0.14531,0.58547 0.57976,0.99004 1.00758,0.56222 z m 2.96287,0.86598 c -0.51444,-0.26724 -0.84138,-0.88145 -0.77382,-1.45373 0.0383,-0.32485 0.16197,-0.58257 0.40181,-0.83767 0.88796,-0.94444 2.49814,-0.30957 2.49608,0.98415 -0.002,1.11755 -1.14037,1.81829 -2.12407,1.30725 z m 1.09921,-0.86598 c 0.29599,-0.29599 0.20047,-0.82106 -0.17788,-0.97777 -0.3415,-0.14146 -0.74113,0.0587 -0.8297,0.41555 -0.14531,0.58547 0.57976,0.99004 1.00758,0.56222 z m -8.92991,-3.08671 c -0.28059,-0.092 -0.50005,-0.23301 -0.6778,-0.43546 -0.28046,-0.31942 -0.36325,-0.57097 -0.34107,-1.03619 0.0375,-0.7864 0.54194,-1.29083 1.32834,-1.32834 0.46539,-0.0222 0.71677,0.0606 1.03664,0.34146 0.3248,0.28518 0.45299,0.58191 0.45346,1.04966 6.1e-4,0.60561 -0.2788,1.06569 -0.79634,1.31128 -0.2438,0.11569 -0.78693,0.16852 -1.00323,0.0976 z m 0.77846,-1.00266 c 0.38864,-0.38864 0.14301,-0.96117 -0.41238,-0.96117 -0.29118,0 -0.54879,0.25761 -0.54879,0.54879 0,0.55686 0.5715,0.80205 0.96117,0.41238 z m 2.99016,0.89327 c -0.51444,-0.26725 -0.84138,-0.88145 -0.77382,-1.45373 0.0383,-0.32485 0.16197,-0.58258 0.40181,-0.83767 0.88796,-0.94444 2.49814,-0.30957 2.49608,0.98415 -0.002,1.11755 -1.14037,1.81829 -2.12407,1.30725 z m 1.09921,-0.86598 c 0.29599,-0.29599 0.20047,-0.82106 -0.17788,-0.97777 -0.3415,-0.14146 -0.74113,0.0587 -0.8297,0.41555 -0.14531,0.58546 0.57976,0.99004 1.00758,0.56222 z m 2.96287,0.86598 c -0.51444,-0.26725 -0.84138,-0.88145 -0.77382,-1.45373 0.0383,-0.32485 0.16197,-0.58258 0.40181,-0.83767 0.88796,-0.94444 2.49814,-0.30957 2.49608,0.98415 -0.002,1.11755 -1.14037,1.81829 -2.12407,1.30725 z m 1.09921,-0.86598 c 0.29599,-0.29599 0.20047,-0.82106 -0.17788,-0.97777 -0.3415,-0.14146 -0.74113,0.0587 -0.8297,0.41555 -0.14531,0.58546 0.57976,0.99004 1.00758,0.56222 z"
         id="path13" /></g></g></svg>
