<?xml version="1.0" encoding="UTF-8" standalone="no"?>
<!-- Created with Inkscape (http://www.inkscape.org/) -->

<svg
   width="58.071198mm"
   height="58.071198mm"
   viewBox="0 0 58.071198 58.071198"
   version="1.1"
   id="svg1"
   xml:space="preserve"
   xmlns="http://www.w3.org/2000/svg"
   xmlns:svg="http://www.w3.org/2000/svg"><defs
     id="defs1"><filter
       style="color-interpolation-filters:sRGB"
       id="filter152"
       x="-0.16486841"
       y="-0.16486842"
       width="1.3297368"
       height="1.3297368"><feFlood
         result="flood"
         in="SourceGraphic"
         flood-opacity="0.498039"
         flood-color="rgb(0,0,0)"
         id="feFlood150" /><feGaussianBlur
         result="blur"
         in="SourceGraphic"
         stdDeviation="3.000000"
         id="feGaussianBlur150" /><feOffset
         result="offset"
         in="blur"
         dx="0.000000"
         dy="0.000000"
         id="feOffset150" /><feComposite
         result="comp1"
         operator="in"
         in="flood"
         in2="offset"
         id="feComposite151" /><feComposite
         result="comp2"
         operator="over"
         in="SourceGraphic"
         in2="comp1"
         id="feComposite152" /></filter><filter
       style="color-interpolation-filters:sRGB"
       id="filter843"
       x="-0.11217181"
       y="-0.11217166"
       width="1.2243436"
       height="1.2243433"><feFlood
         result="flood"
         in="SourceGraphic"
         flood-opacity="0.541176"
         flood-color="rgb(0,175,231)"
         id="feFlood841" /><feGaussianBlur
         result="blur"
         in="SourceGraphic"
         stdDeviation="1.400000"
         id="feGaussianBlur841" /><feOffset
         result="offset"
         in="blur"
         dx="0.000000"
         dy="0.000000"
         id="feOffset841" /><feComposite
         result="comp1"
         operator="in"
         in="flood"
         in2="offset"
         id="feComposite842" /><feComposite
         result="comp2"
         operator="over"
         in="SourceGraphic"
         in2="comp1"
         id="feComposite843" /></filter></defs><g
     id="layer1"
     transform="translate(-132.34785,-165.89494)"><g
       id="g23"
       transform="translate(234.42605,61.741311)"
       style="filter:url(#filter152)"><path
         id="rect2-92"
         style="fill:#032055;stroke-width:1.288"
         d="m -73.042591,111.35364 c 12.096922,0 21.835598,9.73867 21.835598,21.83559 0,12.09693 -9.738676,21.8356 -21.835598,21.8356 -12.096924,0 -21.835594,-9.73867 -21.835594,-21.8356 0,-12.09692 9.73867,-21.83559 21.835594,-21.83559 z" /><path
         style="fill:#bddaff;fill-opacity:1;filter:url(#filter843)"
         d="m -87.876013,148.02269 c -0.079,-0.079 -0.1436,-0.21181 -0.1436,-0.29517 0,-0.0834 0.0646,-0.2162 0.1436,-0.29518 l 0.1436,-0.1436 h 4.37118 4.37117 l -0.36253,-0.32808 c -0.39399,-0.35654 -0.78336,-0.87023 -1.02624,-1.35391 l -0.15424,-0.30715 h -3.62201 -3.62202 l -0.12125,-0.15415 c -0.20788,-0.26427 -0.12682,-0.54045 0.19447,-0.6626 0.10392,-0.0395 1.3394,-0.0608 3.52843,-0.0608 h 3.3685 l -0.0376,-0.3596 c -0.0207,-0.19779 -0.0376,-0.48738 -0.0376,-0.64355 v -0.28394 h -3.42514 -3.42515 l -0.1436,-0.1436 c -0.18301,-0.18301 -0.18301,-0.40734 0,-0.59035 l 0.1436,-0.14361 h 3.51838 3.51837 l 0.0343,-0.13163 c 0.0622,-0.23891 0.5328,-1.1308 0.68115,-1.29086 0.17108,-0.18461 0.43044,-0.20796 0.60766,-0.0547 0.17303,0.14962 0.19946,0.31341 0.0842,0.52182 -0.3855,0.69697 -0.50332,0.96093 -0.60315,1.35127 -0.21807,0.85265 -0.1121,1.68356 0.32859,2.57639 1.12402,2.27724 4.13025,2.75967 5.93714,0.95278 1.47055,-1.47054 1.48197,-3.7932 0.0258,-5.24137 -0.72,-0.71605 -1.49546,-1.06678 -2.48528,-1.12409 -0.46293,-0.0268 -0.63969,-0.01 -1.05307,0.10039 -0.78977,0.21081 -0.89704,0.21354 -1.0441,0.0266 -0.26976,-0.34295 -0.0839,-0.60125 0.5942,-0.82604 0.42521,-0.14095 0.56936,-0.15918 1.26948,-0.1606 0.87922,-0.002 1.22936,0.071 1.97979,0.41138 1.19854,0.54368 2.08627,1.5377 2.48837,2.78633 0.0307,0.0953 0.19884,0.10238 2.43347,0.10238 h 2.4005 v -0.72528 -0.72528 l -0.71667,-0.0248 c -0.56234,-0.0195 -0.78908,-0.0532 -1.05288,-0.15641 -0.59091,-0.23128 -1.13358,-0.83545 -1.34516,-1.49763 -0.0309,-0.0968 -0.0733,-0.72799 -0.0943,-1.40259 l -0.038,-1.22654 -3.33473,-1.2147 c -1.8341,-0.66808 -3.50763,-1.28155 -3.71897,-1.36325 l -0.38424,-0.14855 -1.83891,-2.35125 c -1.0114,-1.29319 -1.98425,-2.49774 -2.1619,-2.67679 -0.61133,-0.61615 -1.37457,-1.04137 -2.33707,-1.30206 -0.37941,-0.10277 -0.67044,-0.12322 -2.0943,-0.14716 l -1.65365,-0.0278 -0.11609,-0.14759 c -0.20546,-0.26121 -0.12564,-0.54428 0.18392,-0.65219 0.22796,-0.0795 2.25243,-0.084 3.03471,-0.007 1.14376,0.11289 2.13891,0.49713 3.03363,1.17132 0.59165,0.44582 0.73602,0.61341 2.78539,3.2333 0.92567,1.18338 1.72606,2.17439 1.77865,2.20225 0.0526,0.0279 1.66114,0.62132 3.57457,1.31879 1.91343,0.69747 3.71393,1.35887 4.0011,1.46978 0.84035,0.32454 1.40349,0.68842 2.02959,1.31142 0.49098,0.48856 0.59525,0.63009 0.862,1.17008 0.41389,0.83786 0.48083,1.21538 0.48083,2.71162 v 1.19546 l 0.16088,0.0392 c 0.2857,0.0695 0.58141,0.3084 0.70959,0.57317 0.17075,0.35272 0.17901,1.4697 0.0135,1.82827 -0.12495,0.27073 -0.3172,0.46315 -0.5514,0.55189 -0.10886,0.0412 -1.18179,0.0624 -3.1649,0.0624 h -3.00021 l -0.19101,0.36565 c -0.27201,0.52073 -0.5383,0.86607 -0.97976,1.27058 l -0.38513,0.35291 h 4.86429 4.86429 v -8.39532 -8.39532 h -2.27377 c -2.21172,0 -2.27797,-0.003 -2.42791,-0.12126 l -0.15415,-0.12125 v -5.90041 -5.90041 l 0.15415,-0.12125 c 0.15321,-0.12052 0.18441,-0.12126 5.15101,-0.12126 h 4.99686 l 0.1436,0.1436 c 0.14317,0.14318 0.1436,0.14717 0.1436,1.34944 0,1.433 -0.033,1.54628 -0.45113,1.54827 -0.11877,5.7e-4 -0.23173,-0.0462 -0.30715,-0.12714 -0.10993,-0.11801 -0.11928,-0.20283 -0.11928,-1.08232 v -0.95429 h -4.41705 -4.41705 v 5.26536 5.26536 h 4.41705 4.41705 v -3.25082 c 0,-3.66735 -0.009,-3.59236 0.43878,-3.59236 0.45052,0 0.43878,-0.10384 0.43878,3.8784 0,3.39468 -0.004,3.54241 -0.1118,3.67497 l -0.11179,0.13811 -2.31612,0.0166 -2.31612,0.0166 v 8.39337 8.39338 h 2.28431 2.28432 l 0.1436,0.1436 c 0.18301,0.18301 0.18301,0.40734 0,0.59035 l -0.1436,0.14361 h -14.68982 -14.68982 z m 21.84151,-4.21011 c 0.0123,-0.42475 -0.003,-0.59301 -0.0585,-0.62802 -0.0414,-0.0263 -1.30614,-0.0482 -2.81042,-0.0487 l -2.73506,-9e-4 v 0.37211 c 0,0.20466 -0.0168,0.49451 -0.0373,0.64411 l -0.0373,0.272 2.83085,-0.0152 2.83084,-0.0152 z m -1.01631,-4.11473 c -0.1306,-0.72673 -0.51242,-1.43886 -1.07682,-2.00836 -0.4003,-0.40392 -0.98955,-0.81446 -1.16899,-0.81446 -0.0548,0 -0.0666,0.23879 -0.0496,1.00919 0.0252,1.14535 0.0811,1.33126 0.50847,1.69007 0.32579,0.27352 0.54256,0.33346 1.22408,0.33849 l 0.60232,0.004 z m -9.86105,5.80595 c -1.73265,-0.55486 -1.88574,-3.04871 -0.23466,-3.82279 0.28473,-0.13349 0.40728,-0.15492 0.88621,-0.15492 0.47893,0 0.60148,0.0214 0.88622,0.15492 0.40258,0.18875 0.75197,0.5276 0.96928,0.94004 0.14821,0.28128 0.16289,0.3645 0.16289,0.92343 0,0.55894 -0.0147,0.64215 -0.16289,0.92344 -0.20876,0.39623 -0.54142,0.72736 -0.93206,0.9278 -0.38279,0.19641 -1.13745,0.2482 -1.57499,0.10808 z m 1.35916,-0.99074 c 0.62149,-0.41128 0.61339,-1.53124 -0.0141,-1.94648 -0.24798,-0.16411 -0.66476,-0.23255 -1.01549,-0.16675 -0.25331,0.0475 -0.65834,0.39507 -0.7693,0.66011 -0.10191,0.24345 -0.10092,0.72928 0.002,0.96908 0.28363,0.661 1.16908,0.89952 1.79691,0.48404 z m -11.20907,-9.31788 c -0.48266,-0.009 -0.93346,-0.0289 -1.00179,-0.0448 -0.18547,-0.0432 -0.2892,-0.3357 -0.19754,-0.55698 0.04,-0.0965 0.0761,-0.18161 0.0802,-0.18907 0.004,-0.007 1.72198,-0.0272 3.81744,-0.0439 l 3.80991,-0.0303 -1.42862,-1.87213 c -0.78573,-1.02967 -1.5261,-1.97246 -1.64526,-2.09509 -0.11916,-0.12263 -0.41261,-0.32008 -0.65211,-0.43878 l -0.43546,-0.21582 -1.64143,-0.031 c -0.90279,-0.017 -1.68824,-0.053 -1.74544,-0.08 -0.23612,-0.11135 -0.28067,-0.40757 -0.0965,-0.64169 l 0.12125,-0.15415 h 1.59232 c 1.75094,0 1.98966,0.032 2.65669,0.35661 0.67925,0.33052 0.83734,0.51626 4.09394,4.80983 0.37017,0.48804 0.48245,0.6794 0.48176,0.82104 -0.002,0.46084 0.0913,0.44966 -3.63713,0.43502 -1.81208,-0.007 -3.68959,-0.0201 -4.17225,-0.0288 z m 22.24683,-6.85521 c -0.63213,-0.20795 -1.28631,-0.746 -1.56053,-1.28351 -0.2862,-0.56102 -0.37279,-1.3316 -0.21585,-1.92105 0.25293,-0.94994 1.01555,-1.72481 1.92194,-1.9528 l 0.2779,-0.0699 v -0.25482 c 0,-0.22102 -0.0221,-0.26627 -0.16683,-0.34109 -0.41792,-0.21612 -0.69987,-0.76538 -0.62696,-1.22136 0.12115,-0.75764 0.77629,-1.20816 1.50328,-1.03375 0.50951,0.12223 0.92951,0.65389 0.92829,1.17508 -9.6e-4,0.41297 -0.29093,0.89336 -0.6519,1.08003 -0.14098,0.0729 -0.16683,0.12229 -0.16683,0.31878 v 0.23251 h 0.6993 c 0.75464,0 0.94811,0.0502 1.04937,0.27247 0.0912,0.20014 0.082,0.2751 -0.055,0.44926 -0.11705,0.14881 -0.13849,0.15287 -0.89218,0.16878 l -0.77225,0.0163 -0.0182,0.21939 -0.0182,0.21939 h 0.70283 c 0.39899,0 0.76572,0.0287 0.84832,0.0663 0.10722,0.0488 0.31007,0.38235 0.7711,1.26776 0.68303,1.31175 0.69458,1.36314 0.36185,1.61086 -0.15254,0.11357 -0.17022,0.11474 -0.36065,0.0239 -0.11013,-0.0525 -0.21743,-0.14964 -0.23844,-0.21583 -0.0549,-0.17291 -0.098,-0.15183 -0.28053,0.13704 -0.23766,0.37619 -0.64064,0.72204 -1.08486,0.93107 -0.34904,0.16424 -0.45641,0.18557 -1.00508,0.19974 -0.47697,0.0123 -0.68933,-0.009 -0.94999,-0.0946 z m 1.26431,-0.79684 c 0.70888,-0.18464 1.2059,-0.72632 1.35375,-1.4754 0.0283,-0.14344 -10e-4,-0.25947 -0.12265,-0.48266 l -0.15992,-0.29383 h -0.83901 c -1.06413,0 -1.07302,-0.006 -1.07302,-0.72784 0,-0.27161 -0.0209,-0.50676 -0.0465,-0.52255 -0.0825,-0.051 -0.51842,0.17942 -0.77052,0.40718 -0.13485,0.12182 -0.31426,0.3548 -0.39871,0.51773 -0.2069,0.39918 -0.22414,1.14943 -0.0358,1.55704 0.2465,0.53346 0.74071,0.94359 1.26007,1.04571 0.37656,0.074 0.46041,0.0715 0.83227,-0.0254 z m -0.18729,-5.85895 c 0.0588,-0.0533 0.10699,-0.15856 0.10699,-0.23401 0,-0.16791 -0.19225,-0.37121 -0.35102,-0.37121 -0.1548,0 -0.35103,0.20183 -0.35103,0.36104 0,0.29451 0.37116,0.44681 0.59506,0.24418 z"
         id="path17" /></g></g></svg>
