<?xml version="1.0" encoding="UTF-8" standalone="no"?>
<!-- Created with Inkscape (http://www.inkscape.org/) -->

<svg
   width="58.071205mm"
   height="58.071182mm"
   viewBox="0 0 58.071205 58.071182"
   version="1.1"
   id="svg1"
   xml:space="preserve"
   xmlns="http://www.w3.org/2000/svg"
   xmlns:svg="http://www.w3.org/2000/svg"><defs
     id="defs1"><filter
       style="color-interpolation-filters:sRGB"
       id="filter150"
       x="-0.16486838"
       y="-0.16486842"
       width="1.3297368"
       height="1.3297368"><feFlood
         result="flood"
         in="SourceGraphic"
         flood-opacity="0.498039"
         flood-color="rgb(0,0,0)"
         id="feFlood148" /><feGaussianBlur
         result="blur"
         in="SourceGraphic"
         stdDeviation="3.000000"
         id="feGaussianBlur148" /><feOffset
         result="offset"
         in="blur"
         dx="0.000000"
         dy="0.000000"
         id="feOffset148" /><feComposite
         result="comp1"
         operator="in"
         in="flood"
         in2="offset"
         id="feComposite149" /><feComposite
         result="comp2"
         operator="over"
         in="SourceGraphic"
         in2="comp1"
         id="feComposite150" /></filter><filter
       style="color-interpolation-filters:sRGB"
       id="filter154"
       x="-0.1648684"
       y="-0.1648684"
       width="1.3297368"
       height="1.3297368"><feFlood
         result="flood"
         in="SourceGraphic"
         flood-opacity="0.498039"
         flood-color="rgb(0,0,0)"
         id="feFlood152" /><feGaussianBlur
         result="blur"
         in="SourceGraphic"
         stdDeviation="3.000000"
         id="feGaussianBlur152" /><feOffset
         result="offset"
         in="blur"
         dx="0.000000"
         dy="0.000000"
         id="feOffset152" /><feComposite
         result="comp1"
         operator="in"
         in="flood"
         in2="offset"
         id="feComposite153" /><feComposite
         result="comp2"
         operator="over"
         in="SourceGraphic"
         in2="comp1"
         id="feComposite154" /></filter><filter
       style="color-interpolation-filters:sRGB"
       id="filter158"
       x="-0.16486841"
       y="-0.16486841"
       width="1.3297368"
       height="1.3297368"><feFlood
         result="flood"
         in="SourceGraphic"
         flood-opacity="0.498039"
         flood-color="rgb(0,0,0)"
         id="feFlood156" /><feGaussianBlur
         result="blur"
         in="SourceGraphic"
         stdDeviation="3.000000"
         id="feGaussianBlur156" /><feOffset
         result="offset"
         in="blur"
         dx="0.000000"
         dy="0.000000"
         id="feOffset156" /><feComposite
         result="comp1"
         operator="in"
         in="flood"
         in2="offset"
         id="feComposite157" /><feComposite
         result="comp2"
         operator="over"
         in="SourceGraphic"
         in2="comp1"
         id="feComposite158" /></filter><filter
       style="color-interpolation-filters:sRGB"
       id="filter164"
       x="-0.16486838"
       y="-0.16486842"
       width="1.3297368"
       height="1.3297368"><feFlood
         result="flood"
         in="SourceGraphic"
         flood-opacity="0.498039"
         flood-color="rgb(0,0,0)"
         id="feFlood162" /><feGaussianBlur
         result="blur"
         in="SourceGraphic"
         stdDeviation="3.000000"
         id="feGaussianBlur162" /><feOffset
         result="offset"
         in="blur"
         dx="0.000000"
         dy="0.000000"
         id="feOffset162" /><feComposite
         result="comp1"
         operator="in"
         in="flood"
         in2="offset"
         id="feComposite163" /><feComposite
         result="comp2"
         operator="over"
         in="SourceGraphic"
         in2="comp1"
         id="feComposite164" /></filter><filter
       style="color-interpolation-filters:sRGB"
       id="filter841"
       x="-0.1087691"
       y="-0.10887033"
       width="1.2175382"
       height="1.2177407"><feFlood
         result="flood"
         in="SourceGraphic"
         flood-opacity="0.541176"
         flood-color="rgb(0,175,231)"
         id="feFlood839" /><feGaussianBlur
         result="blur"
         in="SourceGraphic"
         stdDeviation="1.400000"
         id="feGaussianBlur839" /><feOffset
         result="offset"
         in="blur"
         dx="0.000000"
         dy="0.000000"
         id="feOffset839" /><feComposite
         result="comp1"
         operator="in"
         in="flood"
         in2="offset"
         id="feComposite840" /><feComposite
         result="comp2"
         operator="over"
         in="SourceGraphic"
         in2="comp1"
         id="feComposite841" /></filter><filter
       style="color-interpolation-filters:sRGB"
       id="filter845"
       x="-0.10487212"
       y="-0.1329771"
       width="1.2097442"
       height="1.2659542"><feFlood
         result="flood"
         in="SourceGraphic"
         flood-opacity="0.541176"
         flood-color="rgb(0,175,231)"
         id="feFlood843" /><feGaussianBlur
         result="blur"
         in="SourceGraphic"
         stdDeviation="1.400000"
         id="feGaussianBlur843" /><feOffset
         result="offset"
         in="blur"
         dx="0.000000"
         dy="0.000000"
         id="feOffset843" /><feComposite
         result="comp1"
         operator="in"
         in="flood"
         in2="offset"
         id="feComposite844" /><feComposite
         result="comp2"
         operator="over"
         in="SourceGraphic"
         in2="comp1"
         id="feComposite845" /></filter><filter
       style="color-interpolation-filters:sRGB"
       id="filter849"
       x="-0.1173808"
       y="-0.1100594"
       width="1.2347616"
       height="1.2201188"><feFlood
         result="flood"
         in="SourceGraphic"
         flood-opacity="0.541176"
         flood-color="rgb(0,175,231)"
         id="feFlood847" /><feGaussianBlur
         result="blur"
         in="SourceGraphic"
         stdDeviation="1.400000"
         id="feGaussianBlur847" /><feOffset
         result="offset"
         in="blur"
         dx="0.000000"
         dy="0.000000"
         id="feOffset847" /><feComposite
         result="comp1"
         operator="in"
         in="flood"
         in2="offset"
         id="feComposite848" /><feComposite
         result="comp2"
         operator="over"
         in="SourceGraphic"
         in2="comp1"
         id="feComposite849" /></filter><filter
       style="color-interpolation-filters:sRGB"
       id="filter855"
       x="-0.11470411"
       y="-0.11470395"
       width="1.2294082"
       height="1.2294079"><feFlood
         result="flood"
         in="SourceGraphic"
         flood-opacity="0.541176"
         flood-color="rgb(0,175,231)"
         id="feFlood853" /><feGaussianBlur
         result="blur"
         in="SourceGraphic"
         stdDeviation="1.400000"
         id="feGaussianBlur853" /><feOffset
         result="offset"
         in="blur"
         dx="0.000000"
         dy="0.000000"
         id="feOffset853" /><feComposite
         result="comp1"
         operator="in"
         in="flood"
         in2="offset"
         id="feComposite854" /><feComposite
         result="comp2"
         operator="over"
         in="SourceGraphic"
         in2="comp1"
         id="feComposite855" /></filter></defs><g
     id="layer1"
     transform="translate(-60.889161,-140.90219)"><g
       id="g27"
       transform="translate(272.15338,-43.053909)"
       style="filter:url(#filter150)"><path
         id="rect2-8"
         style="fill:#032055;stroke-width:1.288"
         d="m -130.76176,147.79928 c 12.09692,0 21.8356,9.73867 21.8356,21.83559 0,12.09693 -9.73868,21.8356 -21.8356,21.8356 -12.09692,0 -21.8356,-9.73867 -21.8356,-21.8356 0,-12.09692 9.73868,-21.83559 21.8356,-21.83559 z" /><path
         style="fill:#bddaff;fill-opacity:1;filter:url(#filter841)"
         d="m -141.51033,185.03336 c -0.0849,-0.0277 -0.22076,-0.0851 -0.30182,-0.12754 -0.32561,-0.1703 -3.98917,-2.92106 -4.10269,-3.08049 -0.28491,-0.40011 -0.37163,-0.96095 -0.21599,-1.39673 0.0435,-0.12187 0.53646,-0.96212 1.0954,-1.86722 0.55895,-0.90511 1.07683,-1.81248 1.15084,-2.01638 0.074,-0.2039 0.16467,-0.59963 0.20146,-0.87938 0.15723,-1.1956 0.19991,-1.45988 0.37462,-2.3196 0.20987,-1.03271 0.20628,-1.26609 -0.0347,-2.25804 -0.40929,-1.68489 -0.34709,-3.44476 0.18214,-5.15318 0.2104,-0.67922 0.85447,-1.96473 1.27597,-2.54676 0.23192,-0.32024 0.44726,-0.54186 0.64519,-0.66401 0.26329,-0.16249 0.34915,-0.18319 0.75456,-0.18195 0.53849,0.002 0.82591,0.12566 1.16748,0.50374 0.2096,0.232 0.40675,0.71863 0.40675,1.00399 0,0.28472 -0.19332,0.74561 -0.47367,1.12924 -0.49131,0.67231 -0.9356,1.69211 -1.05967,2.43229 l -0.0405,0.24146 0.13038,-0.21128 c 0.47151,-0.76407 1.21039,-1.80891 1.64351,-2.32405 0.64089,-0.76225 1.65435,-1.73756 1.9887,-1.91384 0.33482,-0.17654 0.99893,-0.18897 1.31239,-0.0246 0.72298,0.37916 1.06099,1.16742 0.81638,1.90386 -0.0866,0.26059 -0.21894,0.42874 -0.7788,0.98919 -0.56378,0.56436 -1.19111,1.27265 -1.60905,1.81671 -0.0628,0.0818 0.008,0.0584 0.24344,-0.0807 1.13587,-0.67054 2.91717,-1.33341 3.57697,-1.33109 1.27729,0.005 1.95106,1.40744 1.18954,2.4769 -0.17906,0.25146 -0.55203,0.45186 -1.17712,0.63248 -0.64317,0.18584 -1.49883,0.55408 -1.95953,0.84331 -0.37252,0.23387 -0.36098,0.24301 0.15091,0.11941 0.81131,-0.1959 2.22122,-0.0742 2.90617,0.25082 0.84615,0.40152 1.12503,1.53297 0.56754,2.30256 -0.3845,0.53079 -1.0409,0.7252 -1.77635,0.52612 -1.33912,-0.36248 -2.54561,0.47017 -2.53703,1.75091 0.01,1.48441 1.74656,2.20885 2.97234,1.23993 0.19609,-0.15501 0.36047,-0.36439 0.5111,-0.65105 0.39373,-0.74927 0.92591,-1.08775 1.61237,-1.02551 1.19383,0.10825 1.72926,1.26867 1.12982,2.44861 -0.66304,1.30514 -1.82423,2.23087 -3.27318,2.60947 -0.36398,0.0951 -0.70595,0.13025 -1.3884,0.14267 -0.49801,0.009 -1.02517,0.05 -1.17147,0.0909 -0.40481,0.11329 -1.2478,0.51861 -1.569,0.75439 -0.15761,0.1157 -0.92277,0.95788 -1.70036,1.87152 -1.56315,1.83664 -1.70667,1.95939 -2.33945,2.00087 -0.18854,0.0124 -0.41229,-2.4e-4 -0.49723,-0.028 z m 0.65794,-1.06921 c 0.0759,-0.0532 0.76359,-0.82842 1.52822,-1.72281 1.54718,-1.80973 1.78637,-2.01991 2.80917,-2.46848 0.87481,-0.38366 1.08504,-0.42787 2.13127,-0.44816 1.08649,-0.0211 1.4966,-0.10802 2.17741,-0.4616 0.74384,-0.38631 1.34313,-0.99037 1.71288,-1.72651 0.19707,-0.39238 0.19887,-0.64256 0.006,-0.83543 -0.17009,-0.1701 -0.4248,-0.19313 -0.62041,-0.0561 -0.0723,0.0506 -0.21727,0.25312 -0.3222,0.44998 -0.53636,1.00631 -1.47842,1.57074 -2.62167,1.57074 -1.15358,0 -2.06366,-0.57675 -2.54716,-1.61424 -0.70976,-1.52297 0.23624,-3.40043 1.94351,-3.85716 0.40164,-0.10745 1.14753,-0.10365 1.51462,0.008 0.42303,0.12833 0.61034,0.11468 0.78199,-0.057 0.19333,-0.19333 0.19234,-0.45409 -0.003,-0.68578 -0.20054,-0.23833 -0.81128,-0.39028 -1.56158,-0.38853 -0.97342,0.002 -1.84536,0.3296 -2.62401,0.98503 -0.32081,0.27005 -0.4719,0.35818 -0.61405,0.35818 -0.44098,0 -0.58202,-0.26888 -0.44627,-0.85078 0.26654,-1.14256 1.30794,-2.18545 2.86136,-2.86548 0.31541,-0.13807 0.76362,-0.31088 0.99603,-0.38402 0.8787,-0.27652 0.94291,-0.30898 1.03175,-0.52161 0.0931,-0.22282 0.066,-0.35262 -0.11561,-0.55441 -0.17627,-0.19583 -0.43654,-0.17355 -1.27726,0.10932 -2.14526,0.72182 -3.45519,1.70297 -4.19702,3.14361 -0.16477,0.31998 -0.34293,0.59841 -0.3959,0.61874 -0.34535,0.13253 -0.75086,-0.0989 -0.75003,-0.42812 6.7e-4,-0.26894 0.2181,-1.10357 0.42278,-1.6229 0.52351,-1.32832 1.62682,-2.85875 3.02317,-4.19354 0.40576,-0.38786 0.47735,-0.48589 0.47735,-0.65357 0,-0.24299 -0.28087,-0.55017 -0.50304,-0.55017 -0.20756,0 -0.63646,0.3545 -1.32334,1.09378 -1.49337,1.60731 -2.38033,3.02551 -2.85764,4.56924 -0.23685,0.76605 -0.34507,0.91677 -0.65828,0.91677 -0.46129,0 -0.62195,-0.4246 -0.6738,-1.78077 -0.0627,-1.63953 0.32355,-3.00386 1.22527,-4.32812 0.18454,-0.27102 0.33441,-0.55928 0.33693,-0.64808 0.0106,-0.37268 -0.33972,-0.62659 -0.67365,-0.48827 -0.35911,0.14875 -1.18229,1.58064 -1.53724,2.67397 -0.47707,1.4695 -0.51826,3.11043 -0.11776,4.692 0.22345,0.88243 0.22434,1.64069 0.003,2.64497 -0.0901,0.40892 -0.21809,1.17221 -0.28443,1.69621 -0.19627,1.55002 -0.23481,1.64303 -1.58935,3.83507 -0.64826,1.04908 -1.00516,1.68436 -1.00516,1.78917 0,0.0894 0.0475,0.21758 0.10564,0.28488 0.0992,0.11492 3.48171,2.63247 3.7324,2.77797 0.16427,0.0953 0.33863,0.0864 0.49863,-0.0257 z m 19.49921,-7.2473 c -0.31264,-0.0536 -0.79499,-0.40109 -0.98557,-0.71004 -0.16724,-0.27112 -0.18326,-0.34293 -0.18326,-0.82145 V 174.661 l 0.37692,-0.55689 c 0.56338,-0.83239 0.94002,-1.69754 1.06587,-2.44831 l 0.0405,-0.24146 -0.13038,0.21127 c -0.47309,0.76664 -1.21066,1.80908 -1.64436,2.32406 -0.66283,0.78704 -1.64169,1.73172 -1.97775,1.90869 -0.36349,0.19141 -1.00491,0.19681 -1.35268,0.0114 -0.7039,-0.3753 -1.02803,-1.15744 -0.78405,-1.89198 0.0876,-0.26363 0.20557,-0.41752 0.66594,-0.86846 0.61499,-0.60238 1.10462,-1.14469 1.5219,-1.68566 l 0.27219,-0.35287 -0.32489,0.19213 c -1.12492,0.66523 -2.91169,1.32953 -3.56984,1.32722 -1.23298,-0.004 -1.92455,-1.31325 -1.25319,-2.37187 0.21608,-0.34072 0.5458,-0.53671 1.24077,-0.73752 0.64317,-0.18583 1.49883,-0.55408 1.95953,-0.84331 0.37252,-0.23387 0.36097,-0.24301 -0.15091,-0.11941 -0.80245,0.19376 -2.22104,0.0743 -2.89058,-0.24342 -0.49425,-0.23453 -0.88268,-0.84774 -0.87899,-1.38764 0.007,-1.09318 0.95021,-1.75215 2.07221,-1.44844 1.02711,0.27803 1.99684,-0.13634 2.40236,-1.02652 0.19889,-0.43659 0.18808,-1.03756 -0.0262,-1.4542 -0.30363,-0.5905 -0.86497,-0.93772 -1.52212,-0.94151 -0.78738,-0.005 -1.42422,0.36934 -1.77744,1.04352 -0.35908,0.68538 -0.76249,1.00137 -1.35599,1.06216 -0.6312,0.0647 -1.19912,-0.24591 -1.49884,-0.81963 -0.31308,-0.59932 -0.21025,-1.20832 0.35037,-2.07495 0.52459,-0.81093 1.20704,-1.40849 2.0821,-1.82308 0.73511,-0.34829 1.28333,-0.46197 2.3187,-0.48082 0.49801,-0.009 1.02517,-0.05 1.17147,-0.0909 0.39126,-0.10949 1.23084,-0.50968 1.55174,-0.73963 0.15378,-0.1102 0.8706,-0.89305 1.59293,-1.73967 1.51297,-1.77331 1.57583,-1.83983 1.90066,-2.01141 0.36565,-0.19314 0.99798,-0.18241 1.359,0.0231 0.47363,0.26956 3.97372,2.89081 4.10362,3.07323 0.28751,0.40378 0.3748,0.96301 0.21859,1.40039 -0.0435,0.12187 -0.53646,0.96212 -1.09541,1.86722 -0.55895,0.90511 -1.07849,1.81706 -1.15453,2.02657 -0.0787,0.21674 -0.19206,0.79091 -0.26306,1.33212 -0.0686,0.52316 -0.20739,1.35866 -0.30835,1.85667 -0.20914,1.03165 -0.20582,1.26405 0.0324,2.26369 0.52307,2.1951 0.26568,4.49979 -0.72223,6.46684 -0.28325,0.56399 -0.77563,1.34599 -1.01558,1.61295 -0.28389,0.31586 -0.96878,0.53193 -1.43357,0.45226 z m 0.51362,-1.04383 c 0.31456,-0.1196 1.13027,-1.54375 1.47669,-2.57817 0.3218,-0.96088 0.40098,-1.49851 0.39863,-2.70672 -0.002,-1.02447 -0.0138,-1.13487 -0.20658,-1.93168 -0.25142,-1.03923 -0.27201,-1.80476 -0.0709,-2.63523 0.0696,-0.28735 0.18166,-0.92571 0.24902,-1.41858 0.1924,-1.40758 0.24024,-1.64853 0.41727,-2.10136 0.0913,-0.23354 0.63282,-1.18433 1.2034,-2.11286 0.66286,-1.07873 1.0374,-1.74649 1.0374,-1.84954 0,-0.0887 -0.0475,-0.21658 -0.10564,-0.28416 -0.16041,-0.18658 -3.64105,-2.73968 -3.83461,-2.81273 -0.1309,-0.0494 -0.20624,-0.0432 -0.33288,0.0275 -0.09,0.0503 -0.80573,0.84032 -1.59045,1.7557 -1.57948,1.84247 -1.80465,2.03878 -2.85916,2.49264 -0.83916,0.36117 -1.05218,0.4046 -2.08259,0.4246 -1.09505,0.0213 -1.49524,0.10746 -2.20332,0.47471 -0.84967,0.44068 -1.75531,1.49443 -1.82639,2.12509 -0.025,0.22169 -0.006,0.28427 0.12609,0.4164 0.29904,0.29904 0.66282,0.17134 0.91185,-0.3201 0.52343,-1.03295 1.50542,-1.63717 2.66074,-1.63717 1.40505,0 2.50256,0.90982 2.75865,2.28688 0.24897,1.33877 -0.74306,2.80868 -2.14803,3.18278 -0.4093,0.10899 -1.15323,0.10607 -1.52257,-0.006 -0.42302,-0.12832 -0.61034,-0.11468 -0.78199,0.057 -0.31299,0.31299 -0.0866,0.79243 0.44127,0.93458 1.35704,0.36541 2.69258,0.0547 3.79875,-0.88365 0.27836,-0.23613 0.42591,-0.31982 0.56389,-0.31982 0.44812,0 0.59952,0.28226 0.45467,0.84766 -0.15727,0.6139 -0.43332,1.06512 -0.99774,1.63088 -0.74794,0.74971 -1.65526,1.24663 -3.09011,1.69241 -0.33446,0.10391 -0.65939,0.24019 -0.72205,0.30285 -0.15954,0.15955 -0.15061,0.51985 0.0173,0.6986 0.18764,0.19974 0.44099,0.17897 1.28625,-0.10543 1.38396,-0.46566 2.50794,-1.09786 3.24753,-1.82661 0.45293,-0.44629 0.66866,-0.75029 0.99819,-1.40664 0.13539,-0.26968 0.29057,-0.50737 0.34484,-0.5282 0.2154,-0.0827 0.45863,-0.0357 0.61256,0.11822 0.1394,0.1394 0.15246,0.18939 0.12221,0.46783 -0.0541,0.49779 -0.32842,1.3493 -0.64501,2.00197 -0.55332,1.1407 -1.3737,2.24231 -2.55069,3.4251 -0.59499,0.59791 -0.70998,0.74326 -0.70998,0.89742 0,0.22955 0.28795,0.53686 0.50304,0.53686 0.20726,0 0.63673,-0.35464 1.32517,-1.09427 1.48302,-1.59327 2.37902,-3.02672 2.85581,-4.56875 0.23685,-0.76605 0.34507,-0.91677 0.65828,-0.91677 0.46434,0 0.62284,0.4253 0.67488,1.81095 0.0609,1.62248 -0.32323,2.97162 -1.22207,4.29165 -0.42393,0.62259 -0.4389,0.92268 -0.0565,1.13186 0.1508,0.0825 0.22444,0.0847 0.4148,0.0123 z"
         id="path20" /></g><g
       id="g24"
       transform="translate(-157.46178,79.509701)"
       style="filter:url(#filter154)"><rect
         style="fill:#032055;fill-opacity:1;stroke-width:1.288"
         id="rect2-91"
         width="43.671196"
         height="43.671196"
         x="173.18622"
         y="57.480621"
         ry="21.835598" /><path
         style="fill:#bddaff;fill-opacity:1;filter:url(#filter845)"
         d="m 180.11969,91.913297 c -0.97275,-0.02469 -1.11739,-0.08524 -1.11739,-0.467714 0,-0.415085 0.11937,-0.486107 0.88219,-0.524893 l 0.68494,-0.03482 0.0176,-11.97455 c 0.0162,-11.021218 0.0268,-11.984673 0.13268,-12.101702 0.11069,-0.12231 0.65534,-0.127152 14.3021,-0.127152 13.64676,0 14.19141,0.0048 14.3021,0.127152 0.10591,0.117029 0.11647,1.080484 0.13268,12.101702 l 0.0176,11.97455 0.68494,0.03482 c 0.75341,0.03831 0.88219,0.11142 0.88219,0.500863 0,0.405437 -0.12726,0.446774 -1.53206,0.497659 -1.22788,0.04448 -27.61367,0.03917 -29.38959,-0.0059 z m 2.57407,-11.862599 c 0,-6.957198 0.0245,-10.915849 0.0682,-10.997387 0.0375,-0.07007 0.16754,-0.162034 0.28899,-0.204371 0.31329,-0.109214 23.48919,-0.109214 23.80248,0 0.12145,0.04234 0.2515,0.134304 0.289,0.204371 0.0436,0.08154 0.0682,4.040189 0.0682,10.997387 V 90.92069 h 0.62685 0.62685 V 79.289126 67.657562 H 195.02186 181.5794 V 79.289126 90.92069 h 0.5572 0.5572 z m 5.1541,0.318005 V 69.816715 h -2.0895 -2.0895 v 10.505554 c 0,5.778055 0.0209,10.52645 0.0464,10.551988 0.0255,0.02554 0.96582,0.04643 2.0895,0.04643 h 2.04307 z m 2.57706,0 V 69.816715 h -0.76615 -0.76616 V 80.368703 90.92069 h 0.76616 0.76615 z m 15.79338,-0.01741 0.0176,-10.534575 h -7.38313 -7.38313 v 10.552306 10.552305 l 7.36549,-0.01773 7.3655,-0.01773 z m -11.9498,3.805811 c -0.54186,-0.101702 -0.9481,-0.431727 -1.19103,-0.96757 -0.13481,-0.297375 -0.14209,-0.445393 -0.14209,-2.890478 0,-2.937177 -0.004,-2.910774 0.57827,-3.423715 0.9373,-0.825041 2.37244,-0.412843 2.73292,0.784941 0.0637,0.211787 0.0986,0.656191 0.0986,1.256841 v 0.929207 h 0.59203 c 0.67087,0 0.87063,0.110703 0.87063,0.482495 0,0.34739 -0.2675,0.492606 -0.90741,0.492606 h -0.54036 l -0.0278,1.062164 c -0.024,0.916113 -0.0483,1.101125 -0.17653,1.345515 -0.36797,0.701025 -1.12174,1.071671 -1.88724,0.927994 z m 0.82833,-1.171162 0.20359,-0.203593 V 81.80189 80.821431 h -0.19956 c -0.27809,0 -0.56659,-0.242936 -0.56659,-0.477108 0,-0.317147 0.17849,-0.497993 0.4915,-0.497993 h 0.27465 v -1.000428 c 0,-0.981819 -0.003,-1.003762 -0.1792,-1.179633 -0.25198,-0.251977 -0.53632,-0.300085 -0.81425,-0.137765 -0.39324,0.229663 -0.39763,0.260766 -0.39605,2.805377 0.002,2.493979 0.0112,2.569312 0.35242,2.758456 0.28928,0.160335 0.60736,0.119731 0.83349,-0.106395 z"
         id="path19" /></g><g
       id="g20"
       transform="translate(127.16473,145.64277)"
       style="filter:url(#filter158)"><path
         id="rect2-9"
         style="fill:#032055;stroke-width:1.288"
         d="m -82.766415,55.434218 c 12.096918,0 21.835598,9.73867 21.835598,21.835603 0,12.09692 -9.73868,21.83559 -21.835598,21.83559 -12.09692,0 -21.835595,-9.73867 -21.835595,-21.83559 0,-12.096933 9.738675,-21.835603 21.835595,-21.835603 z" /><path
         style="fill:#bddaff;fill-opacity:1;filter:url(#filter849)"
         d="m -96.549122,92.400128 c -0.66241,-0.33434 -0.71548,-1.32666 -0.0916,-1.71226 0.17213,-0.10637 2.35741,-0.49011 12.57216,-2.20768 6.8001,-1.1434 13.00354,-2.18711 13.7854,-2.31934 1.4857,-0.25127 1.63887,-0.2526 1.76584,-0.0154 0.0422,0.0788 0.0633,1.11438 0.0633,3.10714 v 2.98891 l -0.1464,0.1464 -0.14641,0.1464 h -3.1857 c -3.13258,0 -3.18833,-0.002 -3.34286,-0.12362 -0.21735,-0.17096 -0.21735,-0.47648 0,-0.64744 0.15407,-0.12119 0.21379,-0.12362 3.04192,-0.12362 h 2.88477 v -2.356 c 0,-1.5342 -0.0209,-2.356 -0.0598,-2.356 -0.0329,0 -6.04759,1.00652 -13.36604,2.23671 -7.31844,1.23019 -13.33066,2.23671 -13.36048,2.23671 -0.0298,0 -0.0542,0.0537 -0.0542,0.11929 0,0.1188 0.0398,0.11929 9.74717,0.11929 5.36095,0 9.79062,0.0167 9.84373,0.037 0.0531,0.0204 0.13793,0.11707 0.18851,0.21488 0.0757,0.14632 0.0791,0.20887 0.0194,0.35293 -0.0399,0.0963 -0.12076,0.2009 -0.17972,0.23246 -0.0674,0.036 -3.74859,0.0574 -9.91017,0.0574 h -9.80297 z m 7.54719,-5.35968 c -0.99878,-0.14397 -2.3439,-0.6068 -3.22086,-1.10823 -1.61204,-0.92173 -3.04175,-2.45104 -3.81248,-4.07807 -0.91201,-1.92526 -1.1499,-4.11079 -0.66508,-6.11013 0.6552,-2.70198 2.42348,-4.94962 4.84257,-6.15534 l 0.66324,-0.33057 0.0329,-0.72343 c 0.0389,-0.85621 0.0963,-1.07616 0.37685,-1.44364 0.11573,-0.15162 0.20188,-0.28068 0.19143,-0.2868 -0.23221,-0.13607 -0.65339,-0.55514 -0.82537,-0.82122 -1.00784,-1.55933 -0.0888,-3.62824 1.75187,-3.94352 1.10708,-0.18964 2.23488,0.42422 2.74052,1.49167 0.17884,0.37753 0.19095,0.44475 0.19095,1.05921 0,0.58747 -0.0168,0.69189 -0.16033,0.9982 -0.20716,0.44202 -0.42875,0.72906 -0.77285,1.00112 l -0.27709,0.21908 0.14498,0.18524 c 0.34479,0.44056 0.4039,0.68273 0.42828,1.75446 l 0.0227,0.99689 2.8421,0.0171 2.84211,0.0171 0.3332,0.15626 c 0.42356,0.19863 0.74342,0.51849 0.942,0.94202 0.20343,0.43387 0.21445,1.08398 0.0255,1.5036 -0.18272,0.40575 -0.53498,0.76305 -0.94281,0.9563 l -0.35787,0.16957 -2.84808,5e-5 -2.84808,5e-5 v 1.07362 1.07362 h 0.70771 c 0.62565,0 0.72592,0.0143 0.86486,0.12362 0.21734,0.17096 0.21734,0.47648 0,0.64744 -0.14477,0.11387 -0.23583,0.12362 -1.15505,0.12362 -0.91922,0 -1.01027,-0.01 -1.15504,-0.12362 l -0.15716,-0.12362 v -1.68417 c 0,-1.35984 0.0163,-1.70647 0.0846,-1.79995 0.0814,-0.11138 0.20331,-0.11691 3.20595,-0.1456 3.47306,-0.0332 3.33327,-0.0161 3.66244,-0.44766 0.3329,-0.43646 0.21626,-1.08384 -0.25247,-1.40135 l -0.22013,-0.14912 -3.10383,-0.0165 c -3.0819,-0.0164 -3.10479,-0.0174 -3.2402,-0.1446 -0.13279,-0.12476 -0.13638,-0.15794 -0.1367,-1.2659 -1.9e-4,-0.62578 -0.0276,-1.23579 -0.0608,-1.35558 -0.0766,-0.27585 -0.45937,-0.62741 -0.7405,-0.68015 -0.50876,-0.0954 -1.02774,0.21917 -1.1613,0.70402 -0.0514,0.18659 -0.0653,1.5298 -0.0525,5.08487 l 0.0173,4.83129 0.13526,0.2175 c 0.29138,0.46857 -0.0437,0.43503 4.67981,0.46842 l 4.2186,0.0298 0.14266,0.14911 c 0.0785,0.082 0.92831,1.4643 1.88855,3.07175 0.96025,1.60744 1.81365,2.99582 1.89645,3.08528 0.28738,0.31047 0.91859,0.37273 1.25236,0.12354 0.3064,-0.22877 0.39948,-0.41806 0.39948,-0.81246 v -0.36841 l -2.02142,-3.36998 c -1.11179,-1.85348 -2.09147,-3.44709 -2.17707,-3.54134 -0.29647,-0.32644 -0.3658,-0.33562 -2.53467,-0.33562 -1.09734,0 -2.03861,-0.0167 -2.09171,-0.0371 -0.0531,-0.0204 -0.13794,-0.11708 -0.18852,-0.21489 -0.11788,-0.22795 -0.0254,-0.48323 0.21037,-0.5809 0.11419,-0.0473 0.7908,-0.0623 2.2465,-0.0498 2.04174,0.0175 2.08928,0.0206 2.39408,0.15845 0.17104,0.0773 0.42739,0.26522 0.56966,0.41752 0.29013,0.31055 4.2343,6.83999 4.40815,7.29755 0.44185,1.16284 -0.50233,2.49281 -1.7697,2.49281 -0.43679,0 -0.92265,-0.1924 -1.25174,-0.4957 -0.18423,-0.16979 -0.52541,-0.67383 -1.06458,-1.57275 l -0.79346,-1.32289 -0.38359,0.54348 c -1.42514,2.0192 -3.59393,3.39252 -6.00983,3.80554 -0.72749,0.12437 -2.20945,0.1498 -2.90308,0.0498 z m 2.24316,-0.85812 c 2.28115,-0.16847 4.72053,-1.65344 6.06583,-3.69256 0.236,-0.35771 0.42909,-0.67851 0.42909,-0.71288 0,-0.0716 -1.06695,-1.87626 -1.13367,-1.91749 -0.0242,-0.0149 -0.0916,0.0998 -0.14981,0.25495 -0.73823,1.96755 -2.45882,3.51961 -4.48987,4.05007 -0.71442,0.1866 -1.85029,0.24869 -2.58475,0.14129 -2.33787,-0.34184 -4.36709,-1.99622 -5.17974,-4.22292 -0.66385,-1.81899 -0.45993,-3.89009 0.55039,-5.58993 0.3563,-0.59947 1.23107,-1.55917 1.74182,-1.91095 l 0.33049,-0.22761 v -1.06889 -1.06888 l -0.46226,0.24898 c -2.18001,1.17425 -3.73194,3.26747 -4.25899,5.74452 -0.17322,0.81409 -0.18482,2.30816 -0.0244,3.14263 0.31708,1.64936 1.04838,3.07041 2.20002,4.27505 1.16295,1.21646 2.50654,1.98922 4.14529,2.38414 0.63536,0.15311 1.61919,0.25782 2.09835,0.22332 0.14763,-0.0106 0.47261,-0.0344 0.7222,-0.0528 z m 0.15676,-2.80028 c 1.86035,-0.39134 3.39632,-1.63333 4.10861,-3.32225 0.11088,-0.2629 0.2016,-0.51614 0.2016,-0.56275 0,-0.0723 -0.53789,-0.0847 -3.66597,-0.0847 -3.52479,0 -3.67829,-0.005 -3.98607,-0.11977 -0.45533,-0.17036 -0.77794,-0.47092 -1.00898,-0.94 l -0.19635,-0.39866 -0.0298,-2.25788 -0.0298,-2.25789 -0.45406,0.46707 c -1.10761,1.13935 -1.62713,2.41711 -1.62071,3.98616 0.003,0.63378 0.0311,0.88181 0.15604,1.35802 0.41144,1.56812 1.4204,2.83516 2.85856,3.58972 0.85925,0.45083 1.54256,0.61746 2.56045,0.62438 0.39818,0.003 0.87252,-0.0322 1.10653,-0.0814 z m -1.90938,-17.30651 c 1.05288,-0.50819 1.23854,-1.96811 0.34979,-2.75042 -0.81492,-0.71732 -2.02123,-0.51164 -2.57875,0.4397 -0.18996,0.32413 -0.25646,0.94957 -0.1392,1.3092 0.32855,1.00767 1.40885,1.46455 2.36816,1.00152 z"
         id="path18" /></g><g
       id="g26"
       transform="translate(125.03727,-54.02887)"
       style="filter:url(#filter164)"><path
         id="rect2-2"
         style="fill:#032055;stroke-width:1.288"
         d="m -35.11251,202.13105 c 12.096923,0 21.835603,9.73867 21.835603,21.83559 0,12.09693 -9.73868,21.8356 -21.835603,21.8356 -12.096921,0 -21.835598,-9.73867 -21.835598,-21.8356 0,-12.09692 9.738677,-21.83559 21.835598,-21.83559 z" /><path
         style="fill:#bddaff;fill-opacity:1;filter:url(#filter855)"
         d="m -49.618458,238.47247 -0.14043,-0.14043 v -11.2671 c 0,-10.92326 0.003,-11.27114 0.10706,-11.39931 0.14875,-0.18371 0.49532,-0.18371 0.64408,0 0.10224,0.12627 0.10705,0.3066 0.10705,4.01654 v 3.88435 l 6.67955,-0.0145 6.67954,-0.0145 0.0146,-6.67954 0.0145,-6.67955 h -6.69409 -6.69409 v 1.93751 c 0,1.87349 -0.004,1.94248 -0.11858,2.08825 -0.16398,0.20847 -0.45704,0.20847 -0.62103,0 -0.11535,-0.14664 -0.11858,-0.21139 -0.11858,-2.37692 v -2.22617 l 0.14043,-0.14043 0.14043,-0.14043 h 14.36552 14.36551 l 0.14043,0.14043 0.140431,0.14043 v 7.23226 c 0,7.22654 -9e-5,7.23237 -0.118401,7.38277 l -0.1184,0.15052 -6.99024,0.0145 -6.99024,0.0145 -0.0286,4.42428 c -0.0278,4.29613 -0.0318,4.42664 -0.13966,4.50548 -0.15127,0.11059 -0.39447,0.10209 -0.54111,-0.0189 l -0.12132,-0.10012 -0.0137,-4.40536 -0.0138,-4.40535 -6.67954,-0.0145 -6.67955,-0.0145 v 6.69409 6.69409 h 6.69385 6.69385 v -1.47866 c 0,-1.6575 0.003,-1.66803 0.41043,-1.66803 0.3913,0 0.39054,-0.004 0.39054,1.98849 v 1.77923 l -0.15074,0.11857 c -0.1507,0.11854 -0.15296,0.11858 -7.383,0.11858 h -7.23226 z m 28.29414,-21.60028 v -6.69385 h -6.69386 -6.69385 v 6.65571 c 0,3.66064 0.0172,6.67287 0.0382,6.69385 0.021,0.021 3.03321,0.0381 6.69385,0.0381 h 6.65571 z m -11.16316,5.41412 c -0.34186,-0.12334 -0.59879,-0.30922 -0.75616,-0.54702 -0.40833,-0.61703 -0.31598,-1.41433 0.21814,-1.88329 0.40813,-0.35834 0.34815,-0.35203 3.351,-0.35203 h 2.73506 l 0.11857,0.15074 c 0.14959,0.19017 0.14959,0.30932 0,0.49949 l -0.11857,0.15074 -2.5275,3.2e-4 c -1.50855,1.9e-4 -2.61053,0.0234 -2.73347,0.0575 -0.2698,0.0749 -0.39738,0.22383 -0.43553,0.50823 -0.0279,0.20822 -0.0106,0.25213 0.17076,0.43352 l 0.20184,0.20185 h 4.20711 c 2.53524,0 4.26424,-0.0217 4.35087,-0.0546 0.19633,-0.0747 0.33283,-0.30114 0.33283,-0.55225 0,-0.15762 -0.0438,-0.2528 -0.17794,-0.38698 l -0.17795,-0.17795 -0.82669,-0.0291 c -0.74045,-0.0261 -0.83568,-0.0411 -0.91299,-0.14355 -0.1215,-0.16108 -0.11024,-0.38573 0.0267,-0.53273 0.11024,-0.11833 0.1645,-0.12514 0.98692,-0.12395 0.97671,0.001 1.17378,0.0536 1.5238,0.40363 0.37272,0.37271 0.50241,0.94408 0.33849,1.49122 -0.086,0.28697 -0.39805,0.64883 -0.69782,0.80914 l -0.237,0.12675 -4.37675,0.0125 c -3.48154,0.01 -4.41908,-0.003 -4.58373,-0.0622 z m 0,-4.06208 c -0.34186,-0.12335 -0.59879,-0.30922 -0.75616,-0.54702 -0.40833,-0.61703 -0.31598,-1.41433 0.21814,-1.88329 0.42024,-0.36898 0.17922,-0.35216 5.02861,-0.35077 4.92642,0.001 4.64127,-0.0213 5.06622,0.40362 0.37272,0.37272 0.50241,0.94409 0.33849,1.49122 -0.086,0.28697 -0.39805,0.64883 -0.69782,0.80915 l -0.237,0.12675 -4.37675,0.0125 c -3.48154,0.01 -4.41908,-0.003 -4.58373,-0.0622 z m 8.78212,-0.83457 c 0.19633,-0.0747 0.33283,-0.30114 0.33283,-0.55225 0,-0.15774 -0.0438,-0.25282 -0.17843,-0.38749 l -0.17844,-0.17846 -4.0467,-0.0172 c -2.22568,-0.009 -4.1566,-10e-4 -4.29092,0.018 -0.33539,0.0483 -0.52731,0.22649 -0.56761,0.52696 -0.0295,0.21985 -0.0143,0.25953 0.16945,0.4433 l 0.20184,0.20184 h 4.20711 c 2.53524,0 4.26424,-0.0217 4.35087,-0.0546 z m -8.78212,-3.22751 c -0.34186,-0.12335 -0.59879,-0.30922 -0.75616,-0.54702 -0.40833,-0.61703 -0.31598,-1.41433 0.21814,-1.88329 0.42024,-0.36898 0.17922,-0.35216 5.02861,-0.35078 4.92642,0.001 4.64127,-0.0213 5.06622,0.40363 0.37272,0.37272 0.50241,0.94409 0.33849,1.49122 -0.086,0.28697 -0.39805,0.64883 -0.69782,0.80915 l -0.237,0.12675 -4.37675,0.0125 c -3.48154,0.01 -4.41908,-0.003 -4.58373,-0.0622 z m 8.78212,-0.83458 c 0.19633,-0.0746 0.33283,-0.30113 0.33283,-0.55224 0,-0.15774 -0.0438,-0.25282 -0.17843,-0.38749 l -0.17844,-0.17846 -4.0467,-0.0172 c -2.22568,-0.009 -4.1566,-0.001 -4.29092,0.018 -0.33539,0.0483 -0.52731,0.22649 -0.56761,0.52696 -0.0295,0.21985 -0.0143,0.25953 0.16945,0.4433 l 0.20184,0.20184 h 4.20711 c 2.53524,0 4.26424,-0.0217 4.35087,-0.0547 z m -23.16557,23.11864 c -0.29378,-0.13346 -0.5878,-0.42748 -0.72126,-0.72127 -0.0983,-0.21641 -0.10461,-0.49291 -0.10579,-4.64279 -10e-4,-4.84939 -0.0182,-4.60837 0.35078,-5.0286 0.28518,-0.32481 0.58191,-0.45299 1.04966,-0.45347 0.607,-6.1e-4 1.05628,0.27297 1.31951,0.80351 0.10674,0.21513 0.1108,0.38693 0.1108,4.68589 v 4.46257 l -0.12535,0.23426 c -0.14922,0.27887 -0.45846,0.56281 -0.74195,0.68126 -0.28352,0.11846 -0.85213,0.10778 -1.1364,-0.0214 z m 1.02902,-0.92386 c 0.11484,-0.11483 0.11672,-0.17763 0.13187,-4.4105 l 0.0154,-4.29401 -0.20291,-0.20291 c -0.1849,-0.1849 -0.22433,-0.20003 -0.44437,-0.17052 -0.30047,0.0403 -0.47864,0.23222 -0.52696,0.56761 -0.0194,0.13432 -0.0274,2.06404 -0.018,4.28827 l 0.0172,4.04404 0.16522,0.17242 c 0.0909,0.0948 0.21959,0.18121 0.28606,0.19195 0.18229,0.0295 0.44582,-0.0557 0.57647,-0.18635 z m 3.03306,0.92386 c -0.29378,-0.13346 -0.5878,-0.42748 -0.72126,-0.72127 -0.0983,-0.21641 -0.10461,-0.49291 -0.10579,-4.64279 -0.001,-4.84939 -0.0182,-4.60837 0.35078,-5.0286 0.28518,-0.32481 0.58191,-0.45299 1.04966,-0.45347 0.607,-6.1e-4 1.05628,0.27297 1.31951,0.80351 0.10674,0.21513 0.1108,0.38693 0.1108,4.68589 v 4.46257 l -0.12535,0.23426 c -0.14922,0.27887 -0.45846,0.56281 -0.74195,0.68126 -0.28352,0.11846 -0.85213,0.10778 -1.1364,-0.0214 z m 1.02902,-0.92386 c 0.11484,-0.11483 0.11672,-0.17763 0.13187,-4.4105 l 0.0154,-4.29401 -0.20291,-0.20291 c -0.1849,-0.1849 -0.22433,-0.20003 -0.44437,-0.17052 -0.30047,0.0403 -0.47864,0.23222 -0.52696,0.56761 -0.0194,0.13432 -0.0274,2.06404 -0.018,4.28827 l 0.0172,4.04404 0.16522,0.17242 c 0.0909,0.0948 0.21959,0.18121 0.28606,0.19195 0.18229,0.0295 0.44582,-0.0557 0.57647,-0.18635 z m 3.03306,0.92386 c -0.29378,-0.13346 -0.5878,-0.42748 -0.72126,-0.72127 -0.0983,-0.21641 -0.10461,-0.49291 -0.10579,-4.64279 -10e-4,-4.84939 -0.0182,-4.60837 0.35078,-5.0286 0.28518,-0.32481 0.58191,-0.45299 1.04966,-0.45347 0.607,-6.1e-4 1.05628,0.27297 1.31951,0.80351 0.10674,0.21513 0.1108,0.38693 0.1108,4.68589 v 4.46257 l -0.12535,0.23426 c -0.14922,0.27887 -0.45846,0.56281 -0.74195,0.68126 -0.28352,0.11846 -0.85213,0.10778 -1.1364,-0.0214 z m 1.02902,-0.92386 c 0.11484,-0.11483 0.11672,-0.17763 0.13187,-4.4105 l 0.0154,-4.29401 -0.20291,-0.20291 c -0.1849,-0.1849 -0.22433,-0.20003 -0.44437,-0.17052 -0.30047,0.0403 -0.47864,0.23222 -0.52696,0.56761 -0.0194,0.13432 -0.0274,2.06404 -0.018,4.28827 l 0.0172,4.04404 0.16522,0.17242 c 0.0909,0.0948 0.21959,0.18121 0.28606,0.19195 0.18229,0.0295 0.44582,-0.0557 0.57647,-0.18635 z m -8.95204,-13.20782 c -0.43154,-0.14152 -0.77888,-0.45406 -0.94815,-0.85318 -0.14837,-0.34984 -0.0918,-0.95919 0.12113,-1.30351 0.25458,-0.41176 0.6201,-0.61867 1.13649,-0.6433 0.46539,-0.0222 0.71677,0.0606 1.03664,0.34146 0.3248,0.28518 0.45299,0.58191 0.45346,1.04966 6.1e-4,0.60561 -0.2788,1.06569 -0.79634,1.31128 -0.2438,0.11569 -0.78693,0.16852 -1.00323,0.0976 z m 0.77846,-1.00265 c 0.38864,-0.38865 0.14301,-0.96118 -0.41238,-0.96118 -0.29118,0 -0.54879,0.25761 -0.54879,0.54879 0,0.55686 0.5715,0.80205 0.96117,0.41239 z m 2.99016,0.89327 c -0.51444,-0.26725 -0.84138,-0.88145 -0.77382,-1.45374 0.0383,-0.32485 0.16197,-0.58257 0.40181,-0.83767 0.88796,-0.94443 2.49814,-0.30957 2.49608,0.98415 -0.002,1.11755 -1.14037,1.81829 -2.12407,1.30726 z m 1.09921,-0.86599 c 0.29599,-0.29598 0.20047,-0.82105 -0.17788,-0.97776 -0.3415,-0.14146 -0.74113,0.0587 -0.8297,0.41554 -0.14531,0.58547 0.57976,0.99004 1.00758,0.56222 z m 2.96287,0.86599 c -0.51444,-0.26725 -0.84138,-0.88145 -0.77382,-1.45374 0.0383,-0.32485 0.16197,-0.58257 0.40181,-0.83767 0.88796,-0.94443 2.49814,-0.30957 2.49608,0.98415 -0.002,1.11755 -1.14037,1.81829 -2.12407,1.30726 z m 1.09921,-0.86599 c 0.29599,-0.29598 0.20047,-0.82105 -0.17788,-0.97776 -0.3415,-0.14146 -0.74113,0.0587 -0.8297,0.41554 -0.14531,0.58547 0.57976,0.99004 1.00758,0.56222 z m -8.92991,-3.08671 c -0.28059,-0.092 -0.50005,-0.23301 -0.6778,-0.43546 -0.28046,-0.31942 -0.36325,-0.57097 -0.34107,-1.03619 0.0375,-0.7864 0.54194,-1.29083 1.32834,-1.32834 0.46539,-0.0222 0.71677,0.0606 1.03664,0.34146 0.3248,0.28518 0.45299,0.58191 0.45346,1.04966 6.1e-4,0.60561 -0.2788,1.06569 -0.79634,1.31128 -0.2438,0.11569 -0.78693,0.16852 -1.00323,0.0976 z m 0.77846,-1.00266 c 0.38864,-0.38864 0.14301,-0.96117 -0.41238,-0.96117 -0.29118,0 -0.54879,0.25761 -0.54879,0.54879 0,0.55686 0.5715,0.80205 0.96117,0.41238 z m 2.99016,0.89327 c -0.51444,-0.26724 -0.84138,-0.88145 -0.77382,-1.45373 0.0383,-0.32485 0.16197,-0.58257 0.40181,-0.83767 0.88796,-0.94444 2.49814,-0.30957 2.49608,0.98415 -0.002,1.11755 -1.14037,1.81829 -2.12407,1.30725 z m 1.09921,-0.86598 c 0.29599,-0.29599 0.20047,-0.82106 -0.17788,-0.97777 -0.3415,-0.14146 -0.74113,0.0587 -0.8297,0.41555 -0.14531,0.58547 0.57976,0.99004 1.00758,0.56222 z m 2.96287,0.86598 c -0.51444,-0.26724 -0.84138,-0.88145 -0.77382,-1.45373 0.0383,-0.32485 0.16197,-0.58257 0.40181,-0.83767 0.88796,-0.94444 2.49814,-0.30957 2.49608,0.98415 -0.002,1.11755 -1.14037,1.81829 -2.12407,1.30725 z m 1.09921,-0.86598 c 0.29599,-0.29599 0.20047,-0.82106 -0.17788,-0.97777 -0.3415,-0.14146 -0.74113,0.0587 -0.8297,0.41555 -0.14531,0.58547 0.57976,0.99004 1.00758,0.56222 z m -8.92991,-3.08671 c -0.28059,-0.092 -0.50005,-0.23301 -0.6778,-0.43546 -0.28046,-0.31942 -0.36325,-0.57097 -0.34107,-1.03619 0.0375,-0.7864 0.54194,-1.29083 1.32834,-1.32834 0.46539,-0.0222 0.71677,0.0606 1.03664,0.34146 0.3248,0.28518 0.45299,0.58191 0.45346,1.04966 6.1e-4,0.60561 -0.2788,1.06569 -0.79634,1.31128 -0.2438,0.11569 -0.78693,0.16852 -1.00323,0.0976 z m 0.77846,-1.00266 c 0.38864,-0.38864 0.14301,-0.96117 -0.41238,-0.96117 -0.29118,0 -0.54879,0.25761 -0.54879,0.54879 0,0.55686 0.5715,0.80205 0.96117,0.41238 z m 2.99016,0.89327 c -0.51444,-0.26725 -0.84138,-0.88145 -0.77382,-1.45373 0.0383,-0.32485 0.16197,-0.58258 0.40181,-0.83767 0.88796,-0.94444 2.49814,-0.30957 2.49608,0.98415 -0.002,1.11755 -1.14037,1.81829 -2.12407,1.30725 z m 1.09921,-0.86598 c 0.29599,-0.29599 0.20047,-0.82106 -0.17788,-0.97777 -0.3415,-0.14146 -0.74113,0.0587 -0.8297,0.41555 -0.14531,0.58546 0.57976,0.99004 1.00758,0.56222 z m 2.96287,0.86598 c -0.51444,-0.26725 -0.84138,-0.88145 -0.77382,-1.45373 0.0383,-0.32485 0.16197,-0.58258 0.40181,-0.83767 0.88796,-0.94444 2.49814,-0.30957 2.49608,0.98415 -0.002,1.11755 -1.14037,1.81829 -2.12407,1.30725 z m 1.09921,-0.86598 c 0.29599,-0.29599 0.20047,-0.82106 -0.17788,-0.97777 -0.3415,-0.14146 -0.74113,0.0587 -0.8297,0.41555 -0.14531,0.58546 0.57976,0.99004 1.00758,0.56222 z"
         id="path13" /></g></g></svg>
