<?xml version="1.0" encoding="UTF-8" standalone="no"?>
<!-- Created with Inkscape (http://www.inkscape.org/) -->

<svg
   width="58.071198mm"
   height="58.07119mm"
   viewBox="0 0 58.071198 58.07119"
   version="1.1"
   id="svg1"
   xml:space="preserve"
   xmlns="http://www.w3.org/2000/svg"
   xmlns:svg="http://www.w3.org/2000/svg"><defs
     id="defs1"><filter
       style="color-interpolation-filters:sRGB"
       id="filter154"
       x="-0.1648684"
       y="-0.1648684"
       width="1.3297368"
       height="1.3297368"><feFlood
         result="flood"
         in="SourceGraphic"
         flood-opacity="0.498039"
         flood-color="rgb(0,0,0)"
         id="feFlood152" /><feGaussianBlur
         result="blur"
         in="SourceGraphic"
         stdDeviation="3.000000"
         id="feGaussianBlur152" /><feOffset
         result="offset"
         in="blur"
         dx="0.000000"
         dy="0.000000"
         id="feOffset152" /><feComposite
         result="comp1"
         operator="in"
         in="flood"
         in2="offset"
         id="feComposite153" /><feComposite
         result="comp2"
         operator="over"
         in="SourceGraphic"
         in2="comp1"
         id="feComposite154" /></filter><filter
       style="color-interpolation-filters:sRGB"
       id="filter160"
       x="-0.16486844"
       y="-0.16486838"
       width="1.3297369"
       height="1.3297368"><feFlood
         result="flood"
         in="SourceGraphic"
         flood-opacity="0.498039"
         flood-color="rgb(0,0,0)"
         id="feFlood158" /><feGaussianBlur
         result="blur"
         in="SourceGraphic"
         stdDeviation="3.000000"
         id="feGaussianBlur158" /><feOffset
         result="offset"
         in="blur"
         dx="0.000000"
         dy="0.000000"
         id="feOffset158" /><feComposite
         result="comp1"
         operator="in"
         in="flood"
         in2="offset"
         id="feComposite159" /><feComposite
         result="comp2"
         operator="over"
         in="SourceGraphic"
         in2="comp1"
         id="feComposite160" /></filter><filter
       style="color-interpolation-filters:sRGB"
       id="filter164"
       x="-0.16486838"
       y="-0.16486842"
       width="1.3297368"
       height="1.3297368"><feFlood
         result="flood"
         in="SourceGraphic"
         flood-opacity="0.498039"
         flood-color="rgb(0,0,0)"
         id="feFlood162" /><feGaussianBlur
         result="blur"
         in="SourceGraphic"
         stdDeviation="3.000000"
         id="feGaussianBlur162" /><feOffset
         result="offset"
         in="blur"
         dx="0.000000"
         dy="0.000000"
         id="feOffset162" /><feComposite
         result="comp1"
         operator="in"
         in="flood"
         in2="offset"
         id="feComposite163" /><feComposite
         result="comp2"
         operator="over"
         in="SourceGraphic"
         in2="comp1"
         id="feComposite164" /></filter><filter
       style="color-interpolation-filters:sRGB"
       id="filter845"
       x="-0.10487212"
       y="-0.1329771"
       width="1.2097442"
       height="1.2659542"><feFlood
         result="flood"
         in="SourceGraphic"
         flood-opacity="0.541176"
         flood-color="rgb(0,175,231)"
         id="feFlood843" /><feGaussianBlur
         result="blur"
         in="SourceGraphic"
         stdDeviation="1.400000"
         id="feGaussianBlur843" /><feOffset
         result="offset"
         in="blur"
         dx="0.000000"
         dy="0.000000"
         id="feOffset843" /><feComposite
         result="comp1"
         operator="in"
         in="flood"
         in2="offset"
         id="feComposite844" /><feComposite
         result="comp2"
         operator="over"
         in="SourceGraphic"
         in2="comp1"
         id="feComposite845" /></filter><filter
       style="color-interpolation-filters:sRGB"
       id="filter851"
       x="-0.13607347"
       y="-0.097195362"
       width="1.2721469"
       height="1.1943907"><feFlood
         result="flood"
         in="SourceGraphic"
         flood-opacity="0.541176"
         flood-color="rgb(0,175,231)"
         id="feFlood849" /><feGaussianBlur
         result="blur"
         in="SourceGraphic"
         stdDeviation="1.400000"
         id="feGaussianBlur849" /><feOffset
         result="offset"
         in="blur"
         dx="0.000000"
         dy="0.000000"
         id="feOffset849" /><feComposite
         result="comp1"
         operator="in"
         in="flood"
         in2="offset"
         id="feComposite850" /><feComposite
         result="comp2"
         operator="over"
         in="SourceGraphic"
         in2="comp1"
         id="feComposite851" /></filter><filter
       style="color-interpolation-filters:sRGB"
       id="filter855"
       x="-0.11470411"
       y="-0.11470395"
       width="1.2294082"
       height="1.2294079"><feFlood
         result="flood"
         in="SourceGraphic"
         flood-opacity="0.541176"
         flood-color="rgb(0,175,231)"
         id="feFlood853" /><feGaussianBlur
         result="blur"
         in="SourceGraphic"
         stdDeviation="1.400000"
         id="feGaussianBlur853" /><feOffset
         result="offset"
         in="blur"
         dx="0.000000"
         dy="0.000000"
         id="feOffset853" /><feComposite
         result="comp1"
         operator="in"
         in="flood"
         in2="offset"
         id="feComposite854" /><feComposite
         result="comp2"
         operator="over"
         in="SourceGraphic"
         in2="comp1"
         id="feComposite855" /></filter></defs><g
     id="layer1"
     transform="translate(-8.5244378,-129.79033)"><g
       id="g24"
       transform="translate(-157.46178,79.509701)"
       style="filter:url(#filter154)"><rect
         style="fill:#032055;fill-opacity:1;stroke-width:1.288"
         id="rect2-91"
         width="43.671196"
         height="43.671196"
         x="173.18622"
         y="57.480621"
         ry="21.835598" /><path
         style="fill:#bddaff;fill-opacity:1;filter:url(#filter845)"
         d="m 180.11969,91.913297 c -0.97275,-0.02469 -1.11739,-0.08524 -1.11739,-0.467714 0,-0.415085 0.11937,-0.486107 0.88219,-0.524893 l 0.68494,-0.03482 0.0176,-11.97455 c 0.0162,-11.021218 0.0268,-11.984673 0.13268,-12.101702 0.11069,-0.12231 0.65534,-0.127152 14.3021,-0.127152 13.64676,0 14.19141,0.0048 14.3021,0.127152 0.10591,0.117029 0.11647,1.080484 0.13268,12.101702 l 0.0176,11.97455 0.68494,0.03482 c 0.75341,0.03831 0.88219,0.11142 0.88219,0.500863 0,0.405437 -0.12726,0.446774 -1.53206,0.497659 -1.22788,0.04448 -27.61367,0.03917 -29.38959,-0.0059 z m 2.57407,-11.862599 c 0,-6.957198 0.0245,-10.915849 0.0682,-10.997387 0.0375,-0.07007 0.16754,-0.162034 0.28899,-0.204371 0.31329,-0.109214 23.48919,-0.109214 23.80248,0 0.12145,0.04234 0.2515,0.134304 0.289,0.204371 0.0436,0.08154 0.0682,4.040189 0.0682,10.997387 V 90.92069 h 0.62685 0.62685 V 79.289126 67.657562 H 195.02186 181.5794 V 79.289126 90.92069 h 0.5572 0.5572 z m 5.1541,0.318005 V 69.816715 h -2.0895 -2.0895 v 10.505554 c 0,5.778055 0.0209,10.52645 0.0464,10.551988 0.0255,0.02554 0.96582,0.04643 2.0895,0.04643 h 2.04307 z m 2.57706,0 V 69.816715 h -0.76615 -0.76616 V 80.368703 90.92069 h 0.76616 0.76615 z m 15.79338,-0.01741 0.0176,-10.534575 h -7.38313 -7.38313 v 10.552306 10.552305 l 7.36549,-0.01773 7.3655,-0.01773 z m -11.9498,3.805811 c -0.54186,-0.101702 -0.9481,-0.431727 -1.19103,-0.96757 -0.13481,-0.297375 -0.14209,-0.445393 -0.14209,-2.890478 0,-2.937177 -0.004,-2.910774 0.57827,-3.423715 0.9373,-0.825041 2.37244,-0.412843 2.73292,0.784941 0.0637,0.211787 0.0986,0.656191 0.0986,1.256841 v 0.929207 h 0.59203 c 0.67087,0 0.87063,0.110703 0.87063,0.482495 0,0.34739 -0.2675,0.492606 -0.90741,0.492606 h -0.54036 l -0.0278,1.062164 c -0.024,0.916113 -0.0483,1.101125 -0.17653,1.345515 -0.36797,0.701025 -1.12174,1.071671 -1.88724,0.927994 z m 0.82833,-1.171162 0.20359,-0.203593 V 81.80189 80.821431 h -0.19956 c -0.27809,0 -0.56659,-0.242936 -0.56659,-0.477108 0,-0.317147 0.17849,-0.497993 0.4915,-0.497993 h 0.27465 v -1.000428 c 0,-0.981819 -0.003,-1.003762 -0.1792,-1.179633 -0.25198,-0.251977 -0.53632,-0.300085 -0.81425,-0.137765 -0.39324,0.229663 -0.39763,0.260766 -0.39605,2.805377 0.002,2.493979 0.0112,2.569312 0.35242,2.758456 0.28928,0.160335 0.60736,0.119731 0.83349,-0.106395 z"
         id="path19" /></g><g
       id="g28"
       transform="translate(184.00703,-129.75243)"
       style="filter:url(#filter160)"><path
         id="rect2-5"
         style="fill:#032055;stroke-width:1.288"
         d="m -110.29572,212.64505 c 12.096925,0 21.835595,9.73868 21.835595,21.8356 0,12.09692 -9.73867,21.8356 -21.835595,21.8356 -12.09692,0 -21.83559,-9.73868 -21.83559,-21.8356 0,-12.09692 9.73867,-21.8356 21.83559,-21.8356 z" /><path
         style="fill:#bddaff;fill-opacity:1;filter:url(#filter851)"
         d="m -122.46373,251.58712 -0.17826,-0.17826 v -5.29514 c 0,-5.24698 0.001,-5.29688 0.15052,-5.4865 0.12573,-0.15983 0.20868,-0.19136 0.50349,-0.19136 0.40789,0 0.35534,0.0952 0.61436,-1.11334 l 0.18413,-0.85915 v -4.36053 c 0,-4.79683 0.0267,-5.19617 0.44192,-6.61357 0.11975,-0.40878 0.40919,-1.13541 0.6432,-1.61474 1.65164,-3.38311 4.93376,-5.63684 8.68296,-5.96235 l 0.581,-0.0504 0.45143,-0.42034 c 0.31526,-0.29354 0.58361,-0.46853 0.88966,-0.58012 l 0.43823,-0.15978 v -0.57457 c 0,-0.51321 0.019,-0.59361 0.17826,-0.75284 l 0.17826,-0.17826 h 5.1993 5.199292 l 0.17827,0.17826 c 0.17003,0.17003 0.17826,0.2197 0.17826,1.07569 0,0.7688 -0.019,0.91783 -0.13273,1.03988 -0.0924,0.0992 -0.91938,0.36249 -2.723332,0.86704 -1.42484,0.39852 -2.59066,0.74344 -2.59072,0.76649 -6e-5,0.0231 0.20848,0.0804 0.46343,0.12733 1.08065,0.19911 3.443342,1.07542 3.803192,1.41057 0.20391,0.18992 0.21221,0.51382 0.0182,0.70788 -0.2063,0.20629 -0.36673,0.18414 -1.116102,-0.15414 -1.34231,-0.60595 -2.96024,-1.05007 -4.47701,-1.22895 -1.0195,-0.12024 -1.15472,-0.0939 -1.2715,0.24751 -0.0528,0.15434 -0.19659,0.44247 -0.31956,0.6403 -0.22238,0.35772 -0.2236,0.3653 -0.2236,1.39296 v 1.03328 l 0.68757,0.15606 c 1.13769,0.25823 2.0464,0.78316 2.85839,1.65118 0.861,0.92041 1.3371,1.99723 1.46891,3.32235 0.0477,0.47926 0.0668,4.15372 0.0534,10.26053 l -0.0208,9.51389 -0.20343,0.41426 c -0.21678,0.44145 -0.46827,0.69316 -0.95011,0.95093 l -0.29896,0.15994 h -5.59214 c -5.5468,0 -5.59483,-0.001 -5.92543,-0.15417 -0.40168,-0.18578 -0.7876,-0.55738 -0.97854,-0.94222 -0.1368,-0.27571 -0.14118,-0.55909 -0.15957,-10.32493 -0.0205,-10.87466 -0.0328,-10.49303 0.36944,-11.48877 0.29864,-0.73936 0.6379,-1.24305 1.24857,-1.85372 0.84643,-0.84643 1.70265,-1.30756 2.87986,-1.55098 l 0.56848,-0.11755 v -1.02035 c 0,-1.35442 -0.0156,-1.37936 -0.82815,-1.32075 -0.68992,0.0498 -1.6627,0.31825 -2.41878,0.66759 -2.02836,0.93715 -3.53874,2.75569 -4.18151,5.03464 -0.1525,0.54071 -0.15796,0.69792 -0.18185,5.24175 l -0.0246,4.68431 0.19641,0.92597 0.19641,0.92597 h 0.35292 c 0.25609,0 0.39278,0.0399 0.49818,0.14526 0.14263,0.14263 0.14525,0.24208 0.14525,5.51423 v 5.36899 l -0.19136,0.15052 c -0.18541,0.14584 -0.27131,0.15052 -2.76306,0.15052 h -2.57169 z m 4.68762,-5.4865 v -4.648 h -1.92456 -1.92457 v 4.648 4.64801 h 1.92457 1.92456 z m 14.73774,4.5208 c 0.13696,-0.0698 0.31671,-0.21925 0.39944,-0.33203 0.1504,-0.20504 0.15041,-0.20591 0.15041,-10.1312 0,-9.15919 -0.01,-9.96097 -0.12475,-10.37678 -0.46011,-1.66199 -1.6721,-2.87576 -3.33114,-3.336 -0.39505,-0.1096 -0.78052,-0.12969 -2.53568,-0.13219 -2.34879,-0.003 -2.60794,0.0319 -3.55863,0.4845 -1.15198,0.54836 -2.10962,1.72803 -2.43185,2.99567 -0.0957,0.37627 -0.11,1.7292 -0.10976,10.34908 2.7e-4,9.81431 0.002,9.91869 0.14668,10.15636 0.2793,0.4581 0.0917,0.44384 5.88093,0.44684 4.87267,0.003 5.28389,-0.007 5.51435,-0.12425 z m -10.21882,-7.10311 -0.16141,-0.11304 0.001,-4.84362 c 6.1e-4,-2.66398 0.0251,-4.87957 0.0545,-4.92352 0.15778,-0.23629 0.36705,-0.2469 4.87011,-0.2469 4.32167,0 4.50626,0.005 4.67093,0.13881 l 0.17146,0.13881 0.0197,4.78798 c 0.0196,4.76393 0.0189,4.78895 -0.13236,4.98126 l -0.15203,0.19328 h -4.59027 c -4.037,0 -4.60971,-0.0136 -4.75167,-0.11306 z m 8.62623,-5.00701 v -4.10332 h -3.88116 c -2.45886,0 -3.89729,0.0261 -3.92519,0.0712 -0.0242,0.0392 -0.0209,1.88568 0.007,4.10332 l 0.0513,4.03208 h 3.87389 3.8739 z m -14.1619,1.89374 c 0,-0.017 -0.0686,-0.3287 -0.1524,-0.69276 l -0.15241,-0.66193 -0.59115,0.021 -0.59116,0.021 -0.12201,0.50838 c -0.21535,0.89725 -0.27016,0.83518 0.73763,0.83518 0.47933,0 0.8715,-0.0139 0.8715,-0.0308 z m -0.36312,-6.53223 c 0,-4.57449 0.0194,-4.84261 0.44199,-6.10393 0.44682,-1.33365 1.18051,-2.47189 2.25178,-3.4934 1.29497,-1.23482 2.84671,-1.99691 4.65952,-2.28844 l 0.56284,-0.0905 v -0.50287 -0.50286 l -0.34497,0.0458 c -0.74222,0.0985 -1.53413,0.28011 -2.12428,0.48725 -2.7863,0.97805 -5.03041,3.24009 -5.95639,6.00396 -0.46898,1.39978 -0.45542,1.22907 -0.4867,6.12684 l -0.0286,4.4846 h 0.51242 0.51243 z m 11.6047,-9.25968 0.021,-0.68039 -0.27518,0.0621 c -0.34783,0.0785 -1.0639,0.0816 -1.41903,0.006 l -0.27234,-0.0577 v 0.69533 0.69534 l 0.96228,-0.0203 0.96228,-0.0203 z m -0.48278,-1.61895 c 0.3664,-0.10978 0.82732,-0.50867 1.0167,-0.87989 0.18778,-0.36808 0.20232,-0.99469 0.0324,-1.39614 -0.32037,-0.75689 -1.13472,-1.17143 -1.92758,-0.98123 -0.50905,0.12212 -0.89133,0.42267 -1.11918,0.8799 -0.67046,1.34544 0.55887,2.80843 1.99766,2.37736 z m 5.45883,-3.18803 c 1.72533,-0.48163 3.243183,-0.90902 3.372993,-0.94976 0.21359,-0.067 0.23604,-0.10116 0.23604,-0.35894 v -0.28487 h -4.539073 -4.53907 v 0.25281 c 0,0.21571 0.0293,0.25986 0.19972,0.30089 0.70623,0.17004 1.48663,0.83828 1.76593,1.51214 0.092,0.22188 0.21204,0.40342 0.26685,0.40342 0.0548,0 1.51128,-0.39405 3.23661,-0.87569 z"
         id="path12" /></g><g
       id="g26"
       transform="translate(125.03727,-54.02887)"
       style="filter:url(#filter164)"><path
         id="rect2-2"
         style="fill:#032055;stroke-width:1.288"
         d="m -35.11251,202.13105 c 12.096923,0 21.835603,9.73867 21.835603,21.83559 0,12.09693 -9.73868,21.8356 -21.835603,21.8356 -12.096921,0 -21.835598,-9.73867 -21.835598,-21.8356 0,-12.09692 9.738677,-21.83559 21.835598,-21.83559 z" /><path
         style="fill:#bddaff;fill-opacity:1;filter:url(#filter855)"
         d="m -49.618458,238.47247 -0.14043,-0.14043 v -11.2671 c 0,-10.92326 0.003,-11.27114 0.10706,-11.39931 0.14875,-0.18371 0.49532,-0.18371 0.64408,0 0.10224,0.12627 0.10705,0.3066 0.10705,4.01654 v 3.88435 l 6.67955,-0.0145 6.67954,-0.0145 0.0146,-6.67954 0.0145,-6.67955 h -6.69409 -6.69409 v 1.93751 c 0,1.87349 -0.004,1.94248 -0.11858,2.08825 -0.16398,0.20847 -0.45704,0.20847 -0.62103,0 -0.11535,-0.14664 -0.11858,-0.21139 -0.11858,-2.37692 v -2.22617 l 0.14043,-0.14043 0.14043,-0.14043 h 14.36552 14.36551 l 0.14043,0.14043 0.140431,0.14043 v 7.23226 c 0,7.22654 -9e-5,7.23237 -0.118401,7.38277 l -0.1184,0.15052 -6.99024,0.0145 -6.99024,0.0145 -0.0286,4.42428 c -0.0278,4.29613 -0.0318,4.42664 -0.13966,4.50548 -0.15127,0.11059 -0.39447,0.10209 -0.54111,-0.0189 l -0.12132,-0.10012 -0.0137,-4.40536 -0.0138,-4.40535 -6.67954,-0.0145 -6.67955,-0.0145 v 6.69409 6.69409 h 6.69385 6.69385 v -1.47866 c 0,-1.6575 0.003,-1.66803 0.41043,-1.66803 0.3913,0 0.39054,-0.004 0.39054,1.98849 v 1.77923 l -0.15074,0.11857 c -0.1507,0.11854 -0.15296,0.11858 -7.383,0.11858 h -7.23226 z m 28.29414,-21.60028 v -6.69385 h -6.69386 -6.69385 v 6.65571 c 0,3.66064 0.0172,6.67287 0.0382,6.69385 0.021,0.021 3.03321,0.0381 6.69385,0.0381 h 6.65571 z m -11.16316,5.41412 c -0.34186,-0.12334 -0.59879,-0.30922 -0.75616,-0.54702 -0.40833,-0.61703 -0.31598,-1.41433 0.21814,-1.88329 0.40813,-0.35834 0.34815,-0.35203 3.351,-0.35203 h 2.73506 l 0.11857,0.15074 c 0.14959,0.19017 0.14959,0.30932 0,0.49949 l -0.11857,0.15074 -2.5275,3.2e-4 c -1.50855,1.9e-4 -2.61053,0.0234 -2.73347,0.0575 -0.2698,0.0749 -0.39738,0.22383 -0.43553,0.50823 -0.0279,0.20822 -0.0106,0.25213 0.17076,0.43352 l 0.20184,0.20185 h 4.20711 c 2.53524,0 4.26424,-0.0217 4.35087,-0.0546 0.19633,-0.0747 0.33283,-0.30114 0.33283,-0.55225 0,-0.15762 -0.0438,-0.2528 -0.17794,-0.38698 l -0.17795,-0.17795 -0.82669,-0.0291 c -0.74045,-0.0261 -0.83568,-0.0411 -0.91299,-0.14355 -0.1215,-0.16108 -0.11024,-0.38573 0.0267,-0.53273 0.11024,-0.11833 0.1645,-0.12514 0.98692,-0.12395 0.97671,0.001 1.17378,0.0536 1.5238,0.40363 0.37272,0.37271 0.50241,0.94408 0.33849,1.49122 -0.086,0.28697 -0.39805,0.64883 -0.69782,0.80914 l -0.237,0.12675 -4.37675,0.0125 c -3.48154,0.01 -4.41908,-0.003 -4.58373,-0.0622 z m 0,-4.06208 c -0.34186,-0.12335 -0.59879,-0.30922 -0.75616,-0.54702 -0.40833,-0.61703 -0.31598,-1.41433 0.21814,-1.88329 0.42024,-0.36898 0.17922,-0.35216 5.02861,-0.35077 4.92642,0.001 4.64127,-0.0213 5.06622,0.40362 0.37272,0.37272 0.50241,0.94409 0.33849,1.49122 -0.086,0.28697 -0.39805,0.64883 -0.69782,0.80915 l -0.237,0.12675 -4.37675,0.0125 c -3.48154,0.01 -4.41908,-0.003 -4.58373,-0.0622 z m 8.78212,-0.83457 c 0.19633,-0.0747 0.33283,-0.30114 0.33283,-0.55225 0,-0.15774 -0.0438,-0.25282 -0.17843,-0.38749 l -0.17844,-0.17846 -4.0467,-0.0172 c -2.22568,-0.009 -4.1566,-10e-4 -4.29092,0.018 -0.33539,0.0483 -0.52731,0.22649 -0.56761,0.52696 -0.0295,0.21985 -0.0143,0.25953 0.16945,0.4433 l 0.20184,0.20184 h 4.20711 c 2.53524,0 4.26424,-0.0217 4.35087,-0.0546 z m -8.78212,-3.22751 c -0.34186,-0.12335 -0.59879,-0.30922 -0.75616,-0.54702 -0.40833,-0.61703 -0.31598,-1.41433 0.21814,-1.88329 0.42024,-0.36898 0.17922,-0.35216 5.02861,-0.35078 4.92642,0.001 4.64127,-0.0213 5.06622,0.40363 0.37272,0.37272 0.50241,0.94409 0.33849,1.49122 -0.086,0.28697 -0.39805,0.64883 -0.69782,0.80915 l -0.237,0.12675 -4.37675,0.0125 c -3.48154,0.01 -4.41908,-0.003 -4.58373,-0.0622 z m 8.78212,-0.83458 c 0.19633,-0.0746 0.33283,-0.30113 0.33283,-0.55224 0,-0.15774 -0.0438,-0.25282 -0.17843,-0.38749 l -0.17844,-0.17846 -4.0467,-0.0172 c -2.22568,-0.009 -4.1566,-0.001 -4.29092,0.018 -0.33539,0.0483 -0.52731,0.22649 -0.56761,0.52696 -0.0295,0.21985 -0.0143,0.25953 0.16945,0.4433 l 0.20184,0.20184 h 4.20711 c 2.53524,0 4.26424,-0.0217 4.35087,-0.0547 z m -23.16557,23.11864 c -0.29378,-0.13346 -0.5878,-0.42748 -0.72126,-0.72127 -0.0983,-0.21641 -0.10461,-0.49291 -0.10579,-4.64279 -10e-4,-4.84939 -0.0182,-4.60837 0.35078,-5.0286 0.28518,-0.32481 0.58191,-0.45299 1.04966,-0.45347 0.607,-6.1e-4 1.05628,0.27297 1.31951,0.80351 0.10674,0.21513 0.1108,0.38693 0.1108,4.68589 v 4.46257 l -0.12535,0.23426 c -0.14922,0.27887 -0.45846,0.56281 -0.74195,0.68126 -0.28352,0.11846 -0.85213,0.10778 -1.1364,-0.0214 z m 1.02902,-0.92386 c 0.11484,-0.11483 0.11672,-0.17763 0.13187,-4.4105 l 0.0154,-4.29401 -0.20291,-0.20291 c -0.1849,-0.1849 -0.22433,-0.20003 -0.44437,-0.17052 -0.30047,0.0403 -0.47864,0.23222 -0.52696,0.56761 -0.0194,0.13432 -0.0274,2.06404 -0.018,4.28827 l 0.0172,4.04404 0.16522,0.17242 c 0.0909,0.0948 0.21959,0.18121 0.28606,0.19195 0.18229,0.0295 0.44582,-0.0557 0.57647,-0.18635 z m 3.03306,0.92386 c -0.29378,-0.13346 -0.5878,-0.42748 -0.72126,-0.72127 -0.0983,-0.21641 -0.10461,-0.49291 -0.10579,-4.64279 -0.001,-4.84939 -0.0182,-4.60837 0.35078,-5.0286 0.28518,-0.32481 0.58191,-0.45299 1.04966,-0.45347 0.607,-6.1e-4 1.05628,0.27297 1.31951,0.80351 0.10674,0.21513 0.1108,0.38693 0.1108,4.68589 v 4.46257 l -0.12535,0.23426 c -0.14922,0.27887 -0.45846,0.56281 -0.74195,0.68126 -0.28352,0.11846 -0.85213,0.10778 -1.1364,-0.0214 z m 1.02902,-0.92386 c 0.11484,-0.11483 0.11672,-0.17763 0.13187,-4.4105 l 0.0154,-4.29401 -0.20291,-0.20291 c -0.1849,-0.1849 -0.22433,-0.20003 -0.44437,-0.17052 -0.30047,0.0403 -0.47864,0.23222 -0.52696,0.56761 -0.0194,0.13432 -0.0274,2.06404 -0.018,4.28827 l 0.0172,4.04404 0.16522,0.17242 c 0.0909,0.0948 0.21959,0.18121 0.28606,0.19195 0.18229,0.0295 0.44582,-0.0557 0.57647,-0.18635 z m 3.03306,0.92386 c -0.29378,-0.13346 -0.5878,-0.42748 -0.72126,-0.72127 -0.0983,-0.21641 -0.10461,-0.49291 -0.10579,-4.64279 -10e-4,-4.84939 -0.0182,-4.60837 0.35078,-5.0286 0.28518,-0.32481 0.58191,-0.45299 1.04966,-0.45347 0.607,-6.1e-4 1.05628,0.27297 1.31951,0.80351 0.10674,0.21513 0.1108,0.38693 0.1108,4.68589 v 4.46257 l -0.12535,0.23426 c -0.14922,0.27887 -0.45846,0.56281 -0.74195,0.68126 -0.28352,0.11846 -0.85213,0.10778 -1.1364,-0.0214 z m 1.02902,-0.92386 c 0.11484,-0.11483 0.11672,-0.17763 0.13187,-4.4105 l 0.0154,-4.29401 -0.20291,-0.20291 c -0.1849,-0.1849 -0.22433,-0.20003 -0.44437,-0.17052 -0.30047,0.0403 -0.47864,0.23222 -0.52696,0.56761 -0.0194,0.13432 -0.0274,2.06404 -0.018,4.28827 l 0.0172,4.04404 0.16522,0.17242 c 0.0909,0.0948 0.21959,0.18121 0.28606,0.19195 0.18229,0.0295 0.44582,-0.0557 0.57647,-0.18635 z m -8.95204,-13.20782 c -0.43154,-0.14152 -0.77888,-0.45406 -0.94815,-0.85318 -0.14837,-0.34984 -0.0918,-0.95919 0.12113,-1.30351 0.25458,-0.41176 0.6201,-0.61867 1.13649,-0.6433 0.46539,-0.0222 0.71677,0.0606 1.03664,0.34146 0.3248,0.28518 0.45299,0.58191 0.45346,1.04966 6.1e-4,0.60561 -0.2788,1.06569 -0.79634,1.31128 -0.2438,0.11569 -0.78693,0.16852 -1.00323,0.0976 z m 0.77846,-1.00265 c 0.38864,-0.38865 0.14301,-0.96118 -0.41238,-0.96118 -0.29118,0 -0.54879,0.25761 -0.54879,0.54879 0,0.55686 0.5715,0.80205 0.96117,0.41239 z m 2.99016,0.89327 c -0.51444,-0.26725 -0.84138,-0.88145 -0.77382,-1.45374 0.0383,-0.32485 0.16197,-0.58257 0.40181,-0.83767 0.88796,-0.94443 2.49814,-0.30957 2.49608,0.98415 -0.002,1.11755 -1.14037,1.81829 -2.12407,1.30726 z m 1.09921,-0.86599 c 0.29599,-0.29598 0.20047,-0.82105 -0.17788,-0.97776 -0.3415,-0.14146 -0.74113,0.0587 -0.8297,0.41554 -0.14531,0.58547 0.57976,0.99004 1.00758,0.56222 z m 2.96287,0.86599 c -0.51444,-0.26725 -0.84138,-0.88145 -0.77382,-1.45374 0.0383,-0.32485 0.16197,-0.58257 0.40181,-0.83767 0.88796,-0.94443 2.49814,-0.30957 2.49608,0.98415 -0.002,1.11755 -1.14037,1.81829 -2.12407,1.30726 z m 1.09921,-0.86599 c 0.29599,-0.29598 0.20047,-0.82105 -0.17788,-0.97776 -0.3415,-0.14146 -0.74113,0.0587 -0.8297,0.41554 -0.14531,0.58547 0.57976,0.99004 1.00758,0.56222 z m -8.92991,-3.08671 c -0.28059,-0.092 -0.50005,-0.23301 -0.6778,-0.43546 -0.28046,-0.31942 -0.36325,-0.57097 -0.34107,-1.03619 0.0375,-0.7864 0.54194,-1.29083 1.32834,-1.32834 0.46539,-0.0222 0.71677,0.0606 1.03664,0.34146 0.3248,0.28518 0.45299,0.58191 0.45346,1.04966 6.1e-4,0.60561 -0.2788,1.06569 -0.79634,1.31128 -0.2438,0.11569 -0.78693,0.16852 -1.00323,0.0976 z m 0.77846,-1.00266 c 0.38864,-0.38864 0.14301,-0.96117 -0.41238,-0.96117 -0.29118,0 -0.54879,0.25761 -0.54879,0.54879 0,0.55686 0.5715,0.80205 0.96117,0.41238 z m 2.99016,0.89327 c -0.51444,-0.26724 -0.84138,-0.88145 -0.77382,-1.45373 0.0383,-0.32485 0.16197,-0.58257 0.40181,-0.83767 0.88796,-0.94444 2.49814,-0.30957 2.49608,0.98415 -0.002,1.11755 -1.14037,1.81829 -2.12407,1.30725 z m 1.09921,-0.86598 c 0.29599,-0.29599 0.20047,-0.82106 -0.17788,-0.97777 -0.3415,-0.14146 -0.74113,0.0587 -0.8297,0.41555 -0.14531,0.58547 0.57976,0.99004 1.00758,0.56222 z m 2.96287,0.86598 c -0.51444,-0.26724 -0.84138,-0.88145 -0.77382,-1.45373 0.0383,-0.32485 0.16197,-0.58257 0.40181,-0.83767 0.88796,-0.94444 2.49814,-0.30957 2.49608,0.98415 -0.002,1.11755 -1.14037,1.81829 -2.12407,1.30725 z m 1.09921,-0.86598 c 0.29599,-0.29599 0.20047,-0.82106 -0.17788,-0.97777 -0.3415,-0.14146 -0.74113,0.0587 -0.8297,0.41555 -0.14531,0.58547 0.57976,0.99004 1.00758,0.56222 z m -8.92991,-3.08671 c -0.28059,-0.092 -0.50005,-0.23301 -0.6778,-0.43546 -0.28046,-0.31942 -0.36325,-0.57097 -0.34107,-1.03619 0.0375,-0.7864 0.54194,-1.29083 1.32834,-1.32834 0.46539,-0.0222 0.71677,0.0606 1.03664,0.34146 0.3248,0.28518 0.45299,0.58191 0.45346,1.04966 6.1e-4,0.60561 -0.2788,1.06569 -0.79634,1.31128 -0.2438,0.11569 -0.78693,0.16852 -1.00323,0.0976 z m 0.77846,-1.00266 c 0.38864,-0.38864 0.14301,-0.96117 -0.41238,-0.96117 -0.29118,0 -0.54879,0.25761 -0.54879,0.54879 0,0.55686 0.5715,0.80205 0.96117,0.41238 z m 2.99016,0.89327 c -0.51444,-0.26725 -0.84138,-0.88145 -0.77382,-1.45373 0.0383,-0.32485 0.16197,-0.58258 0.40181,-0.83767 0.88796,-0.94444 2.49814,-0.30957 2.49608,0.98415 -0.002,1.11755 -1.14037,1.81829 -2.12407,1.30725 z m 1.09921,-0.86598 c 0.29599,-0.29599 0.20047,-0.82106 -0.17788,-0.97777 -0.3415,-0.14146 -0.74113,0.0587 -0.8297,0.41555 -0.14531,0.58546 0.57976,0.99004 1.00758,0.56222 z m 2.96287,0.86598 c -0.51444,-0.26725 -0.84138,-0.88145 -0.77382,-1.45373 0.0383,-0.32485 0.16197,-0.58258 0.40181,-0.83767 0.88796,-0.94444 2.49814,-0.30957 2.49608,0.98415 -0.002,1.11755 -1.14037,1.81829 -2.12407,1.30725 z m 1.09921,-0.86598 c 0.29599,-0.29599 0.20047,-0.82106 -0.17788,-0.97777 -0.3415,-0.14146 -0.74113,0.0587 -0.8297,0.41555 -0.14531,0.58546 0.57976,0.99004 1.00758,0.56222 z"
         id="path13" /></g></g></svg>
