<?xml version="1.0" encoding="UTF-8"?>
<svg version="1.1" xmlns="http://www.w3.org/2000/svg" width="2048" height="2048">
<path d="M0 0 C0.73924713 -0.00705963 1.47849426 -0.01411926 2.24014282 -0.02139282 C32.97641168 -0.24840581 32.97641168 -0.24840581 45.9765625 3.203125 C46.76836914 3.40711914 47.56017578 3.61111328 48.37597656 3.82128906 C76.28290391 11.17535852 100.03192458 24.36083644 120.9765625 44.203125 C121.93304687 45.09515625 122.88953125 45.9871875 123.875 46.90625 C136.16926376 58.6042837 145.19628467 72.19105826 152.9765625 87.203125 C153.29608887 87.81091797 153.61561523 88.41871094 153.94482422 89.04492188 C173.35210708 126.41890518 174.15441457 170.59946541 162.33691406 210.35498047 C152.99796784 239.83237852 134.57217865 261.94670701 112.9765625 283.203125 C202.76331621 285.03148935 292.99259015 259.41738007 631.00061035 159.18011475 C639.11883775 156.51494255 647.23888717 153.85537821 655.36114502 151.20251465 C658.15607226 150.2886728 660.94988009 149.37146712 663.74365234 148.45410156 C665.43060405 147.90281113 667.11761249 147.35169424 668.8046875 146.80078125 C669.56369354 146.55056717 670.32269958 146.30035309 671.10470581 146.04255676 C680.66574242 142.9310678 690.23357958 141.90224952 699.7890625 145.890625 C714.44724783 153.40764312 718.97510671 164.90672004 723.859375 179.86328125 C724.44885914 181.63402594 725.03983291 183.40427526 725.6321106 185.17408752 C726.62251951 188.13561221 727.6113183 191.09762409 728.59523582 194.06131268 C731.49321844 202.78888498 734.44995583 211.49581659 737.42089844 220.19873047 C742.01517737 233.66047971 746.57849034 247.13238223 751.11793137 260.6127224 C753.76105847 268.45947529 756.41467317 276.30239152 759.09228516 284.13745117 C761.47223805 291.10160723 763.83267513 298.0720289 766.17043126 305.05046803 C767.39501733 308.70389691 768.6282875 312.3537659 769.88546371 315.99612236 C781.85774253 350.73034772 781.85774253 350.73034772 776.3515625 365.328125 C775.23046875 367.32421875 775.23046875 367.32421875 773.9765625 369.203125 C773.34041016 370.24146484 773.34041016 370.24146484 772.69140625 371.30078125 C764.21214862 383.93700083 748.79341245 387.39837558 735.03515625 391.59765625 C733.65877581 392.0213344 732.28252831 392.44544459 730.90640259 392.86994934 C727.95699184 393.77909737 725.00687953 394.68591568 722.05618286 395.59088135 C714.87376345 397.79416141 707.6955803 400.01117864 700.51740074 402.22822571 C698.8527686 402.74236099 697.18809667 403.25636746 695.523386 403.77024841 C678.10180539 409.14897103 660.70849502 414.61570473 643.32214355 420.10707474 C636.43909504 422.28090204 629.55547118 424.45290766 622.671875 426.625 C621.92328468 426.86124147 621.17469437 427.09748295 620.40341949 427.34088326 C604.74884201 432.28067779 589.08356587 437.18591013 573.4140625 442.078125 C572.45479984 442.37764887 572.45479984 442.37764887 571.47615814 442.68322372 C564.8652315 444.74743752 558.25410324 446.81100484 551.6428318 448.87411404 C535.67271984 453.85780154 519.70441319 458.8472692 503.73616409 463.83692169 C501.16297558 464.64096463 498.58977406 465.4449659 496.01657104 466.2489624 C473.16624557 473.38871103 450.31943852 480.53958059 427.4765625 487.703125 C403.37262479 495.26201799 379.26458331 502.80771104 355.15328979 510.34310913 C351.9791198 511.335163 348.8050059 512.32739625 345.63090515 513.31967163 C320.08650361 521.30362302 294.53146568 529.25271068 268.9765625 537.203125 C268.6465625 592.313125 268.3165625 647.423125 267.9765625 704.203125 C303.15930269 704.04488179 303.15930269 704.04488179 338.34179688 703.84277344 C345.16113281 703.82470703 345.16113281 703.82470703 348.35803223 703.8213501 C350.58104661 703.81522551 352.80404806 703.80119392 355.02697754 703.78082275 C358.4029839 703.75144305 361.77818138 703.74750427 365.15429688 703.74902344 C366.13729515 703.734631 367.12029343 703.72023857 368.13307953 703.70541 C375.55435366 703.74996122 380.8489003 705.42794537 386.4375 710.38671875 C387.06914063 711.13050781 387.70078125 711.87429688 388.3515625 712.640625 C388.99867187 713.38183594 389.64578125 714.12304688 390.3125 714.88671875 C393.34594464 719.10933066 394.22664039 722.72917237 394.22216618 727.88995403 C394.22604438 729.0336868 394.22992259 730.17741957 394.23391831 731.35581091 C394.22798185 732.61023748 394.22204539 733.86466404 394.21592903 735.15710354 C394.21668909 736.51038389 394.21833094 737.86366398 394.22077537 739.21694234 C394.22497177 742.9512571 394.21666298 746.68545724 394.2064232 750.41975648 C394.1975233 754.47678719 394.20029202 758.53381204 394.2016505 762.59084994 C394.20245616 769.70696436 394.19593338 776.8230428 394.18468285 783.93914795 C394.16803762 794.52176319 394.16295988 805.10436134 394.16064004 815.68698832 C394.15681959 832.40000113 394.14637727 849.11300136 394.13157958 865.82600776 C394.10823896 892.37047228 394.10561342 918.91490889 394.11002352 945.45938188 C394.11093104 951.1082058 394.11163642 956.75702974 394.11234772 962.40585369 C394.11249036 963.53198551 394.112633 964.65811733 394.11277996 965.81837436 C394.11306813 968.10044472 394.11335478 970.38251508 394.1136399 972.66458544 C394.11392873 974.95515889 394.11422351 977.24573234 394.11452421 979.53630579 C394.11806017 1006.55927898 394.11807574 1033.58225135 394.11523438 1060.60522461 C394.11511737 1061.78783858 394.11500037 1062.97045254 394.11487982 1064.1889033 C394.11093299 1102.51216889 394.08611486 1140.83539233 394.05253224 1179.15864216 C394.01815518 1218.56275565 394.01048994 1257.96679596 394.0341627 1297.37091897 C394.03748334 1302.93994745 394.0404707 1308.50897606 394.04323959 1314.07800484 C394.04379036 1315.17401051 394.04434112 1316.27001618 394.04490858 1317.39923415 C394.05292252 1335.01780014 394.03241256 1352.63622249 394.00078598 1370.25475717 C393.96949959 1387.97738778 393.96700692 1405.69983518 393.99374767 1423.42247491 C394.00872105 1433.94267919 394.00151875 1444.46231619 393.96207049 1454.98246008 C393.93787783 1462.0228366 393.94304927 1469.06280922 393.97137587 1476.10316896 C393.98665756 1480.10648975 393.9898295 1484.10871866 393.95689978 1488.1119579 C393.82424237 1505.31104964 394.88837017 1520.2129691 402.09579526 1536.14478392 C403.95757473 1540.49573726 404.9155653 1545.08256739 405.8515625 1549.703125 C406.0371875 1550.53585937 406.2228125 1551.36859375 406.4140625 1552.2265625 C406.98632218 1554.87830104 407.49402564 1557.53361787 407.9765625 1560.203125 C408.16275146 1561.21866455 408.34894043 1562.2342041 408.54077148 1563.28051758 C410.07540809 1572.63913964 410.31639254 1581.84781486 410.29223633 1591.30541992 C410.28908774 1593.8700668 410.3125919 1596.43354235 410.33789062 1598.99804688 C410.39591212 1614.02444434 408.60958594 1628.70967007 404.5390625 1643.203125 C404.32805908 1643.98292725 404.11705566 1644.76272949 403.8996582 1645.56616211 C402.4251135 1650.90411367 400.71002736 1656.11557175 398.67578125 1661.26953125 C397.86320764 1663.17390317 397.86320764 1663.17390317 397.9765625 1665.203125 C399.67039062 1664.95973389 399.67039062 1664.95973389 401.3984375 1664.71142578 C406.02006127 1664.13638562 410.57415219 1664.05866525 415.2265625 1664.0703125 C416.08411133 1664.06935577 416.94166016 1664.06839905 417.82519531 1664.06741333 C419.62695388 1664.06673693 421.42871495 1664.06855326 423.23046875 1664.07275391 C425.96880634 1664.07810983 428.70697994 1664.07279045 431.4453125 1664.06640625 C433.20572952 1664.06706713 434.96614645 1664.06834849 436.7265625 1664.0703125 C437.93940918 1664.06727615 437.93940918 1664.06727615 439.17675781 1664.06417847 C444.19415202 1664.08460143 449.00898144 1664.48931876 453.9765625 1665.203125 C453.81800781 1664.69007812 453.65945313 1664.17703125 453.49609375 1663.6484375 C452.63972534 1660.83803509 451.8057428 1658.02168253 450.9765625 1655.203125 C450.78368652 1654.54892578 450.59081055 1653.89472656 450.39208984 1653.22070312 C447.29146823 1642.62752059 444.7512765 1632.10322655 442.9765625 1621.203125 C442.71854858 1619.626521 442.71854858 1619.626521 442.45532227 1618.01806641 C441.93302419 1613.85619504 441.77990493 1609.80219942 441.73828125 1605.61328125 C441.7284874 1604.80010437 441.71869354 1603.98692749 441.70860291 1603.14910889 C441.53674149 1585.16558162 441.67640925 1567.77681066 445.9765625 1550.203125 C446.19086914 1549.3069043 446.40517578 1548.41068359 446.62597656 1547.48730469 C457.33178352 1503.9316563 483.80813564 1462.8483042 520.9765625 1437.203125 C521.62206055 1436.75630371 522.26755859 1436.30948242 522.93261719 1435.84912109 C567.29589767 1405.47379041 619.92597129 1395.04493171 672.73046875 1404.70703125 C708.26466088 1411.68973276 740.78843044 1429.36203756 766.9765625 1454.203125 C767.46592285 1454.65993652 767.9552832 1455.11674805 768.45947266 1455.58740234 C800.96801832 1486.09137247 823.81380749 1531.47279504 826.08384705 1576.32278442 C826.13992515 1578.57108906 826.16733976 1580.81743581 826.1796875 1583.06640625 C826.18538757 1583.89786667 826.19108765 1584.72932709 826.19696045 1585.58598328 C826.20635734 1587.34157056 826.21292314 1589.09717505 826.21679688 1590.8527832 C826.2263972 1593.47055147 826.25742711 1596.08749698 826.2890625 1598.70507812 C826.38472093 1613.8530503 824.64324326 1628.58983021 820.5390625 1643.203125 C820.32805908 1643.98292725 820.11705566 1644.76272949 819.8996582 1645.56616211 C818.4251135 1650.90411367 816.71002736 1656.11557175 814.67578125 1661.26953125 C813.86320764 1663.17390317 813.86320764 1663.17390317 813.9765625 1665.203125 C815.68779297 1664.96299683 815.68779297 1664.96299683 817.43359375 1664.71801758 C821.85205473 1664.16855815 826.21509597 1664.00935264 830.6640625 1663.96484375 C831.47582443 1663.9550499 832.28758636 1663.94525604 833.12394714 1663.93516541 C851.08615961 1663.76314043 868.41978337 1663.93736089 885.9765625 1668.203125 C887.28898926 1668.50863281 887.28898926 1668.50863281 888.62792969 1668.8203125 C931.93514591 1679.14901184 970.48193337 1705.67401216 996.9765625 1741.203125 C997.60175781 1742.03328125 998.22695312 1742.8634375 998.87109375 1743.71875 C1009.10432656 1757.81041485 1016.64095139 1773.02899326 1022.9765625 1789.203125 C1023.23808105 1789.86489746 1023.49959961 1790.52666992 1023.76904297 1791.20849609 C1030.24871986 1807.95852831 1034.03531089 1826.93268366 1034.21484375 1844.890625 C1034.22459229 1845.70256821 1034.23434082 1846.51451141 1034.24438477 1847.35105896 C1034.41538361 1865.28723452 1034.29776748 1882.67687745 1029.9765625 1900.203125 C1029.68773193 1901.37705811 1029.68773193 1901.37705811 1029.39306641 1902.57470703 C1028.12865991 1907.5256454 1026.63369969 1912.37070687 1024.9765625 1917.203125 C1024.75242676 1917.86715332 1024.52829102 1918.53118164 1024.29736328 1919.21533203 C1020.72435447 1929.66203315 1016.16907415 1939.46964301 1010.9765625 1949.203125 C1010.49316406 1950.11989014 1010.49316406 1950.11989014 1010 1951.05517578 C1005.1640556 1960.15451629 999.515571 1968.2751569 992.9765625 1976.203125 C992.49638672 1976.78626465 992.01621094 1977.3694043 991.52148438 1977.97021484 C981.11058283 1990.52912834 970.04101978 2001.42753897 956.9765625 2011.203125 C956.14511719 2011.82960938 955.31367187 2012.45609375 954.45703125 2013.1015625 C940.36305963 2023.32989625 925.15022463 2030.86769785 908.9765625 2037.203125 C908.31479004 2037.46464355 907.65301758 2037.72616211 906.97119141 2037.99560547 C890.22115919 2044.47528236 871.24700384 2048.26187339 853.2890625 2048.44140625 C852.07114769 2048.45602905 852.07114769 2048.45602905 850.82862854 2048.47094727 C832.89245298 2048.64194611 815.50281005 2048.52432998 797.9765625 2044.203125 C796.80262939 2043.91429443 796.80262939 2043.91429443 795.60498047 2043.61962891 C790.6540421 2042.35522241 785.80898063 2040.86026219 780.9765625 2039.203125 C780.31253418 2038.97898926 779.64850586 2038.75485352 778.96435547 2038.52392578 C768.51765435 2034.95091697 758.71004449 2030.39563665 748.9765625 2025.203125 C748.05979736 2024.71972656 748.05979736 2024.71972656 747.12451172 2024.2265625 C738.02147005 2019.38865107 729.92736824 2013.71640203 721.9765625 2007.203125 C721.43112793 2006.7606543 720.88569336 2006.31818359 720.32373047 2005.86230469 C707.65882455 1995.55046172 696.73772362 1984.29277397 686.9765625 1971.203125 C686.35136719 1970.37296875 685.72617188 1969.5428125 685.08203125 1968.6875 C674.84879844 1954.59583515 667.31217361 1939.37725674 660.9765625 1923.203125 C660.71504395 1922.54135254 660.45352539 1921.87958008 660.18408203 1921.19775391 C653.70440493 1904.44772114 649.91781531 1885.47356671 649.73828125 1867.515625 C649.72853271 1866.70372711 649.71878418 1865.89182922 649.70874023 1865.05532837 C649.53756015 1847.10089097 649.71419058 1829.75606924 653.9765625 1812.203125 C654.17975098 1811.35621094 654.38293945 1810.50929688 654.59228516 1809.63671875 C656.73980635 1800.91862485 659.28633678 1792.40820789 662.9765625 1784.203125 C662.21859375 1784.3475 661.460625 1784.491875 660.6796875 1784.640625 C642.54091024 1787.59535795 623.05323188 1787.64630012 604.9765625 1784.203125 C605.42386719 1785.3684375 605.87117188 1786.53375 606.33203125 1787.734375 C613.14171781 1806.00684508 618.01898474 1825.29964487 618.21484375 1844.890625 C618.22459229 1845.70256821 618.23434082 1846.51451141 618.24438477 1847.35105896 C618.41538361 1865.28723452 618.29776748 1882.67687745 613.9765625 1900.203125 C613.68773193 1901.37705811 613.68773193 1901.37705811 613.39306641 1902.57470703 C612.12865991 1907.5256454 610.63369969 1912.37070687 608.9765625 1917.203125 C608.75242676 1917.86715332 608.52829102 1918.53118164 608.29736328 1919.21533203 C604.72435447 1929.66203315 600.16907415 1939.46964301 594.9765625 1949.203125 C594.49316406 1950.11989014 594.49316406 1950.11989014 594 1951.05517578 C589.1640556 1960.15451629 583.515571 1968.2751569 576.9765625 1976.203125 C576.49638672 1976.78626465 576.01621094 1977.3694043 575.52148438 1977.97021484 C565.11058283 1990.52912834 554.04101978 2001.42753897 540.9765625 2011.203125 C540.14511719 2011.82960938 539.31367187 2012.45609375 538.45703125 2013.1015625 C524.36305963 2023.32989625 509.15022463 2030.86769785 492.9765625 2037.203125 C492.31479004 2037.46464355 491.65301758 2037.72616211 490.97119141 2037.99560547 C474.22115919 2044.47528236 455.24700384 2048.26187339 437.2890625 2048.44140625 C436.07114769 2048.45602905 436.07114769 2048.45602905 434.82862854 2048.47094727 C416.89245298 2048.64194611 399.50281005 2048.52432998 381.9765625 2044.203125 C380.80262939 2043.91429443 380.80262939 2043.91429443 379.60498047 2043.61962891 C374.6540421 2042.35522241 369.80898063 2040.86026219 364.9765625 2039.203125 C364.31253418 2038.97898926 363.64850586 2038.75485352 362.96435547 2038.52392578 C352.51765435 2034.95091697 342.71004449 2030.39563665 332.9765625 2025.203125 C332.05979736 2024.71972656 332.05979736 2024.71972656 331.12451172 2024.2265625 C322.02147005 2019.38865107 313.92736824 2013.71640203 305.9765625 2007.203125 C305.43112793 2006.7606543 304.88569336 2006.31818359 304.32373047 2005.86230469 C291.65882455 1995.55046172 280.73772362 1984.29277397 270.9765625 1971.203125 C270.35136719 1970.37296875 269.72617188 1969.5428125 269.08203125 1968.6875 C258.84879844 1954.59583515 251.31217361 1939.37725674 244.9765625 1923.203125 C244.71504395 1922.54135254 244.45352539 1921.87958008 244.18408203 1921.19775391 C237.70440493 1904.44772114 233.91781531 1885.47356671 233.73828125 1867.515625 C233.72853271 1866.70372711 233.71878418 1865.89182922 233.70874023 1865.05532837 C233.53756015 1847.10089097 233.71419058 1829.75606924 237.9765625 1812.203125 C238.17975098 1811.35621094 238.38293945 1810.50929688 238.59228516 1809.63671875 C240.73980635 1800.91862485 243.28633678 1792.40820789 246.9765625 1784.203125 C246.21859375 1784.3475 245.460625 1784.491875 244.6796875 1784.640625 C226.54091024 1787.59535795 207.05323188 1787.64630012 188.9765625 1784.203125 C189.42386719 1785.3684375 189.87117188 1786.53375 190.33203125 1787.734375 C197.14171781 1806.00684508 202.01898474 1825.29964487 202.21484375 1844.890625 C202.22459229 1845.70256821 202.23434082 1846.51451141 202.24438477 1847.35105896 C202.41538361 1865.28723452 202.29776748 1882.67687745 197.9765625 1900.203125 C197.68773193 1901.37705811 197.68773193 1901.37705811 197.39306641 1902.57470703 C196.12865991 1907.5256454 194.63369969 1912.37070687 192.9765625 1917.203125 C192.75242676 1917.86715332 192.52829102 1918.53118164 192.29736328 1919.21533203 C188.72435447 1929.66203315 184.16907415 1939.46964301 178.9765625 1949.203125 C178.49316406 1950.11989014 178.49316406 1950.11989014 178 1951.05517578 C173.1640556 1960.15451629 167.515571 1968.2751569 160.9765625 1976.203125 C160.49638672 1976.78626465 160.01621094 1977.3694043 159.52148438 1977.97021484 C149.11058283 1990.52912834 138.04101978 2001.42753897 124.9765625 2011.203125 C124.14511719 2011.82960938 123.31367187 2012.45609375 122.45703125 2013.1015625 C108.36305963 2023.32989625 93.15022463 2030.86769785 76.9765625 2037.203125 C76.31479004 2037.46464355 75.65301758 2037.72616211 74.97119141 2037.99560547 C58.22115919 2044.47528236 39.24700384 2048.26187339 21.2890625 2048.44140625 C20.07114769 2048.45602905 20.07114769 2048.45602905 18.82862854 2048.47094727 C0.89245298 2048.64194611 -16.49718995 2048.52432998 -34.0234375 2044.203125 C-35.19737061 2043.91429443 -35.19737061 2043.91429443 -36.39501953 2043.61962891 C-41.3459579 2042.35522241 -46.19101937 2040.86026219 -51.0234375 2039.203125 C-51.68746582 2038.97898926 -52.35149414 2038.75485352 -53.03564453 2038.52392578 C-63.48234565 2034.95091697 -73.28995551 2030.39563665 -83.0234375 2025.203125 C-83.94020264 2024.71972656 -83.94020264 2024.71972656 -84.87548828 2024.2265625 C-93.97852995 2019.38865107 -102.07263176 2013.71640203 -110.0234375 2007.203125 C-110.56887207 2006.7606543 -111.11430664 2006.31818359 -111.67626953 2005.86230469 C-124.34117545 1995.55046172 -135.26227638 1984.29277397 -145.0234375 1971.203125 C-145.64863281 1970.37296875 -146.27382813 1969.5428125 -146.91796875 1968.6875 C-157.15120156 1954.59583515 -164.68782639 1939.37725674 -171.0234375 1923.203125 C-171.28495605 1922.54135254 -171.54647461 1921.87958008 -171.81591797 1921.19775391 C-178.29559507 1904.44772114 -182.08218469 1885.47356671 -182.26171875 1867.515625 C-182.27146729 1866.70372711 -182.28121582 1865.89182922 -182.29125977 1865.05532837 C-182.46243985 1847.10089097 -182.28580942 1829.75606924 -178.0234375 1812.203125 C-177.82024902 1811.35621094 -177.61706055 1810.50929688 -177.40771484 1809.63671875 C-175.26019365 1800.91862485 -172.71366322 1792.40820789 -169.0234375 1784.203125 C-169.78140625 1784.3475 -170.539375 1784.491875 -171.3203125 1784.640625 C-189.45908976 1787.59535795 -208.94676812 1787.64630012 -227.0234375 1784.203125 C-226.57613281 1785.3684375 -226.12882813 1786.53375 -225.66796875 1787.734375 C-218.85828219 1806.00684508 -213.98101526 1825.29964487 -213.78515625 1844.890625 C-213.77540771 1845.70256821 -213.76565918 1846.51451141 -213.75561523 1847.35105896 C-213.58461639 1865.28723452 -213.70223252 1882.67687745 -218.0234375 1900.203125 C-218.21599121 1900.98574707 -218.40854492 1901.76836914 -218.60693359 1902.57470703 C-219.87134009 1907.5256454 -221.36630031 1912.37070687 -223.0234375 1917.203125 C-223.24757324 1917.86715332 -223.47170898 1918.53118164 -223.70263672 1919.21533203 C-227.27564553 1929.66203315 -231.83092585 1939.46964301 -237.0234375 1949.203125 C-237.50683594 1950.11989014 -237.50683594 1950.11989014 -238 1951.05517578 C-242.8359444 1960.15451629 -248.484429 1968.2751569 -255.0234375 1976.203125 C-255.50361328 1976.78626465 -255.98378906 1977.3694043 -256.47851562 1977.97021484 C-266.88941717 1990.52912834 -277.95898022 2001.42753897 -291.0234375 2011.203125 C-291.85488281 2011.82960938 -292.68632813 2012.45609375 -293.54296875 2013.1015625 C-307.63694037 2023.32989625 -322.84977537 2030.86769785 -339.0234375 2037.203125 C-339.68520996 2037.46464355 -340.34698242 2037.72616211 -341.02880859 2037.99560547 C-357.77884081 2044.47528236 -376.75299616 2048.26187339 -394.7109375 2048.44140625 C-395.92885231 2048.45602905 -395.92885231 2048.45602905 -397.17137146 2048.47094727 C-415.10754702 2048.64194611 -432.49718995 2048.52432998 -450.0234375 2044.203125 C-451.19737061 2043.91429443 -451.19737061 2043.91429443 -452.39501953 2043.61962891 C-457.3459579 2042.35522241 -462.19101937 2040.86026219 -467.0234375 2039.203125 C-467.68746582 2038.97898926 -468.35149414 2038.75485352 -469.03564453 2038.52392578 C-479.48234565 2034.95091697 -489.28995551 2030.39563665 -499.0234375 2025.203125 C-499.94020264 2024.71972656 -499.94020264 2024.71972656 -500.87548828 2024.2265625 C-509.97852995 2019.38865107 -518.07263176 2013.71640203 -526.0234375 2007.203125 C-526.56887207 2006.7606543 -527.11430664 2006.31818359 -527.67626953 2005.86230469 C-540.34117545 1995.55046172 -551.26227638 1984.29277397 -561.0234375 1971.203125 C-561.64863281 1970.37296875 -562.27382813 1969.5428125 -562.91796875 1968.6875 C-573.15120156 1954.59583515 -580.68782639 1939.37725674 -587.0234375 1923.203125 C-587.28495605 1922.54135254 -587.54647461 1921.87958008 -587.81591797 1921.19775391 C-594.29559507 1904.44772114 -598.08218469 1885.47356671 -598.26171875 1867.515625 C-598.27146729 1866.70372711 -598.28121582 1865.89182922 -598.29125977 1865.05532837 C-598.46243985 1847.10089097 -598.28580942 1829.75606924 -594.0234375 1812.203125 C-593.71865479 1810.93275391 -593.71865479 1810.93275391 -593.40771484 1809.63671875 C-591.26019365 1800.91862485 -588.71366322 1792.40820789 -585.0234375 1784.203125 C-585.78140625 1784.3475 -586.539375 1784.491875 -587.3203125 1784.640625 C-605.45908976 1787.59535795 -624.94676812 1787.64630012 -643.0234375 1784.203125 C-642.57613281 1785.3684375 -642.12882812 1786.53375 -641.66796875 1787.734375 C-634.85828219 1806.00684508 -629.98101526 1825.29964487 -629.78515625 1844.890625 C-629.77540771 1845.70256821 -629.76565918 1846.51451141 -629.75561523 1847.35105896 C-629.58461639 1865.28723452 -629.70223252 1882.67687745 -634.0234375 1900.203125 C-634.21599121 1900.98574707 -634.40854492 1901.76836914 -634.60693359 1902.57470703 C-635.87134009 1907.5256454 -637.36630031 1912.37070687 -639.0234375 1917.203125 C-639.24757324 1917.86715332 -639.47170898 1918.53118164 -639.70263672 1919.21533203 C-643.27564553 1929.66203315 -647.83092585 1939.46964301 -653.0234375 1949.203125 C-653.50683594 1950.11989014 -653.50683594 1950.11989014 -654 1951.05517578 C-658.8359444 1960.15451629 -664.484429 1968.2751569 -671.0234375 1976.203125 C-671.74370117 1977.07783447 -671.74370117 1977.07783447 -672.47851562 1977.97021484 C-682.88941717 1990.52912834 -693.95898022 2001.42753897 -707.0234375 2011.203125 C-708.27060547 2012.14285156 -708.27060547 2012.14285156 -709.54296875 2013.1015625 C-723.63694037 2023.32989625 -738.84977537 2030.86769785 -755.0234375 2037.203125 C-755.68520996 2037.46464355 -756.34698242 2037.72616211 -757.02880859 2037.99560547 C-773.77884081 2044.47528236 -792.75299616 2048.26187339 -810.7109375 2048.44140625 C-811.92885231 2048.45602905 -811.92885231 2048.45602905 -813.17137146 2048.47094727 C-831.10754702 2048.64194611 -848.49718995 2048.52432998 -866.0234375 2044.203125 C-867.19737061 2043.91429443 -867.19737061 2043.91429443 -868.39501953 2043.61962891 C-873.3459579 2042.35522241 -878.19101937 2040.86026219 -883.0234375 2039.203125 C-883.68746582 2038.97898926 -884.35149414 2038.75485352 -885.03564453 2038.52392578 C-895.48234565 2034.95091697 -905.28995551 2030.39563665 -915.0234375 2025.203125 C-915.63461426 2024.88085938 -916.24579102 2024.55859375 -916.87548828 2024.2265625 C-925.97852995 2019.38865107 -934.07263176 2013.71640203 -942.0234375 2007.203125 C-942.56887207 2006.7606543 -943.11430664 2006.31818359 -943.67626953 2005.86230469 C-956.34117545 1995.55046172 -967.26227638 1984.29277397 -977.0234375 1971.203125 C-977.64863281 1970.37296875 -978.27382813 1969.5428125 -978.91796875 1968.6875 C-989.15120156 1954.59583515 -996.68782639 1939.37725674 -1003.0234375 1923.203125 C-1003.41571533 1922.21046631 -1003.41571533 1922.21046631 -1003.81591797 1921.19775391 C-1010.29559507 1904.44772114 -1014.08218469 1885.47356671 -1014.26171875 1867.515625 C-1014.27146729 1866.70372711 -1014.28121582 1865.89182922 -1014.29125977 1865.05532837 C-1014.46267701 1847.07601629 -1014.21249482 1829.7908769 -1010.0234375 1812.203125 C-1009.76651123 1811.04441895 -1009.76651123 1811.04441895 -1009.50439453 1809.86230469 C-999.76564212 1766.54777669 -972.31885529 1727.52348398 -937.0234375 1701.203125 C-935.77820313 1700.26533203 -935.77820313 1700.26533203 -934.5078125 1699.30859375 C-920.41614765 1689.07536094 -905.19756924 1681.53873611 -889.0234375 1675.203125 C-888.36166504 1674.94160645 -887.69989258 1674.68008789 -887.01806641 1674.41064453 C-870.09346417 1667.86343599 -850.91915331 1664.02488493 -832.7734375 1664.0703125 C-831.91588867 1664.06935577 -831.05833984 1664.06839905 -830.17480469 1664.06741333 C-828.37304612 1664.06673693 -826.57128505 1664.06855326 -824.76953125 1664.07275391 C-822.03119366 1664.07810983 -819.29302006 1664.07279045 -816.5546875 1664.06640625 C-814.79427048 1664.06706713 -813.03385355 1664.06834849 -811.2734375 1664.0703125 C-810.06059082 1664.06727615 -810.06059082 1664.06727615 -808.82324219 1664.06417847 C-803.80584798 1664.08460143 -798.99101856 1664.48931876 -794.0234375 1665.203125 C-794.18199219 1664.69007812 -794.34054687 1664.17703125 -794.50390625 1663.6484375 C-795.36027466 1660.83803509 -796.1942572 1658.02168253 -797.0234375 1655.203125 C-797.21631348 1654.54892578 -797.40918945 1653.89472656 -797.60791016 1653.22070312 C-800.70853177 1642.62752059 -803.2487235 1632.10322655 -805.0234375 1621.203125 C-805.19544678 1620.15205566 -805.36745605 1619.10098633 -805.54467773 1618.01806641 C-806.06697581 1613.85619504 -806.22009507 1609.80219942 -806.26171875 1605.61328125 C-806.27640953 1604.39351593 -806.27640953 1604.39351593 -806.29139709 1603.14910889 C-806.46325851 1585.16558162 -806.32359075 1567.77681066 -802.0234375 1550.203125 C-801.80913086 1549.3069043 -801.59482422 1548.41068359 -801.37402344 1547.48730469 C-790.66821648 1503.9316563 -764.19186436 1462.8483042 -727.0234375 1437.203125 C-726.37793945 1436.75630371 -725.73244141 1436.30948242 -725.06738281 1435.84912109 C-680.70410233 1405.47379041 -628.07402871 1395.04493171 -575.26953125 1404.70703125 C-539.73533912 1411.68973276 -507.21156956 1429.36203756 -481.0234375 1454.203125 C-480.53407715 1454.65993652 -480.0447168 1455.11674805 -479.54052734 1455.58740234 C-447.03198168 1486.09137247 -424.18619251 1531.47279504 -421.91615295 1576.32278442 C-421.86007485 1578.57108906 -421.83266024 1580.81743581 -421.8203125 1583.06640625 C-421.81461243 1583.89786667 -421.80891235 1584.72932709 -421.80303955 1585.58598328 C-421.79364266 1587.34157056 -421.78707686 1589.09717505 -421.78320312 1590.8527832 C-421.7736028 1593.47055147 -421.74257289 1596.08749698 -421.7109375 1598.70507812 C-421.61527907 1613.8530503 -423.35675674 1628.58983021 -427.4609375 1643.203125 C-427.67194092 1643.98292725 -427.88294434 1644.76272949 -428.1003418 1645.56616211 C-429.5748865 1650.90411367 -431.28997264 1656.11557175 -433.32421875 1661.26953125 C-434.13679236 1663.17390317 -434.13679236 1663.17390317 -434.0234375 1665.203125 C-432.89421875 1665.04086426 -431.765 1664.87860352 -430.6015625 1664.71142578 C-425.97993873 1664.13638562 -421.42584781 1664.05866525 -416.7734375 1664.0703125 C-415.91588867 1664.06935577 -415.05833984 1664.06839905 -414.17480469 1664.06741333 C-412.37304612 1664.06673693 -410.57128505 1664.06855326 -408.76953125 1664.07275391 C-406.03119366 1664.07810983 -403.29302006 1664.07279045 -400.5546875 1664.06640625 C-398.79427048 1664.06706713 -397.03385355 1664.06834849 -395.2734375 1664.0703125 C-394.06059082 1664.06727615 -394.06059082 1664.06727615 -392.82324219 1664.06417847 C-387.80584798 1664.08460143 -382.99101856 1664.48931876 -378.0234375 1665.203125 C-378.18199219 1664.69007812 -378.34054687 1664.17703125 -378.50390625 1663.6484375 C-379.36027466 1660.83803509 -380.1942572 1658.02168253 -381.0234375 1655.203125 C-381.21631348 1654.54892578 -381.40918945 1653.89472656 -381.60791016 1653.22070312 C-384.70853177 1642.62752059 -387.2487235 1632.10322655 -389.0234375 1621.203125 C-389.19544678 1620.15205566 -389.36745605 1619.10098633 -389.54467773 1618.01806641 C-390.06697581 1613.85619504 -390.22009507 1609.80219942 -390.26171875 1605.61328125 C-390.2715126 1604.80010437 -390.28130646 1603.98692749 -390.29139709 1603.14910889 C-390.54056876 1577.07586067 -389.35247378 1550.69119549 -378.78934861 1526.36058174 C-375.24128666 1518.10294388 -374.3122924 1511.15535557 -374.40375423 1502.22565746 C-374.3995509 1500.85880899 -374.39315298 1499.49196586 -374.38478693 1498.12513652 C-374.3681959 1494.39036811 -374.38244386 1490.65627518 -374.40197277 1486.92154492 C-374.41767311 1482.8505089 -374.40413037 1478.77954982 -374.39434963 1474.70850974 C-374.3811953 1467.58061668 -374.38644439 1460.45292392 -374.40386772 1453.32504272 C-374.42966574 1442.72583331 -374.42664704 1432.12676803 -374.41761929 1421.52753798 C-374.40316183 1403.69419391 -374.41133024 1385.86092873 -374.43185234 1368.02759361 C-374.45960971 1343.67804848 -374.45558598 1319.32858251 -374.44326652 1294.97902844 C-374.43758003 1283.63279022 -374.43350337 1272.28655144 -374.42989445 1260.94031239 C-374.42953222 1259.80454883 -374.42916999 1258.66878528 -374.42879679 1257.49860465 C-374.42057333 1230.47522212 -374.42848894 1203.45184773 -374.4387207 1176.4284668 C-374.43916333 1175.24628529 -374.43960595 1174.06410379 -374.44006199 1172.8460986 C-374.44410325 1162.06735543 -374.44827404 1151.2886123 -374.45257252 1140.50986923 C-374.46306727 1114.11522262 -374.47130141 1087.72057563 -374.4777832 1061.32592773 C-374.47807903 1060.14362169 -374.47837486 1058.96131564 -374.47867965 1057.74318214 C-374.48535901 1030.75611012 -374.48816559 1003.76904393 -374.48018742 976.78197193 C-374.47968811 975.08125912 -374.47968811 975.08125912 -374.47917872 973.34618848 C-374.47578289 962.02805371 -374.47180188 950.70991932 -374.46690131 939.39178509 C-374.45653592 915.06654705 -374.45772226 890.74138437 -374.48200227 866.41615471 C-374.49956071 848.69030796 -374.50371041 830.96450335 -374.49370723 813.23865023 C-374.48825513 802.70228453 -374.49420852 792.16606363 -374.51614972 781.62971867 C-374.52972211 774.59672783 -374.52891391 767.56383476 -374.51632437 760.53084232 C-374.50957577 756.52062658 -374.50924206 752.51068758 -374.52653115 748.5004973 C-374.54214751 744.85242618 -374.53937316 741.20484946 -374.52193017 737.55679083 C-374.51745398 735.62657205 -374.53262495 733.69633824 -374.54859158 731.76618031 C-374.48338216 723.54297178 -373.44574419 718.06010749 -367.83984375 711.7421875 C-367.09605469 711.11054687 -366.35226562 710.47890625 -365.5859375 709.828125 C-364.84472656 709.18101562 -364.10351562 708.53390625 -363.33984375 707.8671875 C-357.60780418 703.74939853 -352.36515847 703.92666478 -345.54174805 703.97607422 C-344.47062932 703.97583315 -343.39951059 703.97559208 -342.29593372 703.9753437 C-338.83392297 703.97683469 -335.37212841 703.99205784 -331.91015625 704.0078125 C-329.77071232 704.0107536 -327.63126695 704.01279363 -325.49182129 704.01391602 C-317.56483806 704.02439564 -309.63788565 704.05231808 -301.7109375 704.078125 C-275.135625 704.14 -275.135625 704.14 -248.0234375 704.203125 C-248.3534375 649.093125 -248.6834375 593.983125 -249.0234375 537.203125 C-288.41835126 524.79102889 -327.79684265 512.39657807 -367.25512695 500.19946289 C-389.3401555 493.37264016 -411.38506913 486.42231742 -433.42243195 479.44339752 C-457.16010256 471.92651002 -480.92069862 464.48942542 -504.7109375 457.140625 C-528.48412143 449.79651393 -552.23366001 442.38175093 -575.9609375 434.890625 C-582.01290012 432.98008616 -588.06493134 431.06976504 -594.1171875 429.16015625 C-594.87591408 428.92075884 -595.63464066 428.68136143 -596.41635895 428.43470955 C-614.18525539 422.8292515 -631.96663584 417.26381681 -649.75067139 411.706604 C-654.05413846 410.3617729 -658.35714996 409.01549047 -662.66004753 407.6688385 C-677.43062127 403.0468979 -692.20166746 398.43055733 -707.015625 393.94921875 C-709.00139844 393.34591517 -710.98715769 392.74256488 -712.97290039 392.13916016 C-716.37698662 391.10538896 -719.78503779 390.08694369 -723.19702148 389.07958984 C-735.89121837 385.27289888 -747.32163366 380.95024532 -754.30078125 369.01953125 C-763.46857259 351.23858363 -756.68094547 329.62235839 -750.9921875 311.734375 C-744.90129875 293.18759252 -737.47427934 275.18639696 -730.05273438 257.14306641 C-712.14081305 216.47149176 -712.14081305 216.47149176 -701.04052734 173.73510742 C-699.58742832 164.35179776 -695.62230789 156.4721207 -688.08984375 150.59765625 C-677.76459824 143.62957941 -668.27881206 142.50958545 -656.0234375 144.203125 C-652.0700647 145.18110718 -648.3024169 146.50944232 -644.48828125 147.9296875 C-642.89817986 148.49883629 -642.89817986 148.49883629 -641.2759552 149.07948303 C-639.00944217 149.89267912 -636.745502 150.71307702 -634.48400879 151.54013062 C-630.89008405 152.85402821 -627.28955055 154.1480553 -623.68652344 155.43676758 C-618.78195795 157.19118629 -613.87936069 158.95092897 -608.97802734 160.71435547 C-599.27398194 164.196592 -589.53288142 167.56722295 -579.7734375 170.890625 C-578.89713684 171.18936523 -578.02083618 171.48810547 -577.11798096 171.79589844 C-556.15390938 178.92900957 -535.05391716 185.63883467 -513.94384766 192.32470703 C-508.45998564 194.06252166 -502.9813668 195.81635183 -497.50390625 197.57421875 C-416.13027506 223.65625625 -333.52711018 247.78437511 -93.0234375 283.203125 C-93.57169189 282.67581787 -94.11994629 282.14851074 -94.68481445 281.60522461 C-110.42771538 266.38427906 -122.95366665 251.6327746 -133.0234375 232.203125 C-133.34296387 231.59533203 -133.66249023 230.98753906 -133.99169922 230.36132812 C-153.42864745 192.93021612 -154.2209415 148.87289609 -142.38378906 109.05126953 C-135.3076669 86.71623679 -122.66433389 66.42568306 -106.43115234 49.66650391 C-105.03109272 48.21108292 -103.66152775 46.73110504 -102.29296875 45.24609375 C-76.85234721 18.14233771 -37.26677717 0.23802022 0 0 Z M-6.0234375 1600.203125 C-6.2709375 1603.235 -6.5184375 1606.266875 -6.7734375 1609.390625 C-8.28041419 1625.71129783 -11.20139009 1641.11543903 -16.82495117 1656.54101562 C-17.27318237 1657.7852832 -17.27318237 1657.7852832 -17.73046875 1659.0546875 C-18.0035083 1659.78510254 -18.27654785 1660.51551758 -18.55786133 1661.26806641 C-19.25162375 1663.40085735 -19.25162375 1663.40085735 -18.0234375 1666.203125 C-16.32852173 1665.95973389 -16.32852173 1665.95973389 -14.59936523 1665.71142578 C-9.98999472 1665.13791808 -5.44867985 1665.05865086 -0.80859375 1665.0703125 C0.0465834 1665.06935577 0.90176056 1665.06839905 1.78285217 1665.06741333 C3.58041457 1665.06673687 5.37797949 1665.06855363 7.17553711 1665.07275391 C9.90288878 1665.07810308 12.6300753 1665.07279405 15.35742188 1665.06640625 C17.11458369 1665.06706726 18.87174541 1665.06834888 20.62890625 1665.0703125 C21.43230942 1665.06828827 22.23571259 1665.06626404 23.0634613 1665.06417847 C28.43663958 1665.08605176 33.64434537 1665.53356422 38.9765625 1666.203125 C38.34044489 1662.34043493 37.20475418 1658.77219846 35.95800781 1655.07666016 C29.93984535 1637.08509327 27.5156192 1619.05656955 25.9765625 1600.203125 C15.4165625 1600.203125 4.8565625 1600.203125 -6.0234375 1600.203125 Z " fill="#FEFEFE" transform="translate(1014.0234375,-0.203125)"/>
<path d="M0 0 C219.78 0 439.56 0 666 0 C666 228.36 666 456.72 666 692 C662.28446005 690.14223003 659.75072939 688.24163448 656.5625 685.625 C647.73224302 678.63513539 637.90789784 673.29563453 628 668 C627.33242676 667.64276855 626.66485352 667.28553711 625.97705078 666.91748047 C603.49939792 655.13196563 576.84430123 647.86559987 551.41796875 647.83203125 C550.52314285 647.82870285 549.62831696 647.82537445 548.70637512 647.82194519 C546.82305409 647.81690965 544.93972424 647.81453581 543.05639648 647.81469727 C540.20606472 647.81251422 537.35612272 647.7943317 534.50585938 647.77539062 C525.44641432 647.74746764 516.8593398 647.88622509 508 650 C506.8759375 650.17660156 505.751875 650.35320313 504.59375 650.53515625 C468.41289563 656.70234734 435.44124069 674.91882313 409 700 C408.51063965 700.45681152 408.0212793 700.91362305 407.51708984 701.38427734 C394.52252294 713.57755984 383.80265687 727.51034628 375 743 C374.35804688 744.09828125 373.71609375 745.1965625 373.0546875 746.328125 C368.78327837 753.83036421 365.37422511 761.6057804 362.1875 769.625 C361.81439697 770.55425293 361.44129395 771.48350586 361.05688477 772.44091797 C358.26744101 779.65968714 356.78035448 786.28513057 355 794 C340.81 794 326.62 794 312 794 C309 785 309 785 308.15966797 782.44384766 C300.16250573 758.12475225 289.13177949 735.26932262 272 716 C271.30777344 715.19949219 270.61554688 714.39898438 269.90234375 713.57421875 C255.41748428 697.09144763 239.91902344 684.08553445 221 673 C219.96141846 672.38125 219.96141846 672.38125 218.90185547 671.75 C198.88975554 659.97547097 175.98618384 652.24091678 153 649 C151.79230957 648.8256543 150.58461914 648.65130859 149.34033203 648.47167969 C144.69587391 647.9004211 140.09288675 647.83820322 135.41796875 647.83203125 C134.52314285 647.82870285 133.62831696 647.82537445 132.70637512 647.82194519 C130.82305409 647.81690965 128.93972424 647.81453581 127.05639648 647.81469727 C124.20606472 647.81251422 121.35612272 647.7943317 118.50585938 647.77539062 C109.44641432 647.74746764 100.8593398 647.88622509 92 650 C90.8759375 650.17660156 89.751875 650.35320313 88.59375 650.53515625 C58.774562 655.61797239 30.68260947 668.97526873 7.17211914 687.81445312 C4.76512776 689.73173697 2.9514779 691.01617403 0 692 C0 463.64 0 235.28 0 0 Z " fill="#000000" transform="translate(691,755)"/>
<path d="M0 0 C8.34157759 24.22031286 16.539891 48.48796175 24.65549088 72.78480148 C25.37673677 74.94269625 26.09914244 77.10019957 26.8218689 79.25759888 C27.96911625 82.68276334 29.11328264 86.10894162 30.25504494 89.53593826 C30.88675589 91.429822 31.52131614 93.32275459 32.15592957 95.21566772 C32.53163589 96.34582306 32.90734222 97.47597839 33.29443359 98.64038086 C33.79068741 100.12700478 33.79068741 100.12700478 34.29696655 101.6436615 C35 104 35 104 35 106 C34.01644531 106.27972656 33.03289062 106.55945313 32.01953125 106.84765625 C23.08249043 109.41875059 14.23686733 112.18146804 5.45239258 115.23657227 C-0.31249698 117.20656954 -6.13218457 118.89630713 -11.99609375 120.5390625 C-26.90853169 124.73925514 -41.6509456 129.49796359 -56.41761398 134.17876053 C-62.9199185 136.23879807 -69.42439963 138.29196418 -75.92840004 140.34663963 C-78.35942603 141.11473522 -80.79033753 141.88319231 -83.22123718 142.65168762 C-92.74885052 145.66288777 -102.28096689 148.65894673 -111.8203125 151.6328125 C-112.92201279 151.97629227 -114.02371307 152.31977203 -115.15879822 152.67366028 C-120.12364971 154.22065926 -125.08935604 155.76486704 -130.0559082 157.30639648 C-139.08776639 160.11514513 -148.09212051 162.98469603 -157.04930115 166.02442932 C-161.27397996 167.45286902 -165.51157621 168.75118973 -169.8125 169.9375 C-175.78105421 171.59427637 -181.63413717 173.51698273 -187.5 175.5 C-194.45039188 177.84965384 -201.40710896 180.01762324 -208.48046875 181.97265625 C-213.39785855 183.40803196 -218.24103736 185.04757414 -223.08276367 186.71899414 C-228.81905887 188.67722599 -234.6234807 190.3376049 -240.45556641 191.98632812 C-245.72518054 193.49338405 -250.9562655 195.11546125 -256.1875 196.75 C-257.36803955 197.11778564 -258.5485791 197.48557129 -259.76489258 197.86450195 C-263.31562321 198.97139488 -266.86539159 200.08135057 -270.41503906 201.19171143 C-273.2855838 202.08929888 -276.15645245 202.98584587 -279.02734375 203.88232422 C-284.61624162 205.62782878 -290.20440424 207.3756722 -295.79214478 209.12487793 C-298.02764723 209.82450848 -300.26330015 210.52365843 -302.49911499 211.22229004 C-313.78691239 214.75051418 -325.06646945 218.28967068 -336.26481628 222.09416199 C-340.41747003 223.50023137 -344.58651589 224.77078891 -348.8125 225.9375 C-354.78105421 227.59427637 -360.63413717 229.51698273 -366.5 231.5 C-373.45039188 233.84965384 -380.40710896 236.01762324 -387.48046875 237.97265625 C-391.69449144 239.20272059 -395.84300816 240.59116684 -400 242 C-405.17977115 243.75538789 -410.34935438 245.42451836 -415.625 246.875 C-422.25126254 248.74155283 -428.82006946 250.77176614 -435.375 252.875 C-436.90954834 253.34848877 -436.90954834 253.34848877 -438.47509766 253.83154297 C-449.28834567 257.35579535 -456.79373898 262.9894699 -462.12436295 273.14127064 C-466.01404125 282.38570086 -465.57480801 291.66992235 -465.54589844 301.51635742 C-465.55470749 303.51015433 -465.56525751 305.50394417 -465.57739639 307.49772358 C-465.60498503 312.81147019 -465.60891153 318.12498152 -465.60775757 323.43878937 C-465.61030933 328.43473669 -465.63443949 333.43049175 -465.65673828 338.4263916 C-465.70938402 353.01336586 -465.72761268 367.60044792 -465.75 382.1875 C-465.8325 414.795625 -465.915 447.40375 -466 481 C-590.08 481 -714.16 481 -842 481 C-842.25 382.1875 -842.25 382.1875 -842.29785156 351.00854492 C-842.33107902 341.77059638 -842.33107902 341.77059638 -842.36956787 332.53266907 C-842.38654557 328.42394851 -842.39243279 324.31537409 -842.39154053 320.20661926 C-842.39076714 314.95809056 -842.40913474 309.70994968 -842.44108915 304.46152174 C-842.44957856 302.54007167 -842.45146564 300.61857775 -842.44582415 298.69711721 C-842.41119915 285.18896557 -843.19009609 273.31726345 -853 263 C-858.54704156 257.9646635 -864.12784554 255.56650072 -871.25 253.5 C-873.45476894 252.82663916 -875.65916452 252.15205516 -877.86328125 251.4765625 C-879.74781006 250.90663574 -879.74781006 250.90663574 -881.67041016 250.32519531 C-889.648787 247.89737044 -897.58584317 245.33526215 -905.53088379 242.80102539 C-908.3657686 241.89785307 -911.20174872 240.99820889 -914.03808594 240.09960938 C-923.20839503 237.19052039 -932.36814488 234.26151503 -941.46714783 231.13497925 C-947.04551654 229.2432819 -952.69635015 227.64724321 -958.36341858 226.04360962 C-964.0230653 224.41942991 -969.64181031 222.67001135 -975.26171875 220.9140625 C-976.49975754 220.52852203 -977.73779633 220.14298157 -979.01335144 219.74575806 C-993.54297279 215.21849583 -1008.05914657 210.64815288 -1022.57563782 206.07901001 C-1029.48889894 203.903192 -1036.40257279 201.72868609 -1043.31640625 199.5546875 C-1044.07560238 199.31595161 -1044.83479851 199.07721573 -1045.61700058 198.83124542 C-1055.60435921 195.6910335 -1065.59476779 192.56088872 -1075.58984375 189.4453125 C-1076.68992264 189.10229095 -1077.79000153 188.75926941 -1078.92341614 188.40585327 C-1083.91667364 186.8492757 -1088.91055728 185.2947568 -1093.90551758 183.74365234 C-1102.98498057 180.91862401 -1112.03755235 178.03395434 -1121.04229736 174.97790527 C-1125.33122664 173.52769451 -1129.63567779 172.21122163 -1134 171 C-1139.2535195 169.54035394 -1144.40412765 167.88329415 -1149.5625 166.125 C-1155.97261875 163.94461786 -1162.41322737 161.99617232 -1168.9375 160.1875 C-1177.21900311 157.88506098 -1185.35986487 155.25916413 -1193.5 152.5 C-1202.27633424 149.52543971 -1211.06002896 146.77510809 -1219.99243164 144.31298828 C-1228.58558844 141.90871954 -1237.01352254 139.03995673 -1245.46459961 136.18237305 C-1252.17999591 133.91820951 -1258.88325669 131.81882769 -1265.71875 129.94921875 C-1269.71056108 128.79444483 -1273.62991135 127.4653951 -1277.5625 126.125 C-1284.23891066 123.8513532 -1290.95670223 121.83233742 -1297.75 119.9375 C-1304.87268235 117.94959481 -1311.79107504 115.72616934 -1318.7265625 113.15625 C-1323.35116306 111.52273954 -1328.0528249 110.22435747 -1332.77734375 108.9140625 C-1336.90339397 107.74376462 -1340.94609168 106.39789942 -1345 105 C-1344.45921755 98.2734253 -1342.07359429 92.53450412 -1339.5625 86.3125 C-1339.09021973 85.12495117 -1338.61793945 83.93740234 -1338.13134766 82.71386719 C-1333.08583505 70.05885823 -1327.87178095 57.47101125 -1322.69125366 44.87088013 C-1316.85677768 30.67364007 -1311.20950792 16.44039037 -1306 2 C-1300.24668605 2.70613753 -1294.98657484 4.54440461 -1289.5234375 6.39453125 C-1288.49817963 6.73772903 -1287.47292175 7.08092682 -1286.41659546 7.43452454 C-1284.21483834 8.17220788 -1282.0137792 8.91197716 -1279.81335449 9.65362549 C-1276.33559904 10.82577983 -1272.85604075 11.99243436 -1269.37597656 13.15771484 C-1262.58233672 15.43358419 -1255.79089356 17.71595119 -1249 20 C-1229.86697259 26.43437972 -1210.71025888 32.78158968 -1191.4864502 38.94061279 C-1189.45088626 39.59279345 -1187.41563543 40.24595239 -1185.3807373 40.90020752 C-1174.96574375 44.2455677 -1164.54410814 47.46929422 -1153.98815918 50.34169006 C-1148.54132679 51.82850854 -1143.2032477 53.51365038 -1137.875 55.375 C-1126.35663793 59.29612167 -1114.69844014 62.66288834 -1103 66 C-1100.71083718 66.65720275 -1098.42177717 67.31476371 -1096.1328125 67.97265625 C-1089.09191454 69.99368638 -1082.04655115 71.99878346 -1075 74 C-1073.89382324 74.31501465 -1072.78764648 74.6300293 -1071.64794922 74.95458984 C-1059.2997302 78.46714388 -1046.93586741 81.83015066 -1034.46875 84.89453125 C-1026.00823061 86.97571898 -1017.60692427 89.28212537 -1009.20703125 91.59375 C-996.02457252 95.20470681 -982.81184232 98.50994014 -969.48046875 101.5234375 C-961.89976245 103.23813473 -954.34700727 105.06532405 -946.79663086 106.90844727 C-912.80070244 115.15119679 -878.16072674 121.07631013 -843.5 125.6875 C-842.3531221 125.84159836 -842.3531221 125.84159836 -841.18307495 125.99880981 C-836.5795155 126.61349086 -831.97291921 127.18910382 -827.35943604 127.72436523 C-825.81392669 127.9049152 -824.26907688 128.09122567 -822.72503662 128.28393555 C-803.30282399 130.66546325 -783.72073924 130.45474824 -764.18475723 130.60129547 C-761.08801971 130.62528649 -757.99132541 130.65248115 -754.8946228 130.68060303 C-718.59408053 131.00747646 -682.2924832 131.10231329 -645.99063849 131.12139618 C-641.27787535 131.12388137 -636.5651172 131.1281766 -631.85235596 131.13311768 C-603.50333345 131.15851406 -575.15741628 131.04654557 -546.81119323 130.64437628 C-544.8720548 130.61784206 -542.93287317 130.59452675 -540.9936924 130.57129288 C-518.15052814 130.28822786 -495.40245668 129.13130398 -472.75 126.0625 C-471.51894531 125.90587891 -470.28789063 125.74925781 -469.01953125 125.58789062 C-461.67553208 124.62076377 -454.45073171 123.34421899 -447.19799805 121.84472656 C-442.28357216 120.83936277 -437.34721076 119.96040444 -432.41015625 119.07421875 C-403.49966408 113.86079778 -374.77071964 107.99255919 -346.28126526 100.82022095 C-340.00874933 99.24317009 -333.72488803 97.71578369 -327.4375 96.19921875 C-325.4342217 95.71477647 -323.43096649 95.23023871 -321.42773438 94.74560547 C-318.51774018 94.04160332 -315.60758351 93.33835593 -312.6965332 92.63873291 C-301.82390242 90.02253344 -291.02760856 87.2412181 -280.29528809 84.09382629 C-274.39798897 82.36793463 -268.46965207 80.82993124 -262.5 79.375 C-256.082993 77.79925534 -249.76498616 76.08018791 -243.46484375 74.078125 C-239.20400848 72.75231831 -234.91784582 71.52992903 -230.625 70.3125 C-221.49113153 67.71783396 -212.36836292 65.08602844 -203.25 62.4375 C-202.57396729 62.24123016 -201.89793457 62.04496033 -201.20141602 61.84274292 C-193.20009752 59.51934219 -185.20334821 57.18155103 -177.21679688 54.80786133 C-173.21060242 53.62563133 -169.19202321 52.49654189 -165.1640625 51.390625 C-154.32912505 48.41195665 -143.5705793 45.35343335 -132.95410156 41.66064453 C-127.53417988 39.78879204 -122.07112862 38.11527129 -116.57421875 36.48828125 C-102.44334999 32.29201401 -88.41632237 27.76210741 -74.37744141 23.27001953 C-70.44823725 22.01281536 -66.51799741 20.75888559 -62.58745193 19.50588226 C-58.71654431 18.2714568 -54.84639423 17.03466878 -50.9765625 15.796875 C-50.22096291 15.55525131 -49.46536331 15.31362762 -48.68686676 15.06468201 C-40.48475299 12.43906676 -32.29540701 9.7804338 -24.13183594 7.03710938 C-23.42904448 6.80116184 -22.72625301 6.56521431 -22.00216484 6.32211685 C-18.68774595 5.20799694 -15.37558776 4.08773004 -12.06655884 2.95770264 C-10.3347084 2.37197479 -10.3347084 2.37197479 -8.56787109 1.77441406 C-7.55985443 1.43025452 -6.55183777 1.08609497 -5.51327515 0.73150635 C-3 0 -3 0 0 0 Z " fill="#000000" transform="translate(1678,223)"/>
<path d="M0 0 C1.1088707 -0.01058945 1.1088707 -0.01058945 2.24014282 -0.02139282 C32.97641168 -0.24840581 32.97641168 -0.24840581 45.9765625 3.203125 C47.16427246 3.50911621 47.16427246 3.50911621 48.37597656 3.82128906 C76.28290391 11.17535852 100.03192458 24.36083644 120.9765625 44.203125 C122.41128906 45.54117188 122.41128906 45.54117188 123.875 46.90625 C136.16926376 58.6042837 145.19628467 72.19105826 152.9765625 87.203125 C153.45585205 88.11481445 153.45585205 88.11481445 153.94482422 89.04492188 C173.35210708 126.41890518 174.15441457 170.59946541 162.33691406 210.35498047 C155.26618151 232.67300146 142.63348107 252.9625416 126.41503906 269.71337891 C124.92875474 271.2526367 123.46477087 272.81137519 122 274.37109375 C116.62466928 280.00997224 111.36806018 284.64692124 104.609375 288.6328125 C102.02609894 290.17357953 99.64785908 291.85861465 97.2265625 293.640625 C85.0966625 302.15250145 71.94680612 307.50787441 57.9765625 312.203125 C56.81769531 312.6053125 55.65882813 313.0075 54.46484375 313.421875 C16.10222424 325.63868025 -26.73169021 320.30117374 -62.22436523 302.30737305 C-75.39362806 295.43864763 -88.18930824 287.41607316 -99.0234375 277.203125 C-99.52891113 276.7302002 -100.03438477 276.25727539 -100.55517578 275.77001953 C-114.19710258 262.90808162 -124.4095892 248.82356817 -133.0234375 232.203125 C-133.50272705 231.29143555 -133.50272705 231.29143555 -133.99169922 230.36132812 C-153.42864745 192.93021612 -154.2209415 148.87289609 -142.38378906 109.05126953 C-135.3076669 86.71623679 -122.66433389 66.42568306 -106.43115234 49.66650391 C-105.03109272 48.21108292 -103.66152775 46.73110504 -102.29296875 45.24609375 C-76.85234721 18.14233771 -37.26677717 0.23802022 0 0 Z " fill="#000000" transform="translate(1014.0234375,-0.203125)"/>
<path d="M0 0 C0.69787628 0.00054382 1.39575256 0.00108765 2.11477661 0.00164795 C36.66543889 0.12474949 68.27617126 11.9744667 94.625 34.375 C95.57117187 35.17421875 96.51734375 35.9734375 97.4921875 36.796875 C123.93640666 59.72413847 141.32472567 94.02040648 144.33984375 128.88671875 C147.18473109 169.82199477 135.05189828 206.62953407 108.50390625 237.87109375 C85.66212689 263.97016785 51.65480408 283.02969973 16.625 285.375 C10.9783719 285.59108087 5.33791119 285.67074319 -0.3125 285.6875 C-1.01851349 285.69126648 -1.72452698 285.69503296 -2.45193481 285.69891357 C-14.89892163 285.73257218 -26.40804025 284.27844177 -38.3125 280.625 C-39.60426147 280.23139282 -39.60426147 280.23139282 -40.92211914 279.82983398 C-48.07670528 277.58645248 -54.70535417 274.82272057 -61.375 271.375 C-62.426875 270.85292969 -63.47875 270.33085938 -64.5625 269.79296875 C-99.32783453 251.95066365 -123.12543003 221.0466686 -135.375 184.375 C-146.58027251 148.59345752 -142.35601241 110.13713685 -125.69775391 76.859375 C-107.1627301 42.04719296 -75.87243581 16.99281628 -38.375 5.375 C-37.35535156 5.05789063 -36.33570313 4.74078125 -35.28515625 4.4140625 C-23.61569823 1.03209619 -12.12204483 -0.03572046 0 0 Z " fill="#000000" transform="translate(1646.375,1450.625)"/>
<path d="M0 0 C0.69787628 0.00054382 1.39575256 0.00108765 2.11477661 0.00164795 C36.66543889 0.12474949 68.27617126 11.9744667 94.625 34.375 C95.57117187 35.17421875 96.51734375 35.9734375 97.4921875 36.796875 C123.93640666 59.72413847 141.32472567 94.02040648 144.33984375 128.88671875 C147.18473109 169.82199477 135.05189828 206.62953407 108.50390625 237.87109375 C85.66212689 263.97016785 51.65480408 283.02969973 16.625 285.375 C10.9783719 285.59108087 5.33791119 285.67074319 -0.3125 285.6875 C-1.01851349 285.69126648 -1.72452698 285.69503296 -2.45193481 285.69891357 C-14.89892163 285.73257218 -26.40804025 284.27844177 -38.3125 280.625 C-39.60426147 280.23139282 -39.60426147 280.23139282 -40.92211914 279.82983398 C-48.07670528 277.58645248 -54.70535417 274.82272057 -61.375 271.375 C-62.426875 270.85292969 -63.47875 270.33085938 -64.5625 269.79296875 C-99.32783453 251.95066365 -123.12543003 221.0466686 -135.375 184.375 C-146.58027251 148.59345752 -142.35601241 110.13713685 -125.69775391 76.859375 C-107.1627301 42.04719296 -75.87243581 16.99281628 -38.375 5.375 C-37.35535156 5.05789063 -36.33570313 4.74078125 -35.28515625 4.4140625 C-23.61569823 1.03209619 -12.12204483 -0.03572046 0 0 Z " fill="#000000" transform="translate(1230.375,1450.625)"/>
<path d="M0 0 C0.69787628 0.00054382 1.39575256 0.00108765 2.11477661 0.00164795 C36.66543889 0.12474949 68.27617126 11.9744667 94.625 34.375 C95.57117188 35.17421875 96.51734375 35.9734375 97.4921875 36.796875 C123.93640666 59.72413847 141.32472567 94.02040648 144.33984375 128.88671875 C147.18473109 169.82199477 135.05189828 206.62953407 108.50390625 237.87109375 C85.66212689 263.97016785 51.65480408 283.02969973 16.625 285.375 C10.9783719 285.59108087 5.33791119 285.67074319 -0.3125 285.6875 C-1.01851349 285.69126648 -1.72452698 285.69503296 -2.45193481 285.69891357 C-14.89892163 285.73257218 -26.40804025 284.27844177 -38.3125 280.625 C-39.60426147 280.23139282 -39.60426147 280.23139282 -40.92211914 279.82983398 C-48.07670528 277.58645248 -54.70535417 274.82272057 -61.375 271.375 C-62.426875 270.85292969 -63.47875 270.33085938 -64.5625 269.79296875 C-99.32783453 251.95066365 -123.12543003 221.0466686 -135.375 184.375 C-146.58027251 148.59345752 -142.35601241 110.13713685 -125.69775391 76.859375 C-107.1627301 42.04719296 -75.87243581 16.99281628 -38.375 5.375 C-37.35535156 5.05789063 -36.33570313 4.74078125 -35.28515625 4.4140625 C-23.61569823 1.03209619 -12.12204483 -0.03572046 0 0 Z " fill="#000000" transform="translate(814.375,1450.625)"/>
<path d="M0 0 C0.69787628 0.00054382 1.39575256 0.00108765 2.11477661 0.00164795 C36.66543889 0.12474949 68.27617126 11.9744667 94.625 34.375 C95.57117188 35.17421875 96.51734375 35.9734375 97.4921875 36.796875 C123.93640666 59.72413847 141.32472567 94.02040648 144.33984375 128.88671875 C147.18473109 169.82199477 135.05189828 206.62953407 108.50390625 237.87109375 C85.66212689 263.97016785 51.65480408 283.02969973 16.625 285.375 C10.9783719 285.59108087 5.33791119 285.67074319 -0.3125 285.6875 C-1.01851349 285.69126648 -1.72452698 285.69503296 -2.45193481 285.69891357 C-14.89892163 285.73257218 -26.40804025 284.27844177 -38.3125 280.625 C-39.60426147 280.23139282 -39.60426147 280.23139282 -40.92211914 279.82983398 C-48.07670528 277.58645248 -54.70535417 274.82272057 -61.375 271.375 C-62.426875 270.85292969 -63.47875 270.33085938 -64.5625 269.79296875 C-99.32783453 251.95066365 -123.12543003 221.0466686 -135.375 184.375 C-146.58027251 148.59345752 -142.35601241 110.13713685 -125.69775391 76.859375 C-107.1627301 42.04719296 -75.87243581 16.99281628 -38.375 5.375 C-37.35535156 5.05789063 -36.33570313 4.74078125 -35.28515625 4.4140625 C-23.61569823 1.03209619 -12.12204483 -0.03572046 0 0 Z " fill="#000000" transform="translate(398.375,1450.625)"/>
<path d="M0 0 C3.56647307 3.0712791 6.94339715 6.31134272 10.30908203 9.60009766 C11.17017578 10.39931641 12.03126953 11.19853516 12.91845703 12.02197266 C37.56232167 35.44129744 52.14311052 71.26390138 53.59423828 104.95556641 C54.55654937 143.04139955 41.84679428 180.2279366 15.62548828 208.18212891 C14.86107422 208.98005859 14.09666016 209.77798828 13.30908203 210.60009766 C12.11605469 211.90527344 12.11605469 211.90527344 10.89892578 213.23681641 C-13.63189044 239.1736221 -50.03568436 253.65901843 -85.38623047 254.76416016 C-117.42695075 255.45003794 -149.15036724 246.39842802 -174.69091797 226.60009766 C-175.59455078 225.91689453 -176.49818359 225.23369141 -177.42919922 224.52978516 C-207.29882195 201.10093491 -227.39796719 166.52376138 -232.22216797 128.68212891 C-236.12444801 91.29266916 -226.22856565 53.20482649 -202.69091797 23.60009766 C-199.21093906 19.41353015 -195.49288409 15.4934023 -191.69091797 11.60009766 C-190.97677734 10.82408203 -190.26263672 10.04806641 -189.52685547 9.24853516 C-140.86458638 -42.32982496 -53.66938169 -44.43260679 0 0 Z " fill="#000000" transform="translate(1945.69091796875,1744.39990234375)"/>
<path d="M0 0 C0.90621094 0.68449219 1.81242188 1.36898438 2.74609375 2.07421875 C32.86206985 25.7211608 52.46138208 59.97505869 57.49609375 97.98828125 C61.76050575 136.0521069 50.57459667 173.96200361 27 204 C24.12279588 207.46265261 21.11374356 210.7497348 18 214 C16.80697266 215.30517578 16.80697266 215.30517578 15.58984375 216.63671875 C-8.94097247 242.57352444 -45.34476639 257.05892077 -80.6953125 258.1640625 C-112.73603278 258.84994028 -144.45944927 249.79833036 -170 230 C-170.90363281 229.31679687 -171.80726563 228.63359375 -172.73828125 227.9296875 C-202.60790398 204.50083725 -222.70704922 169.92366372 -227.53125 132.08203125 C-231.43353004 94.69257151 -221.53764769 56.60472883 -198 27 C-194.52018209 22.81362619 -190.80484474 18.89028287 -187 15 C-186.26265625 14.21238281 -185.5253125 13.42476562 -184.765625 12.61328125 C-137.29706502 -37.02081522 -53.88077994 -41.40770572 0 0 Z " fill="#000000" transform="translate(277,1741)"/>
<path d="M0 0 C0.90621094 0.68449219 1.81242187 1.36898438 2.74609375 2.07421875 C32.86206985 25.7211608 52.46138208 59.97505869 57.49609375 97.98828125 C61.76050575 136.0521069 50.57459667 173.96200361 27 204 C24.12279588 207.46265261 21.11374356 210.7497348 18 214 C16.80697266 215.30517578 16.80697266 215.30517578 15.58984375 216.63671875 C-8.94097247 242.57352444 -45.34476639 257.05892077 -80.6953125 258.1640625 C-112.73603278 258.84994028 -144.45944927 249.79833036 -170 230 C-170.90363281 229.31679687 -171.80726562 228.63359375 -172.73828125 227.9296875 C-202.60790398 204.50083725 -222.70704922 169.92366372 -227.53125 132.08203125 C-231.43353004 94.69257151 -221.53764769 56.60472883 -198 27 C-194.52002109 22.81343249 -190.80196612 18.89330464 -187 15 C-186.28585937 14.22398438 -185.57171875 13.44796875 -184.8359375 12.6484375 C-137.68932565 -37.32343948 -53.58835941 -41.18297876 0 0 Z " fill="#000000" transform="translate(1525,1741)"/>
<path d="M0 0 C0.90621094 0.68449219 1.81242187 1.36898438 2.74609375 2.07421875 C32.86206985 25.7211608 52.46138208 59.97505869 57.49609375 97.98828125 C61.76050575 136.0521069 50.57459667 173.96200361 27 204 C24.12279588 207.46265261 21.11374356 210.7497348 18 214 C16.80697266 215.30517578 16.80697266 215.30517578 15.58984375 216.63671875 C-8.94097247 242.57352444 -45.34476639 257.05892077 -80.6953125 258.1640625 C-112.73603278 258.84994028 -144.45944927 249.79833036 -170 230 C-170.90363281 229.31679687 -171.80726563 228.63359375 -172.73828125 227.9296875 C-202.60790398 204.50083725 -222.70704922 169.92366372 -227.53125 132.08203125 C-231.43353004 94.69257151 -221.53764769 56.60472883 -198 27 C-194.52002109 22.81343249 -190.80196612 18.89330464 -187 15 C-186.28585937 14.22398438 -185.57171875 13.44796875 -184.8359375 12.6484375 C-137.68932565 -37.32343948 -53.58835941 -41.18297876 0 0 Z " fill="#000000" transform="translate(1109,1741)"/>
<path d="M0 0 C0.90621094 0.68449219 1.81242188 1.36898438 2.74609375 2.07421875 C32.86206985 25.7211608 52.46138208 59.97505869 57.49609375 97.98828125 C61.76050575 136.0521069 50.57459667 173.96200361 27 204 C24.12279588 207.46265261 21.11374356 210.7497348 18 214 C16.80697266 215.30517578 16.80697266 215.30517578 15.58984375 216.63671875 C-8.94097247 242.57352444 -45.34476639 257.05892077 -80.6953125 258.1640625 C-112.73603278 258.84994028 -144.45944927 249.79833036 -170 230 C-170.90363281 229.31679687 -171.80726563 228.63359375 -172.73828125 227.9296875 C-202.60790398 204.50083725 -222.70704922 169.92366372 -227.53125 132.08203125 C-231.43353004 94.69257151 -221.53764769 56.60472883 -198 27 C-194.52002109 22.81343249 -190.80196612 18.89330464 -187 15 C-186.28585937 14.22398438 -185.57171875 13.44796875 -184.8359375 12.6484375 C-137.68932565 -37.32343948 -53.58835941 -41.18297876 0 0 Z " fill="#000000" transform="translate(693,1741)"/>
</svg>
