<?xml version="1.0" standalone="no"?>
<!DOCTYPE svg PUBLIC "-//W3C//DTD SVG 20010904//EN"
 "http://www.w3.org/TR/2001/REC-SVG-20010904/DTD/svg10.dtd">
<svg version="1.0" xmlns="http://www.w3.org/2000/svg"
 width="500.000000pt" height="500.000000pt" viewBox="0 0 500.000000 500.000000"
 preserveAspectRatio="xMidYMid meet">

<g transform="translate(0.000000,500.000000) scale(0.100000,-0.100000)"
fill="#000000" stroke="none">
<path d="M2225 4151 c-127 -24 -205 -44 -304 -81 -511 -188 -907 -626 -1042
-1153 -65 -255 -67 -572 -5 -817 125 -489 438 -876 894 -1104 332 -166 775
-213 1137 -120 662 170 1147 705 1251 1379 18 116 18 374 0 490 -57 370 -226
698 -492 956 -230 222 -511 371 -829 440 -145 31 -468 36 -610 10z m437 -162
c346 -36 658 -188 905 -440 211 -215 340 -458 404 -759 19 -87 23 -137 23
-290 0 -206 -17 -313 -76 -485 -147 -430 -496 -781 -928 -932 -544 -191 -1149
-48 -1557 368 -211 215 -340 457 -404 759 -32 151 -32 429 0 580 65 308 204
563 422 777 329 323 753 470 1211 422z"/>
<path d="M1406 2948 c5 -7 72 -113 150 -234 l142 -222 -159 -247 c-87 -136
-159 -249 -159 -251 0 -2 49 -4 108 -4 l109 0 109 180 c60 98 112 179 116 180
3 0 55 -79 114 -176 59 -97 113 -178 119 -180 6 -3 59 -3 118 -2 l107 3 -160
240 c-88 132 -160 243 -160 247 0 6 45 78 231 371 l69 107 -113 0 -112 0 -99
-170 c-54 -94 -101 -168 -106 -165 -4 2 -52 79 -106 170 l-99 165 -113 0 c-88
0 -111 -3 -106 -12z"/>
<path d="M2292 2947 c2 -8 75 -226 163 -486 l160 -471 114 2 114 3 163 483
163 482 -104 0 -103 0 -16 -47 c-8 -27 -48 -154 -89 -283 -69 -216 -85 -272
-118 -400 l-11 -45 -27 105 c-15 58 -67 232 -117 387 l-89 283 -103 0 c-81 0
-103 -3 -100 -13z"/>
<path d="M3300 2475 l0 -485 100 0 100 0 0 485 0 485 -100 0 -100 0 0 -485z"/>
</g>
</svg>
