<?xml version="1.0" standalone="no"?>
<!DOCTYPE svg PUBLIC "-//W3C//DTD SVG 20010904//EN"
 "http://www.w3.org/TR/2001/REC-SVG-20010904/DTD/svg10.dtd">
<svg version="1.0" xmlns="http://www.w3.org/2000/svg"
 width="500.000000pt" height="500.000000pt" viewBox="0 0 500.000000 500.000000"
 preserveAspectRatio="xMidYMid meet">

<g transform="translate(0.000000,500.000000) scale(0.100000,-0.100000)"
fill="#000000" stroke="none">
<path d="M2283 4360 c-193 -25 -428 -93 -598 -175 -191 -91 -425 -267 -568
-426 -134 -150 -217 -273 -301 -449 -277 -577 -243 -1239 90 -1788 271 -446
748 -772 1266 -864 175 -31 480 -31 655 0 519 92 996 418 1267 864 333 549
367 1211 90 1788 -150 312 -360 553 -657 751 -218 146 -438 233 -722 286 -96
17 -420 26 -522 13z m482 -110 c389 -63 708 -225 983 -498 583 -578 690 -1477
260 -2180 -245 -400 -678 -708 -1130 -802 -335 -70 -706 -42 -1008 74 -534
207 -949 670 -1085 1213 -187 748 105 1496 755 1930 340 228 816 330 1225 263z"/>
<path d="M1780 2470 l0 -630 130 0 130 0 0 630 0 630 -130 0 -130 0 0 -630z"/>
<path d="M2240 3094 c0 -4 82 -135 183 -293 101 -157 187 -292 191 -298 4 -8
-75 -140 -199 -332 -113 -176 -205 -322 -205 -326 0 -3 63 -4 141 -3 l141 3
137 223 c76 122 142 227 148 233 7 7 53 -59 154 -225 l144 -235 153 -1 c120 0
152 3 146 13 -4 6 -99 149 -211 316 -112 167 -202 308 -200 315 3 6 69 112
147 236 79 124 165 260 191 303 l49 77 -144 0 -144 0 -132 -226 -133 -225
-135 225 -135 226 -143 0 c-79 0 -144 -3 -144 -6z"/>
</g>
</svg>
