<?xml version="1.0" standalone="no"?>
<!DOCTYPE svg PUBLIC "-//W3C//DTD SVG 20010904//EN"
 "http://www.w3.org/TR/2001/REC-SVG-20010904/DTD/svg10.dtd">
<svg version="1.0" xmlns="http://www.w3.org/2000/svg"
 width="500.000000pt" height="500.000000pt" viewBox="0 0 500.000000 500.000000"
 preserveAspectRatio="xMidYMid meet">

<g transform="translate(0.000000,500.000000) scale(0.100000,-0.100000)"
fill="#000000" stroke="none">
<path d="M2225 4151 c-127 -24 -205 -44 -304 -81 -511 -188 -907 -626 -1042
-1153 -65 -255 -67 -572 -5 -817 125 -489 438 -876 894 -1104 332 -166 775
-213 1137 -120 662 170 1147 705 1251 1379 18 116 18 374 0 490 -57 370 -226
698 -492 956 -230 222 -511 371 -829 440 -145 31 -468 36 -610 10z m437 -162
c346 -36 658 -188 905 -440 211 -215 340 -458 404 -759 19 -87 23 -137 23
-290 0 -206 -17 -313 -76 -485 -147 -430 -496 -781 -928 -932 -544 -191 -1149
-48 -1557 368 -211 215 -340 457 -404 759 -32 151 -32 429 0 580 65 308 204
563 422 777 329 323 753 470 1211 422z"/>
<path d="M1460 2921 c-153 -47 -227 -174 -218 -370 5 -107 25 -164 77 -223 52
-59 111 -82 216 -82 50 -1 111 5 138 13 l47 14 0 58 c0 33 -2 59 -5 59 -2 0
-30 -7 -62 -15 -179 -47 -266 20 -267 204 0 72 4 95 24 136 46 92 129 118 242
75 28 -11 52 -19 53 -17 1 1 10 22 19 47 10 25 20 50 23 57 13 33 -211 67
-287 44z"/>
<path d="M1949 2743 c-82 -42 -113 -99 -118 -216 -5 -133 32 -212 123 -260 32
-17 58 -22 121 -22 112 0 173 34 221 125 29 53 27 220 -3 275 -47 87 -113 125
-221 125 -55 0 -79 -5 -123 -27z m184 -103 c14 -11 31 -37 38 -57 16 -50 6
-158 -18 -191 -38 -50 -119 -50 -157 1 -25 34 -34 147 -16 201 20 62 102 86
153 46z"/>
<path d="M2644 2751 c-17 -10 -40 -31 -51 -45 -12 -14 -23 -26 -26 -26 -3 0
-8 18 -12 40 l-7 40 -54 0 -54 0 0 -255 0 -255 70 0 70 0 0 150 c0 171 8 197
64 224 19 9 52 16 74 16 45 0 52 12 52 88 l0 42 -47 0 c-29 0 -60 -7 -79 -19z"/>
<path d="M2987 2760 c-49 -15 -98 -61 -123 -114 -27 -59 -33 -179 -12 -249 19
-64 81 -122 153 -142 69 -20 179 -16 238 9 36 14 37 17 37 65 0 28 -1 51 -2
51 -2 0 -25 -7 -52 -15 -27 -8 -78 -15 -114 -15 -60 0 -66 2 -98 34 -21 21
-34 44 -34 60 l0 26 165 0 165 0 0 53 c0 114 -47 196 -132 231 -40 17 -144 20
-191 6z m145 -101 c16 -9 48 -64 48 -84 0 -3 -45 -5 -100 -5 -63 0 -100 4
-100 10 0 20 30 69 47 79 24 14 79 14 105 0z"/>
<path d="M3470 2748 c-58 -29 -83 -76 -76 -137 9 -64 32 -88 142 -145 91 -47
99 -53 99 -80 0 -24 -5 -31 -30 -38 -34 -9 -102 -1 -159 18 -21 8 -42 14 -47
14 -5 0 -9 -24 -9 -54 0 -54 0 -55 38 -68 21 -7 79 -13 132 -13 75 0 103 4
135 20 55 27 85 76 85 135 0 75 -28 107 -143 162 -102 50 -123 71 -92 94 25
18 72 18 125 -1 23 -8 48 -15 55 -15 12 0 45 67 45 90 0 17 -103 40 -180 40
-59 0 -86 -5 -120 -22z"/>
</g>
</svg>
