<?xml version="1.0" encoding="UTF-8"?>
<svg version="1.1" xmlns="http://www.w3.org/2000/svg" width="612" height="612">
<path d="M0 0 C201.96 0 403.92 0 612 0 C612 201.96 612 403.92 612 612 C410.04 612 208.08 612 0 612 C0 410.04 0 208.08 0 0 Z " fill="#FEFEFE" transform="translate(0,0)"/>
<path d="M0 0 C2.80165008 2.21326459 5.47179659 4.51320926 8.12109375 6.90625 C8.98734375 7.67839844 9.85359375 8.45054687 10.74609375 9.24609375 C23.99501541 21.70735086 34.37665068 41.41924721 35.12109375 59.90625 C35.1984375 61.64648438 35.1984375 61.64648438 35.27734375 63.421875 C35.5548186 72.9724184 34.36312198 81.61784732 32.12109375 90.90625 C34.95450607 90.59445356 37.7878233 90.28183083 40.62109375 89.96875 C41.41257812 89.88173828 42.2040625 89.79472656 43.01953125 89.70507812 C46.80301719 89.2864137 50.58120238 88.85076284 54.35546875 88.35546875 C57.55267048 87.97405983 60.65443498 87.71203021 63.87109375 87.65625 C64.7734375 87.63046875 65.67578125 87.6046875 66.60546875 87.578125 C69.62351875 87.9717837 70.95953721 88.78931275 73.12109375 90.90625 C73.62109375 93.84375 73.62109375 93.84375 73.12109375 96.90625 C70.92403898 99.81437094 69.64411806 100.79281302 66.05029297 101.57226562 C64.8542041 101.65154297 63.65811523 101.73082031 62.42578125 101.8125 C61.76988007 101.86231018 61.11397888 101.91212036 60.4382019 101.96343994 C59.02749341 102.06971245 57.61619399 102.16836363 56.20446777 102.26013184 C52.44652073 102.50877827 48.69441784 102.82723727 44.94140625 103.140625 C44.18633789 103.20260071 43.43126953 103.26457642 42.65332031 103.32843018 C11.67085681 105.92848039 -18.7596356 114.07692742 -48.40014648 123.20556641 C-58.98965654 126.46596318 -69.65205414 129.00481177 -80.47363281 131.37011719 C-85.30082544 132.44609313 -90.09200685 133.6640799 -94.87890625 134.90625 C-70.88276316 141.27091549 -46.51322208 145.83521599 -21.87890625 148.90625 C-20.65880859 149.05868164 -19.43871094 149.21111328 -18.18164062 149.36816406 C4.74953704 152.08354392 27.56007003 152.14379735 50.63354492 151.79589844 C51.82614929 151.78306824 53.01875366 151.77023804 54.24749756 151.75701904 C56.50642842 151.73205914 58.76526608 151.69460477 61.02374268 151.6428833 C62.03289734 151.63311462 63.042052 151.62334595 64.08178711 151.61328125 C65.40236366 151.58971558 65.40236366 151.58971558 66.74961853 151.56567383 C69.66673297 151.98461123 71.01830233 152.86595586 73.12109375 154.90625 C73.62109375 157.84375 73.62109375 157.84375 73.12109375 160.90625 C70.97846611 163.71898301 69.7935935 164.78617699 66.27627563 165.41418457 C65.17399628 165.41736694 64.07171692 165.42054932 62.93603516 165.42382812 C61.0462645 165.44244652 61.0462645 165.44244652 59.11831665 165.46144104 C57.73642571 165.4542135 56.35453864 165.44621098 54.97265625 165.4375 C53.53485674 165.44185602 52.0970607 165.44753284 50.65927124 165.45445251 C46.81612845 165.46596763 42.97366478 165.44869097 39.13061523 165.42194748 C36.74511553 165.40624356 34.35965748 165.39664946 31.97412109 165.38845825 C8.51907364 165.29513789 -14.69340118 164.74788897 -37.87890625 160.90625 C-38.65502258 160.77802856 -39.43113892 160.64980713 -40.23077393 160.5177002 C-62.41778328 156.81014366 -84.54437115 152.41650036 -106.09667969 145.91918945 C-125.156042 140.18238325 -144.48736729 135.37290119 -163.87890625 130.90625 C-164.57419434 130.74141113 -165.26948242 130.57657227 -165.98583984 130.40673828 C-174.64524397 128.36639631 -183.36164015 127.28815315 -192.19140625 126.28125 C-193.27019043 126.15790283 -194.34897461 126.03455566 -195.46044922 125.9074707 C-211.13637118 124.22232659 -226.80951748 123.70432887 -242.56640625 123.71875 C-243.7984227 123.71766235 -243.7984227 123.71766235 -245.05532837 123.71655273 C-256.81627011 123.71769298 -268.41182678 124.15682084 -280.109375 125.46875 C-283.67451271 125.83340881 -287.22177559 126.05768619 -290.8046875 126.15625 C-291.70227783 126.18203125 -292.59986816 126.2078125 -293.5246582 126.234375 C-295.87890625 125.90625 -295.87890625 125.90625 -297.66870117 124.609375 C-299.70899843 121.73805895 -299.30211573 119.29192584 -298.87890625 115.90625 C-295.65115708 112.541887 -292.42777024 112.35358213 -287.9140625 111.95703125 C-287.2213324 111.89446136 -286.52860229 111.83189148 -285.81488037 111.76742554 C-283.52476821 111.5678106 -281.23370802 111.39130029 -278.94140625 111.21875 C-277.75482925 111.12444199 -277.75482925 111.12444199 -276.54428101 111.02822876 C-233.075386 107.62160284 -171.12588779 104.78275923 -130.87890625 124.90625 C-128.21607414 124.84250429 -125.5956299 124.71800276 -122.94140625 124.53125 C-122.21244141 124.48742187 -121.48347656 124.44359375 -120.73242188 124.3984375 C-117.59002315 124.19105647 -114.87947658 123.90644011 -111.87890625 122.90625 C-112.74515625 121.978125 -113.61140625 121.05 -114.50390625 120.09375 C-121.46145908 111.92476445 -125.43525204 101.96263555 -128.87890625 91.90625 C-129.14292236 91.18969238 -129.40693848 90.47313477 -129.67895508 89.73486328 C-132.06452843 82.74122919 -132.29793053 76.25216445 -132.19140625 68.90625 C-132.19462891 67.79507813 -132.19785156 66.68390625 -132.20117188 65.5390625 C-132.05686275 43.23674253 -122.33118553 23.7816813 -107.06640625 7.78125 C-78.22586997 -20.01553354 -32.50458583 -23.63969879 0 0 Z " fill="#2D2D2D" transform="translate(418.87890625,316.09375)"/>
<path d="M0 0 C0.99 0.99 1.98 1.98 3 3 C3 7.29 3 11.58 3 16 C110.25 16 217.5 16 328 16 C328 11.38 328 6.76 328 2 C330 0 330 0 333.4375 -0.25 C337 0 337 0 340 2 C340.37719816 3.85321367 340.37719816 3.85321367 340.38031673 6.15488243 C340.38875668 7.03073002 340.39719662 7.90657761 340.40589231 8.80896604 C340.39988227 9.7770399 340.39387222 10.74511376 340.38768005 11.74252319 C340.39575836 13.27831054 340.39575836 13.27831054 340.40399987 14.84512389 C340.41838214 18.29839916 340.4111504 21.75129664 340.40405273 25.20458984 C340.40975097 27.67127289 340.41671308 30.13795331 340.42485046 32.60462952 C340.44098544 38.62294925 340.44286998 44.64111885 340.43763756 50.65944551 C340.43360168 55.5502025 340.43503247 60.44092861 340.44038582 65.33168411 C340.44113424 66.02687391 340.44188266 66.72206371 340.44265376 67.43831987 C340.44418519 68.85046088 340.44572354 70.26260189 340.44726873 71.67474289 C340.46100886 84.92918029 340.4555458 98.18355873 340.44408352 111.43799479 C340.43415258 123.56966097 340.44708665 135.7011746 340.47101771 147.83281724 C340.49538891 160.28113238 340.50502128 172.72937642 340.49836498 185.17771494 C340.49486795 192.16986629 340.49713644 199.16190031 340.51461601 206.15403366 C340.53084724 212.72856568 340.52618714 219.30285317 340.50731087 225.87739372 C340.50361046 228.29455063 340.50677537 230.71172892 340.51719666 233.1288662 C340.53030883 236.42075532 340.51894524 239.71166348 340.50120544 243.00350952 C340.51081045 243.96712194 340.52041546 244.93073436 340.53031152 245.92354715 C340.45858752 252.36246087 340.45858752 252.36246087 338.12883091 255.60134315 C335.4896538 257.33530103 334.1022016 257.47726179 331 257 C328 255 328 255 327 252 C326.91173035 250.17467414 326.88236797 248.34625311 326.88647461 246.51879883 C326.88655014 245.39786331 326.88662567 244.2769278 326.88670349 243.12202454 C326.89444542 241.30785286 326.89444542 241.30785286 326.90234375 239.45703125 C326.90446617 237.59893074 326.90446617 237.59893074 326.90663147 235.70329285 C326.91128398 232.41368463 326.9202661 229.1241254 326.93133545 225.83453369 C326.94157371 222.47628377 326.94613426 219.11802667 326.95117188 215.75976562 C326.96220855 209.17315788 326.97895233 202.58658295 327 196 C326.20303711 196.02094727 325.40607422 196.04189453 324.58496094 196.06347656 C320.97343566 196.14663322 317.36211176 196.19866034 313.75 196.25 C312.49574219 196.28351563 311.24148438 196.31703125 309.94921875 196.3515625 C308.14130859 196.37089844 308.14130859 196.37089844 306.296875 196.390625 C305.18666992 196.41157227 304.07646484 196.43251953 302.93261719 196.45410156 C299.32463636 195.89542321 298.17356835 194.88293375 296 192 C295.5625 188.9375 295.5625 188.9375 296 186 C296.99 185.01 297.98 184.02 299 183 C308.57 183 318.14 183 328 183 C328 138.45 328 93.9 328 48 C318.76 48 309.52 48 300 48 C296 44 296 44 295.5625 40.9375 C296 38 296 38 297.11254883 36.3347168 C299.93121239 34.34149035 302.21835764 34.66224923 305.63671875 34.70703125 C306.93544922 34.71669922 308.23417969 34.72636719 309.57226562 34.73632812 C310.94401639 34.76139415 312.31576118 34.78678899 313.6875 34.8125 C315.07094924 34.8275498 316.45441401 34.8412377 317.83789062 34.85351562 C321.22565207 34.88892777 324.61263139 34.93831946 328 35 C328 33.02 328 31.04 328 29 C220.75 29 113.5 29 3 29 C3 30.98 3 32.96 3 35 C3.56979293 34.99848112 4.13958585 34.99696224 4.72664523 34.99539733 C38.47939212 34.9059312 72.23211209 34.83727717 105.98495166 34.79573868 C110.03554089 34.79073571 114.08612988 34.78555844 118.13671875 34.78027344 C118.9431355 34.7792242 119.74955224 34.77817495 120.58040586 34.77709392 C133.64659087 34.75967739 146.71270566 34.72813286 159.77884898 34.69138882 C173.18081098 34.65401406 186.58273614 34.6317715 199.98474813 34.62364602 C208.25795299 34.61815103 216.53095938 34.60078097 224.80410317 34.56833413 C230.47337032 34.54722898 236.14253451 34.54079084 241.81183812 34.54599449 C245.08532006 34.54856258 248.35838016 34.54239075 251.63181686 34.5231781 C255.17773788 34.50338032 258.72279833 34.50802424 262.26873779 34.51898193 C263.8270948 34.50150488 263.8270948 34.50150488 265.41693377 34.48367476 C272.33439176 34.54175919 272.33439176 34.54175919 275.67070389 36.83865738 C277 39 277 39 277 42.0625 C275.84214322 45.46370428 275.02334544 46.18466415 272 48 C269.77837014 48.37259549 269.77837014 48.37259549 267.30673599 48.36914349 C266.36173839 48.37511663 265.41674078 48.38108978 264.44310689 48.38724393 C263.40809316 48.3785054 262.37307944 48.36976688 261.30670166 48.36076355 C259.65386173 48.36460846 259.65386173 48.36460846 257.9676311 48.36853105 C254.26245321 48.37348621 250.55767964 48.35694698 246.85253906 48.34057617 C244.20172708 48.33973027 241.55094014 48.3400721 238.90013123 48.34190369 C233.18650347 48.34347727 227.47297844 48.33405923 221.75937653 48.31719017 C213.49846946 48.29281621 205.2376121 48.28499655 196.97667298 48.2812262 C183.57410148 48.27465919 170.17158473 48.25469127 156.76904297 48.22631836 C143.74918894 48.19878424 130.72934986 48.17758189 117.70947266 48.16479492 C116.89883633 48.16399093 116.08820001 48.16318694 115.25299895 48.16235858 C108.91335577 48.15612037 102.57371227 48.15024958 96.23406863 48.14449489 C65.1559955 48.11619028 34.07805942 48.05583628 3 48 C3 92.55 3 137.1 3 183 C18.95601562 182.93039062 18.95601562 182.93039062 35.234375 182.859375 C41.96094136 182.83894434 48.68748533 182.81952378 55.4140625 182.8046875 C66.0980597 182.78093374 76.78193092 182.75297805 87.46582031 182.69824219 C95.24613737 182.65840092 103.02635242 182.63257351 110.80676866 182.62364602 C114.92733526 182.61842664 119.04761003 182.60614145 123.16808319 182.57707977 C127.04554951 182.54995329 130.92260345 182.54154927 134.80015564 182.54756927 C136.22399892 182.54646778 137.64785583 182.53849704 139.07161713 182.5231781 C141.01442007 182.50329786 142.95744371 182.51044074 144.90032959 182.51898193 C145.98804531 182.51529476 147.07576103 182.51160759 148.19643784 182.50780869 C151.69187157 183.12146446 152.91163491 184.16922436 155 187 C154.75 190.25 154.75 190.25 154 193 C153.01 193.33 152.02 193.66 151 194 C151 194.66 151 195.32 151 196 C102.16 196 53.32 196 3 196 C3 214.81 3 233.62 3 253 C1.02 254.98 1.02 254.98 -1 257 C-4.625 256.9375 -4.625 256.9375 -8 256 C-10.06836927 252.89744609 -10.25045355 252.2460428 -10.25447559 248.7348938 C-10.26322388 247.42243588 -10.26322388 247.42243588 -10.27214891 246.08346367 C-10.26836958 245.12151148 -10.26459026 244.15955929 -10.26069641 243.16845703 C-10.26452196 242.14712236 -10.26834751 241.1257877 -10.27228898 240.07350349 C-10.28264704 236.63488819 -10.2786215 233.19643899 -10.2746582 229.7578125 C-10.27900309 227.2992131 -10.28418548 224.84061506 -10.29014587 222.38201904 C-10.30217466 216.38759479 -10.3046845 210.39323638 -10.30234561 204.3988061 C-10.30056436 199.52809302 -10.30230795 194.65739357 -10.30657005 189.78668213 C-10.30716524 189.09411446 -10.30776043 188.40154679 -10.30837366 187.68799222 C-10.30958537 186.28116401 -10.31079951 184.8743358 -10.31201603 183.4675076 C-10.32289789 170.26795085 -10.32072589 157.06841963 -10.31463119 143.86886144 C-10.30946019 131.78510874 -10.32072113 119.70143662 -10.33972941 107.61769986 C-10.35908568 95.21795668 -10.36736778 82.81825166 -10.36360615 70.41849327 C-10.3616909 63.45379358 -10.36421316 56.4891625 -10.37832069 49.5244751 C-10.39144689 42.9778759 -10.38900463 36.43141184 -10.37590981 29.88480377 C-10.37353315 27.47690019 -10.37631735 25.0689854 -10.38453293 22.66109467 C-10.39491002 19.3843864 -10.38697265 16.10823065 -10.3742218 12.83154297 C-10.38159609 11.86959078 -10.38897037 10.90763859 -10.39656812 9.91653633 C-10.38936158 9.04156439 -10.38215503 8.16659245 -10.37473011 7.2651062 C-10.37478513 6.50843092 -10.37484014 5.75175564 -10.37489682 4.9721508 C-9.30019595 -0.68133049 -4.92509679 -0.52768894 0 0 Z " fill="#2D2D2D" transform="translate(145,131)"/>
<path d="M0 0 C7.70218528 6.08461925 15.39403328 12.88469415 21.12109375 20.90625 C20.79109375 21.56625 20.46109375 22.22625 20.12109375 22.90625 C19.46109375 22.90625 18.80109375 22.90625 18.12109375 22.90625 C16.10885251 22.92891343 16.10885251 22.92891343 14.12109375 23.90625 C12.3372996 26.88977894 12.3372996 26.88977894 11.12109375 29.90625 C6.64341648 25.56425992 6.64341648 25.56425992 4.72265625 23.14453125 C-5.25110984 10.66466658 -20.94256929 1.39093108 -36.71875 -0.87988281 C-44.06462228 -1.60716402 -51.51171702 -1.2938648 -58.87890625 -1.09375 C-58.87890625 -0.43375 -58.87890625 0.22625 -58.87890625 0.90625 C-56.97633735 2.62128428 -55.05748597 4.23726963 -53.06640625 5.84375 C-39.57975145 17.07433462 -25.06352387 31.01604989 -20.87890625 48.90625 C-21.20890625 49.56625 -21.53890625 50.22625 -21.87890625 50.90625 C-22.53890625 49.91625 -23.19890625 48.92625 -23.87890625 47.90625 C-23.87890625 48.81375 -23.87890625 49.72125 -23.87890625 50.65625 C-24.87890625 53.90625 -24.87890625 53.90625 -26.65625 55.23046875 C-28.72082403 56.29448972 -30.65078352 57.24555921 -32.87890625 57.90625 C-33.53890625 57.57625 -34.19890625 57.24625 -34.87890625 56.90625 C-34.98203125 55.771875 -35.08515625 54.6375 -35.19140625 53.46875 C-36.09264385 44.91463043 -41.14175617 38.14463815 -46.5234375 31.71875 C-47.87890625 29.90625 -47.87890625 29.90625 -47.87890625 27.90625 C-48.86890625 27.57625 -49.85890625 27.24625 -50.87890625 26.90625 C-51.97913538 25.53096359 -53.07877878 24.15520529 -54.17578125 22.77734375 C-57.93405267 18.64841713 -62.51644309 15.36634065 -66.87890625 11.90625 C-67.71679688 11.19082031 -68.5546875 10.47539062 -69.41796875 9.73828125 C-70.18882812 9.09246094 -70.9596875 8.44664062 -71.75390625 7.78125 C-72.43195313 7.20117188 -73.11 6.62109375 -73.80859375 6.0234375 C-75.84041872 4.69909472 -75.84041872 4.69909472 -78.28515625 5.0078125 C-81.38272048 6.08076397 -83.78453554 7.57835344 -86.50390625 9.40625 C-89.35396931 11.31149764 -91.62196118 12.82060164 -94.87890625 13.90625 C-94.87890625 14.56625 -94.87890625 15.22625 -94.87890625 15.90625 C-95.84828125 16.64875 -96.81765625 17.39125 -97.81640625 18.15625 C-108.33331443 26.90256309 -115.5912257 42.68387618 -117.87890625 55.90625 C-118.95306924 68.82226056 -118.91845148 81.82330476 -113.87890625 93.90625 C-113.39292969 95.0715625 -112.90695312 96.236875 -112.40625 97.4375 C-108.77404352 105.33733442 -103.98981751 114.59092035 -96.87890625 119.90625 C-93.85969206 119.88664471 -91.75691015 119.60471205 -88.87890625 118.90625 C-88.00290771 118.71780518 -87.12690918 118.52936035 -86.22436523 118.33520508 C-83.33053401 117.70168865 -80.44855825 117.02833301 -77.56640625 116.34375 C-75.61268419 115.88112697 -73.65828349 115.42135795 -71.703125 114.96484375 C-70.84807373 114.76173584 -69.99302246 114.55862793 -69.11206055 114.34936523 C-66.87890625 113.90625 -66.87890625 113.90625 -63.87890625 113.90625 C-63.86472656 113.27460938 -63.85054687 112.64296875 -63.8359375 111.9921875 C-63.38773323 103.585329 -60.95130077 96.67226566 -57.87890625 88.90625 C-57.21890625 89.56625 -56.55890625 90.22625 -55.87890625 90.90625 C-52.69400618 91.1836001 -52.69400618 91.1836001 -49.87890625 88.90625 C-49.21890625 89.23625 -48.55890625 89.56625 -47.87890625 89.90625 C-47.87890625 90.89625 -47.87890625 91.88625 -47.87890625 92.90625 C-47.21890625 92.90625 -46.55890625 92.90625 -45.87890625 92.90625 C-46.16768154 94.2610362 -46.46011342 95.61504302 -46.75390625 96.96875 C-46.99753906 98.09990234 -46.99753906 98.09990234 -47.24609375 99.25390625 C-48.02122457 102.50275704 -48.94486605 105.69990192 -49.87890625 108.90625 C-46.41988798 108.01304804 -42.96170935 107.11664457 -39.50390625 106.21875 C-38.45984619 105.94764404 -37.41578613 105.67653809 -36.34008789 105.3972168 C-29.97871579 103.73758069 -23.64108849 102.01246222 -17.31640625 100.21875 C3.63115488 94.33685367 3.63115488 94.33685367 13.12109375 94.90625 C14.24609375 100.65625 14.24609375 100.65625 13.12109375 102.90625 C14.07974884 105.23700929 14.07974884 105.23700929 17.12109375 106.90625 C15.95578125 107.12539063 14.79046875 107.34453125 13.58984375 107.5703125 C-6.3329398 111.39416837 -26.02179651 116.28178912 -45.39453125 122.30859375 C-56.98804936 125.89206577 -68.62091735 128.77943306 -80.47363281 131.37011719 C-85.30082544 132.44609313 -90.09200685 133.6640799 -94.87890625 134.90625 C-70.88276316 141.27091549 -46.51322208 145.83521599 -21.87890625 148.90625 C-20.65880859 149.05868164 -19.43871094 149.21111328 -18.18164062 149.36816406 C4.74953704 152.08354392 27.56007003 152.14379735 50.63354492 151.79589844 C51.82614929 151.78306824 53.01875366 151.77023804 54.24749756 151.75701904 C56.50642842 151.73205914 58.76526608 151.69460477 61.02374268 151.6428833 C62.03289734 151.63311462 63.042052 151.62334595 64.08178711 151.61328125 C65.40236366 151.58971558 65.40236366 151.58971558 66.74961853 151.56567383 C69.66673297 151.98461123 71.01830233 152.86595586 73.12109375 154.90625 C73.62109375 157.84375 73.62109375 157.84375 73.12109375 160.90625 C70.97846611 163.71898301 69.7935935 164.78617699 66.27627563 165.41418457 C65.17399628 165.41736694 64.07171692 165.42054932 62.93603516 165.42382812 C61.0462645 165.44244652 61.0462645 165.44244652 59.11831665 165.46144104 C57.73642571 165.4542135 56.35453864 165.44621098 54.97265625 165.4375 C53.53485674 165.44185602 52.0970607 165.44753284 50.65927124 165.45445251 C46.81612845 165.46596763 42.97366478 165.44869097 39.13061523 165.42194748 C36.74511553 165.40624356 34.35965748 165.39664946 31.97412109 165.38845825 C8.51907364 165.29513789 -14.69340118 164.74788897 -37.87890625 160.90625 C-38.65502258 160.77802856 -39.43113892 160.64980713 -40.23077393 160.5177002 C-62.41778328 156.81014366 -84.54437115 152.41650036 -106.09667969 145.91918945 C-125.156042 140.18238325 -144.48736729 135.37290119 -163.87890625 130.90625 C-164.57419434 130.74141113 -165.26948242 130.57657227 -165.98583984 130.40673828 C-174.64524397 128.36639631 -183.36164015 127.28815315 -192.19140625 126.28125 C-193.27019043 126.15790283 -194.34897461 126.03455566 -195.46044922 125.9074707 C-211.13637118 124.22232659 -226.80951748 123.70432887 -242.56640625 123.71875 C-243.7984227 123.71766235 -243.7984227 123.71766235 -245.05532837 123.71655273 C-256.81627011 123.71769298 -268.41182678 124.15682084 -280.109375 125.46875 C-283.67451271 125.83340881 -287.22177559 126.05768619 -290.8046875 126.15625 C-291.70227783 126.18203125 -292.59986816 126.2078125 -293.5246582 126.234375 C-295.87890625 125.90625 -295.87890625 125.90625 -297.66870117 124.609375 C-299.70899843 121.73805895 -299.30211573 119.29192584 -298.87890625 115.90625 C-295.65115708 112.541887 -292.42777024 112.35358213 -287.9140625 111.95703125 C-287.2213324 111.89446136 -286.52860229 111.83189148 -285.81488037 111.76742554 C-283.52476821 111.5678106 -281.23370802 111.39130029 -278.94140625 111.21875 C-277.75482925 111.12444199 -277.75482925 111.12444199 -276.54428101 111.02822876 C-233.075386 107.62160284 -171.12588779 104.78275923 -130.87890625 124.90625 C-128.21607414 124.84250429 -125.5956299 124.71800276 -122.94140625 124.53125 C-122.21244141 124.48742187 -121.48347656 124.44359375 -120.73242188 124.3984375 C-117.59002315 124.19105647 -114.87947658 123.90644011 -111.87890625 122.90625 C-112.74515625 121.978125 -113.61140625 121.05 -114.50390625 120.09375 C-121.46145908 111.92476445 -125.43525204 101.96263555 -128.87890625 91.90625 C-129.14292236 91.18969238 -129.40693848 90.47313477 -129.67895508 89.73486328 C-132.06452843 82.74122919 -132.29793053 76.25216445 -132.19140625 68.90625 C-132.19462891 67.79507813 -132.19785156 66.68390625 -132.20117188 65.5390625 C-132.05686275 43.23674253 -122.33118553 23.7816813 -107.06640625 7.78125 C-78.22586997 -20.01553354 -32.50458583 -23.63969879 0 0 Z " fill="#2D2D2D" transform="translate(418.87890625,316.09375)"/>
<path d="M0 0 C3.40435648 0.48633664 4.6296752 1.05943644 7.0625 3.4375 C7.51660156 5.79760742 7.51660156 5.79760742 7.453125 8.54296875 C7.44313477 9.42879639 7.43314453 10.31462402 7.42285156 11.22729492 C7.36822754 12.90915894 7.36822754 12.90915894 7.3125 14.625 C7.23 18.193125 7.1475 21.76125 7.0625 25.4375 C15.6425 25.4375 24.2225 25.4375 33.0625 25.4375 C32.94398063 18.3320511 32.94398063 18.3320511 32.79223633 11.22729492 C32.78474365 10.34146729 32.77725098 9.45563965 32.76953125 8.54296875 C32.7538208 7.63699951 32.73811035 6.73103027 32.72192383 5.79760742 C33.0625 3.4375 33.0625 3.4375 34.3972168 1.6496582 C36.0625 0.4375 36.0625 0.4375 39 -0.0625 C42.0625 0.4375 42.0625 0.4375 44.23828125 2.32421875 C46.86326034 6.80410812 46.49781198 10.66827 46.3125 15.75 C46.23 18.946875 46.1475 22.14375 46.0625 25.4375 C54.3125 25.4375 62.5625 25.4375 71.0625 25.4375 C70.90466485 18.70588676 70.90466485 18.70588676 70.70214844 11.97558594 C70.62038477 5.07842507 70.62038477 5.07842507 72.88671875 1.79296875 C75.82751949 -0.03909203 77.66114064 -0.06908544 81.0625 0.4375 C82.7277832 1.64575195 82.7277832 1.64575195 84.0625 3.4375 C84.40307617 5.79760742 84.40307617 5.79760742 84.35546875 8.54296875 C84.34422974 9.87171021 84.34422974 9.87171021 84.33276367 11.22729492 C84.30545166 12.3485376 84.27813965 13.46978027 84.25 14.625 C84.188125 18.193125 84.12625 21.76125 84.0625 25.4375 C92.6425 25.4375 101.2225 25.4375 110.0625 25.4375 C109.94398063 18.3320511 109.94398063 18.3320511 109.79223633 11.22729492 C109.78474365 10.34146729 109.77725098 9.45563965 109.76953125 8.54296875 C109.74596558 7.18401489 109.74596558 7.18401489 109.72192383 5.79760742 C110.0625 3.4375 110.0625 3.4375 111.3972168 1.64575195 C114.02080453 -0.25780114 115.9195074 -0.01149894 119.0625 0.4375 C121.23828125 1.79296875 121.23828125 1.79296875 123.0625 4.4375 C123.56022956 8.03161928 123.43780771 11.56803498 123.3125 15.1875 C123.29445313 16.17105469 123.27640625 17.15460938 123.2578125 18.16796875 C123.21074126 20.59213783 123.14500742 23.01432059 123.0625 25.4375 C123.76858398 25.42178955 124.47466797 25.4060791 125.20214844 25.38989258 C128.40551729 25.32747903 131.60875812 25.28848889 134.8125 25.25 C135.92367187 25.22486328 137.03484375 25.19972656 138.1796875 25.17382812 C139.24960937 25.16416016 140.31953125 25.15449219 141.421875 25.14453125 C142.40639648 25.1288208 143.39091797 25.11311035 144.40527344 25.09692383 C147.51966893 25.49609525 148.86420382 26.21591948 151.0625 28.4375 C151.625 31.9375 151.625 31.9375 151.0625 35.4375 C147.54694761 38.1669418 144.93822104 38.8041322 140.54296875 38.73046875 C139.62153076 38.72297607 138.70009277 38.7154834 137.75073242 38.70776367 C136.59549072 38.68045166 135.44024902 38.65313965 134.25 38.625 C130.558125 38.563125 126.86625 38.50125 123.0625 38.4375 C123.0625 47.0175 123.0625 55.5975 123.0625 64.4375 C131.15521045 64.31893735 131.15521045 64.31893735 139.24731445 64.16723633 C140.2549585 64.15974365 141.26260254 64.15225098 142.30078125 64.14453125 C143.33243408 64.1288208 144.36408691 64.11311035 145.42700195 64.09692383 C148.0625 64.4375 148.0625 64.4375 149.93432617 65.7331543 C151.0625 67.4375 151.0625 67.4375 150.875 71 C150.0625 74.4375 150.0625 74.4375 148.0625 76.4375 C145.54052734 76.66455078 145.54052734 76.66455078 142.3984375 76.6328125 C141.27695312 76.62636719 140.15546875 76.61992187 139 76.61328125 C137.2365625 76.58814453 137.2365625 76.58814453 135.4375 76.5625 C134.25414062 76.55347656 133.07078125 76.54445313 131.8515625 76.53515625 C128.92167477 76.51152812 125.9921866 76.47858514 123.0625 76.4375 C123.08344727 77.05270508 123.10439453 77.66791016 123.12597656 78.30175781 C123.20927017 81.09683809 123.26120013 83.89165715 123.3125 86.6875 C123.36277344 88.13962891 123.36277344 88.13962891 123.4140625 89.62109375 C123.51288264 96.78555424 123.51288264 96.78555424 121.23828125 100.078125 C118.27451566 101.92981338 116.48919876 102.02076787 113.0625 101.4375 C111.0197894 99.32800675 110.14003619 97.97975309 109.72192383 95.05566406 C109.73763428 94.19682617 109.75334473 93.33798828 109.76953125 92.453125 C109.77702393 91.61040039 109.7845166 90.76767578 109.79223633 89.89941406 C109.81954834 88.83948242 109.84686035 87.77955078 109.875 86.6875 C109.936875 83.305 109.99875 79.9225 110.0625 76.4375 C101.4825 76.4375 92.9025 76.4375 84.0625 76.4375 C84.18086941 83.16882631 84.18086941 83.16882631 84.33276367 89.89941406 C84.34025635 90.74213867 84.34774902 91.58486328 84.35546875 92.453125 C84.3711792 93.31196289 84.38688965 94.17080078 84.40307617 95.05566406 C83.9828504 97.99453334 83.14028761 99.33614523 81.0625 101.4375 C77.5625 101.9375 77.5625 101.9375 74.0625 101.4375 C72.03359956 99.36927414 71.15019205 98.02714258 70.72192383 95.14746094 C70.73763428 94.33051758 70.75334473 93.51357422 70.76953125 92.671875 C70.78077026 91.46869629 70.78077026 91.46869629 70.79223633 90.24121094 C70.81954834 89.23348633 70.84686035 88.22576172 70.875 87.1875 C70.936875 83.97 70.99875 80.7525 71.0625 77.4375 C62.8125 77.4375 54.5625 77.4375 46.0625 77.4375 C46.22030162 83.84004656 46.22030162 83.84004656 46.42285156 90.24121094 C46.50460364 96.80511192 46.50460364 96.80511192 44.23828125 100.046875 C41.27808377 101.93885041 39.50568866 102.02357467 36.0625 101.4375 C34.0197894 99.32800675 33.14003619 97.97975309 32.72192383 95.05566406 C32.73763428 94.19682617 32.75334473 93.33798828 32.76953125 92.453125 C32.78077026 91.18903809 32.78077026 91.18903809 32.79223633 89.89941406 C32.81954834 88.83948242 32.84686035 87.77955078 32.875 86.6875 C32.936875 83.305 32.99875 79.9225 33.0625 76.4375 C24.4825 76.4375 15.9025 76.4375 7.0625 76.4375 C7.22033515 83.16911324 7.22033515 83.16911324 7.42285156 89.89941406 C7.50462626 96.79750567 7.50462626 96.79750567 5.23828125 100.078125 C2.27451566 101.92981338 0.48919876 102.02076787 -2.9375 101.4375 C-5.69103079 98.57134128 -6.30595033 96.59691702 -6.23046875 92.671875 C-6.22080078 91.78242188 -6.21113281 90.89296875 -6.20117188 89.9765625 C-6.17603516 89.05617188 -6.15089844 88.13578125 -6.125 87.1875 C-6.10469727 85.78371094 -6.10469727 85.78371094 -6.08398438 84.3515625 C-6.04869954 82.04628673 -5.99940281 79.7421894 -5.9375 77.4375 C-6.64358398 77.46368408 -7.34966797 77.48986816 -8.07714844 77.5168457 C-11.28037208 77.62086357 -14.4832406 77.68584149 -17.6875 77.75 C-18.79867187 77.79189453 -19.90984375 77.83378906 -21.0546875 77.87695312 C-29.28547333 78.00091074 -29.28547333 78.00091074 -32.66796875 75.078125 C-34.09573609 72.10836893 -34.68207589 70.66399554 -33.9375 67.4375 C-31.6816054 64.75494707 -29.87351431 63.55440163 -26.37084961 63.11694336 C-23.27724575 63.04353581 -20.21840491 63.08998839 -17.125 63.1875 C-13.433125 63.27 -9.74125 63.3525 -5.9375 63.4375 C-5.9375 55.1875 -5.9375 46.9375 -5.9375 38.4375 C-13.7009463 38.5165305 -13.7009463 38.5165305 -21.46411133 38.61767578 C-22.4311499 38.6226709 -23.39818848 38.62766602 -24.39453125 38.6328125 C-25.8791687 38.64852295 -25.8791687 38.64852295 -27.39379883 38.66455078 C-29.9375 38.4375 -29.9375 38.4375 -32.9375 36.4375 C-33.875 33.0625 -33.875 33.0625 -33.9375 29.4375 C-31.8814885 26.68271335 -30.70246135 25.56822658 -27.28027344 24.98339844 C-25.80349121 25.01481934 -25.80349121 25.01481934 -24.296875 25.046875 C-23.22695312 25.05976563 -22.15703125 25.07265625 -21.0546875 25.0859375 C-19.94351563 25.11945313 -18.83234375 25.15296875 -17.6875 25.1875 C-16.56085938 25.20554688 -15.43421875 25.22359375 -14.2734375 25.2421875 C-11.49393104 25.28929778 -8.7161466 25.35506639 -5.9375 25.4375 C-5.95321045 24.82229492 -5.9689209 24.20708984 -5.98510742 23.57324219 C-6.04757926 20.77808879 -6.08652868 17.98308245 -6.125 15.1875 C-6.15013672 14.21941406 -6.17527344 13.25132812 -6.20117188 12.25390625 C-6.21083984 11.31933594 -6.22050781 10.38476562 -6.23046875 9.421875 C-6.2461792 8.56303711 -6.26188965 7.70419922 -6.27807617 6.81933594 C-5.68052897 2.64036064 -4.18930501 0.62393904 0 0 Z " fill="#2C2C2C" transform="translate(248.9375,196.5625)"/>
<path d="M0 0 C3.38426221 1.14379596 5.95022224 3.47965661 8.69384766 5.69921875 C9.31412842 6.19615234 9.93440918 6.69308594 10.57348633 7.20507812 C23.21897806 17.41164476 39.69649116 30.83743626 43.06884766 47.69921875 C43.13134766 51.19921875 43.13134766 51.19921875 42.06884766 54.69921875 C40.54506733 56.26821511 38.88221348 57.53251477 37.15869141 58.87890625 C23.05348995 71.16493219 15.97852935 91.80413205 13.06884766 109.69921875 C9.17469517 110.70376735 5.27861318 111.70041633 1.38061523 112.68994141 C0.0561748 113.02731871 -1.26772894 113.36681051 -2.59106445 113.70849609 C-4.49855726 114.20061346 -6.40819773 114.68438221 -8.31787109 115.16796875 C-9.46473389 115.46123047 -10.61159668 115.75449219 -11.79321289 116.05664062 C-14.65471867 116.64261147 -17.02875578 116.973486 -19.93115234 116.69921875 C-31.79561545 107.00130978 -39.33618916 90.55083458 -41.93115234 75.69921875 C-43.98381096 52.92528884 -39.42257677 34.60398688 -24.76318359 16.79296875 C-21.55462795 13.12604802 -21.55462795 13.12604802 -19.93115234 11.69921875 C-19.27115234 11.69921875 -18.61115234 11.69921875 -17.93115234 11.69921875 C-17.93115234 11.03921875 -17.93115234 10.37921875 -17.93115234 9.69921875 C-15.66727613 8.08849742 -13.41396924 6.5970887 -11.05615234 5.13671875 C-10.40517578 4.72486328 -9.75419922 4.31300781 -9.08349609 3.88867188 C-2.33309524 -0.36338475 -2.33309524 -0.36338475 0 0 Z " fill="#FDFDFD" transform="translate(341.93115234375,320.30078125)"/>
<path d="M0 0 C5.4597948 2.10376142 10.19696885 5.32578597 14.92236328 8.74072266 C15.74220703 9.30919922 16.56205078 9.87767578 17.40673828 10.46337891 C28.69597646 18.69673709 39.28080343 31.16543939 42.42236328 45.11572266 C42.58736328 46.31197266 42.75236328 47.50822266 42.92236328 48.74072266 C41.42515506 49.22854255 39.92438965 49.70544629 38.42236328 50.17822266 C37.58705078 50.44505859 36.75173828 50.71189453 35.89111328 50.98681641 C28.42482825 52.88285984 21.07659142 52.86851463 13.42236328 52.80322266 C12.40916016 52.79871094 11.39595703 52.79419922 10.35205078 52.78955078 C7.87542501 52.77786858 5.39892672 52.76148847 2.92236328 52.74072266 C2.73697998 52.08773193 2.55159668 51.43474121 2.3605957 50.76196289 C-3.7153141 29.85736671 -17.1027787 14.2001847 -34.21435547 1.26416016 C-36.07763672 -0.25927734 -36.07763672 -0.25927734 -37.07763672 -2.25927734 C-27.50194227 -7.04712457 -9.83667791 -3.23539959 0 0 Z " fill="#FBFBFB" transform="translate(395.07763671875,317.25927734375)"/>
<path d="M0 0 C0.31396693 10.9714001 -0.92558498 20.48498393 -4 31 C-4.59200195 31.09498779 -5.18400391 31.18997559 -5.79394531 31.2878418 C-24.66075742 34.35051794 -42.89318131 38.64089846 -61.19970703 44.12060547 C-62.03099121 44.36568848 -62.86227539 44.61077148 -63.71875 44.86328125 C-64.81606445 45.19259644 -64.81606445 45.19259644 -65.93554688 45.52856445 C-68 46 -68 46 -72 46 C-71.22504309 34.63396534 -65.05643215 23.28685265 -58.1875 14.4375 C-57.77435547 13.88642578 -57.36121094 13.33535156 -56.93554688 12.76757812 C-55.67380677 11.12867688 -54.35340787 9.56367256 -53 8 C-52.20078125 7.04480469 -51.4015625 6.08960938 -50.578125 5.10546875 C-46.06596531 1.5299448 -40.01790536 2.57135574 -34.57922363 2.79418945 C-22.72454068 3.26920913 -11.40270812 0 0 0 Z " fill="#FBFBFB" transform="translate(441,379)"/>
<path d="M0 0 C8.58 0 17.16 0 26 0 C26 8.58 26 17.16 26 26 C17.42 26 8.84 26 0 26 C0 17.42 0 8.84 0 0 Z " fill="#F8F8F8" transform="translate(333,235)"/>
<path d="M0 0 C8.58 0 17.16 0 26 0 C26 8.58 26 17.16 26 26 C17.42 26 8.84 26 0 26 C0 17.42 0 8.84 0 0 Z " fill="#F9F9F9" transform="translate(256,235)"/>
<path d="M0 0 C8.25 0 16.5 0 25 0 C25 8.58 25 17.16 25 26 C16.75 26 8.5 26 0 26 C0 17.42 0 8.84 0 0 Z " fill="#FAFAFA" transform="translate(295,235)"/>
<path d="M0 0 C8.91 0 17.82 0 27 0 C27 6.93 27 13.86 27 21 C26.67 21 26.34 21 26 21 C26 14.4 26 7.8 26 1 C17.75 1 9.5 1 1 1 C1.15780162 7.40254656 1.15780162 7.40254656 1.36035156 13.80371094 C1.44210364 20.36761192 1.44210364 20.36761192 -0.82421875 23.609375 C-3.78441623 25.50135041 -5.55681134 25.58607467 -9 25 C-11.01976336 23.20675216 -11.90463742 21.77631257 -12.23608398 19.078125 C-12.29546243 16.79473068 -12.26132534 14.53290659 -12.1875 12.25 C-12.17396484 11.45722656 -12.16042969 10.66445313 -12.14648438 9.84765625 C-12.11125223 7.89814436 -12.05744821 5.94898374 -12 4 C-11.34 4 -10.68 4 -10 4 C-10 4.99 -10 5.98 -10 7 C-7.50447516 6.21869929 -7.50447516 6.21869929 -5 5 C-4.67 4.01 -4.34 3.02 -4 2 C-3.67 2.99 -3.34 3.98 -3 5 C-2.01 4.67 -1.02 4.34 0 4 C0 2.68 0 1.36 0 0 Z " fill="#3C3C3C" transform="translate(294,273)"/>
<path d="M0 0 C8.25 0 16.5 0 25 0 C25 5.94 25 11.88 25 18 C26.65 18 28.3 18 30 18 C30.99 20.31 31.98 22.62 33 25 C30.1875 25.25 30.1875 25.25 27 25 C24.9808894 22.9366068 24.08635469 21.58065014 23.65942383 18.70996094 C23.67513428 17.89301758 23.69084473 17.07607422 23.70703125 16.234375 C23.71827026 15.03119629 23.71827026 15.03119629 23.72973633 13.80371094 C23.75704834 12.79598633 23.78436035 11.78826172 23.8125 10.75 C23.874375 7.5325 23.93625 4.315 24 1 C16.08 1 8.16 1 0 1 C0 0.67 0 0.34 0 0 Z " fill="#5B5B5B" transform="translate(219,273)"/>
<path d="M0 0 C0.99 0.33 1.98 0.66 3 1 C2.91253716 2.43861294 2.80434652 3.87597508 2.6875 5.3125 C2.62949219 6.11300781 2.57148438 6.91351563 2.51171875 7.73828125 C1.91161175 10.39066259 1.14291033 11.36503879 -1 13 C-1.66 13 -2.32 13 -3 13 C-3 11 -3 11 -2 10 C-3.32 10.33 -4.64 10.66 -6 11 C-6 8.36 -6 5.72 -6 3 C-4 2 -2 1 0 0 Z " fill="#252525" transform="translate(442,347)"/>
<path d="M0 0 C1.8125 1.375 1.8125 1.375 2.75 3.8125 C2.8125 6.375 2.8125 6.375 1.375 8.1875 C0.859375 8.579375 0.34375 8.97125 -0.1875 9.375 C-0.8475 8.715 -1.5075 8.055 -2.1875 7.375 C-3.50497324 6.67751417 -4.83664193 6.00540043 -6.1875 5.375 C-6.1875 3.725 -6.1875 2.075 -6.1875 0.375 C-3.77466168 -0.48672797 -2.49284286 -0.71224082 0 0 Z " fill="#343434" transform="translate(297.1875,315.625)"/>
<path d="M0 0 C1.29873047 0.00966797 2.59746094 0.01933594 3.93554688 0.02929688 C5.30729764 0.0543629 6.67904243 0.07975774 8.05078125 0.10546875 C9.43423049 0.12051855 10.81769526 0.13420645 12.20117188 0.14648438 C15.58893332 0.18189652 18.97591264 0.23128821 22.36328125 0.29296875 C22.36328125 0.62296875 22.36328125 0.95296875 22.36328125 1.29296875 C21.59137451 1.30755127 20.81946777 1.32213379 20.02416992 1.3371582 C16.53253032 1.41154908 13.04185635 1.50823965 9.55078125 1.60546875 C8.33583984 1.62802734 7.12089844 1.65058594 5.86914062 1.67382812 C4.70576172 1.70927734 3.54238281 1.74472656 2.34375 1.78125 C0.73342896 1.82052612 0.73342896 1.82052612 -0.90942383 1.8605957 C-3.90451203 2.33542349 -4.82195295 2.92743943 -6.63671875 5.29296875 C-6.96671875 4.96296875 -7.29671875 4.63296875 -7.63671875 4.29296875 C-7.96671875 5.94296875 -8.29671875 7.59296875 -8.63671875 9.29296875 C-8.96671875 9.29296875 -9.29671875 9.29296875 -9.63671875 9.29296875 C-9.99964282 3.84910768 -9.99964282 3.84910768 -8.53979492 1.61206055 C-5.7061308 -0.35205584 -3.41622776 -0.04475408 0 0 Z " fill="#404040" transform="translate(450.63671875,165.70703125)"/>
<path d="M0 0 C-0.75 7.625 -0.75 7.625 -3 11 C-3.66 11 -4.32 11 -5 11 C-6.39935013 8.20129973 -6.25265405 6.09501208 -6 3 C-4.04062003 0.20088576 -3.50082948 0 0 0 Z " fill="#303030" transform="translate(447,314)"/>
<path d="M0 0 C0 0.99 0 1.98 0 3 C0.66 3.33 1.32 3.66 2 4 C2 4.66 2 5.32 2 6 C1.34 6 0.68 6 0 6 C0 6.66 0 7.32 0 8 C-0.66 8 -1.32 8 -2 8 C-2.33 8.66 -2.66 9.32 -3 10 C-3 9.34 -3 8.68 -3 8 C-4.98491642 8.26676204 -4.98491642 8.26676204 -7 9 C-7.33 9.99 -7.66 10.98 -8 12 C-8.66 11.67 -9.32 11.34 -10 11 C-8.52116808 9.35386588 -7.04192523 7.70810092 -5.5625 6.0625 C-4.73878906 5.14597656 -3.91507812 4.22945313 -3.06640625 3.28515625 C-1 1 -1 1 0 0 Z " fill="#3C3C3C" transform="translate(313,323)"/>
<path d="M0 0 C1.32 0.66 2.64 1.32 4 2 C3.6875 5.375 3.6875 5.375 3 9 C2.01 9.66 1.02 10.32 0 11 C-1.01406317 7.95781049 -1.66083005 5.18819752 -2 2 C-1.34 1.34 -0.68 0.68 0 0 Z " fill="#323232" transform="translate(396,262)"/>
<path d="M0 0 C0.66 0.33 1.32 0.66 2 1 C2.5625 2.9375 2.5625 2.9375 3 5 C3.33 5.66 3.66 6.32 4 7 C3.67 7.66 3.34 8.32 3 9 C1.35 8.67 -0.3 8.34 -2 8 C-2 6.35 -2 4.7 -2 3 C-1.34 3 -0.68 3 0 3 C0 2.01 0 1.02 0 0 Z " fill="#242424" transform="translate(327,288)"/>
<path d="M0 0 C3.96 1.98 3.96 1.98 8 4 C8 4.99 8 5.98 8 7 C7.01 7.33 6.02 7.66 5 8 C4.731875 7.38125 4.46375 6.7625 4.1875 6.125 C3.04443152 3.7004767 3.04443152 3.7004767 0 2 C0 1.34 0 0.68 0 0 Z M2 8 C2.99 8 3.98 8 5 8 C5 8.66 5 9.32 5 10 C4.01 9.67 3.02 9.34 2 9 C2 8.67 2 8.34 2 8 Z " fill="#353535" transform="translate(408,310)"/>
<path d="M0 0 C0 0.99 0 1.98 0 3 C2.97 3.495 2.97 3.495 6 4 C6 4.33 6 4.66 6 5 C1.38 5 -3.24 5 -8 5 C-7.67 4.01 -7.34 3.02 -7 2 C-3.4375 0.8125 -3.4375 0.8125 0 0 Z " fill="#E0E0E0" transform="translate(370,296)"/>
<path d="M0 0 C1.58294782 -0.05437607 3.16644256 -0.09296271 4.75 -0.125 C5.63171875 -0.14820313 6.5134375 -0.17140625 7.421875 -0.1953125 C10.1135858 0.00860498 11.69904974 0.63448279 14 2 C14 2.66 14 3.32 14 4 C12.22773547 3.71715982 10.457212 3.42339502 8.6875 3.125 C7.20830078 2.88136719 7.20830078 2.88136719 5.69921875 2.6328125 C3 2 3 2 0 0 Z " fill="#474747" transform="translate(298,457)"/>
<path d="M0 0 C4.875 2.75 4.875 2.75 6 5 C4.02 5.66 2.04 6.32 0 7 C-1.04449911 3.86650268 -0.93423645 3.01031744 0 0 Z " fill="#262626" transform="translate(317,433)"/>
<path d="M0 0 C0.94875 0.04125 1.8975 0.0825 2.875 0.125 C1.885 0.455 0.895 0.785 -0.125 1.125 C-1.33382096 3.12516466 -1.33382096 3.12516466 -2.125 5.125 C-3.115 5.125 -4.105 5.125 -5.125 5.125 C-5.125 0.85616396 -4.22482433 0.16899297 0 0 Z " fill="#242424" transform="translate(289.125,197.875)"/>
<path d="M0 0 C-1.5625 2.0625 -1.5625 2.0625 -4 4 C-7.75 3.75 -7.75 3.75 -11 3 C-7.72430636 -0.27569364 -4.48909309 -0.12469703 0 0 Z " fill="#262626" transform="translate(307,441)"/>
<path d="M0 0 C1.65 0 3.3 0 5 0 C5 1.32 5 2.64 5 4 C3.02 4.66 1.04 5.32 -1 6 C-0.67 4.02 -0.34 2.04 0 0 Z " fill="#3B3B3B" transform="translate(385,368)"/>
<path d="M0 0 C0.33 0.66 0.66 1.32 1 2 C-1.17508418 6.69360269 -1.17508418 6.69360269 -4.1875 7.8125 C-4.785625 7.874375 -5.38375 7.93625 -6 8 C-4.6178686 4.24850048 -3.71673111 1.85836556 0 0 Z " fill="#383838" transform="translate(303,337)"/>
<path d="M0 0 C1.65 1.65 3.3 3.3 5 5 C4.67 5.66 4.34 6.32 4 7 C2.68 7 1.36 7 0 7 C-0.93423645 3.98968256 -1.04449911 3.13349732 0 0 Z " fill="#434343" transform="translate(435,332)"/>
<path d="M0 0 C2.64 0 5.28 0 8 0 C8 0.99 8 1.98 8 3 C5.36 3 2.72 3 0 3 C0 2.01 0 1.02 0 0 Z " fill="#242424" transform="translate(408,371)"/>
<path d="M0 0 C2 3.75 2 3.75 2 6 C0.68 6.33 -0.64 6.66 -2 7 C-2.33 5.35 -2.66 3.7 -3 2 C-2.01 1.34 -1.02 0.68 0 0 Z " fill="#F1F1F1" transform="translate(436,360)"/>
<path d="M0 0 C2.46800047 1.15173355 4.04783565 2.04783565 6 4 C3.36 4.33 0.72 4.66 -2 5 C-1.34 3.35 -0.68 1.7 0 0 Z " fill="#333333" transform="translate(402,425)"/>
<path d="M0 0 C2.475 0.99 2.475 0.99 5 2 C3.35 3.65 1.7 5.3 0 7 C-0.93423645 3.98968256 -1.04449911 3.13349732 0 0 Z " fill="#323232" transform="translate(319,329)"/>
<path d="M0 0 C0 3.10551666 -0.5393715 4.35261084 -2 7 C-2.99 7 -3.98 7 -5 7 C-5 5.68 -5 4.36 -5 3 C-2.5 1.25 -2.5 1.25 0 0 Z " fill="#E6E6E6" transform="translate(398,232)"/>
<path d="M0 0 C0.93423645 3.01031744 1.04449911 3.86650268 0 7 C-2.0625 8.1875 -2.0625 8.1875 -4 9 C-2.94124926 5.59687262 -1.99097846 2.98646769 0 0 Z " fill="#EAEAEA" transform="translate(310,347)"/>
<path d="M0 0 C0.33 1.32 0.66 2.64 1 4 C1.99 4 2.98 4 4 4 C4.33 3.34 4.66 2.68 5 2 C4.49396008 4.16874252 4.00016187 5.99967627 3 8 C2.34 8 1.68 8 1 8 C-0.35439668 5.29120665 -0.06501451 2.99066732 0 0 Z " fill="#434343" transform="translate(441,317)"/>
<path d="M0 0 C2 0.66666667 4 1.33333333 6 2 C5.67 2.66 5.34 3.32 5 4 C2.69 3.34 0.38 2.68 -2 2 C-1.34 1.34 -0.68 0.68 0 0 Z M-3 3 C-1 4 -1 4 -1 4 Z " fill="#232323" transform="translate(347,458)"/>
<path d="M0 0 C0.99 0.33 1.98 0.66 3 1 C2.34 2.98 1.68 4.96 1 7 C0.01 6.01 -0.98 5.02 -2 4 C-1.34 2.68 -0.68 1.36 0 0 Z " fill="#3D3D3D" transform="translate(122,430)"/>
<path d="M0 0 C2.35171131 0.59861742 4.6859378 1.26924352 7 2 C7.33 2.66 7.66 3.32 8 4 C4.28400809 4.20086443 3.22791555 4.1519437 0 2 C0 1.34 0 0.68 0 0 Z " fill="#4E4E4E" transform="translate(473,384)"/>
<path d="M0 0 C-0.33 0.99 -0.66 1.98 -1 3 C-3.31 2.67 -5.62 2.34 -8 2 C-4.91190305 0.23537317 -3.76687864 0 0 0 Z " fill="#252525" transform="translate(400,378)"/>
<path d="M0 0 C2 2 2 2 2 5 C0 6.6875 0 6.6875 -2 8 C-2.125 5.125 -2.125 5.125 -2 2 C-1.34 1.34 -0.68 0.68 0 0 Z " fill="#222222" transform="translate(292,272)"/>
</svg>
