<?xml version="1.0" encoding="UTF-8"?>
<svg version="1.1" xmlns="http://www.w3.org/2000/svg" width="227" height="222">
<path d="M0 0 C74.91 0 149.82 0 227 0 C227 73.26 227 146.52 227 222 C152.09 222 77.18 222 0 222 C0 148.74 0 75.48 0 0 Z " fill="#FCFCFC" transform="translate(0,0)"/>
<path d="M0 0 C63.69 0 127.38 0 193 0 C193 4.95 193 9.9 193 15 C188.38 15 183.76 15 179 15 C179 40.08 179 65.16 179 91 C180.65 91.33 182.3 91.66 184 92 C186 95 186 95 186 99 C187.35544922 98.94779297 187.35544922 98.94779297 188.73828125 98.89453125 C189.91777344 98.86746094 191.09726563 98.84039062 192.3125 98.8125 C193.48425781 98.77769531 194.65601563 98.74289063 195.86328125 98.70703125 C199 99 199 99 200.90625 100.125 C202.49970977 102.85664531 202.28854295 105.05516862 202.1875 108.1875 C202.14689453 109.81751953 202.14689453 109.81751953 202.10546875 111.48046875 C202.07066406 112.31191406 202.03585938 113.14335937 202 114 C203.134375 114.12375 204.26875 114.2475 205.4375 114.375 C206.613125 114.58125 207.78875 114.7875 209 115 C211.09231398 119.18462795 210 124.32144372 210 129 C135.09 129 60.18 129 -17 129 C-17 125.04 -17 121.08 -17 117 C-14 114 -14 114 -11.3125 113.8125 C-10.1678125 113.9053125 -10.1678125 113.9053125 -9 114 C-9.03480469 113.16855469 -9.06960937 112.33710938 -9.10546875 111.48046875 C-9.13253906 110.39378906 -9.15960937 109.30710937 -9.1875 108.1875 C-9.22230469 107.10855469 -9.25710937 106.02960938 -9.29296875 104.91796875 C-9 102 -9 102 -7.875 100.125 C-5.14642074 98.48785244 -2.96274248 98.71087927 0.1875 98.8125 C1.27417969 98.83957031 2.36085938 98.86664063 3.48046875 98.89453125 C4.72763672 98.94673828 4.72763672 98.94673828 6 99 C6.13664062 98.21238281 6.27328125 97.42476563 6.4140625 96.61328125 C7.06027361 93.7311797 7.63982195 92.7247455 10 91 C10.99 91 11.98 91 13 91 C13 65.92 13 40.84 13 15 C8.71 15 4.42 15 0 15 C0 10.05 0 5.1 0 0 Z " fill="#050505" transform="translate(17,93)"/>
<path d="M0 0 C37.95 0 75.9 0 115 0 C115 25.08 115 50.16 115 76 C113.35 76.66 111.7 77.32 110 78 C109.34 79.98 108.68 81.96 108 84 C74.67 84 41.34 84 7 84 C6.34 82.35 5.68 80.7 5 79 C3.71818596 78.32918648 3.71818596 78.32918648 2.41047668 77.64482117 C1.61501938 77.10203018 0.81956207 76.5592392 0 76 C-0.4911208 73.34864563 -0.63563198 71.33343229 -0.56762695 68.68286133 C-0.56822963 67.92917361 -0.5688323 67.1754859 -0.56945324 66.39895916 C-0.56572102 63.9592324 -0.52765333 61.52141615 -0.48828125 59.08203125 C-0.4809297 57.57597778 -0.47582888 56.06991157 -0.47302246 54.56384277 C-0.44680927 48.97986701 -0.37700286 43.39616473 -0.3125 37.8125 C-0.209375 25.334375 -0.10625 12.85625 0 0 Z " fill="#060606" transform="translate(56,108)"/>
<path d="M0 0 C3.13175081 2.00627786 6.05669245 4.19414361 8.9375 6.5390625 C10.18607089 7.53791922 11.43477246 8.53661261 12.68359375 9.53515625 C13.31765137 10.04546387 13.95170898 10.55577148 14.60498047 11.08154297 C17.55158394 13.4450515 20.52624583 15.77238035 23.5 18.1015625 C24.67203896 19.02192666 25.84391372 19.94249995 27.015625 20.86328125 C27.59376953 21.31751465 28.17191406 21.77174805 28.76757812 22.23974609 C30.46546138 23.5744125 32.16253347 24.91010329 33.859375 26.24609375 C40.38985886 31.38582642 46.93749359 36.50276592 53.5 41.6015625 C60.61751554 47.13157826 67.71528819 52.68579643 74.796875 58.26171875 C76.5716216 59.65790701 78.34808896 61.05188012 80.125 62.4453125 C83.04510664 64.7353238 85.96266724 67.02853224 88.87792969 69.32470703 C90.45119769 70.56314648 92.02635061 71.79919024 93.6015625 73.03515625 C94.51679688 73.75832031 95.43203125 74.48148437 96.375 75.2265625 C97.17679688 75.85820313 97.97859375 76.48984375 98.8046875 77.140625 C99.36414063 77.62273437 99.92359375 78.10484375 100.5 78.6015625 C100.5 78.9315625 100.5 79.2615625 100.5 79.6015625 C33.51 79.6015625 -33.48 79.6015625 -102.5 79.6015625 C-94.24261356 71.34417606 -85.11351202 64.23112743 -75.84375 57.16015625 C-67.44180654 50.7477575 -59.17912885 44.15543241 -50.9375 37.5390625 C-45.78468098 33.40343022 -40.58878984 29.33253937 -35.34130859 25.31787109 C-31.98429654 22.74809118 -28.64373186 20.15901109 -25.3203125 17.54589844 C-24.15545009 16.63018715 -22.98880064 15.71674422 -21.8203125 14.80566406 C-18.72592765 12.38644912 -15.68081745 9.9248786 -12.6796875 7.390625 C-12.05312256 6.87169678 -11.42655762 6.35276855 -10.78100586 5.81811523 C-9.57677554 4.81929461 -8.3841743 3.80623806 -7.20532227 2.77758789 C-3.2004067 -0.51006482 -3.2004067 -0.51006482 0 0 Z " fill="#010101" transform="translate(114.5,1.3984375)"/>
<path d="M0 0 C37.95 0 75.9 0 115 0 C115 25.08 115 50.16 115 76 C113.35 76.66 111.7 77.32 110 78 C109.34 79.98 108.68 81.96 108 84 C74.67 84 41.34 84 7 84 C6.34 82.35 5.68 80.7 5 79 C3.71818596 78.32918648 3.71818596 78.32918648 2.41047668 77.64482117 C1.61501938 77.10203018 0.81956207 76.5592392 0 76 C-0.4911208 73.34864563 -0.63563198 71.33343229 -0.56762695 68.68286133 C-0.56822963 67.92917361 -0.5688323 67.1754859 -0.56945324 66.39895916 C-0.56572102 63.9592324 -0.52765333 61.52141615 -0.48828125 59.08203125 C-0.4809297 57.57597778 -0.47582888 56.06991157 -0.47302246 54.56384277 C-0.44680927 48.97986701 -0.37700286 43.39616473 -0.3125 37.8125 C-0.209375 25.334375 -0.10625 12.85625 0 0 Z M24 7 C23.92820036 8.51928038 23.91607993 10.04167482 23.9375 11.5625 C23.94652344 12.38878906 23.95554687 13.21507813 23.96484375 14.06640625 C23.97644531 14.70449219 23.98804688 15.34257813 24 16 C22.700625 15.979375 21.40125 15.95875 20.0625 15.9375 C18.70834367 15.91600546 17.35243917 15.92851801 16 16 C14.74750058 17.02973475 14.74750058 17.02973475 14.87974548 19.24623108 C14.88196609 20.23884445 14.88418671 21.23145782 14.88647461 22.25415039 C14.88655014 23.37523697 14.88662567 24.49632355 14.88670349 25.65138245 C14.89186478 26.8711528 14.89702606 28.09092316 14.90234375 29.34765625 C14.9037587 30.58921982 14.90517365 31.83078339 14.90663147 33.10997009 C14.91129409 36.41605491 14.92028503 39.72207146 14.93133545 43.02813721 C14.94155173 46.3996115 14.94612955 49.77109283 14.95117188 53.14257812 C14.96222605 59.76173775 14.97898264 66.38086493 15 73 C18.56671425 73.785855 20.8398773 74.01140136 24.375 73.0625 C34.05052001 70.9541031 43.52486408 71.11832014 52.86328125 74.390625 C57.22702638 75.63513001 61.02739383 74.31355308 65.2109375 72.96484375 C69.1933405 71.95076793 72.8605459 71.69531511 76.9375 71.75 C77.64116699 71.75386719 78.34483398 71.75773437 79.06982422 71.76171875 C84.06051946 71.845032 88.246721 72.59162104 93 74 C94.99962123 74.03892207 97.00050197 74.04480668 99 74 C99.02312883 66.58540058 99.04091785 59.17080889 99.05181217 51.75618076 C99.05703982 48.31359652 99.06413531 44.87103688 99.07543945 41.4284668 C99.08834235 37.47444957 99.09322918 33.52044244 99.09765625 29.56640625 C99.10281754 28.32476212 99.10797882 27.08311798 99.11329651 25.80384827 C99.11340981 24.09218727 99.11340981 24.09218727 99.11352539 22.34594727 C99.115746 21.335569 99.11796661 20.32519073 99.12025452 19.28419495 C99.25717605 17.03419146 99.25717605 17.03419146 98 16 C95.66702567 15.95907063 93.33294775 15.95758277 91 16 C91 13.03 91 10.06 91 7 C85.68019742 4.34009871 76.68899808 5.34897941 71.03125 6.71875 C65.77413853 8.73073093 61.41957136 11.54120502 57 15 C56.50371094 14.60167969 56.00742188 14.20335938 55.49609375 13.79296875 C54.81675781 13.26316406 54.13742188 12.73335937 53.4375 12.1875 C52.77621094 11.66542969 52.11492187 11.14335938 51.43359375 10.60546875 C45.23477156 6.51603709 40.40575989 5.54915145 33.125 5.75 C31.96871094 5.75773437 31.96871094 5.75773437 30.7890625 5.765625 C27.09133827 5.48570107 27.09133827 5.48570107 24 7 Z " fill="#FAFAFA" transform="translate(56,108)"/>
<path d="M0 0 C5.28179238 3.00442036 9.48602085 7.78775023 11.75 13.4375 C12.88220908 21.47182979 12.0909 27.68086431 7.47265625 34.40625 C3.71528627 38.83670894 -0.43185027 41.15133827 -6.2890625 41.74609375 C-13.3759486 42.00085109 -18.7209048 41.92371484 -24.40625 37.39453125 C-29.21813816 32.28699742 -31.50178782 26.81323383 -31.8125 19.8125 C-31.45244121 12.92272643 -29.28083431 8.46833431 -24.4375 3.625 C-16.81189731 -1.60825675 -8.76010058 -3.88593372 0 0 Z " fill="#F9F9F9" transform="translate(123.25,29.5625)"/>
<path d="M0 0 C0 14.85 0 29.7 0 45 C-4.29 45.66 -8.58 46.32 -13 47 C-17.02260235 48.38404555 -17.02260235 48.38404555 -20.3125 50.125 C-21.40175781 50.66382813 -22.49101563 51.20265625 -23.61328125 51.7578125 C-24.40089844 52.16773438 -25.18851562 52.57765625 -26 53 C-26.17339987 46.84373291 -26.30023607 40.68889488 -26.38452148 34.53076172 C-26.41966439 32.43741082 -26.46739021 30.34423101 -26.52807617 28.25146484 C-26.61326826 25.23752626 -26.6527492 22.2258628 -26.68359375 19.2109375 C-26.71972275 18.27945892 -26.75585175 17.34798035 -26.79307556 16.38827515 C-26.79690301 10.01452453 -26.79690301 10.01452453 -24.5071106 7.09942627 C-16.57242079 0.151715 -11.01469329 0 0 0 Z " fill="#F9F9F9" transform="translate(142,119)"/>
<path d="M0 0 C16.83818898 0 16.83818898 0 23.58081055 6.48046875 C26.954872 10.60199134 26.63736074 14.64516136 26.48828125 19.7734375 C26.48120651 20.6971817 26.47413177 21.6209259 26.46684265 22.57266235 C26.43897277 25.50761732 26.37624888 28.44062693 26.3125 31.375 C26.28740752 33.37106609 26.26459602 35.36716225 26.24414062 37.36328125 C26.18917039 42.24293096 26.10294966 47.12113627 26 52 C21.29181146 50.44548218 16.68321884 48.72803138 12.07421875 46.90234375 C8.08258096 45.63391171 8.08258096 45.63391171 0 45 C0 30.15 0 15.3 0 0 Z " fill="#FCFCFC" transform="translate(85,119)"/>
<path d="M0 0 C3.64051176 0.81120099 5.09653944 2.45526886 7.15625 5.48046875 C8.35745695 9.60961765 8.42284572 11.736807 6.96875 15.79296875 C5.06757939 18.61194587 4.38407994 19.58384932 1.15625 20.48046875 C-6.59375 21.03404018 -6.59375 21.03404018 -9.84375 18.48046875 C-12.13522823 15.08275966 -12.84375 13.03380022 -12.84375 8.91796875 C-10.81298789 1.937224 -7.01307647 -0.43247305 0 0 Z " fill="#030303" transform="translate(115.84375,39.51953125)"/>
<path d="M0 0 C1.32 0 2.64 0 4 0 C4 13.2 4 26.4 4 40 C8.29 40 12.58 40 17 40 C23.31071183 41.45073835 27.88319214 43.09506769 33 47 C31 48 31 48 28.99609375 47.5703125 C24.68322692 46.74934958 20.44229728 46.85586032 16.0625 46.875 C15.18142578 46.87113281 14.30035156 46.86726563 13.39257812 46.86328125 C12.1019043 46.86521484 12.1019043 46.86521484 10.78515625 46.8671875 C9.62318726 46.86887939 9.62318726 46.86887939 8.43774414 46.87060547 C5.6040687 47.02101588 2.79905502 47.53349083 0 48 C0 32.16 0 16.32 0 0 Z " fill="#F1F1F1" transform="translate(76,129)"/>
<path d="M0 0 C1.32 0 2.64 0 4 0 C4 15.84 4 31.68 4 48 C1.36 47.67 -1.28 47.34 -4 47 C-5.93640533 46.92719692 -7.87475784 46.89133385 -9.8125 46.90234375 C-10.82441406 46.90556641 -11.83632812 46.90878906 -12.87890625 46.91210938 C-13.90886719 46.92048828 -14.93882812 46.92886719 -16 46.9375 C-17.59134766 46.94426758 -17.59134766 46.94426758 -19.21484375 46.95117188 C-21.80995598 46.96286157 -24.40494709 46.97924724 -27 47 C-19.92500096 39.63827864 -10.96004306 39.76615716 -1 39 C-0.67 26.13 -0.34 13.26 0 0 Z " fill="#E7E7E7" transform="translate(147,129)"/>
<path d="M0 0 C0.66 0.33 1.32 0.66 2 1 C4.0374763 1.22858114 6.08040303 1.41024278 8.125 1.5625 C9.76855469 1.68818359 9.76855469 1.68818359 11.4453125 1.81640625 C12.28835937 1.87699219 13.13140625 1.93757812 14 2 C14 2.33 14 2.66 14 3 C4.595 3.495 4.595 3.495 -5 4 C-2 1 -2 1 0 0 Z " fill="#CCCCCC" transform="translate(125,172)"/>
</svg>
