<?xml version="1.0" encoding="UTF-8"?>
<svg version="1.1" xmlns="http://www.w3.org/2000/svg" width="500" height="500">
<path d="M0 0 C165 0 330 0 500 0 C500 165 500 330 500 500 C335 500 170 500 0 500 C0 335 0 170 0 0 Z " fill="#FEFEFE" transform="translate(0,0)"/>
<path d="M0 0 C1.24394531 0.00483398 2.48789063 0.00966797 3.76953125 0.01464844 C34.4445449 0.21603377 64.2605407 6.95311607 91.1875 22.125 C92.22261719 22.68703125 93.25773437 23.2490625 94.32421875 23.828125 C117.49106311 36.78944446 137.37589013 54.90330772 153.1875 76.125 C153.83589844 76.98996094 154.48429687 77.85492188 155.15234375 78.74609375 C166.1681125 93.95834583 175.71370091 112.12600125 181.1875 130.125 C181.3829541 130.74648926 181.5784082 131.36797852 181.77978516 132.00830078 C190.22276746 159.31557309 192.03966252 189.94641657 187.1875 218.125 C187.0021167 219.23053223 187.0021167 219.23053223 186.81298828 220.35839844 C180.2452524 258.2044789 161.46440895 291.53225191 135.1875 319.125 C134.20716797 320.18460937 134.20716797 320.18460937 133.20703125 321.265625 C101.07516318 354.97325632 54.21303863 372.53634077 8.421875 374.4140625 C-14.10644699 374.95031133 -36.40417175 372.20735341 -57.8125 365.125 C-58.48071777 364.90505371 -59.14893555 364.68510742 -59.83740234 364.45849609 C-107.66857807 348.16353221 -144.750856 311.87857616 -167.234375 267.49609375 C-173.99577106 253.71343831 -178.45849897 239.07471164 -181.8125 224.125 C-181.97766113 223.41037598 -182.14282227 222.69575195 -182.31298828 221.95947266 C-189.06361605 191.54325219 -185.56242995 157.39917991 -175.8125 128.125 C-175.58191895 127.41972168 -175.35133789 126.71444336 -175.11376953 125.98779297 C-169.71470774 109.74355696 -161.96500371 93.92000504 -151.8125 80.125 C-151.05453125 79.0834375 -150.2965625 78.041875 -149.515625 76.96875 C-143.48895593 68.83887907 -136.79580317 61.43798701 -129.8125 54.125 C-129.21050781 53.47015625 -128.60851562 52.8153125 -127.98828125 52.140625 C-113.98878703 37.33007696 -95.05730947 25.42291455 -76.64599609 16.97021484 C-74.9470724 16.1870359 -73.26373572 15.37028174 -71.58203125 14.55078125 C-49.17237977 4.15117441 -24.53265636 -0.09978033 0 0 Z " fill="#FEFEFE" transform="translate(247.8125,62.875)"/>
<path d="M0 0 C1.24394531 0.00483398 2.48789063 0.00966797 3.76953125 0.01464844 C34.4445449 0.21603377 64.2605407 6.95311607 91.1875 22.125 C92.22261719 22.68703125 93.25773437 23.2490625 94.32421875 23.828125 C117.49106311 36.78944446 137.37589013 54.90330772 153.1875 76.125 C153.83589844 76.98996094 154.48429687 77.85492188 155.15234375 78.74609375 C166.1681125 93.95834583 175.71370091 112.12600125 181.1875 130.125 C181.3829541 130.74648926 181.5784082 131.36797852 181.77978516 132.00830078 C190.22276746 159.31557309 192.03966252 189.94641657 187.1875 218.125 C187.0021167 219.23053223 187.0021167 219.23053223 186.81298828 220.35839844 C180.2452524 258.2044789 161.46440895 291.53225191 135.1875 319.125 C134.20716797 320.18460937 134.20716797 320.18460937 133.20703125 321.265625 C101.07516318 354.97325632 54.21303863 372.53634077 8.421875 374.4140625 C-14.10644699 374.95031133 -36.40417175 372.20735341 -57.8125 365.125 C-58.48071777 364.90505371 -59.14893555 364.68510742 -59.83740234 364.45849609 C-107.66857807 348.16353221 -144.750856 311.87857616 -167.234375 267.49609375 C-173.99577106 253.71343831 -178.45849897 239.07471164 -181.8125 224.125 C-181.97766113 223.41037598 -182.14282227 222.69575195 -182.31298828 221.95947266 C-189.06361605 191.54325219 -185.56242995 157.39917991 -175.8125 128.125 C-175.58191895 127.41972168 -175.35133789 126.71444336 -175.11376953 125.98779297 C-169.71470774 109.74355696 -161.96500371 93.92000504 -151.8125 80.125 C-151.05453125 79.0834375 -150.2965625 78.041875 -149.515625 76.96875 C-143.48895593 68.83887907 -136.79580317 61.43798701 -129.8125 54.125 C-129.21050781 53.47015625 -128.60851562 52.8153125 -127.98828125 52.140625 C-113.98878703 37.33007696 -95.05730947 25.42291455 -76.64599609 16.97021484 C-74.9470724 16.1870359 -73.26373572 15.37028174 -71.58203125 14.55078125 C-49.17237977 4.15117441 -24.53265636 -0.09978033 0 0 Z M-102.8125 44.125 C-103.72128906 44.80175781 -104.63007813 45.47851562 -105.56640625 46.17578125 C-138.6961439 71.86063403 -163.70203013 108.58956337 -171.8125 150.125 C-172.00328125 151.07890625 -172.1940625 152.0328125 -172.390625 153.015625 C-177.94920028 183.34956437 -176.15014857 215.0825738 -165.8125 244.125 C-165.37839255 245.4138896 -164.9448053 246.70295451 -164.51171875 247.9921875 C-159.01235238 263.9033977 -150.92348158 278.68682156 -140.8125 292.125 C-140.17957031 292.96933594 -139.54664063 293.81367188 -138.89453125 294.68359375 C-111.40314001 330.11064432 -72.19794343 354.7274261 -27.8125 362.125 C-26.595625 362.33125 -25.37875 362.5375 -24.125 362.75 C23.18900107 369.73075426 71.48907429 356.8040649 109.6875 328.4375 C143.46091071 302.13939747 168.29941952 264.46215513 176.1875 222.125 C176.46722656 220.83851563 176.74695313 219.55203125 177.03515625 218.2265625 C179.90389668 204.28047498 179.55262192 190.30085843 179.1875 176.125 C179.17203125 175.36638672 179.1565625 174.60777344 179.140625 173.82617188 C178.39348071 143.47343491 166.34949988 110.30559633 148.1875 86.125 C147.45402344 85.11050781 146.72054688 84.09601563 145.96484375 83.05078125 C120.38040542 48.22972093 81.10565817 20.41402216 37.875 13.25 C36.62074219 13.06695312 35.36648438 12.88390625 34.07421875 12.6953125 C32.0669416 12.40077736 30.05670392 12.09410221 28.08227539 11.62768555 C19.86792481 9.69291122 11.64109006 9.68312531 3.25 9.6875 C2.45815308 9.68709717 1.66630615 9.68669434 0.85046387 9.6862793 C-36.81830563 9.79605112 -72.63264236 21.55871747 -102.8125 44.125 Z " fill="#060606" transform="translate(247.8125,62.875)"/>
<path d="M0 0 C8.91 0 17.82 0 27 0 C33.69432057 21.02016658 33.69432057 21.02016658 35.44921875 26.6015625 C35.78651001 27.67410278 35.78651001 27.67410278 36.13061523 28.76831055 C36.59274039 30.23840792 37.05447972 31.70862663 37.51586914 33.17895508 C39.11888362 38.26673826 40.76137171 43.34087845 42.421875 48.41015625 C47.03337472 62.51079291 51.48572827 76.57684311 55 91 C55.37401653 92.5015474 55.74899765 94.00285489 56.125 95.50390625 C56.41375 96.65761719 56.7025 97.81132812 57 99 C57.13462646 98.39454346 57.26925293 97.78908691 57.40795898 97.1652832 C62.40474511 74.95250503 68.92326913 53.28521743 76.6081543 31.85717773 C78.74100861 25.87551655 80.60563249 19.84323852 82.31542969 13.72753906 C83.64674175 9.00221781 85.25905325 4.64252466 87 0 C95.91 0 104.82 0 114 0 C113.19175781 2.4853125 112.38351562 4.970625 111.55078125 7.53125 C110.74954096 9.99716333 109.94860931 12.46317672 109.14770508 14.92919922 C108.60017432 16.61452483 108.05233379 18.29974984 107.50415039 19.98486328 C106.70633349 22.43754697 105.90954075 24.89056029 105.11328125 27.34375 C104.84927521 28.15642334 104.58526917 28.96909668 104.31326294 29.80639648 C102.83360499 34.37576558 101.39158014 38.954521 99.98381042 43.54650879 C98.5098181 48.34901982 97.03400507 53.10997379 95.09375 57.75 C91.67689677 65.95593668 89.20166938 74.53914734 86.5 83 C80.18547058 102.77529283 80.18547058 102.77529283 77.84375 108.4375 C75.53211614 114.15781429 73.81443215 120.1030955 72 126 C62.1 126 52.2 126 42 126 C41.05898437 123.23753906 40.11796875 120.47507812 39.1484375 117.62890625 C38.21522553 114.89144544 37.28169912 112.15409204 36.34814453 109.41674805 C35.70979662 107.5444637 35.07176492 105.6720715 34.43408203 103.79956055 C31.35867452 94.76948606 28.27759105 85.74339242 25.07421875 76.7578125 C21.01254247 65.33842407 17.24913151 53.81710432 13.4375 42.3125 C11.95885541 37.84965265 10.47861709 33.38734167 8.99609375 28.92578125 C8.64598236 27.87077423 8.29587097 26.81576721 7.93515015 25.72879028 C5.66992287 18.92987271 3.30976113 12.17691337 0.79711914 5.46557617 C0 3 0 3 0 0 Z " fill="#020202" transform="translate(164,190)"/>
<path d="M0 0 C8.91 0 17.82 0 27 0 C27 41.58 27 83.16 27 126 C18.09 126 9.18 126 0 126 C0 84.42 0 42.84 0 0 Z " fill="#020202" transform="translate(294,190)"/>
</svg>
