<?xml version="1.0" standalone="no"?>
<!DOCTYPE svg PUBLIC "-//W3C//DTD SVG 20010904//EN"
 "http://www.w3.org/TR/2001/REC-SVG-20010904/DTD/svg10.dtd">
<svg version="1.0" xmlns="http://www.w3.org/2000/svg"
 width="500.000000pt" height="500.000000pt" viewBox="0 0 500.000000 500.000000"
 preserveAspectRatio="xMidYMid meet">

<g transform="translate(0.000000,500.000000) scale(0.100000,-0.100000)"
fill="#000000" stroke="none">
<path d="M2283 4360 c-193 -25 -428 -93 -598 -175 -191 -91 -425 -267 -568
-426 -134 -150 -217 -273 -301 -449 -277 -577 -243 -1239 90 -1788 271 -446
748 -772 1266 -864 175 -31 480 -31 655 0 519 92 996 418 1267 864 333 549
367 1211 90 1788 -150 312 -360 553 -657 751 -218 146 -438 233 -722 286 -96
17 -420 26 -522 13z m482 -110 c389 -63 708 -225 983 -498 583 -578 690 -1477
260 -2180 -245 -400 -678 -708 -1130 -802 -335 -70 -706 -42 -1008 74 -534
207 -949 670 -1085 1213 -187 748 105 1496 755 1930 340 228 816 330 1225 263z"/>
<path d="M1052 3087 c2 -7 97 -291 212 -630 l210 -617 146 0 146 0 212 624
c117 343 212 626 212 630 0 3 -60 6 -133 6 l-133 0 -122 -384 c-118 -369 -172
-557 -172 -597 0 -46 -17 -11 -37 79 -13 53 -80 278 -149 500 l-127 402 -134
0 c-106 0 -134 -3 -131 -13z"/>
<path d="M2350 2470 l0 -630 135 0 135 0 0 630 0 630 -135 0 -135 0 0 -630z"/>
<path d="M2940 2470 l0 -630 135 0 135 0 0 630 0 630 -135 0 -135 0 0 -630z"/>
<path d="M3530 2470 l0 -630 130 0 130 0 0 630 0 630 -130 0 -130 0 0 -630z"/>
</g>
</svg>
