<?xml version="1.0" encoding="UTF-8"?>
<svg version="1.1" xmlns="http://www.w3.org/2000/svg" width="500" height="500">
<path d="M0 0 C165 0 330 0 500 0 C500 165 500 330 500 500 C335 500 170 500 0 500 C0 335 0 170 0 0 Z " fill="#FEFEFE" transform="translate(0,0)"/>
<path d="M0 0 C1.24394531 0.00483398 2.48789063 0.00966797 3.76953125 0.01464844 C34.4445449 0.21603377 64.2605407 6.95311607 91.1875 22.125 C92.22261719 22.68703125 93.25773437 23.2490625 94.32421875 23.828125 C117.49106311 36.78944446 137.37589013 54.90330772 153.1875 76.125 C153.83589844 76.98996094 154.48429687 77.85492188 155.15234375 78.74609375 C166.1681125 93.95834583 175.71370091 112.12600125 181.1875 130.125 C181.3829541 130.74648926 181.5784082 131.36797852 181.77978516 132.00830078 C190.22276746 159.31557309 192.03966252 189.94641657 187.1875 218.125 C187.0021167 219.23053223 187.0021167 219.23053223 186.81298828 220.35839844 C180.2452524 258.2044789 161.46440895 291.53225191 135.1875 319.125 C134.20716797 320.18460937 134.20716797 320.18460937 133.20703125 321.265625 C101.07516318 354.97325632 54.21303863 372.53634077 8.421875 374.4140625 C-14.10644699 374.95031133 -36.40417175 372.20735341 -57.8125 365.125 C-58.48071777 364.90505371 -59.14893555 364.68510742 -59.83740234 364.45849609 C-107.66857807 348.16353221 -144.750856 311.87857616 -167.234375 267.49609375 C-173.99577106 253.71343831 -178.45849897 239.07471164 -181.8125 224.125 C-181.97766113 223.41037598 -182.14282227 222.69575195 -182.31298828 221.95947266 C-189.06361605 191.54325219 -185.56242995 157.39917991 -175.8125 128.125 C-175.58191895 127.41972168 -175.35133789 126.71444336 -175.11376953 125.98779297 C-169.71470774 109.74355696 -161.96500371 93.92000504 -151.8125 80.125 C-151.05453125 79.0834375 -150.2965625 78.041875 -149.515625 76.96875 C-143.48895593 68.83887907 -136.79580317 61.43798701 -129.8125 54.125 C-129.21050781 53.47015625 -128.60851562 52.8153125 -127.98828125 52.140625 C-113.98878703 37.33007696 -95.05730947 25.42291455 -76.64599609 16.97021484 C-74.9470724 16.1870359 -73.26373572 15.37028174 -71.58203125 14.55078125 C-49.17237977 4.15117441 -24.53265636 -0.09978033 0 0 Z " fill="#FEFEFE" transform="translate(247.8125,62.875)"/>
<path d="M0 0 C1.24394531 0.00483398 2.48789063 0.00966797 3.76953125 0.01464844 C34.4445449 0.21603377 64.2605407 6.95311607 91.1875 22.125 C92.22261719 22.68703125 93.25773437 23.2490625 94.32421875 23.828125 C117.49106311 36.78944446 137.37589013 54.90330772 153.1875 76.125 C153.83589844 76.98996094 154.48429687 77.85492188 155.15234375 78.74609375 C166.1681125 93.95834583 175.71370091 112.12600125 181.1875 130.125 C181.3829541 130.74648926 181.5784082 131.36797852 181.77978516 132.00830078 C190.22276746 159.31557309 192.03966252 189.94641657 187.1875 218.125 C187.0021167 219.23053223 187.0021167 219.23053223 186.81298828 220.35839844 C180.2452524 258.2044789 161.46440895 291.53225191 135.1875 319.125 C134.20716797 320.18460937 134.20716797 320.18460937 133.20703125 321.265625 C101.07516318 354.97325632 54.21303863 372.53634077 8.421875 374.4140625 C-14.10644699 374.95031133 -36.40417175 372.20735341 -57.8125 365.125 C-58.48071777 364.90505371 -59.14893555 364.68510742 -59.83740234 364.45849609 C-107.66857807 348.16353221 -144.750856 311.87857616 -167.234375 267.49609375 C-173.99577106 253.71343831 -178.45849897 239.07471164 -181.8125 224.125 C-181.97766113 223.41037598 -182.14282227 222.69575195 -182.31298828 221.95947266 C-189.06361605 191.54325219 -185.56242995 157.39917991 -175.8125 128.125 C-175.58191895 127.41972168 -175.35133789 126.71444336 -175.11376953 125.98779297 C-169.71470774 109.74355696 -161.96500371 93.92000504 -151.8125 80.125 C-151.05453125 79.0834375 -150.2965625 78.041875 -149.515625 76.96875 C-143.48895593 68.83887907 -136.79580317 61.43798701 -129.8125 54.125 C-129.21050781 53.47015625 -128.60851562 52.8153125 -127.98828125 52.140625 C-113.98878703 37.33007696 -95.05730947 25.42291455 -76.64599609 16.97021484 C-74.9470724 16.1870359 -73.26373572 15.37028174 -71.58203125 14.55078125 C-49.17237977 4.15117441 -24.53265636 -0.09978033 0 0 Z M-102.8125 44.125 C-103.72128906 44.80175781 -104.63007813 45.47851562 -105.56640625 46.17578125 C-138.6961439 71.86063403 -163.70203013 108.58956337 -171.8125 150.125 C-172.00328125 151.07890625 -172.1940625 152.0328125 -172.390625 153.015625 C-177.94920028 183.34956437 -176.15014857 215.0825738 -165.8125 244.125 C-165.37839255 245.4138896 -164.9448053 246.70295451 -164.51171875 247.9921875 C-159.01235238 263.9033977 -150.92348158 278.68682156 -140.8125 292.125 C-140.17957031 292.96933594 -139.54664063 293.81367188 -138.89453125 294.68359375 C-111.40314001 330.11064432 -72.19794343 354.7274261 -27.8125 362.125 C-26.595625 362.33125 -25.37875 362.5375 -24.125 362.75 C23.18900107 369.73075426 71.48907429 356.8040649 109.6875 328.4375 C143.46091071 302.13939747 168.29941952 264.46215513 176.1875 222.125 C176.46722656 220.83851563 176.74695313 219.55203125 177.03515625 218.2265625 C179.90389668 204.28047498 179.55262192 190.30085843 179.1875 176.125 C179.17203125 175.36638672 179.1565625 174.60777344 179.140625 173.82617188 C178.39348071 143.47343491 166.34949988 110.30559633 148.1875 86.125 C147.45402344 85.11050781 146.72054688 84.09601563 145.96484375 83.05078125 C120.38040542 48.22972093 81.10565817 20.41402216 37.875 13.25 C36.62074219 13.06695312 35.36648438 12.88390625 34.07421875 12.6953125 C32.0669416 12.40077736 30.05670392 12.09410221 28.08227539 11.62768555 C19.86792481 9.69291122 11.64109006 9.68312531 3.25 9.6875 C2.45815308 9.68709717 1.66630615 9.68669434 0.85046387 9.6862793 C-36.81830563 9.79605112 -72.63264236 21.55871747 -102.8125 44.125 Z " fill="#060606" transform="translate(247.8125,62.875)"/>
<path d="M0 0 C8.91 0 17.82 0 27 0 C28.4025 4.186875 29.805 8.37375 31.25 12.6875 C31.68344727 13.97873779 32.11689453 15.26997559 32.56347656 16.6003418 C35.15836914 24.36678705 37.61805718 32.16589155 40 40 C40.78645239 42.54333085 41.58062378 45.08412288 42.375 47.625 C42.57996094 48.28266357 42.78492188 48.94032715 42.99609375 49.61791992 C44.13835417 53.27597471 45.29681372 56.9280721 46.4765625 60.57421875 C49.13295423 68.81398398 51.64582039 77.07082841 53.875 85.4375 C54.09027344 86.23647705 54.30554688 87.0354541 54.52734375 87.85864258 C55.44533232 91.37975186 56 94.33765783 56 98 C56.66 98 57.32 98 58 98 C58.08636719 97.42636719 58.17273438 96.85273438 58.26171875 96.26171875 C60.45591939 82.99586353 64.08204954 70.06337917 68.765625 57.47265625 C70.07481634 53.78951985 71.18273533 50.07048054 72.25 46.3125 C74.81385147 37.31990248 77.79563834 28.47353097 80.79003906 19.61645508 C81.34643066 17.96746216 81.34643066 17.96746216 81.9140625 16.28515625 C82.4083374 14.82928101 82.4083374 14.82928101 82.91259766 13.34399414 C84.35118575 8.9200289 85.66326072 4.4557976 87 0 C95.91 0 104.82 0 114 0 C111.69622898 8.4471604 109.24435923 16.7393342 106.5625 25.0625 C106.18029297 26.26455078 105.79808594 27.46660156 105.40429688 28.70507812 C105.02466797 29.88650391 104.64503906 31.06792969 104.25390625 32.28515625 C103.74839233 33.86115601 103.74839233 33.86115601 103.23266602 35.46899414 C102.30299173 38.13207182 101.31250957 40.70219535 100.23901367 43.3059082 C97.12182492 51.02005175 94.56833836 58.93575516 91.921875 66.8203125 C91.34491137 68.53246201 90.76769776 70.24452731 90.19024658 71.95651245 C88.68191947 76.43048035 87.17695867 80.90557333 85.67272949 85.38092041 C84.13283523 89.96036916 82.58971383 94.53873013 81.046875 99.1171875 C78.02811531 108.07707241 75.0132154 117.03824902 72 126 C62.1 126 52.2 126 42 126 C41.16855469 123.4940625 40.33710938 120.988125 39.48046875 118.40625 C38.66662753 115.95690879 37.85225951 113.50774333 37.0378418 111.05859375 C36.47576819 109.36737025 35.91423517 107.67596698 35.35327148 105.984375 C34.54295534 103.54118178 33.73064296 101.09865973 32.91796875 98.65625 C32.67096725 97.91008423 32.42396576 97.16391846 32.16947937 96.3951416 C31.02241959 92.95360131 29.83982486 89.53656715 28.5480957 86.14648438 C26.65236655 81.14803621 24.98990565 76.07503549 23.3125 71 C22.96872314 69.96488281 22.62494629 68.92976563 22.27075195 67.86328125 C20.81070579 63.46690161 19.35424867 59.06933521 17.89746094 54.671875 C16.82871887 51.44750214 15.75814904 48.22374006 14.6875 45 C14.36241455 44.01644531 14.0373291 43.03289062 13.70239258 42.01953125 C11.91266484 36.63130344 10.01280762 31.30863503 8 26 C6.56473237 21.88815221 5.19045443 17.75637151 3.8125 13.625 C3.44447266 12.53316406 3.07644531 11.44132813 2.69726562 10.31640625 C2.34986328 9.27613281 2.00246094 8.23585937 1.64453125 7.1640625 C1.32846924 6.21998535 1.01240723 5.2759082 0.68676758 4.30322266 C0 2 0 2 0 0 Z " fill="#020202" transform="translate(193,190)"/>
</svg>
