<?xml version="1.0" encoding="UTF-8"?>
<svg version="1.1" xmlns="http://www.w3.org/2000/svg" width="225" height="225">
<path d="M0 0 C74.25 0 148.5 0 225 0 C225 74.25 225 148.5 225 225 C150.75 225 76.5 225 0 225 C0 150.75 0 76.5 0 0 Z " fill="#FEFEFE" transform="translate(0,0)"/>
<path d="M0 0 C0 9.24 0 18.48 0 28 C-4.29 28.66 -8.58 29.32 -13 30 C-25.16942313 34.09225364 -33.90001242 41.89668664 -39.5625 53.25 C-44.70314323 63.77619681 -45.91013882 74.91115224 -42.375 86.25 C-37.44580484 99.16552181 -30.03766477 108.20142886 -17.34375 114.0390625 C-11.46976159 116.44739775 -6.384473 117.20194087 0 118 C0 127.24 0 136.48 0 146 C-18.42021619 146 -35.6779678 139.98066984 -49.04248047 127.0703125 C-50.37895992 125.73058579 -51.69027055 124.36588936 -53 123 C-53.68707031 122.29746094 -54.37414062 121.59492188 -55.08203125 120.87109375 C-63.44599153 111.85113659 -67.61016423 101.66791297 -71 90 C-71.18836426 89.35901367 -71.37672852 88.71802734 -71.57080078 88.05761719 C-76.44407526 70.33265996 -71.97075946 51.60279902 -63.32421875 35.828125 C-53.50982349 19.06133878 -37.91785999 7.68894705 -19.5078125 1.90234375 C-12.58852066 0.15216993 -7.44142486 0 0 0 Z " fill="#414143" transform="translate(113,39)"/>
<path d="M0 0 C0 26.4 0 52.8 0 80 C-12.41322013 80 -20.01077143 76.89748709 -28.87890625 68.2421875 C-29.57886719 67.50226563 -30.27882813 66.76234375 -31 66 C-31.52464844 65.44570312 -32.04929687 64.89140625 -32.58984375 64.3203125 C-38.9390933 56.56226289 -40.67961306 45.80269206 -40.31640625 36.06640625 C-39.17820808 25.03572027 -34.02703849 16.25022163 -26.05859375 8.63671875 C-17.634095 1.93868274 -10.64496268 0 0 0 Z " fill="#404042" transform="translate(113,72)"/>
<path d="M0 0 C1.32 0.33 2.64 0.66 4 1 C4.33 15.52 4.66 30.04 5 45 C5.99 45 6.98 45 8 45 C8.33 30.48 8.66 15.96 9 1 C10.65 0.67 12.3 0.34 14 0 C15.54230977 1.54230977 15.16247487 3.0040971 15.20532227 5.15258789 C15.22526749 6.03342545 15.24521271 6.914263 15.26576233 7.8217926 C15.28247482 8.77907761 15.29918732 9.73636261 15.31640625 10.72265625 C15.33718735 11.69786728 15.35796844 12.67307831 15.37937927 13.67784119 C15.44498412 16.8059863 15.50381028 19.93421822 15.5625 23.0625 C15.60567483 25.1777435 15.64928877 27.29297809 15.69335938 29.40820312 C15.80067655 34.60537587 15.9024222 39.80263577 16 45 C16.99 45 17.98 45 19 45 C19.33 30.48 19.66 15.96 20 1 C21.32 0.67 22.64 0.34 24 0 C25.62998378 4.36209182 26.34400398 8.23375189 26.6328125 12.875 C26.75849609 14.84919922 26.75849609 14.84919922 26.88671875 16.86328125 C26.92587402 17.54471191 26.9650293 18.22614258 27.00537109 18.92822266 C27.12310452 20.9671733 27.25381568 23.00495699 27.38671875 25.04296875 C28.89740399 49.07224328 28.89740399 49.07224328 26.3125 54.625 C24.01059706 56.98911653 21.62913683 59.01038294 19 61 C17.42192598 64.15614804 17.87716067 67.53358221 17.90625 70.99609375 C17.91162781 72.20150063 17.91162781 72.20150063 17.91711426 73.43125916 C17.96825048 81.20666435 18.1827978 88.97557809 18.42861938 96.74685669 C18.62425366 103.09338651 18.78101916 109.4411072 18.94281006 115.78857422 C18.99689538 117.87995046 19.0542328 119.97121776 19.11181641 122.0625 C19.20068449 125.56253547 19.26207253 129.0617303 19.3125 132.5625 C19.34214844 133.57771729 19.37179688 134.59293457 19.40234375 135.63891602 C19.45842017 142.34413661 19.45842017 142.34413661 17.16796875 145.62109375 C14.19485016 147.51210431 12.45850992 147.57641832 9 147 C6.83203125 145.4453125 6.83203125 145.4453125 5 143 C4.65804007 140.30824203 4.58029949 138.05763461 4.6875 135.375 C4.70296875 134.56796631 4.7184375 133.76093262 4.734375 132.92944336 C4.7992041 129.95189664 4.89876347 126.97653091 5 124 C5.0590736 122.07649387 5.11810188 120.15298614 5.17607117 118.22944641 C5.21794405 116.84188988 5.26028053 115.45434727 5.30305481 114.06681824 C5.41504931 110.42872312 5.52246269 106.79057644 5.62133789 103.15209961 C5.64130325 102.42186081 5.66126862 101.69162201 5.68183899 100.93925476 C5.7220588 99.46458598 5.76184382 97.98990528 5.80119324 96.51521301 C5.89991365 92.9648031 6.01965317 89.41775099 6.19238281 85.87011719 C6.37508499 82.0596057 6.50423989 78.25039804 6.625 74.4375 C6.73231445 72.74572632 6.73231445 72.74572632 6.84179688 71.01977539 C6.94954013 66.23211653 6.9112285 63.22182434 3.98730469 59.30126953 C1.74499224 57.06828895 -0.58449432 55.04022828 -3 53 C-4.27406938 50.45186123 -4.05500236 48.80842409 -3.94921875 45.9609375 C-3.91119141 44.91607178 -3.87316406 43.87120605 -3.83398438 42.79467773 C-3.78564453 41.66618408 -3.73730469 40.53769043 -3.6875 39.375 C-3.64044922 38.22394775 -3.59339844 37.07289551 -3.54492188 35.88696289 C-3.18403565 27.72413979 -2.66343363 19.58116329 -2 11.4375 C-1.91709717 10.40351074 -1.83419434 9.36952148 -1.7487793 8.30419922 C-1.66668213 7.35689941 -1.58458496 6.40959961 -1.5 5.43359375 C-1.4278125 4.59884521 -1.355625 3.76409668 -1.28125 2.90405273 C-1 1 -1 1 0 0 Z " fill="#434344" transform="translate(125,39)"/>
<path d="M0 0 C0.99 0 1.98 0 3 0 C3 0.66 3 1.32 3 2 C3.99 2.33 4.98 2.66 6 3 C18.21928489 17.05551623 20.21842742 35.89063761 20.5 53.6875 C20.5306958 54.82268066 20.5613916 55.95786133 20.59301758 57.12744141 C20.59482795 65.18360862 20.59482795 65.18360862 17.671875 69.1953125 C14.8424682 71.10640306 12.25919177 72.03705698 9 73 C5.47054108 80.05891784 8.44460855 91.98581125 9 99.5625 C9.70790037 109.78960728 10.23352891 119.99514823 10.3125 130.25 C10.32990234 131.29615479 10.34730469 132.34230957 10.36523438 133.42016602 C10.36458984 134.37979248 10.36394531 135.33941895 10.36328125 136.328125 C10.36775269 137.57964355 10.36775269 137.57964355 10.37231445 138.85644531 C9.90921556 141.52268025 9.12531274 142.37039524 7 144 C4.125 145 4.125 145 1 145 C-1.64729835 143.35500247 -2.60539241 142.68555731 -4 140 C-4.52680063 135.59910274 -4.18276924 131.28635912 -3.875 126.875 C-3.74645166 124.51828048 -3.6188982 122.16150654 -3.4921875 119.8046875 C-3.45426086 119.14900787 -3.41633423 118.49332825 -3.3772583 117.81777954 C-1.8420444 91.22182582 -1.7128989 64.60151005 -1.47393799 37.97052002 C-1.42308041 32.30517537 -1.36847144 26.63989554 -1.30812073 20.97464371 C-1.28162134 18.34158479 -1.26080705 15.70851889 -1.2401123 13.07540894 C-1.22353432 11.48500245 -1.20666477 9.89459897 -1.18945312 8.30419922 C-1.1831765 7.20905251 -1.1831765 7.20905251 -1.17677307 6.09178162 C-1.11391286 1.11391286 -1.11391286 1.11391286 0 0 Z " fill="#424244" transform="translate(165,40)"/>
<path d="M0 0 C0.99 0 1.98 0 3 0 C3 0.66 3 1.32 3 2 C2.01 2.495 2.01 2.495 1 3 C0.67 25.77 0.34 48.54 0 72 C-0.33 72 -0.66 72 -1 72 C-1.02312524 62.76002448 -1.04091601 53.52005886 -1.05181217 44.28006077 C-1.05704061 39.99000085 -1.06413753 35.69996067 -1.07543945 31.40991211 C-1.08626975 27.273206 -1.09227714 23.13651892 -1.09487724 18.99979973 C-1.09673124 17.41807696 -1.10035136 15.83635529 -1.10573006 14.25464058 C-1.1129424 12.04677162 -1.11399086 9.83898227 -1.11352539 7.63110352 C-1.115746 6.37201675 -1.11796661 5.11292999 -1.12025452 3.81568909 C-1 1 -1 1 0 0 Z " fill="#555556" transform="translate(165,40)"/>
</svg>
