<?xml version="1.0" encoding="UTF-8"?>
<svg version="1.1" xmlns="http://www.w3.org/2000/svg" width="1200" height="1200">
<path d="M0 0 C396 0 792 0 1200 0 C1200 396 1200 792 1200 1200 C804 1200 408 1200 0 1200 C0 804 0 408 0 0 Z " fill="#FEFEFE" transform="translate(0,0)"/>
<path d="M0 0 C0.98994965 0.00060425 1.97989929 0.0012085 2.99984741 0.00183105 C16.66100475 0.02440943 30.21264444 0.21050108 43.79394531 1.828125 C47.30517398 2.24615546 50.82031017 2.62078627 54.3359375 3 C110.00824775 9.18011815 162.36140567 26.24361813 212.75 50.3125 C214.41385742 51.09947266 214.41385742 51.09947266 216.11132812 51.90234375 C217.70944336 52.66611328 217.70944336 52.66611328 219.33984375 53.4453125 C220.29624756 53.9005127 221.25265137 54.35571289 222.23803711 54.82470703 C224.65336008 56.10325922 226.6441742 57.53738368 228.8125 59.1875 C230.48041943 60.13996755 232.16561961 61.06255306 233.86328125 61.9609375 C249.06952822 70.14794657 263.56220871 79.27131457 277.16210938 89.91357422 C279.49876536 91.71722376 281.904279 93.41858305 284.3125 95.125 C294.57350987 102.54521591 304.41635242 110.70129513 313.8125 119.1875 C314.62074219 119.91582031 315.42898438 120.64414062 316.26171875 121.39453125 C317.98464184 122.94747987 319.7060333 124.50212968 321.42578125 126.05859375 C323.4396938 127.8549642 325.48417996 129.59203639 327.5625 131.3125 C330.45365686 133.7625179 332.87372992 136.43759727 335.2578125 139.37890625 C338.16396191 142.75967805 341.41925332 145.80413941 344.609375 148.9140625 C350.28653442 154.46707883 355.58716148 160.11625568 360.53515625 166.34375 C362.60907989 168.93348655 364.73640441 171.45896806 366.8972168 173.97558594 C375.15160923 183.59550577 382.66052519 193.72414573 389.8125 204.1875 C390.51503906 205.20328125 391.21757813 206.2190625 391.94140625 207.265625 C419.87105296 248.07001391 441.92136208 293.2709831 455.18847656 340.953125 C455.87165187 343.39929886 456.57293971 345.8399833 457.2734375 348.28125 C461.10460405 361.7917318 464.24394991 375.38154324 466.8125 389.1875 C466.99554687 390.17073242 467.17859375 391.15396484 467.3671875 392.16699219 C482.57206592 476.26208966 473.46742059 564.63072546 437.8125 657.1875 C437.0831191 659.02074811 436.35391093 660.85406497 435.625 662.6875 C423.29885956 692.0015904 407.48065729 720.43706514 388.8125 746.1875 C388.14992188 747.11175781 387.48734375 748.03601563 386.8046875 748.98828125 C384.82401445 751.73403781 382.82201638 754.4627979 380.8125 757.1875 C380.11511719 758.14269531 379.41773438 759.09789062 378.69921875 760.08203125 C373.86740892 766.63029217 368.78001121 772.8787811 363.48046875 779.046875 C361.11659526 781.80542571 358.86994319 784.64357704 356.625 787.5 C350.80978326 794.66612009 344.13975381 801.02197941 337.55737305 807.47509766 C334.33449633 810.63799919 331.15310905 813.84154994 327.98046875 817.0546875 C322.43274019 822.66338011 316.83199645 828.08262669 310.8125 833.1875 C309.85601563 834.033125 308.89953125 834.87875 307.9140625 835.75 C287.82823939 853.4304615 265.73613836 868.46796228 242.8125 882.1875 C241.32363281 883.0846875 241.32363281 883.0846875 239.8046875 884 C238.20464379 884.96303571 236.60198885 885.92175367 234.99609375 886.875 C233.53868183 887.75101146 232.09313091 888.64706065 230.66015625 889.5625 C222.85689974 894.4712152 214.51604763 898.22918946 206.16503906 902.09570312 C204.01972421 903.0913287 201.8797927 904.09732767 199.7421875 905.109375 C186.36922518 911.42019209 172.88467426 917.09483271 158.9375 922 C158.20905884 922.25662415 157.48061768 922.51324829 156.73010254 922.77764893 C124.49323611 934.08104356 91.85128891 941.73995544 57.9375 946 C57.09936768 946.10550171 56.26123535 946.21100342 55.39770508 946.31970215 C38.05317656 948.47390453 20.89387563 949.35591785 3.4230957 949.31787109 C0.51443221 949.31252652 -2.39407562 949.3178428 -5.30273438 949.32421875 C-23.87849222 949.33356368 -42.13461998 948.35034724 -60.5625 946 C-61.42634308 945.89079224 -62.29018616 945.78158447 -63.1802063 945.66906738 C-128.76490688 937.29268083 -191.78795383 914.60985879 -248.1875 880.1875 C-248.94836914 879.72891602 -249.70923828 879.27033203 -250.49316406 878.79785156 C-272.68877223 865.41565239 -293.67132523 849.75728497 -312.83984375 832.3203125 C-317.26506323 828.30006318 -321.75014393 824.35182228 -326.375 820.5625 C-329.14179886 818.22609207 -331.63876202 815.75869382 -334.1875 813.1875 C-335.06148437 812.32511719 -335.93546875 811.46273437 -336.8359375 810.57421875 C-341.54320682 805.914157 -346.16089343 801.23529681 -350.4609375 796.19140625 C-352.40491046 793.93516614 -354.42073518 791.75386107 -356.4375 789.5625 C-360.98233281 784.52550255 -365.14851191 779.24587606 -369.30078125 773.88671875 C-371.22600512 771.40486691 -373.18085881 768.95210604 -375.16796875 766.51953125 C-382.34540752 757.72385555 -388.92327566 748.65424834 -395.1875 739.1875 C-395.56970703 738.61209473 -395.95191406 738.03668945 -396.34570312 737.44384766 C-407.26727238 720.93147509 -417.3084358 703.88265631 -426.1875 686.1875 C-426.75331787 685.06190674 -426.75331787 685.06190674 -427.33056641 683.91357422 C-437.22746319 664.04685163 -445.25650527 643.26035807 -452.1875 622.1875 C-452.46658203 621.34703125 -452.74566406 620.5065625 -453.03320312 619.640625 C-464.16903734 585.75116141 -470.78668089 550.65676315 -474.1875 515.1875 C-474.28466309 514.18581787 -474.38182617 513.18413574 -474.48193359 512.15209961 C-475.46797138 500.45507153 -475.43116861 488.73099508 -475.4375 477 C-475.43817474 475.87322845 -475.43884949 474.74645691 -475.43954468 473.58554077 C-475.42098443 453.9756802 -474.63132944 434.64625328 -472.1875 415.1875 C-472.105 414.52415649 -472.0225 413.86081299 -471.9375 413.17736816 C-461.80230212 332.69512612 -430.19188586 253.23486329 -380.1875 189.1875 C-379.41535156 188.16269531 -378.64320313 187.13789063 -377.84765625 186.08203125 C-371.62250148 177.82728509 -364.98721107 169.97240585 -358.1875 162.1875 C-357.64295166 161.55972656 -357.09840332 160.93195313 -356.53735352 160.28515625 C-352.27387037 155.38308179 -347.92338196 150.57064851 -343.5 145.8125 C-342.84966797 145.10222656 -342.19933594 144.39195312 -341.52929688 143.66015625 C-340.89701172 142.98082031 -340.26472656 142.30148437 -339.61328125 141.6015625 C-339.05036377 140.9926416 -338.48744629 140.3837207 -337.9074707 139.75634766 C-336.10802838 138.11501105 -334.407252 137.16522262 -332.1875 136.1875 C-332.1875 135.5275 -332.1875 134.8675 -332.1875 134.1875 C-330.71875 132.7421875 -330.71875 132.7421875 -328.6875 131.0625 C-325.77125911 128.59059004 -323.03079692 126.06177217 -320.375 123.3125 C-316.13328188 119.02155497 -311.54104644 115.27113295 -306.83007812 111.50927734 C-305.02617228 110.0576801 -303.23893698 108.58707573 -301.453125 107.11328125 C-274.12083984 84.59918738 -244.29718156 64.25624018 -212.1875 49.1875 C-211.33559082 48.78354004 -210.48368164 48.37958008 -209.60595703 47.96337891 C-143.35228101 16.63987481 -73.28112843 -0.0834118 0 0 Z " fill="#020202" transform="translate(601.1875,162.8125)"/>
<path d="M0 0 C10.3203406 6.44849052 18.14158364 15.79295371 22.15234375 27.30859375 C25.21929093 40.66465405 23.52004292 54.05039542 16.25 65.75 C9.34628348 75.24046886 -0.07522373 83.71345309 -12 86 C-10.02 86.33 -8.04 86.66 -6 87 C-5.67 112.74 -5.34 138.48 -5 165 C-1.7 159.06 1.6 153.12 5 147 C7.35890252 143.76895947 9.56710458 140.83479319 12.1875 137.875 C12.75146484 137.21242188 13.31542969 136.54984375 13.89648438 135.8671875 C15.58078895 133.89606992 17.28833988 131.94737293 19 130 C19.61085449 129.29125732 20.22170898 128.58251465 20.85107422 127.85229492 C21.45838379 127.14951416 22.06569336 126.4467334 22.69140625 125.72265625 C23.50847046 124.77531616 23.50847046 124.77531616 24.34204102 123.80883789 C27.30651322 120.57459042 30.6316792 117.8009618 34 115 C34.78890625 114.32324219 35.5778125 113.64648438 36.390625 112.94921875 C44.19386509 106.37253586 52.47073503 100.59050579 61 95 C61.5976416 94.608125 62.1952832 94.21625 62.81103516 93.8125 C91.04591863 75.55452314 123.64815336 64.36625443 156 56 C156.91668457 55.76087891 157.83336914 55.52175781 158.77783203 55.27539062 C174.36017936 51.28546726 190.25272157 48.80598862 206.1171875 46.234375 C207.13164444 46.06909805 207.13164444 46.06909805 208.16659546 45.90048218 C210.10932563 45.5892709 212.05466888 45.2945162 214 45 C215.72887451 44.71431152 215.72887451 44.71431152 217.49267578 44.42285156 C224.30001304 43.78422584 231.16277225 44 238 44 C238 224.18 238 404.36 238 590 C157.48 590 76.96 590 -6 590 C-6 606.17 -6 622.34 -6 639 C-21.18 639 -36.36 639 -52 639 C-52 456.51 -52 274.02 -52 86 C-49.36 85.67 -46.72 85.34 -44 85 C-44.76183594 84.6596875 -45.52367187 84.319375 -46.30859375 83.96875 C-59.14978567 77.94092458 -67.74976925 70.09744169 -73.3203125 56.86328125 C-77.17439334 45.69183713 -77.37545694 35.01473725 -73 24 C-72.74476563 23.32582031 -72.48953125 22.65164063 -72.2265625 21.95703125 C-67.12181898 10.22548765 -55.75588225 0.69381869 -44 -4 C-29.50050922 -9.00232432 -13.38815614 -7.0798385 0 0 Z " fill="#FEFEFE" transform="translate(360,321)"/>
<path d="M0 0 C10.12090017 6.90618625 17.14519676 16.52136205 20.27734375 28.48046875 C22.86482315 42.79952951 20.23791629 56.67582733 11.9453125 68.69921875 C5.71575751 76.46466008 -2.28634007 82.7307647 -12.03515625 85.16796875 C-8.73515625 85.49796875 -5.43515625 85.82796875 -2.03515625 86.16796875 C-2.03515625 268.32796875 -2.03515625 450.48796875 -2.03515625 638.16796875 C-15.89515625 638.16796875 -29.75515625 638.16796875 -44.03515625 638.16796875 C-44.03515625 621.99796875 -44.03515625 605.82796875 -44.03515625 589.16796875 C-118.94515625 589.16796875 -193.85515625 589.16796875 -271.03515625 589.16796875 C-271.03515625 408.98796875 -271.03515625 228.80796875 -271.03515625 43.16796875 C-262.07732618 43.16796875 -254.21095657 43.54822728 -245.47265625 44.79296875 C-244.21904297 44.96973145 -242.96542969 45.14649414 -241.67382812 45.32861328 C-186.02571222 53.53063739 -126.43330016 72.83696081 -84.55859375 111.83203125 C-82.38712736 113.8421503 -80.17300835 115.76287983 -77.91015625 117.66796875 C-63.39893199 130.37637289 -53.57094744 147.09638638 -45.03515625 164.16796875 C-44.54015625 125.55796875 -44.54015625 125.55796875 -44.03515625 86.16796875 C-41.06515625 85.67296875 -41.06515625 85.67296875 -38.03515625 85.16796875 C-38.66421875 84.94882812 -39.29328125 84.7296875 -39.94140625 84.50390625 C-52.30382113 79.92385495 -62.32676983 71.50921953 -68.03515625 59.41796875 C-72.42616232 49.23327411 -73.04058432 34.69771655 -69.41015625 24.16796875 C-68.66653101 22.47931977 -67.87498893 20.81089144 -67.03515625 19.16796875 C-66.62265625 18.31976563 -66.21015625 17.4715625 -65.78515625 16.59765625 C-60.38276985 6.56026788 -51.7182529 -0.86174608 -41.03515625 -4.83203125 C-26.55210598 -9.03823123 -13.05139714 -7.87787035 0 0 Z " fill="#FEFEFE" transform="translate(880.03515625,321.83203125)"/>
<path d="M0 0 C5.75383046 5.00333084 10.44042883 11.1737076 11.19018555 18.98022461 C11.26788635 21.15710441 11.27296734 23.32193054 11.25 25.5 C11.26160156 26.60021484 11.26160156 26.60021484 11.2734375 27.72265625 C11.25742962 32.1968584 10.68015168 35.78628625 9 40 C10.485 40.99 10.485 40.99 12 42 C11.18917969 42.02578125 10.37835938 42.0515625 9.54296875 42.078125 C-6.693444 42.90979224 -19.04087279 49.07389097 -30 61 C-30.66 61.66 -31.32 62.32 -32 63 C-39.66752794 61.22202251 -45.39715363 57.5139123 -51 52 C-51.495 50.515 -51.495 50.515 -52 49 C-52.66 49 -53.32 49 -54 49 C-54.81832722 47.10667466 -55.62942268 45.21022267 -56.4375 43.3125 C-56.88996094 42.25675781 -57.34242188 41.20101562 -57.80859375 40.11328125 C-58.85447455 37.38027471 -59.53520748 34.87957663 -60 32 C-60.99 32 -61.98 32 -63 32 C-62.0479279 30.99403703 -61.08812654 29.99538437 -60.125 29 C-59.59132813 28.443125 -59.05765625 27.88625 -58.5078125 27.3125 C-57 26 -57 26 -55 26 C-55 25.34 -55 24.68 -55 24 C-53.53125 22.5546875 -53.53125 22.5546875 -51.5 20.875 C-48.58375911 18.40309004 -45.84329692 15.87427217 -43.1875 13.125 C-39.24995076 9.12544211 -34.99559415 5.62233853 -30.6171875 2.1171875 C-28.37142159 0.30046344 -26.21193858 -1.57196282 -24.0625 -3.5 C-15.83267547 -10.21822411 -7.66464404 -5.37046487 0 0 Z " fill="#272727" transform="translate(324,273)"/>
<path d="M0 0 C5.32375572 3.3052142 10.08213686 8.67825337 12.4375 14.5 C13.42664899 21.26301865 12.43823984 26.9288763 8.4375 32.5 C2.58087588 38.49282468 -4.1423274 41.68933205 -12.5625 42 C-20.21739586 41.69847297 -25.78511562 39.40676821 -31.4375 34.25 C-35.25953403 30.07242792 -37.48076085 25.93304421 -37.6171875 20.203125 C-36.9842072 12.00190203 -33.79499456 7.32593644 -27.6953125 2.015625 C-20.57851096 -3.0417358 -7.99448907 -3.55660341 0 0 Z " fill="#050505" transform="translate(548.5625,639.5)"/>
<path d="M0 0 C3.27399457 2.41492894 6.31407408 4.93605488 9 8 C9 8.66 9 9.32 9 10 C9.66 10 10.32 10 11 10 C11.6509259 11.24735567 12.29551669 12.49801832 12.9375 13.75 C13.47697266 14.79414062 13.47697266 14.79414062 14.02734375 15.859375 C17.69893332 23.93982112 17.19579304 35.50830983 14.5625 43.875 C10.90066262 52.46673151 3.62531642 60.23080685 -5 64 C-8.06528409 64.98911723 -9.38692095 65.28006103 -12.3515625 63.92578125 C-13.47691406 63.12720703 -13.47691406 63.12720703 -14.625 62.3125 C-15.38039063 61.79300781 -16.13578125 61.27351562 -16.9140625 60.73828125 C-20.58620411 57.67816324 -21.88864581 55.87691423 -22.5 51.0625 C-22.35237107 47.86780994 -22.05000085 47.06774309 -20.0625 44.375 C-17.56513088 42.43826477 -15.11819769 40.8375004 -12.4375 39.1875 C-7.8538252 36.18519301 -5.42623153 33.32711646 -4 28 C-3.10102814 22.05732284 -3.67407187 16.95159048 -6.66015625 11.69140625 C-9.64511434 7.923223 -14.24044169 5.59494479 -19 5 C-24.51142268 4.58404357 -28.05734842 5.575303 -33 8 C-33.763125 8.309375 -34.52625 8.61875 -35.3125 8.9375 C-37.45658454 10.28747916 -38.0726451 11.68161275 -39 14 C-39.33 14 -39.66 14 -40 14 C-40.34697252 10.27325811 -40.49960895 6.71752033 -40 3 C-37.5625 0.5 -37.5625 0.5 -34 -1 C-33.36964844 -1.29390625 -32.73929688 -1.5878125 -32.08984375 -1.890625 C-21.87727062 -6.09018778 -9.62186533 -5.3258643 0 0 Z " fill="#282828" transform="translate(920,870)"/>
<path d="M0 0 C5.09469118 3.07212064 9.29613612 7.90268204 11.5 13.4375 C12.19099988 19.88084954 12.35541772 25.98673702 8.5 31.4375 C3.78544916 36.63559451 -0.91526565 40.84009522 -8.078125 41.7734375 C-15.47583492 41.88159115 -21.64054374 40.92536747 -27.28515625 35.82421875 C-32.54709056 29.99342667 -35.05782053 24.74724417 -34.78515625 16.828125 C-34.10026419 11.08629021 -30.65226037 6.32751235 -26.5 2.4375 C-19.34309597 -3.19074492 -8.20005097 -3.64271495 0 0 Z " fill="#050505" transform="translate(677.5,639.5625)"/>
<path d="M0 0 C0 3.3 0 6.6 0 10 C-0.804375 9.835 -1.60875 9.67 -2.4375 9.5 C-9.53846435 8.50337343 -14.63582898 8.2746316 -21 12 C-21.66 12 -22.32 12 -23 12 C-23.2475 12.53625 -23.495 13.0725 -23.75 13.625 C-25 16 -25 16 -27.125 18.5625 C-30.07391117 23.96883714 -30.02367571 29.4141064 -28.33984375 35.3125 C-26.05025417 40.54584762 -22.8055048 43.04276628 -18 46 C-18 43.76927624 -18.09911087 41.53811473 -18.25 39.3125 C-18.2362438 31.81537155 -13.81752207 26.35280231 -9 21 C-7.0390625 22.03515625 -7.0390625 22.03515625 -5 24 C-4.52515873 26.66096113 -4.33559799 28.77646836 -4.375 31.4375 C-4.37685303 32.15107666 -4.37870605 32.86465332 -4.38061523 33.59985352 C-4.59581001 39.74287384 -6.66987355 43.99377216 -9.703125 49.31640625 C-11.39056667 52.80819068 -11.62539657 55.24852819 -10.8984375 59.02734375 C-9.48109784 62.13932865 -7.24937647 63.86412245 -4.49609375 65.80859375 C-4.00238281 66.20175781 -3.50867188 66.59492187 -3 67 C-3 67.66 -3 68.32 -3 69 C-2.01 69.33 -1.02 69.66 0 70 C-6.90892925 72.30297642 -15.07191156 71.71337069 -21.83984375 69.109375 C-31.17666934 64.31433256 -37.94064365 57.08664398 -41.2734375 47.12890625 C-43.34154957 38.22268168 -42.97978083 28.3264918 -39 20 C-36.94603575 16.70713667 -34.62506621 13.85310226 -32 11 C-31.41347656 10.34773437 -30.82695312 9.69546875 -30.22265625 9.0234375 C-21.97532149 0.82841142 -11.1714612 -0.59581126 0 0 Z " fill="#282828" transform="translate(307,866)"/>
<path d="M0 0 C1.29315061 0.95632999 2.58446853 1.91513851 3.875 2.875 C4.59429688 3.40867187 5.31359375 3.94234375 6.0546875 4.4921875 C8 6 8 6 10 8 C9.27554688 8.03738281 8.55109375 8.07476562 7.8046875 8.11328125 C-0.85275839 8.70198757 -6.105548 10.30900043 -12 17 C-15.47990347 21.07988683 -15.51651052 25.05158347 -15.3359375 30.21875 C-14.67699916 35.67414653 -13.054806 39.34837453 -8.73046875 42.82421875 C-6.52916256 44.31140041 -4.31317245 45.69513349 -2 47 C-2.66 46.01 -3.32 45.02 -4 44 C-4.89861785 37.97809337 -3.72813864 33.34260484 -1 28 C-0.34 28 0.32 28 1 28 C1.66 26.35 2.32 24.7 3 23 C3.66 23 4.32 23 5 23 C5 22.34 5 21.68 5 21 C5.66 21 6.32 21 7 21 C10.32579019 26.48487172 9.7574588 32.83302296 9 39 C7.67690696 42.54235084 6.13608851 45.75302456 4.3125 49.0625 C2.84565823 52.34543159 2.64484104 54.44347767 3 58 C5.7428718 63.60002993 9.70998304 66.09819458 15 69 C12.52647979 71.47352021 11.47870976 71.32672635 8.0625 71.5625 C5.08928853 71.77706165 2.84941926 72.05019358 0 73 C-0.8353125 71.6696875 -0.8353125 71.6696875 -1.6875 70.3125 C-7.92659381 61.02994579 -16.62780966 55.61326303 -27 52 C-26.67 51.34 -26.34 50.68 -26 50 C-26.30164063 49.11828125 -26.60328125 48.2365625 -26.9140625 47.328125 C-29.6519585 38.93716317 -29.02774078 29.17514102 -25.26171875 21.20703125 C-19.54510409 11.20738022 -12.6559414 5.23199302 -2 1 C-1.34 0.67 -0.68 0.34 0 0 Z " fill="#282828" transform="translate(894,265)"/>
<path d="M0 0 C5.445 0.495 5.445 0.495 11 1 C11 183.82 11 366.64 11 555 C-2.86 555 -16.72 555 -31 555 C-31.495 557.475 -31.495 557.475 -32 560 C-33.39868164 561.8527832 -33.39868164 561.8527832 -35.16015625 563.55078125 C-35.78857422 564.16630859 -36.41699219 564.78183594 -37.06445312 565.41601562 C-38.05348633 566.35477539 -38.05348633 566.35477539 -39.0625 567.3125 C-39.72572266 567.95767578 -40.38894531 568.60285156 -41.07226562 569.26757812 C-42.70617671 570.85447018 -44.34868147 572.43126328 -46 574 C-47.32 573.34 -48.64 572.68 -50 572 C-49.875 569.8125 -49.875 569.8125 -49 567 C-47.55644511 565.7168401 -46.10483706 564.43725584 -44.56640625 563.26953125 C-42.33877366 561.46409336 -40.70247182 559.29178899 -39 557 C-42.63 557.33 -46.26 557.66 -50 558 C-50 558.66 -50 559.32 -50 560 C-50.66 560 -51.32 560 -52 560 C-52.5939698 567.08339023 -52.5939698 567.08339023 -50.5625 573.6875 C-46.76317299 575.63349676 -43.18877971 575.47056273 -39 575 C-38.01 574.67 -37.02 574.34 -36 574 C-35.01 568.555 -35.01 568.555 -34 563 C-33.34 563 -32.68 563 -32 563 C-31.67 562.01 -31.34 561.02 -31 560 C-30.34 560 -29.68 560 -29 560 C-27.142696 563.714608 -27.55717094 567.94593118 -28 572 C-30.33092877 576.84115976 -33.14098526 579.70301121 -38 582 C-43.43318292 582.87817307 -48.31783768 582.95382334 -53 579.8125 C-56.54938895 576.7397676 -58.68426763 574.28462526 -59.34765625 569.484375 C-59.6529232 563.75474913 -59.2176755 559.78599495 -55.40625 555.37109375 C-50.99481032 551.06994006 -47.47829153 550.65760898 -41.5 550.6015625 C-39 551 -39 551 -34 554 C-19.48 554 -4.96 554 10 554 C10 371.84 10 189.68 10 2 C6.04 2 2.08 2 -2 2 C-1.34 1.34 -0.68 0.68 0 0 Z " fill="#575757" transform="translate(868,406)"/>
<path d="M0 0 C0.66 0 1.32 0 2 0 C4.19875498 6.06210412 6.10072941 11.64134055 4 18 C3.01266174 20.03740796 1.98868096 22.05728514 0.9375 24.0625 C-1.44894605 28.62313609 -2.94308445 31.76064196 -2 37 C-0.61785878 40.35161246 -0.61785878 40.35161246 1 43 C-0.98 45.31 -2.96 47.62 -5 50 C-13.22020214 48.12109665 -19.00111483 45.01100413 -25 39 C-25.495 37.515 -25.495 37.515 -26 36 C-26.66 36 -27.32 36 -28 36 C-28.81832722 34.10667466 -29.62942268 32.21022267 -30.4375 30.3125 C-30.88996094 29.25675781 -31.34242188 28.20101563 -31.80859375 27.11328125 C-32.85447455 24.38027471 -33.53520748 21.87957663 -34 19 C-34.99 19 -35.98 19 -37 19 C-36.0479279 17.99403703 -35.08812654 16.99538437 -34.125 16 C-33.32449219 15.1646875 -33.32449219 15.1646875 -32.5078125 14.3125 C-31 13 -31 13 -29 13 C-29 12.34 -29 11.68 -29 11 C-26.09399739 9.74335022 -24.20395416 9 -21 9 C-20.70609375 9.97839844 -20.70609375 9.97839844 -20.40625 10.9765625 C-18.05322915 17.85306308 -15.22699391 21.28194053 -9 25 C-8.97517289 23.01773134 -8.97517289 23.01773134 -9.140625 21.1171875 C-9.5145738 13.45123702 -7.06307014 8.440077 -2.375 2.5 C-1.59125 1.675 -0.8075 0.85 0 0 Z " fill="#282828" transform="translate(298,286)"/>
<path d="M0 0 C1.64518666 1.40526361 3.28949861 2.81156257 4.9296875 4.22265625 C6.30476062 5.40314355 7.6849571 6.57769023 9.0703125 7.74609375 C10.43655858 8.91233803 11.78589667 10.09869463 13.1171875 11.3046875 C14.93465994 12.99157652 14.93465994 12.99157652 16.7578125 14.3203125 C18.25 15.625 18.25 15.625 20 19 C19.00140322 25.00659714 16.84305861 30.62832244 14 36 C13.34 36 12.68 36 12 36 C11.77183594 36.74894531 11.54367187 37.49789062 11.30859375 38.26953125 C9.72263134 41.57874834 8.11225864 42.69463275 5.0625 44.6875 C4.18722656 45.26886719 3.31195312 45.85023438 2.41015625 46.44921875 C1.61480469 46.96097656 0.81945312 47.47273438 0 48 C-0.99 48.66 -1.98 49.32 -3 50 C-8.69745147 49.74677993 -12.34335931 47.22773725 -16.62109375 43.640625 C-19.17977602 40.59630049 -19.08824478 36.84883006 -19 33 C-17.97595792 29.92787376 -17.05133582 28.56767593 -14.19140625 27.0234375 C-12.797231 26.37510648 -11.39999759 25.73331692 -10 25.09765625 C-5.68753901 22.73085637 -2.79485159 18.52334794 -1 14 C-0.7959644 11.01665074 -0.7959644 11.01665074 -0.9375 7.875 C-1.09722222 2.19444444 -1.09722222 2.19444444 0 0 Z " fill="#282828" transform="translate(917,284)"/>
<path d="M0 0 C1.32 0.33 2.64 0.66 4 1 C4.103125 1.639375 4.20625 2.27875 4.3125 2.9375 C4.6528125 3.9584375 4.6528125 3.9584375 5 5 C5.99 5.33 6.98 5.66 8 6 C10.6875 8.4375 10.6875 8.4375 13 11 C13 11.66 13 12.32 13 13 C13.66 13 14.32 13 15 13 C16.47265625 14.42578125 16.47265625 14.42578125 18.0625 16.3125 C18.58972656 16.92738281 19.11695313 17.54226563 19.66015625 18.17578125 C22.69607986 22.30923993 22.50104782 27.08973135 22 32 C20.5 35.5625 20.5 35.5625 19 38 C17.68 38 16.36 38 15 38 C14.505 35.525 14.505 35.525 14 33 C13.29037109 33.54140625 13.29037109 33.54140625 12.56640625 34.09375 C7.33800232 37.76280539 3.35840503 39.05185511 -3 38 C-7.56374893 36.50800516 -10.46289899 34.18746229 -13.08984375 30.234375 C-15.12206805 25.24539516 -15.06072645 18.9024853 -13.21484375 13.8515625 C-11.76918633 11.64821324 -10.16408442 10.2283935 -8.125 8.5625 C-5.01224305 5.93646504 -2.40799436 3.31099224 0 0 Z " fill="#030303" transform="translate(742,1032)"/>
<path d="M0 0 C5.54661834 1.84887278 11.2836672 4.76727549 14.1875 10.0625 C16.30129185 17.16843856 15.71266925 23.5157571 12.1875 30.0625 C9.24634708 34.88599078 5.15689845 37.05312663 0.33203125 39.73046875 C-1.94091142 40.88280023 -1.94091142 40.88280023 -2.8125 43.0625 C-2.88246014 44.76952735 -2.89690154 46.47918003 -2.875 48.1875 C-2.86597656 49.09757812 -2.85695313 50.00765625 -2.84765625 50.9453125 C-2.83605469 51.64398438 -2.82445312 52.34265625 -2.8125 53.0625 C-2.1525 53.0625 -1.4925 53.0625 -0.8125 53.0625 C-0.8125 53.7225 -0.8125 54.3825 -0.8125 55.0625 C-3.8125 54.0625 -3.8125 54.0625 -5 52.4375 C-6.61224491 47.7247841 -6.57372971 44.71448209 -4.50390625 40.22265625 C-3.96636719 39.20042969 -3.42882812 38.17820312 -2.875 37.125 C1.65257608 28.50869091 1.51234201 22.43872232 -0.8125 13.0625 C-1.4725 13.0625 -2.1325 13.0625 -2.8125 13.0625 C-3.080625 13.660625 -3.34875 14.25875 -3.625 14.875 C-4.8125 17.0625 -4.8125 17.0625 -6.25 18.375 C-10.52944631 22.99680202 -11.14203965 28.02110998 -11.015625 34.046875 C-10.8664253 36.26657774 -10.8664253 36.26657774 -9.8125 39.0625 C-14.1821937 37.64877557 -17.85563475 35.6026373 -20.8125 32.0625 C-22.42835966 28.81586506 -23.67655511 25.50374482 -24.8125 22.0625 C-26.7925 23.0525 -26.7925 23.0525 -28.8125 24.0625 C-25.572307 16.1482355 -16.84593252 9.12602048 -9.515625 5.05859375 C-7.5470619 3.98526117 -7.5470619 3.98526117 -5.1875 1.6875 C-2.8125 0.0625 -2.8125 0.0625 0 0 Z " fill="#030303" transform="translate(300.8125,272.9375)"/>
<path d="M0 0 C3 2 3 2 4 5 C4.97130655 14.23355971 3.80050651 20.20533161 -0.70703125 28.24609375 C-2.3691821 31.78632442 -2.58528049 34.22553971 -1.8125 38.02734375 C0.09783184 42.66540903 3.44784493 45.25766497 7.875 47.375 C8.57625 47.58125 9.2775 47.7875 10 48 C4.9449029 50.98764604 -0.30213894 50.57457422 -6 50 C-15.48576214 47.51423786 -15.48576214 47.51423786 -19 44 C-19.22705078 41.29443359 -19.22705078 41.29443359 -19.1953125 37.8984375 C-19.18886719 36.68671875 -19.18242188 35.475 -19.17578125 34.2265625 C-19.15902344 32.95554687 -19.14226563 31.68453125 -19.125 30.375 C-19.11146484 28.456875 -19.11146484 28.456875 -19.09765625 26.5 C-19.07402303 23.33314833 -19.04107629 20.16666576 -19 17 C-18.54109375 17.40992188 -18.0821875 17.81984375 -17.609375 18.2421875 C-16.99578125 18.78101563 -16.3821875 19.31984375 -15.75 19.875 C-15.14671875 20.40867187 -14.5434375 20.94234375 -13.921875 21.4921875 C-12.02581254 22.9797487 -10.18709995 24.00322436 -8 25 C-8.33 24.01 -8.66 23.02 -9 22 C-9.66639132 14.13658248 -7.29709853 9.44564779 -3 3 C-2.34 3 -1.68 3 -1 3 C-0.67 2.01 -0.34 1.02 0 0 Z " fill="#282828" transform="translate(899,887)"/>
<path d="M0 0 C2.52845528 1.26422764 2.76422764 2.52845528 4 5 C4.66 5.33 5.32 5.66 6 6 C5.34 7.32 4.68 8.64 4 10 C0 10 0 10 -1.5 8.5625 C-1.995 8.046875 -2.49 7.53125 -3 7 C-4.32158127 6.62275759 -5.65525832 6.28382867 -7 6 C-6.94779297 7.06927734 -6.94779297 7.06927734 -6.89453125 8.16015625 C-6.66192965 16.38982254 -7.70829089 21.8029413 -13.5 27.9375 C-16.56923077 31 -16.56923077 31 -20 31 C-19.67 31.33 -19.34 31.66 -19 32 C-18.92820036 33.51928038 -18.91607993 35.04167482 -18.9375 36.5625 C-18.94652344 37.38878906 -18.95554687 38.21507812 -18.96484375 39.06640625 C-18.97644531 39.70449219 -18.98804688 40.34257812 -19 41 C-26.65656871 35.62411133 -33.36906282 29.50791624 -39 22 C-29.69416972 14.28705959 -18.60996173 9.1413587 -7.79394531 3.88867188 C-6.06027871 3.02986044 -4.35356243 2.11729454 -2.6484375 1.203125 C-1.77445312 0.80609375 -0.90046875 0.4090625 0 0 Z " fill="#060606" transform="translate(395,209)"/>
<path d="M0 0 C2.69219472 1.07687789 4.61532386 2.3042303 7 4 C7 9.07483355 5.64585874 9.9200247 2.26757812 13.37695312 C1.62240234 14.01568359 0.97722656 14.65441406 0.3125 15.3125 C-0.62625977 16.29959961 -0.62625977 16.29959961 -1.58398438 17.30664062 C-3.32379669 19.05009652 -4.95865695 20.62080785 -7 22 C-9.95703125 21.91796875 -9.95703125 21.91796875 -12 21 C-11.43009348 17.40642281 -10.13617523 15.82750729 -7.5 13.375 C-4.88193354 10.96389084 -4.88193354 10.96389084 -3 8 C-2.34 8 -1.68 8 -1 8 C-1 7.34 -1 6.68 -1 6 C-2.6065676 6.25620684 -4.2102483 6.53055871 -5.8125 6.8125 C-7.15248047 7.03873047 -7.15248047 7.03873047 -8.51953125 7.26953125 C-11.24855655 8.07319697 -12.34218871 8.70910867 -14 11 C-14.61582155 15.77261703 -14.68107227 17.87270797 -12.1875 22 C-7.54501743 24.91293024 -3.33972223 24.42081874 2 24 C2.18175781 23.16855469 2.36351562 22.33710938 2.55078125 21.48046875 C2.80214844 20.39378906 3.05351563 19.30710937 3.3125 18.1875 C3.55613281 17.10855469 3.79976562 16.02960938 4.05078125 14.91796875 C4.98411015 12.04884657 5.59460014 10.76231096 8 9 C8.66 9 9.32 9 10 9 C11.19191797 15.06794603 11.37158635 19.6275706 8 25 C4.89352472 28.56978822 1.89899748 30.70623243 -2.828125 31.4375 C-7.4635116 31.53665265 -10.9332184 31.35645289 -15 29 C-15 28.34 -15 27.68 -15 27 C-15.66 27 -16.32 27 -17 27 C-20.30328914 21.45519323 -21.82282315 17.47973231 -21 11 C-19.56100805 7.0306458 -17.48611806 4.46240499 -14.4375 1.5625 C-9.56563986 -0.65198188 -5.26783251 -0.79169737 0 0 Z M8 1 C8.33 1.99 8.66 2.98 9 4 C8.34 3.67 7.68 3.34 7 3 C7.33 2.34 7.66 1.68 8 1 Z " fill="#292929" transform="translate(805,381)"/>
<path d="M0 0 C3.08073848 1.3831887 4.6384567 2.6384567 7 5 C6.93411772 8.73881921 4.61602153 10.6732751 2.05078125 13.1640625 C1.53902344 13.64617188 1.02726563 14.12828125 0.5 14.625 C-3.20272083 17.95724215 -3.20272083 17.95724215 -6 22 C-7.65 22 -9.3 22 -11 22 C-11.75 20.3125 -11.75 20.3125 -12 18 C-9.49151615 14.23727422 -6.32167192 11.05943467 -3 8 C-2.34 8 -1.68 8 -1 8 C-1 7.34 -1 6.68 -1 6 C-5.69035801 6.23849278 -8.12781826 6.3822046 -12 9.125 C-14.55587214 12.7990662 -14.7840172 14.60950369 -14 19 C-12.00475077 21.93052231 -10.57163515 23.64521503 -7.02734375 24.4453125 C-3.75329481 24.62890403 -1.4313934 24.26110653 1.375 22.5625 C3.02816235 19.95559013 3.40351665 18.36242038 3.9375 15.375 C4.36328125 12.99609375 4.36328125 12.99609375 5 11 C7.625 9.4375 7.625 9.4375 10 9 C11.09439659 14.28777761 11.78067277 18.57601411 8.9375 23.375 C6.3509241 26.85665802 4.02857769 29.20952103 0 31 C-5.3854696 31.77164938 -9.59553055 31.70223473 -14.5 29.25 C-19.54768805 24.70708076 -20.82412183 21.77008116 -21.25 15.0625 C-21.1612331 9.73648574 -19.01880252 7.09334904 -15.4375 3.25 C-10.80624066 -1.02500862 -6.06912121 -0.50868357 0 0 Z " fill="#292929" transform="translate(805,982)"/>
<path d="M0 0 C5.63788859 0.01622414 9.07571721 1.96354977 13.4375 5.375 C12.73572123 8.60986594 12.07273506 10.26681195 9.4375 12.375 C8.7775 12.375 8.1175 12.375 7.4375 12.375 C7.128125 13.179375 7.128125 13.179375 6.8125 14 C4.8815622 17.33525621 2.60287149 20.13834386 -0.5625 22.375 C-3.4375 22.25 -3.4375 22.25 -5.5625 21.375 C-5.5625 20.055 -5.5625 18.735 -5.5625 17.375 C-4.9025 17.375 -4.2425 17.375 -3.5625 17.375 C-3.5625 16.715 -3.5625 16.055 -3.5625 15.375 C-2.9025 15.375 -2.2425 15.375 -1.5625 15.375 C-1.5625 14.715 -1.5625 14.055 -1.5625 13.375 C0.3125 11.25 0.3125 11.25 2.4375 9.375 C3.0975 9.375 3.7575 9.375 4.4375 9.375 C4.4375 8.385 4.4375 7.395 4.4375 6.375 C-1.48080635 7.22414483 -1.48080635 7.22414483 -6.625 10 C-8.01501054 13.52136003 -8.21930997 16.64798531 -7.5625 20.375 C-6.29311576 23.06120182 -6.29311576 23.06120182 -3.5625 24.375 C0.72230914 25.12975537 4.16385904 25.13918458 7.9375 22.875 C10.05024178 19.3537637 10.16511519 16.46077216 10.4375 12.375 C11.4275 12.045 12.4175 11.715 13.4375 11.375 C13.4375 10.715 13.4375 10.055 13.4375 9.375 C14.9225 9.87 14.9225 9.87 16.4375 10.375 C16.7596077 16.41153699 17.00556924 21.20745145 13.4375 26.375 C8.26338144 31.0443265 5.03891531 31.74280753 -1.8046875 31.64453125 C-5.77436909 31.25655954 -7.68235185 30.11799824 -10.5625 27.375 C-11.98655399 25.32643071 -13.27107576 23.26192554 -14.484375 21.08203125 C-15.4605346 19.21039131 -15.4605346 19.21039131 -17.5625 18.375 C-15.58491852 15.56138228 -13.60516999 12.74929644 -11.625 9.9375 C-11.06103516 9.13505859 -10.49707031 8.33261719 -9.91601562 7.50585938 C-9.37783203 6.74208984 -8.83964844 5.97832031 -8.28515625 5.19140625 C-7.78765869 4.48443604 -7.29016113 3.77746582 -6.77758789 3.04907227 C-4.6499142 0.11769624 -3.63985067 0.14448262 0 0 Z " fill="#292929" transform="translate(222.5625,355.625)"/>
<path d="M0 0 C3.3 1.65 6.6 3.3 10 5 C8.87356592 10.63217041 8.87356592 10.63217041 6.19921875 13.296875 C5.35133789 14.14572266 5.35133789 14.14572266 4.48632812 15.01171875 C3.5959082 15.87216797 3.5959082 15.87216797 2.6875 16.75 C2.10548828 17.33910156 1.52347656 17.92820312 0.92382812 18.53515625 C-2.0022656 21.41817046 -3.86038931 23.24764976 -8 24 C-4.42328553 25.78835724 -0.45929536 25.43384457 3.3125 24.3125 C5.66816425 22.4803167 6.15908693 20.84616731 7 18 C7.12375 16.948125 7.2475 15.89625 7.375 14.8125 C8 12 8 12 10.0625 10.625 C10.701875 10.41875 11.34125 10.2125 12 10 C14.50448906 13.75673358 14.1435277 15.41120043 13.53515625 19.71875 C12.42893053 24.43433992 9.88695045 27.19752102 6.375 30.375 C1.82966915 32.56349263 -2.03548047 32.7234727 -7 32 C-9.875 30.5 -9.875 30.5 -12 29 C-13.32 29 -14.64 29 -16 29 C-14.46662766 23.34739072 -11.64958807 18.84383684 -8.5625 13.9375 C-7.58457866 12.36331651 -6.60671255 10.7890987 -5.62890625 9.21484375 C-5.17273926 8.48507324 -4.71657227 7.75530273 -4.24658203 7.00341797 C-2.8039406 4.68490727 -1.39378753 2.34817764 0 0 Z " fill="#292929" transform="translate(201,380)"/>
<path d="M0 0 C3.51654691 1.92414831 4.97542905 3.61850303 7.3125 6.8125 C8.22 7.534375 9.1275 8.25625 10.0625 9 C10.805 9.598125 11.5475 10.19625 12.3125 10.8125 C12.3125 11.4725 12.3125 12.1325 12.3125 12.8125 C12.9725 12.8125 13.6325 12.8125 14.3125 12.8125 C14.3125 13.8025 14.3125 14.7925 14.3125 15.8125 C12.3125 17.5 12.3125 17.5 10.3125 18.8125 C9.56484375 18.04164063 8.8171875 17.27078125 8.046875 16.4765625 C7.05235349 15.46327644 6.05754677 14.45027025 5.0625 13.4375 C4.57136719 12.92960938 4.08023438 12.42171875 3.57421875 11.8984375 C-0.90175084 7.33700902 -0.90175084 7.33700902 -6.828125 5.6171875 C-7.87226562 5.65199219 -7.87226562 5.65199219 -8.9375 5.6875 C-10.175 5.72875 -11.4125 5.77 -12.6875 5.8125 C-12.6875 6.4725 -12.6875 7.1325 -12.6875 7.8125 C-13.17863281 8.24175781 -13.66976562 8.67101562 -14.17578125 9.11328125 C-16.25127394 11.44619939 -15.99455476 12.93142777 -15.875 16 C-15.84792969 16.90105469 -15.82085938 17.80210937 -15.79296875 18.73046875 C-15.75816406 19.41753906 -15.72335937 20.10460937 -15.6875 20.8125 C-15.0275 20.8125 -14.3675 20.8125 -13.6875 20.8125 C-12.06640625 22.45703125 -12.06640625 22.45703125 -10.25 24.625 C-7.71306747 27.64039281 -7.71306747 27.64039281 -4.9453125 30.4375 C-4.53023437 30.89125 -4.11515625 31.345 -3.6875 31.8125 C-4 34 -4 34 -4.6875 35.8125 C-9.81736274 35.8125 -11.03463631 34.29986165 -14.6484375 30.9296875 C-19.35533943 26.0424445 -22.99749281 21.61815955 -23.3125 14.625 C-23.02295158 10.07697114 -21.67911721 7.31696587 -18.6875 3.8125 C-18.213125 3.235 -17.73875 2.6575 -17.25 2.0625 C-11.98330951 -2.15085239 -6.1963259 -1.99542699 0 0 Z " fill="#292929" transform="translate(1004.6875,784.1875)"/>
<path d="M0 0 C1.546875 -0.00773437 1.546875 -0.00773437 3.125 -0.015625 C7.76355134 0.41293681 9.50984526 1.72564842 12.6875 5.125 C14.73121063 7.88677112 15.3720836 9.06211674 16 12.25 C11.85748733 13.11332643 7.71321548 13.96747546 3.56713867 14.81347656 C2.15940463 15.10202734 0.75216489 15.39300142 -0.65454102 15.68652344 C-2.68638344 16.11003402 -4.71989349 16.52455511 -6.75390625 16.9375 C-7.97408447 17.18886719 -9.1942627 17.44023438 -10.45141602 17.69921875 C-14.02773652 18.25430503 -17.38716508 18.34726084 -21 18.25 C-21.33 16.93 -21.66 15.61 -22 14.25 C-21.50628906 13.84007812 -21.01257813 13.43015625 -20.50390625 13.0078125 C-19.86324219 12.46898437 -19.22257813 11.93015625 -18.5625 11.375 C-17.92441406 10.84132813 -17.28632812 10.30765625 -16.62890625 9.7578125 C-14.89194996 8.3277243 -14.89194996 8.3277243 -14 6.25 C-13.34 6.25 -12.68 6.25 -12 6.25 C-11.62875 5.321875 -11.62875 5.321875 -11.25 4.375 C-8.65346645 -0.03910704 -4.78036796 -0.02390184 0 0 Z " fill="#292929" transform="translate(694,1087.75)"/>
<path d="M0 0 C4.83518844 1.98483509 8.26484967 4.80155795 11.875 8.5 C12.37257813 8.98597656 12.87015625 9.47195313 13.3828125 9.97265625 C17 13.61965573 17 13.61965573 17 17 C16.34 17 15.68 17 15 17 C15 17.66 15 18.32 15 19 C11.04322598 17.32598022 8.15535787 14.86850715 5 12 C5 11.34 5 10.68 5 10 C4.360625 9.690625 3.72125 9.38125 3.0625 9.0625 C1 8 1 8 0 7 C-1.51469448 6.76807135 -3.03754562 6.58784762 -4.5625 6.4375 C-5.38878906 6.35371094 -6.21507812 6.26992187 -7.06640625 6.18359375 C-7.70449219 6.12300781 -8.34257813 6.06242187 -9 6 C-9 6.66 -9 7.32 -9 8 C-9.66 8.350625 -10.32 8.70125 -11 9.0625 C-13.39557888 11.38321704 -13.37097036 12.13313028 -13.5 15.375 C-13.2932147 19.78166607 -12.21346606 21.87338438 -9 25 C-3.46559297 30.40263543 -3.46559297 30.40263543 -2 34 C-4.671875 34.7890625 -4.671875 34.7890625 -8 35 C-10.703125 33.0859375 -10.703125 33.0859375 -13.25 30.375 C-14.10078125 29.49585938 -14.9515625 28.61671875 -15.828125 27.7109375 C-18.96726185 23.79266236 -20.28529102 20.51132529 -20.25 15.5 C-20.25515625 14.7678125 -20.2603125 14.035625 -20.265625 13.28125 C-19.82668872 9.51156193 -18.89523306 6.87252102 -16.15234375 4.19921875 C-10.84569866 0.5772229 -6.464248 -1.45530191 0 0 Z " fill="#282828" transform="translate(723,1063)"/>
<path d="M0 0 C2.83647374 2.05644346 3.5967987 3.4706552 4.5 6.8125 C5.16 6.8125 5.82 6.8125 6.5 6.8125 C8.08149036 11.55697108 8.57470046 16.31081137 6.55859375 21.00390625 C4.04326199 25.15932893 1.07536802 28.5435921 -2.5 31.8125 C-4.15 31.1525 -5.8 30.4925 -7.5 29.8125 C-6.9409112 26.56978494 -6.0867822 24.88192576 -3.5 22.8125 C-2.84 22.8125 -2.18 22.8125 -1.5 22.8125 C0.98023067 19.09215399 1.16681969 15.12973006 0.5 10.8125 C-0.80211142 7.68445445 -0.80211142 7.68445445 -3.5 5.8125 C-8.37897552 5.1155035 -10.31938185 4.99120042 -14.375 7.8125 C-15.07625 8.4725 -15.7775 9.1325 -16.5 9.8125 C-17.16 9.8125 -17.82 9.8125 -18.5 9.8125 C-18.83 10.8025 -19.16 11.7925 -19.5 12.8125 C-22.8 13.4725 -26.1 14.1325 -29.5 14.8125 C-27.53448825 10.8814765 -25.70762221 8.75182772 -22.625 5.6875 C-21.76132812 4.81867187 -20.89765625 3.94984375 -20.0078125 3.0546875 C-14.04311039 -2.27823931 -7.4707292 -2.53471169 0 0 Z " fill="#282828" transform="translate(981.5,809.1875)"/>
<path d="M0 0 C1.32 0.33 2.64 0.66 4 1 C4.33 2.32 4.66 3.64 5 5 C4.01 5.33 3.02 5.66 2 6 C1.30640354 7.31952498 0.64334704 8.65525957 0 10 C-1.18300087 11.27400094 -2.39312468 12.52319413 -3.625 13.75 C-6.16122111 16.58211358 -7.51013818 18.40212889 -7.625 22.25 C-6.98496427 26.83357733 -6.98496427 26.83357733 -4 30 C0.00255894 31.22163618 0.00255894 31.22163618 4 31 C6.35268156 29.64442691 8.29375889 28.13354551 10.3359375 26.34765625 C12 25 12 25 14 25 C14.375 28.1875 14.375 28.1875 14 32 C11.48045372 35.07166907 8.07346268 37.78435988 4.046875 38.203125 C-1.8353009 38.32316941 -5.93450819 37.77354021 -10.4765625 33.6640625 C-14.48195696 29.07687891 -14.50015016 24.68335128 -14.37109375 18.76953125 C-13.71522024 13.87464368 -11.89210105 11.64015048 -8.125 8.5625 C-5.01224305 5.93646504 -2.40799436 3.31099224 0 0 Z " fill="#282828" transform="translate(742,1032)"/>
<path d="M0 0 C0.556875 0.25910156 1.11375 0.51820313 1.6875 0.78515625 C1.6875 5.27901125 1.33153986 5.67223943 -1.5625 8.78515625 C-2.51576172 9.83896484 -2.51576172 9.83896484 -3.48828125 10.9140625 C-5.3125 12.78515625 -5.3125 12.78515625 -7.75 14.72265625 C-9.94526485 17.62040586 -9.70926887 20.0138543 -9.6484375 23.56640625 C-9.28350523 25.97665659 -8.51074206 27.67625023 -7.3125 29.78515625 C-0.98017837 30.534641 -0.98017837 30.534641 4.83984375 28.44921875 C6.03523148 27.37261162 7.19661295 26.25646203 8.3125 25.09765625 C9.6875 23.78515625 9.6875 23.78515625 11.6875 23.78515625 C12.17627805 30.13927096 12.17627805 30.13927096 9.9375 33.09765625 C4.91135903 36.86726198 0.86886128 37.47316864 -5.3125 36.78515625 C-10.03128688 35.09351567 -12.51832817 32.92467007 -15.3125 28.78515625 C-17.09043024 23.45136552 -17.29879 17.93706171 -14.9375 12.78515625 C-3.46852421 -0.32224465 -3.46852421 -0.32224465 0 0 Z " fill="#292929" transform="translate(1023.3125,753.21484375)"/>
<path d="M0 0 C0.66346436 0.49717529 1.32692871 0.99435059 2.01049805 1.5065918 C6.41772325 3.70822484 10.47406997 3.37144439 15.33203125 3.29296875 C16.32377853 3.28872391 17.31552582 3.28447906 18.33732605 3.28010559 C21.49599685 3.26335123 24.65402297 3.22570448 27.8125 3.1875 C29.95767306 3.17244899 32.10285615 3.15876132 34.24804688 3.14648438 C39.49891681 3.11345841 44.74941234 3.06329122 50 3 C50 3.33 50 3.66 50 4 C36.14 4 22.28 4 8 4 C7.67 5.65 7.34 7.3 7 9 C5.60131836 10.8527832 5.60131836 10.8527832 3.83984375 12.55078125 C3.21142578 13.16630859 2.58300781 13.78183594 1.93554688 14.41601562 C1.27619141 15.04185547 0.61683594 15.66769531 -0.0625 16.3125 C-0.72572266 16.95767578 -1.38894531 17.60285156 -2.07226562 18.26757812 C-3.70617671 19.85447018 -5.34868147 21.43126328 -7 23 C-8.32 22.34 -9.64 21.68 -11 21 C-10.875 18.8125 -10.875 18.8125 -10 16 C-8.55644511 14.7168401 -7.10483706 13.43725584 -5.56640625 12.26953125 C-3.33877366 10.46409336 -1.70247182 8.29178899 0 6 C-1.01320313 6.12568359 -1.01320313 6.12568359 -2.046875 6.25390625 C-2.93890625 6.35574219 -3.8309375 6.45757813 -4.75 6.5625 C-5.63171875 6.66691406 -6.5134375 6.77132812 -7.421875 6.87890625 C-9.88432451 6.99456676 -11.66538064 6.73638695 -14 6 C-14.33 6.66 -14.66 7.32 -15 8 C-15.66 7.67 -16.32 7.34 -17 7 C-16.03441599 4.45436943 -15.06131195 3.05364796 -13 1.25 C-8.72247883 -0.53230049 -4.57143849 -0.72857301 0 0 Z " fill="#2F2F2F" transform="translate(829,957)"/>
<path d="M0 0 C3.64212001 0.55669068 5.0169898 1.78515438 7.30810547 4.61450195 C10.70955706 8.68083052 14.30747683 12.43726594 18.0703125 16.16796875 C19.03649002 17.13202385 19.03649002 17.13202385 20.02218628 18.11555481 C22.05409005 20.14192915 24.08945857 22.16478049 26.125 24.1875 C27.49632777 25.55380162 28.86742337 26.9203363 30.23828125 28.28710938 C32.75394013 30.79465569 35.27091824 33.30086053 37.78955078 35.80541992 C42.63522722 40.62554095 47.46070496 45.46562093 52.28323364 50.30888367 C55.66961242 53.70860848 59.05860536 57.10572214 62.44775391 60.50268555 C64.2370557 62.29704556 66.02546316 64.09229781 67.81298828 65.88842773 C70.39642124 68.48395497 72.98303906 71.07627049 75.5703125 73.66796875 C76.37034698 74.47316452 77.17038147 75.27836029 77.99465942 76.10795593 C79.11129471 77.22470451 79.11129471 77.22470451 80.25048828 78.36401367 C80.90381134 79.01955734 81.5571344 79.67510101 82.23025513 80.35050964 C84.10409999 82.18606 84.10409999 82.18606 87 84 C87 84.66 87 85.32 87 86 C87.66 86 88.32 86 89 86 C89 86.66 89 87.32 89 88 C89.66 88 90.32 88 91 88 C93.125 89.875 93.125 89.875 95 92 C95 92.66 95 93.32 95 94 C95.56203125 94.22429687 96.1240625 94.44859375 96.703125 94.6796875 C99.67275417 96.38671923 101.50344167 98.54806544 103.75 101.125 C104.54921875 102.03507812 105.3484375 102.94515625 106.171875 103.8828125 C106.77515625 104.58148437 107.3784375 105.28015625 108 106 C104.38338727 106 103.87261283 105.34986109 101.25 103 C100.61578125 102.443125 99.9815625 101.88625 99.328125 101.3125 C97.42014656 99.41732679 95.69682045 97.50451729 93.95385742 95.46313477 C89.64756869 90.52340216 85.04788034 85.9041196 80.41015625 81.27734375 C79.50680038 80.37303116 78.60344452 79.46871857 77.67271423 78.53700256 C75.77203932 76.63565057 73.87040392 74.73532447 71.96704102 72.83666992 C69.54881608 70.42414139 67.13511042 68.00714919 64.72272587 65.58878231 C62.39181599 63.25335425 60.05706044 60.92177823 57.72265625 58.58984375 C56.43948265 57.3036338 56.43948265 57.3036338 55.13038635 55.99143982 C50.70654319 51.58465073 46.22729511 47.3634699 41.40818787 43.38941956 C40.71113487 42.70165688 40.71113487 42.70165688 40 42 C40 41.34 40 40.68 40 40 C39.34 40 38.68 40 38 40 C38 39.34 38 38.68 38 38 C37.34 38 36.68 38 36 38 C34.81311994 36.6206529 33.6289022 35.23715997 32.51171875 33.80078125 C30.48231758 31.38332921 28.24804074 29.21483482 26 27 C16 17 16 17 13.375 14.33984375 C10.97233235 11.89826453 10.97233235 11.89826453 8 9.5625 C4.86743424 6.88676675 2.5115406 4.25022901 0 1 C0 0.67 0 0.34 0 0 Z " fill="#1D1D1D" transform="translate(356,957)"/>
<path d="M0 0 C2.52845528 1.26422764 2.76422764 2.52845528 4 5 C4.66 5.33 5.32 5.66 6 6 C5.34 7.32 4.68 8.64 4 10 C0 10 0 10 -1.5 8.5625 C-1.995 8.046875 -2.49 7.53125 -3 7 C-4.32158127 6.62275759 -5.65525832 6.28382867 -7 6 C-6.96519531 6.71285156 -6.93039062 7.42570313 -6.89453125 8.16015625 C-6.69785398 15.11878548 -6.9098963 20.51848316 -11.7578125 25.98046875 C-13.46220584 27.70901342 -15.19718205 29.37499423 -17 31 C-18.32 30.34 -19.64 29.68 -21 29 C-21 27.68 -21 26.36 -21 25 C-20.01 24.67 -19.02 24.34 -18 24 C-16.89163577 22.11683841 -16.89163577 22.11683841 -16 20 C-15.34 19.01 -14.68 18.02 -14 17 C-13.54860541 14.9507906 -13.54860541 14.9507906 -13.375 12.8125 C-13.25125 11.554375 -13.1275 10.29625 -13 9 C-13.99 8.67 -14.98 8.34 -16 8 C-13.37964982 6.63610475 -10.75443001 5.28367827 -8.125 3.9375 C-7.37863281 3.54755859 -6.63226563 3.15761719 -5.86328125 2.75585938 C-5.14785156 2.39169922 -4.43242187 2.02753906 -3.6953125 1.65234375 C-3.03547363 1.31195068 -2.37563477 0.97155762 -1.69580078 0.62084961 C-1.13618652 0.41596924 -0.57657227 0.21108887 0 0 Z " fill="#292929" transform="translate(395,209)"/>
<path d="M0 0 C1.99908195 1.6356125 2.94002094 2.42747257 3.21484375 5.05078125 C2.39202655 11.76079758 0.49053083 15.74666258 -4.625 20.375 C-9.17033085 22.56349263 -13.03548047 22.7234727 -18 22 C-20.875 20.5 -20.875 20.5 -23 19 C-24.32 19 -25.64 19 -27 19 C-25.90931332 15.22454612 -25.0916909 12.52956528 -22 10 C-22 10.66 -22 11.32 -22 12 C-21.34 12 -20.68 12 -20 12 C-19.608125 12.495 -19.21625 12.99 -18.8125 13.5 C-15.97761409 15.84611248 -13.55546134 15.31188257 -10 15 C-7.66335851 14.45782232 -7.66335851 14.45782232 -6 13 C-4.53483109 10.22389048 -3.990154 7.92826488 -3.5625 4.8125 C-3.376875 3.884375 -3.19125 2.95625 -3 2 C-2.01 1.34 -1.02 0.68 0 0 Z " fill="#282828" transform="translate(212,390)"/>
<path d="M0 0 C2.125 0.9375 2.125 0.9375 4 2 C3.835 2.680625 3.67 3.36125 3.5 4.0625 C2.23225649 10.29602324 2.23225649 10.29602324 4.38671875 16.05078125 C6.66676307 18.6770362 9.04792284 21.12860735 11.61328125 23.4765625 C13 24.75 13 24.75 15 27 C14.8125 29.3125 14.8125 29.3125 14 31 C12.34765625 31.81640625 12.34765625 31.81640625 10 32 C7.91006228 30.37112256 6.23771661 28.84461206 4.4375 26.9375 C3.95603516 26.45861328 3.47457031 25.97972656 2.97851562 25.48632812 C-0.69541369 21.71132785 -3.55466238 17.9162431 -4.36328125 12.62109375 C-4.26450072 8.37353114 -4.13701455 4.79913698 -2 1 C-1.34 0.67 -0.68 0.34 0 0 Z " fill="#292929" transform="translate(774,1001)"/>
<path d="M0 0 C3 0 3 0 5.6875 2.375 C8 5 8 5 8 7 C8.66 7 9.32 7 10 7 C11.47265625 8.42578125 11.47265625 8.42578125 13.0625 10.3125 C13.85333984 11.23482422 13.85333984 11.23482422 14.66015625 12.17578125 C17.69607986 16.30923993 17.50104782 21.08973135 17 26 C15.5 29.5625 15.5 29.5625 14 32 C12.68 32 11.36 32 10 32 C8.875 27.25 8.875 27.25 10 25 C10.61203106 22.06225092 10.81736507 20.81708213 10 18 C6.84537702 13.72474093 3.15848275 9.93746164 -0.79296875 6.390625 C-2 5 -2 5 -2 2 C-1.34 2 -0.68 2 0 2 C0 1.34 0 0.68 0 0 Z " fill="#292929" transform="translate(747,1038)"/>
<path d="M0 0 C3.77453209 1.56761309 6.19921252 3.93193778 9.0625 6.8125 C9.91972656 7.66457031 10.77695313 8.51664063 11.66015625 9.39453125 C15.93439137 14.15398839 17.49494908 17.39668887 17.3046875 23.70703125 C16.84034041 27.20154077 15.59825716 29.87007972 14 33 C13.01 33 12.02 33 11 33 C10.34 32.34 9.68 31.68 9 31 C9.29537827 29.32618981 9.63893903 27.66088045 10 26 C10.46747347 21.80123832 10.60409523 18.96207759 8.3125 15.3125 C7.549375 14.549375 6.78625 13.78625 6 13 C4.7315625 11.700625 4.7315625 11.700625 3.4375 10.375 C2.633125 9.59125 1.82875 8.8075 1 8 C0 7 -1 6 -2 5 C-1.34 3.35 -0.68 1.7 0 0 Z " fill="#292929" transform="translate(1026,758)"/>
<path d="M0 0 C8.02220123 -0.78649032 8.02220123 -0.78649032 11.875 2.3125 C12.57625 3.199375 13.2775 4.08625 14 5 C14.598125 5.556875 15.19625 6.11375 15.8125 6.6875 C17 8 17 8 17 10 C18.32 10.66 19.64 11.32 21 12 C21 12.66 21 13.32 21 14 C21.639375 14.309375 22.27875 14.61875 22.9375 14.9375 C25 16 25 16 26 17 C26.07179964 18.51928038 26.08392007 20.04167482 26.0625 21.5625 C26.05347656 22.38878906 26.04445313 23.21507812 26.03515625 24.06640625 C26.02355469 24.70449219 26.01195312 25.34257813 26 26 C20.27316762 22.10575398 15.39811018 17.6183721 10.5 12.75 C9.86433105 12.12335449 9.22866211 11.49670898 8.57373047 10.85107422 C7.98221191 10.25568848 7.39069336 9.66030273 6.78125 9.046875 C6.24564453 8.50901367 5.71003906 7.97115234 5.15820312 7.41699219 C4 6 4 6 4 4 C2.68 3.34 1.36 2.68 0 2 C0 1.34 0 0.68 0 0 Z " fill="#282828" transform="translate(951,825)"/>
<path d="M0 0 C1.32 0.66 2.64 1.32 4 2 C3.835 2.680625 3.67 3.36125 3.5 4.0625 C2.88280498 7.68852077 2.50843179 10.31323844 3 14 C4.71415418 16.40149229 6.59396346 18.59939691 8.5078125 20.84375 C10 23 10 23 9.9375 26.5625 C9.628125 27.366875 9.31875 28.17125 9 29 C3.86546967 26.51053075 0.37771021 22.50361361 -3 18 C-4.56885948 13.29342156 -4.55587589 8.82644934 -3.125 4.125 C-2 2 -2 2 0 0 Z " fill="#292929" transform="translate(1053,721)"/>
<path d="M0 0 C2.625 1.9375 2.625 1.9375 5 4 C5.99 4.66 6.98 5.32 8 6 C-2.87242638 9.46992331 -12.53921389 11.3544573 -24 11 C-23.67 10.34 -23.34 9.68 -23 9 C-21.4840625 8.6596875 -21.4840625 8.6596875 -19.9375 8.3125 C-15.58049039 7.21650995 -12.97719915 4.61806559 -9.796875 1.55859375 C-6.48999867 -1.30976203 -4.0042012 -1.23939561 0 0 Z " fill="#070707" transform="translate(698,1094)"/>
<path d="M0 0 C0 6.93 0 13.86 0 21 C-4.81318312 20.03736338 -6.17230755 19.60359543 -9.04296875 15.8125 C-10.89769995 12.29986622 -10.62350657 9.9280914 -10 6 C-6.97422003 2.25758793 -4.89228259 0 0 0 Z " fill="#272727" transform="translate(307,911)"/>
<path d="M0 0 C4.15704633 1.62493657 6.89595505 4.67222824 9.9375 7.8125 C10.44990234 8.33392578 10.96230469 8.85535156 11.49023438 9.39257812 C12.99641357 10.92555085 14.49834494 12.46259724 16 14 C19.64965569 17.71521837 23.42879761 21.11716769 27.42578125 24.44921875 C28.20501953 25.21685547 28.20501953 25.21685547 29 26 C29 26.66 29 27.32 29 28 C29.66 28 30.32 28 31 28 C31.66 28.66 32.32 29.32 33 30 C33.495 28.515 33.495 28.515 34 27 C34.66 26.34 35.32 25.68 36 25 C37.6735337 27.95449913 39.33763985 30.9142018 41 33.875 C41.47695313 34.71675781 41.95390625 35.55851562 42.4453125 36.42578125 C42.89648438 37.23144531 43.34765625 38.03710938 43.8125 38.8671875 C44.23144531 39.61081543 44.65039062 40.35444336 45.08203125 41.12060547 C46 43 46 43 46 45 C42.26369914 44.45222723 40.89294387 43.08844515 38.5625 40.1875 C35.9351979 37.02228044 33.23648259 34.54995598 30 32 C30 31.34 30 30.68 30 30 C29.34 30 28.68 30 28 30 C26.5546875 28.49609375 26.5546875 28.49609375 24.875 26.4375 C22.40985239 23.52739836 19.9163977 20.95680973 17 18.5 C12.88851384 15.00761793 9.45829268 11.1273796 6 7 C4.85525721 5.66573026 3.70949171 4.33233698 2.5625 3 C1.716875 2.01 0.87125 1.02 0 0 Z " fill="#181818" transform="translate(976,375)"/>
<path d="M0 0 C1.1055189 0.93590504 2.20935453 1.87379858 3.3125 2.8125 C3.92738281 3.33457031 4.54226563 3.85664063 5.17578125 4.39453125 C6.07876953 5.18923828 6.07876953 5.18923828 7 6 C7.57105469 6.49886719 8.14210938 6.99773437 8.73046875 7.51171875 C10 9 10 9 10 12 C11.65 12.66 13.3 13.32 15 14 C15 16.97 15 19.94 15 23 C7.36284185 17.54488704 0.6544337 11.53924493 -5 4 C-3.35 2.68 -1.7 1.36 0 0 Z " fill="#282828" transform="translate(361,227)"/>
<path d="M0 0 C3.3088067 1.40877141 5.11467858 3.03750445 7.375 5.8125 C10.33828059 9.32619556 13.38116442 12.17554296 17 15 C16.49396008 17.16874252 16.00016187 18.99967627 15 21 C11.18617218 19.4462183 8.78976754 16.91468251 6 14 C4.39853167 12.39313952 2.794183 10.78914638 1.1875 9.1875 C-0.20833333 7.79166667 -1.60416667 6.39583333 -3 5 C-1.125 1.125 -1.125 1.125 0 0 Z " fill="#282828" transform="translate(759,1026)"/>
<path d="M0 0 C0.99 0 1.98 0 3 0 C3 0.66 3 1.32 3 2 C3.99 2.33 4.98 2.66 6 3 C6 3.66 6 4.32 6 5 C6.5775 5.226875 7.155 5.45375 7.75 5.6875 C10.57408471 7.33488275 11.9976963 9.43454838 14 12 C16.12603185 13.76323505 16.12603185 13.76323505 18 15 C17.34 16.32 16.68 17.64 16 19 C10.90835267 19 10.07771219 17.61982692 6.62304688 14.21875 C5.66495117 13.24421875 5.66495117 13.24421875 4.6875 12.25 C4.02943359 11.61578125 3.37136719 10.9815625 2.69335938 10.328125 C1.76813477 9.4 1.76813477 9.4 0.82421875 8.453125 C0.25791748 7.88754883 -0.30838379 7.32197266 -0.8918457 6.73925781 C-2 5 -2 5 -1.73901367 2.84667969 C-1 1 -1 1 0 0 Z " fill="#282828" transform="translate(1038,747)"/>
<path d="M0 0 C1.32 0.99 2.64 1.98 4 3 C2.34136495 7.32504836 -0.871041 10.09418825 -4.125 13.25 C-4.68832031 13.80429688 -5.25164063 14.35859375 -5.83203125 14.9296875 C-7.21686028 16.29104485 -8.60783204 17.64614859 -10 19 C-11.9375 18.1875 -11.9375 18.1875 -14 17 C-14.33 16.01 -14.66 15.02 -15 14 C-14.13375 13.319375 -13.2675 12.63875 -12.375 11.9375 C-9.33105611 9.4188703 -6.86714166 6.62281236 -4.39453125 3.55078125 C-3 2 -3 2 0 0 Z " fill="#282828" transform="translate(760,1015)"/>
<path d="M0 0 C1.32 0.99 2.64 1.98 4 3 C2.42840852 6.85754273 -0.01077487 9.14362932 -3 12 C-4.27347265 13.26818853 -5.54423659 14.53910193 -6.8125 15.8125 C-7.875 16.875 -8.9375 17.9375 -10 19 C-11.32 18.34 -12.64 17.68 -14 17 C-14 14 -14 14 -12.71484375 12.37426758 C-12.12832031 11.80345459 -11.54179688 11.2326416 -10.9375 10.64453125 C-10.30585937 10.02255859 -9.67421875 9.40058594 -9.0234375 8.75976562 C-8.35570312 8.11716797 -7.68796875 7.47457031 -7 6.8125 C-6.33226562 6.15830078 -5.66453125 5.50410156 -4.9765625 4.83007812 C-3.32421559 3.21313865 -1.66528399 1.60359509 0 0 Z " fill="#292929" transform="translate(1039,735)"/>
<path d="M0 0 C1.875 0.3125 1.875 0.3125 4 1 C4.66 1.99 5.32 2.98 6 4 C5.34 4.66 4.68 5.32 4 6 C3.75712511 8.44012949 3.75712511 8.44012949 3.875 11.125 C3.89304687 12.03507812 3.91109375 12.94515625 3.9296875 13.8828125 C3.95289063 14.58148438 3.97609375 15.28015625 4 16 C4.96679688 16.42925781 4.96679688 16.42925781 5.953125 16.8671875 C8 18 8 18 8.75 20.125 C8.87375 21.053125 8.87375 21.053125 9 22 C4.07567747 20.31166085 0.6564355 17.6564355 -3 14 C-3.47366503 8.3160197 -3.00135068 5.00225113 0 0 Z " fill="#292929" transform="translate(773,400)"/>
<path d="M0 0 C3.95483327 2.1610339 6.86308124 4.6498554 10 7.875 C10.825 8.71804688 11.65 9.56109375 12.5 10.4296875 C13.7375 11.70199219 13.7375 11.70199219 15 13 C17.5163316 15.53213274 20.04692124 18.045655 22.60546875 20.53515625 C23.88357422 21.78619141 23.88357422 21.78619141 25.1875 23.0625 C26.04730469 23.89910156 26.90710938 24.73570312 27.79296875 25.59765625 C29.7331661 27.70955248 30.91513978 29.3757292 32 32 C28.15387927 30.42140174 25.75846654 27.97344745 22.8671875 25.02734375 C22.38927765 24.54423233 21.9113678 24.06112091 21.41897583 23.56336975 C19.89946386 22.02610959 18.3868361 20.48230674 16.875 18.9375 C15.35515441 17.39002523 13.83386581 15.84404074 12.30960083 14.30091858 C10.93081258 12.90429199 9.55683935 11.50291677 8.18310547 10.10131836 C6.18319548 7.96740455 6.18319548 7.96740455 4 7 C4 6.34 4 5.68 4 5 C3.34 5 2.68 5 2 5 C1.34 3.35 0.68 1.7 0 0 Z " fill="#181818" transform="translate(183,784)"/>
<path d="M0 0 C0.99 0.33 1.98 0.66 3 1 C3 1.66 3 2.32 3 3 C3.99 3.33 4.98 3.66 6 4 C8.64086116 6.437718 10.94990488 8.93702328 13.1875 11.75 C14.80309077 14.07487388 14.80309077 14.07487388 17 15 C17 15.66 17 16.32 17 17 C17.89138672 17.38478516 17.89138672 17.38478516 18.80078125 17.77734375 C21.21062253 19.11709565 22.44871988 20.4373243 24.1875 22.5625 C28.19689696 27.31276379 32.56206234 31.65263249 37 36 C34 36 34 36 31.12084961 33.44555664 C29.95711301 32.27456262 28.80146233 31.09549855 27.65234375 29.91015625 C27.03984268 29.29103867 26.42734161 28.67192108 25.79627991 28.03404236 C23.8361607 26.05046962 21.88645317 24.05703992 19.9375 22.0625 C17.98330125 20.07327203 16.02700155 18.0861759 14.06800842 16.10166931 C12.84837957 14.86502878 11.63184661 13.625326 10.41868591 12.38233948 C7.50339529 9.30920618 7.50339529 9.30920618 4 7 C4 6.34 4 5.68 4 5 C3.34 5 2.68 5 2 5 C1.34 4.34 0.68 3.68 0 3 C0 2.01 0 1.02 0 0 Z " fill="#1B1B1B" transform="translate(138,739)"/>
<path d="M0 0 C0.66 0 1.32 0 2 0 C1.69055299 2.58373234 1.37756043 5.16695133 1.0625 7.75 C0.93198242 8.84441406 0.93198242 8.84441406 0.79882812 9.9609375 C0.37972591 13.37584442 -0.117274 16.67603543 -1 20 C-1.66 20 -2.32 20 -3 20 C-5.48877041 16.26684439 -5.55784959 12.32957889 -5 8 C-3.65059348 4.68782037 -2.5207227 2.5207227 0 0 Z " fill="#232323" transform="translate(1068,706)"/>
<path d="M0 0 C4.92157878 4.11805571 9.51804718 8.41030793 14 13 C16.53017124 15.59041341 18.9532292 17.96362271 21.8125 20.1875 C22.534375 20.785625 23.25625 21.38375 24 22 C24 22.66 24 23.32 24 24 C24.99 24.33 25.98 24.66 27 25 C27 25.66 27 26.32 27 27 C27.66 27 28.32 27 29 27 C29 27.66 29 28.32 29 29 C29.99 29.33 30.98 29.66 32 30 C33.38576923 31.62332967 34.72641268 33.28724465 36 35 C32.64299892 34.4155472 31.00251344 33.37752076 28.60839844 30.98071289 C27.64785553 30.02951317 27.64785553 30.02951317 26.66790771 29.05909729 C25.98859192 28.37057175 25.30927612 27.6820462 24.609375 26.97265625 C23.90476135 26.26854111 23.20014771 25.56442596 22.47418213 24.838974 C20.98797116 23.35042389 19.50544911 21.85818284 18.02636719 20.36254883 C15.75355438 18.06609135 13.46766396 15.78329278 11.1796875 13.50195312 C9.73878829 12.05547904 8.29865721 10.6082393 6.859375 9.16015625 C5.82825592 8.13040428 5.82825592 8.13040428 4.77630615 7.07984924 C4.14855286 6.44256393 3.52079956 5.80527863 2.87402344 5.14868164 C2.31761169 4.58766251 1.76119995 4.02664337 1.18792725 3.44862366 C0 2 0 2 0 0 Z " fill="#202020" transform="translate(464,1064)"/>
<path d="M0 0 C3.85195777 1.56931613 6.11743947 4.05040318 9 7 C10.17785373 8.03194842 11.36580126 9.05246581 12.5625 10.0625 C15.1634129 12.27157231 17.72247935 14.44917688 20 17 C20 17.66 20 18.32 20 19 C20.66 19 21.32 19 22 19 C23.55078125 20.5390625 23.55078125 20.5390625 25.3125 22.625 C26.23675781 23.71167969 26.23675781 23.71167969 27.1796875 24.8203125 C27.78039062 25.53960937 28.38109375 26.25890625 29 27 C29.51820313 27.61617188 30.03640625 28.23234375 30.5703125 28.8671875 C31.71958835 30.23975123 32.8607561 31.6190983 34 33 C30.43064582 31.4945581 28.22908765 29.40712438 25.5625 26.625 C23.08579764 24.07881919 20.72197083 21.77871148 17.9375 19.5625 C17.298125 19.046875 16.65875 18.53125 16 18 C16 17.34 16 16.68 16 16 C15.01 15.67 14.02 15.34 13 15 C13 14.34 13 13.68 13 13 C12.34 13 11.68 13 11 13 C11 12.34 11 11.68 11 11 C10.01 10.67 9.02 10.34 8 10 C6.31267723 8.01739574 4.64633943 6.0167658 3 4 C2.01 3.34 1.02 2.68 0 2 C0 1.34 0 0.68 0 0 Z " fill="#1A1A1A" transform="translate(384,384)"/>
<path d="M0 0 C0.66 0 1.32 0 2 0 C3.34204102 1.36328125 3.34204102 1.36328125 4.94140625 3.3125 C9.64135929 8.83984949 14.78755691 13.89642127 19.9375 19 C20.9175531 19.97502386 21.8973724 20.9502828 22.87695312 21.92578125 C25.24902313 24.28616618 27.6234086 26.64416905 30 29 C29.34 29.33 28.68 29.66 28 30 C27.29875 29.278125 26.5975 28.55625 25.875 27.8125 C23.91006927 25.83067874 21.86821544 24.05292847 19.6875 22.3125 C18.800625 21.549375 17.91375 20.78625 17 20 C17 19.34 17 18.68 17 18 C16.34 18 15.68 18 15 18 C15 17.34 15 16.68 15 16 C14.34 16 13.68 16 13 16 C11.703125 14.64453125 11.703125 14.64453125 10.25 12.8125 C7.40295885 9.39465843 4.63345396 6.58378948 1 4 C0.01 4.33 -0.98 4.66 -2 5 C-1.125 1.125 -1.125 1.125 0 0 Z " fill="#191919" transform="translate(647,647)"/>
<path d="M0 0 C4.00110999 1.81868636 7.31049716 3.44985625 10 7 C9.75 9.25 9.75 9.25 9 11 C7.68 11.33 6.36 11.66 5 12 C5 11.34 5 10.68 5 10 C4.34 10 3.68 10 3 10 C3 9.34 3 8.68 3 8 C2.01 7.67 1.02 7.34 0 7 C0 6.34 0 5.68 0 5 C-0.66 4.67 -1.32 4.34 -2 4 C-1.34 2.68 -0.68 1.36 0 0 Z " fill="#2B2B2B" transform="translate(178,420)"/>
<path d="M0 0 C1.67542976 0.28604898 3.34385343 0.61781233 5 1 C5 1.66 5 2.32 5 3 C4.34 3 3.68 3 3 3 C2.34 4.32 1.68 5.64 1 7 C0.34 7 -0.32 7 -1 7 C-1.309375 7.61875 -1.61875 8.2375 -1.9375 8.875 C-2.625 10.25 -3.3125 11.625 -4 13 C-4.66 13 -5.32 13 -6 13 C-6 13.99 -6 14.98 -6 16 C-6.66 16 -7.32 16 -8 16 C-7.42070126 11.97387377 -6.14350034 9.19196689 -4 5.75 C-3.46375 4.87859375 -2.9275 4.0071875 -2.375 3.109375 C-1 1 -1 1 0 0 Z " fill="#0E0E0E" transform="translate(198,386)"/>
<path d="M0 0 C0.99 0 1.98 0 3 0 C4.38671875 1.75 4.38671875 1.75 5.6875 4 C6.34298828 5.11375 6.34298828 5.11375 7.01171875 6.25 C7.33785156 6.8275 7.66398438 7.405 8 8 C7.360625 8.12375 6.72125 8.2475 6.0625 8.375 C5.381875 8.58125 4.70125 8.7875 4 9 C3.67 9.66 3.34 10.32 3 11 C3 9.02 3 7.04 3 5 C1.68 5.33 0.36 5.66 -1 6 C-1.33 8.31 -1.66 10.62 -2 13 C-2.33 13 -2.66 13 -3 13 C-3.75 10.25 -3.75 10.25 -4 7 C-2.0625 4.8125 -2.0625 4.8125 0 3 C0 2.01 0 1.02 0 0 Z " fill="#070707" transform="translate(812,385)"/>
<path d="M0 0 C1.125 3.75 1.125 3.75 0 6 C-0.46776468 10.67764683 -0.72969391 13.6626117 2.25 17.4375 C5.21790827 20.24127219 5.21790827 20.24127219 9 21 C9 21.99 9 22.98 9 24 C8.01 24 7.02 24 6 24 C6 23.34 6 22.68 6 22 C5.4225 21.7525 4.845 21.505 4.25 21.25 C0.88740245 19.38189025 -1.47289643 17.83773946 -2.578125 13.984375 C-3.45085809 8.40647222 -2.6335831 4.95113623 0 0 Z " fill="#080808" transform="translate(298,911)"/>
<path d="M0 0 C0.33 0 0.66 0 1 0 C1.36490759 5.12897894 1.56057961 8.89817111 -0.8125 13.5625 C-3 16 -3 16 -6 17 C-4.13236819 11.27789404 -2.14710968 5.62338249 0 0 Z " fill="#272727" transform="translate(162,454)"/>
<path d="M0 0 C3.96 1.98 3.96 1.98 8 4 C7.01 4.66 6.02 5.32 5 6 C6.2375 6.928125 6.2375 6.928125 7.5 7.875 C8.325 8.57625 9.15 9.2775 10 10 C10 10.66 10 11.32 10 12 C10.66 12 11.32 12 12 12 C12.33 12.99 12.66 13.98 13 15 C9.84164893 13.60249952 7.67727175 11.94801766 5.25 9.5 C4.63640625 8.8915625 4.0228125 8.283125 3.390625 7.65625 C2 6 2 6 2 4 C1.01 3.67 0.02 3.34 -1 3 C-0.67 2.01 -0.34 1.02 0 0 Z " fill="#202020" transform="translate(819,216)"/>
<path d="M0 0 C3.41158256 1.13719419 4.11854601 2.04342944 6 5 C6 5.66 6 6.32 6 7 C2.5647952 9.29013653 1.014669 9.17842973 -3 9 C-2.01 6.03 -1.02 3.06 0 0 Z " fill="#272727" transform="translate(170,436)"/>
<path d="M0 0 C1.98 0.99 1.98 0.99 4 2 C4 2.66 4 3.32 4 4 C4.99 4.33 5.98 4.66 7 5 C7 5.66 7 6.32 7 7 C7.66 7 8.32 7 9 7 C9 7.66 9 8.32 9 9 C9.99 9.33 10.98 9.66 12 10 C13.38576923 11.62332967 14.72641268 13.28724465 16 15 C12.86915901 14.42235562 11.22256994 13.59969956 8.984375 11.34765625 C8.45585937 10.81849609 7.92734375 10.28933594 7.3828125 9.74414062 C6.84398437 9.18919922 6.30515625 8.63425781 5.75 8.0625 C5.19570313 7.51142578 4.64140625 6.96035156 4.0703125 6.39257812 C0 2.26712592 0 2.26712592 0 0 Z " fill="#191919" transform="translate(484,1084)"/>
<path d="M0 0 C1.3303125 0.495 1.3303125 0.495 2.6875 1 C5.70923347 1.91222143 7.88373706 2.18330958 11 2 C10.13568359 2.42732422 10.13568359 2.42732422 9.25390625 2.86328125 C7.81346797 3.58974146 6.38246695 4.33543542 4.96484375 5.10546875 C4.29582031 5.46253906 3.62679688 5.81960938 2.9375 6.1875 C2.26589844 6.55230469 1.59429687 6.91710937 0.90234375 7.29296875 C-1 8 -1 8 -4 7 C-3.34 7 -2.68 7 -2 7 C-1.855625 6.401875 -1.71125 5.80375 -1.5625 5.1875 C-1.1127561 3.43849596 -0.57107659 1.71322977 0 0 Z " fill="#212121" transform="translate(309,314)"/>
<path d="M0 0 C0.66 0 1.32 0 2 0 C2 0.99 2 1.98 2 3 C2.66 3.33 3.32 3.66 4 4 C-1.625 8.875 -1.625 8.875 -5 10 C-4.49890042 5.61537866 -3.01704885 3.1999003 0 0 Z " fill="#222222" transform="translate(216,359)"/>
<path d="M0 0 C2.64 1.98 5.28 3.96 8 6 C4.16380575 6.95904856 2.67568464 6.91892116 -1 6 C-0.67 5.01 -0.34 4.02 0 3 C-0.66 2.34 -1.32 1.68 -2 1 C-1.34 0.67 -0.68 0.34 0 0 Z " fill="#1F1F1F" transform="translate(894,265)"/>
<path d="M0 0 C0.33 0.99 0.66 1.98 1 3 C-1.36620011 5.61527381 -3.942048 7.26440562 -7 9 C-5.44499019 5.18315774 -2.96404505 2.80804268 0 0 Z M-9 9 C-8.34 9.33 -7.68 9.66 -7 10 C-8.32 10.99 -9.64 11.98 -11 13 C-10.34 11.68 -9.68 10.36 -9 9 Z " fill="#0A0A0A" transform="translate(1025,757)"/>
<path d="M0 0 C0.66 0.99 1.32 1.98 2 3 C0.625 5 0.625 5 -1 7 C-1.66 7 -2.32 7 -3 7 C-3 7.66 -3 8.32 -3 9 C-3.66 9 -4.32 9 -5 9 C-5.33 9.99 -5.66 10.98 -6 12 C-6.66 11.34 -7.32 10.68 -8 10 C-7.50628906 9.44570313 -7.01257813 8.89140625 -6.50390625 8.3203125 C-5.86324219 7.59585937 -5.22257813 6.87140625 -4.5625 6.125 C-3.92441406 5.40570313 -3.28632812 4.68640625 -2.62890625 3.9453125 C-0.94985535 2.09249509 -0.94985535 2.09249509 0 0 Z " fill="#121212" transform="translate(893,387)"/>
<path d="M0 0 C0.66 0.33 1.32 0.66 2 1 C0.73046875 2.46484375 -0.5390625 3.9296875 -1.80859375 5.39453125 C-3.20871231 7.10712971 -3.20871231 7.10712971 -4 10 C-6.5625 11.1875 -6.5625 11.1875 -9 12 C-7.55575365 8.76138697 -5.74227753 6.38030837 -3.375 3.75 C-2.74335937 3.04359375 -2.11171875 2.3371875 -1.4609375 1.609375 C-0.97882812 1.07828125 -0.49671875 0.5471875 0 0 Z " fill="#E3E3E3" transform="translate(825,325)"/>
<path d="M0 0 C3.45201639 1.47721422 5.64961936 3.43794001 8.25 6.125 C8.95640625 6.84945312 9.6628125 7.57390625 10.390625 8.3203125 C11.18726563 9.15175781 11.18726563 9.15175781 12 10 C11.01 10.495 11.01 10.495 10 11 C6.40365256 7.50640535 3.16548033 3.88901869 0 0 Z " fill="#1F1F1F" transform="translate(665,666)"/>
<path d="M0 0 C0.33 0.66 0.66 1.32 1 2 C1.99 2.33 2.98 2.66 4 3 C4 3.66 4 4.32 4 5 C5.32 5.66 6.64 6.32 8 7 C8 7.99 8 8.98 8 10 C6.87105124 9.06725891 5.74699124 8.12859878 4.625 7.1875 C3.99851562 6.66542969 3.37203125 6.14335937 2.7265625 5.60546875 C1 4 1 4 -1 1 C-0.67 0.67 -0.34 0.34 0 0 Z " fill="#111111" transform="translate(832,230)"/>
<path d="M0 0 C0.33 0.66 0.66 1.32 1 2 C-0.134375 2.12375 -1.26875 2.2475 -2.4375 2.375 C-4.2009375 2.684375 -4.2009375 2.684375 -6 3 C-6.33 3.66 -6.66 4.32 -7 5 C-8.32 4.34 -9.64 3.68 -11 3 C-7.14243493 0.84694043 -4.44870215 -0.39253254 0 0 Z " fill="#222222" transform="translate(394,212)"/>
<path d="M0 0 C2.72574271 0.37330824 3.80822085 0.79194601 5.703125 2.84765625 C6.21359375 3.57855469 6.7240625 4.30945313 7.25 5.0625 C8.03117187 6.16271484 8.03117187 6.16271484 8.828125 7.28515625 C9.21484375 7.85105469 9.6015625 8.41695312 10 9 C4.98709528 7.56774151 3.01961382 5.05490999 0 1 C0 0.67 0 0.34 0 0 Z " fill="#161616" transform="translate(356,957)"/>
<path d="M0 0 C4.2742558 1.5830577 6.26531794 4.50568404 9 8 C7.68 7.67 6.36 7.34 5 7 C5 6.34 5 5.68 5 5 C3.68 4.67 2.36 4.34 1 4 C0.67 2.68 0.34 1.36 0 0 Z " fill="#101010" transform="translate(232,833)"/>
<path d="M0 0 C1.32 1.32 2.64 2.64 4 4 C3.67 4.66 3.34 5.32 3 6 C2.01 6 1.02 6 0 6 C-0.33 6.66 -0.66 7.32 -1 8 C-1.04241723 5.66705225 -1.04092937 3.33297433 -1 1 C-0.67 0.67 -0.34 0.34 0 0 Z " fill="#101010" transform="translate(816,388)"/>
<path d="M0 0 C0.99 0.33 1.98 0.66 3 1 C1.02 1.99 1.02 1.99 -1 3 C-0.67 2.01 -0.34 1.02 0 0 Z M-2 3 C0 5 0 5 0 8 C-1.65 8 -3.3 8 -5 8 C-3.125 4.125 -3.125 4.125 -2 3 Z " fill="#141414" transform="translate(224,348)"/>
<path d="M0 0 C3.7952131 1.49097658 5.61042731 3.75700849 8 7 C5 7 5 7 2.3125 4.625 C0 2 0 2 0 0 Z " fill="#191919" transform="translate(224,825)"/>
<path d="M0 0 C4.22271781 2.53363068 6.78310162 4.56620325 9 9 C5.18063472 7.44396229 2.73955562 5.04395069 0 2 C0 1.34 0 0.68 0 0 Z " fill="#1E1E1E" transform="translate(215,816)"/>
<path d="M0 0 C2.97 0.495 2.97 0.495 6 1 C6 1.66 6 2.32 6 3 C2.53846154 6 2.53846154 6 0 6 C0 4.02 0 2.04 0 0 Z " fill="#131313" transform="translate(865,1025)"/>
<path d="M0 0 C2.4375 0.375 2.4375 0.375 5 1 C5.33 1.66 5.66 2.32 6 3 C5.34 3.66 4.68 4.32 4 5 C3.34 5 2.68 5 2 5 C2 4.34 2 3.68 2 3 C1.34 3 0.68 3 0 3 C0 2.01 0 1.02 0 0 Z " fill="#252525" transform="translate(180,423)"/>
<path d="M0 0 C2.625 0.375 2.625 0.375 5 1 C4.67 1.66 4.34 2.32 4 3 C3.01 2.67 2.02 2.34 1 2 C1.33 3.32 1.66 4.64 2 6 C1.34 6 0.68 6 0 6 C0 5.01 0 4.02 0 3 C-0.66 2.67 -1.32 2.34 -2 2 C-1.34 1.34 -0.68 0.68 0 0 Z " fill="#2F2F2F" transform="translate(218,356)"/>
<path d="M0 0 C2.2477975 2.05233685 3.0022242 3.00667261 4 6 C1.5625 5.1875 1.5625 5.1875 -1 4 C-1.33 3.01 -1.66 2.02 -2 1 C-1.34 0.67 -0.68 0.34 0 0 Z " fill="#323232" transform="translate(778,416)"/>
<path d="M0 0 C0.66 0.33 1.32 0.66 2 1 C1 4 1 4 -0.875 5.1875 C-3 6 -3 6 -6 6 C-4.02 4.02 -2.04 2.04 0 0 Z " fill="#353535" transform="translate(267,299)"/>
<path d="M0 0 C0.66 0.33 1.32 0.66 2 1 C0.02 3.31 -1.96 5.62 -4 8 C-4.33 6.68 -4.66 5.36 -5 4 C-3.35 2.68 -1.7 1.36 0 0 Z " fill="#202020" transform="translate(321,253)"/>
</svg>
