<?xml version="1.0" standalone="no"?>
<!DOCTYPE svg PUBLIC "-//W3C//DTD SVG 20010904//EN"
 "http://www.w3.org/TR/2001/REC-SVG-20010904/DTD/svg10.dtd">
<svg version="1.0" xmlns="http://www.w3.org/2000/svg"
 width="500.000000pt" height="500.000000pt" viewBox="0 0 500.000000 500.000000"
 preserveAspectRatio="xMidYMid meet">

<g transform="translate(0.000000,500.000000) scale(0.100000,-0.100000)"
fill="#000000" stroke="none">
<path d="M2283 4360 c-193 -25 -428 -93 -598 -175 -191 -91 -425 -267 -568
-426 -134 -150 -217 -273 -301 -449 -277 -577 -243 -1239 90 -1788 271 -446
748 -772 1266 -864 175 -31 480 -31 655 0 519 92 996 418 1267 864 333 549
367 1211 90 1788 -150 312 -360 553 -657 751 -218 146 -438 233 -722 286 -96
17 -420 26 -522 13z m482 -110 c389 -63 708 -225 983 -498 583 -578 690 -1477
260 -2180 -245 -400 -678 -708 -1130 -802 -335 -70 -706 -42 -1008 74 -534
207 -949 670 -1085 1213 -187 748 105 1496 755 1930 340 228 816 330 1225 263z"/>
<path d="M3030 3791 c-215 -69 -373 -241 -425 -463 -73 -311 142 -654 453
-724 l72 -16 2 -197 c1 -108 2 -207 3 -221 3 -46 -2 -48 -66 -31 l-60 16 -59
133 c-76 173 -101 215 -156 256 -90 69 -105 71 -524 71 l-375 0 -67 -33 c-96
-47 -131 -92 -213 -274 l-70 -156 -58 -5 c-122 -11 -226 -87 -279 -203 -21
-45 -23 -66 -26 -274 -4 -218 -3 -226 18 -252 21 -28 22 -28 146 -28 l124 0
21 -43 c35 -69 64 -101 120 -132 47 -26 64 -30 134 -30 63 0 90 5 127 23 55
27 103 79 130 139 l19 43 282 -2 282 -3 18 -40 c93 -201 368 -219 493 -33 l31
46 6 -71 c4 -58 9 -74 27 -89 29 -23 62 -23 91 1 21 17 25 30 29 103 l5 83 68
5 c99 7 99 7 95 215 -4 165 -5 172 -36 246 -20 46 -52 97 -82 131 l-50 56 0
271 c0 182 4 272 11 276 6 4 38 14 71 21 190 44 369 213 429 404 30 93 29 297
0 390 -56 177 -251 358 -431 399 -75 17 -267 13 -330 -8z m301 -137 c80 -24
126 -50 187 -108 70 -65 118 -140 137 -213 19 -71 19 -192 1 -259 -59 -222
-291 -372 -518 -335 -160 25 -285 119 -356 268 -36 77 -37 80 -37 198 0 114 2
123 32 188 58 122 182 228 306 262 71 19 182 18 248 -1z m-1111 -1344 l0 -160
-255 0 c-140 0 -255 3 -255 8 -1 24 100 230 125 255 49 50 76 56 238 57 l147
0 0 -160z m446 144 c19 -9 47 -32 62 -50 23 -27 87 -157 118 -238 6 -15 -16
-16 -237 -14 l-244 3 -3 145 c-1 79 0 150 2 157 8 21 257 18 302 -3z m-448
-686 l2 -238 -100 0 -101 0 -15 37 c-27 62 -63 101 -127 133 -139 69 -303 19
-372 -113 l-30 -57 -72 0 -73 0 0 165 c0 182 6 210 58 258 57 54 75 56 467 54
l360 -2 3 -237z m847 224 c55 -23 135 -76 135 -89 0 -7 -11 -13 -24 -13 -60 0
-95 -68 -60 -118 13 -20 24 -22 95 -22 95 0 92 3 93 -124 l1 -91 -86 -3 -86
-3 -26 54 c-31 62 -55 86 -121 121 -62 33 -168 36 -232 7 -58 -26 -119 -84
-144 -137 l-22 -45 -112 3 -111 3 -3 225 c-1 123 0 231 3 238 7 19 654 13 700
-6z m-1244 -425 c42 -28 65 -87 55 -141 -20 -106 -165 -138 -232 -51 -34 44
-40 91 -17 135 39 75 128 102 194 57z m1099 8 c49 -26 70 -61 70 -122 0 -49
-4 -59 -34 -89 -33 -33 -60 -41 -121 -34 -36 4 -74 30 -90 60 -20 38 -19 110
1 139 39 55 116 76 174 46z"/>
<path d="M3073 3500 c-12 -5 -26 -18 -32 -29 -14 -25 -15 -499 -2 -534 12 -32
62 -53 90 -38 34 18 51 53 51 102 l0 46 73 5 c91 6 148 35 192 96 28 41 30 50
30 132 0 82 -2 91 -30 131 -18 26 -50 53 -80 68 -43 23 -64 26 -160 28 -60 2
-120 -1 -132 -7z m220 -151 c49 -22 61 -86 22 -124 -20 -21 -34 -25 -80 -25
l-55 0 0 80 0 80 45 0 c24 0 55 -5 68 -11z"/>
</g>
</svg>
