<?xml version="1.0" encoding="UTF-8"?>
<svg version="1.1" xmlns="http://www.w3.org/2000/svg" width="360" height="360">
<path d="M0 0 C118.8 0 237.6 0 360 0 C360 118.8 360 237.6 360 360 C241.2 360 122.4 360 0 360 C0 241.2 0 122.4 0 0 Z " fill="#010101" transform="translate(0,0)"/>
<path d="M0 0 C47.52 0 95.04 0 144 0 C144 79.2 144 158.4 144 240 C96.48 240 48.96 240 0 240 C0 160.8 0 81.6 0 0 Z " fill="#090909" transform="translate(108,60)"/>
<path d="M0 0 C7.26 0 14.52 0 22 0 C22 11.88 22 23.76 22 36 C28.6 36 35.2 36 42 36 C43.13932292 38.24609375 44.27864583 40.4921875 45.41796875 42.73828125 C47.34665756 45.49559192 48.94564133 46.60119226 52 48 C57.42508367 48.81047683 62.39217445 48.7015966 67.4375 46.5 C69.83759866 44.15844033 70.61239334 42.79011772 72.015625 39.875 C73.60115888 37.28536339 74.32362931 36.19314519 77.27758789 35.34960938 C80.00599991 35.21152715 82.58597778 35.30114755 85.3125 35.5 C88.509375 35.665 91.70625 35.83 95 36 C95 24.12 95 12.24 95 0 C101.93 0 108.86 0 116 0 C116 34.65 116 69.3 116 105 C103.79 105 91.58 105 79 105 C78.01 102.03 77.02 99.06 76 96 C71.98824938 90.84203492 66.80609132 87.54927557 60.3203125 86.61328125 C54.03161212 86.36068802 49.14814828 87.29138134 44 91 C39.45100962 95.30309901 39.18088985 98.45733046 37 105 C24.79 105 12.58 105 0 105 C0 70.35 0 35.7 0 0 Z " fill="#FDFDFD" transform="translate(122,74)"/>
<path d="M0 0 C12.21 0 24.42 0 37 0 C37.99 2.97 38.98 5.94 40 9 C43.09189157 13.5124904 45.76129284 16.31612984 51 18 C57.66470162 18.61206443 64.45763753 19.22275235 70 15 C75.19666797 10.09080728 76.95089912 7.17185309 79 0 C91.21 0 103.42 0 116 0 C116 33.99 116 67.98 116 103 C109.07 103 102.14 103 95 103 C95 91.12 95 79.24 95 67 C88.4 67 81.8 67 75 67 C74.01 65.02 73.02 63.04 72 61 C68.60307838 57.17846318 66.50170639 55.25602258 61.328125 54.7265625 C55.42556263 54.5318079 51.19535394 54.60045771 46.40234375 58.22265625 C44.36240866 60.64965431 44.36240866 60.64965431 42 67 C35.4 67 28.8 67 22 67 C22 78.88 22 90.76 22 103 C14.74 103 7.48 103 0 103 C0 69.01 0 35.02 0 0 Z " fill="#FDFDFD" transform="translate(122,183)"/>
<path d="M0 0 C0.33 0 0.66 0 1 0 C1 55.44 1 110.88 1 168 C-54.44 168 -109.88 168 -167 168 C-167 167.67 -167 167.34 -167 167 C-166.030625 166.89042969 -165.06125 166.78085937 -164.0625 166.66796875 C-144.86858774 164.4307751 -127.29921553 160.26512671 -109.25 153.375 C-108.48703613 153.08592773 -107.72407227 152.79685547 -106.93798828 152.49902344 C-103.90037521 151.3096501 -101.35055767 150.26473148 -98.734375 148.2890625 C-97 147 -97 147 -93 147 C-93 146.34 -93 145.68 -93 145 C-92.18660156 144.57332031 -91.37320313 144.14664063 -90.53515625 143.70703125 C-80.2468985 138.09420222 -71.12262112 131.33611283 -62 124 C-61.43095947 123.54351074 -60.86191895 123.08702148 -60.27563477 122.61669922 C-57.57515292 120.41353218 -55.1300217 118.21028921 -52.9375 115.5 C-50.43943117 112.49198947 -47.76653585 109.76653585 -45 107 C-35.62001964 97.38815495 -28.13812909 85.92089282 -22 74 C-21.34 74 -20.68 74 -20 74 C-19.82911865 73.46342773 -19.6582373 72.92685547 -19.48217773 72.37402344 C-17.58994625 66.55235203 -15.39003982 60.90920279 -13.0625 55.25 C-5.92942519 37.56308425 -0.77905677 19.16479652 0 0 Z " fill="#FCFCFC" transform="translate(359,192)"/>
<path d="M0 0 C0.33 0 0.66 0 1 0 C1.10957031 0.969375 1.21914063 1.93875 1.33203125 2.9375 C4.04664352 26.27963243 9.8180226 47.77081674 19.75 69.1484375 C21 72 21 72 21 74 C21.66 74 22.32 74 23 74 C23.42667969 74.81339844 23.85335938 75.62679687 24.29296875 76.46484375 C34.39855175 94.9882732 48.34935069 112.87462994 65 126 C65.87785156 126.69222656 66.75570312 127.38445312 67.66015625 128.09765625 C73.14563916 132.31114312 78.75569954 136.24621569 84.5625 140 C85.15820801 140.38591309 85.75391602 140.77182617 86.36767578 141.16943359 C88.8997467 142.7800898 91.13943995 144.04647998 94 145 C94 145.66 94 146.32 94 147 C94.83660156 147.26167969 95.67320313 147.52335938 96.53515625 147.79296875 C99.58967247 148.85705614 102.5077371 150.07327936 105.45092773 151.41064453 C124.66672687 160.13414975 144.93150866 165.32738695 166 167 C166 167.33 166 167.66 166 168 C111.22 168 56.44 168 0 168 C0 112.56 0 57.12 0 0 Z " fill="#FCFCFC" transform="translate(0,192)"/>
<path d="M0 0 C55.44 0 110.88 0 168 0 C168 54.78 168 109.56 168 166 C167.67 166 167.34 166 167 166 C166.90295776 165.1495813 166.90295776 165.1495813 166.80395508 164.28198242 C162.29918531 125.8503028 148.75381463 90.12059467 122.1484375 61.3359375 C120.22629044 59.24603943 118.39076228 57.10909792 116.5625 54.9375 C105.11507857 41.85849206 89.55159003 30.77579501 74 23 C74 22.34 74 21.68 74 21 C73.071875 20.773125 72.14375 20.54625 71.1875 20.3125 C67.98580577 19.40046359 65.07424446 18.16488297 62.0625 16.75 C42.23781465 7.56889572 21.82047548 2.47017388 0 1 C0 0.67 0 0.34 0 0 Z " fill="#FCFCFC" transform="translate(192,0)"/>
<path d="M0 0 C54.78 0 109.56 0 166 0 C166 0.33 166 0.66 166 1 C165.44876465 1.05945801 164.8975293 1.11891602 164.32958984 1.18017578 C122.83166343 5.82527453 79.31814251 22.45802197 51.5 55 C49.59589399 57.22744476 47.67069857 59.32345899 45.578125 61.37890625 C38.76685618 68.30369622 33.19083899 76.47890498 27.9375 84.625 C27.55561523 85.21659912 27.17373047 85.80819824 26.78027344 86.41772461 C25.18878942 88.93295496 23.94571365 91.16285904 23 94 C22.34 94 21.68 94 21 94 C20.73832031 94.83660156 20.47664063 95.67320313 20.20703125 96.53515625 C19.14294386 99.58967247 17.92672064 102.5077371 16.58935547 105.45092773 C7.86585025 124.66672687 2.67261305 144.93150866 1 166 C0.67 166 0.34 166 0 166 C0 111.22 0 56.44 0 0 Z " fill="#FDFDFD" transform="translate(0,0)"/>
<path d="M0 0 C47.52 0 95.04 0 144 0 C144 79.2 144 158.4 144 240 C96.48 240 48.96 240 0 240 C0 160.8 0 81.6 0 0 Z M7 7 C7 81.58 7 156.16 7 233 C49.9 233 92.8 233 137 233 C137 158.42 137 83.84 137 7 C94.1 7 51.2 7 7 7 Z " fill="#F7F7F7" transform="translate(108,60)"/>
<path d="M0 0 C22.11 0 44.22 0 67 0 C67 10.56 67 21.12 67 32 C44.89 32 22.78 32 0 32 C0 21.44 0 10.88 0 0 Z " fill="#FDFDFD" transform="translate(147,254)"/>
<path d="M0 0 C22.11 0 44.22 0 67 0 C67 10.56 67 21.12 67 32 C44.89 32 22.78 32 0 32 C0 21.44 0 10.88 0 0 Z " fill="#FDFDFD" transform="translate(147,74)"/>
<path d="M0 0 C5.96520501 2.12052138 10.16148024 5.30646701 13.19140625 10.89453125 C15.32767005 16.45707323 14.29090657 21.78798847 12.046875 27.17578125 C9.81546632 31.06409413 6.51336538 33.1636665 2.625 35.3125 C-3.94334445 37.03278069 -9.10716738 36.33556564 -15 33 C-19.92179021 28.07820979 -21.66606764 23.95768661 -22.4375 17.125 C-22.2869496 12.21329317 -20.22909388 8.6226899 -17 5 C-14.7217375 3.30352556 -12.59523639 2.22416811 -10 1 C-6.72923324 -0.63538338 -3.53334395 -0.51854536 0 0 Z " fill="#F8F8F8" transform="translate(184,163)"/>
<path d="M0 0 C4.35872737 2.46001306 7.69008063 5.23969576 9.625 9.9375 C10.12 13.4025 10.12 13.4025 10.625 16.9375 C22.835 16.9375 35.045 16.9375 47.625 16.9375 C46.14 17.4325 46.14 17.4325 44.625 17.9375 C44.625 18.5975 44.625 19.2575 44.625 19.9375 C46.11 20.4325 46.11 20.4325 47.625 20.9375 C35.415 20.9375 23.205 20.9375 10.625 20.9375 C9.635 25.3925 9.635 25.3925 8.625 29.9375 C6.85546875 32.49609375 6.85546875 32.49609375 4.8125 34.375 C3.81283203 35.33212891 3.81283203 35.33212891 2.79296875 36.30859375 C-3.31877789 40.90066284 -10.02051109 40.64658546 -17.375 39.9375 C-22.72126404 38.43177858 -25.92992562 34.48525688 -29.2109375 30.23046875 C-30.375 27.9375 -30.375 27.9375 -31.375 20.9375 C-43.585 20.9375 -55.795 20.9375 -68.375 20.9375 C-68.375 20.6075 -68.375 20.2775 -68.375 19.9375 C-56.495 19.9375 -44.615 19.9375 -32.375 19.9375 C-32.375 19.2775 -32.375 18.6175 -32.375 17.9375 C-44.255 17.9375 -56.135 17.9375 -68.375 17.9375 C-68.375 17.6075 -68.375 17.2775 -68.375 16.9375 C-56.165 16.9375 -43.955 16.9375 -31.375 16.9375 C-30.715 13.9675 -30.055 10.9975 -29.375 7.9375 C-22.65856251 -2.5322408 -11.15451213 -5.01289087 0 0 Z M-24.75 7.4375 C-25.28625 8.2625 -25.8225 9.0875 -26.375 9.9375 C-26.99375 10.8346875 -26.99375 10.8346875 -27.625 11.75 C-29.54935555 17.36270369 -28.59216966 22.78398664 -26.3515625 28.11328125 C-24.22594682 32.08393134 -21.60168965 34.36504483 -17.5625 36.25 C-10.82684489 37.70278836 -6.12537162 37.48550179 -0.1328125 34.13671875 C4.38522108 31.05441584 6.39595296 27.16094992 7.625 21.9375 C8.27882988 16.14643536 7.66514604 12.58239136 4.3046875 7.76953125 C0.39633009 3.50669491 -4.61480024 0.73032223 -10.4375 0.375 C-16.37367881 1.22302554 -20.60128509 3.07043168 -24.75 7.4375 Z " fill="#212121" transform="translate(190.375,162.0625)"/>
<path d="M0 0 C1.010625 -0.00773438 2.02125 -0.01546875 3.0625 -0.0234375 C8.68977937 0.7398371 12.38804936 4.16105759 16 8.375 C16.495 10.85 16.495 10.85 17 13.375 C23.6 13.375 30.2 13.375 37 13.375 C37 13.705 37 14.035 37 14.375 C28.585 14.87 28.585 14.87 20 15.375 C26.93 15.87 26.93 15.87 34 16.375 C34 16.705 34 17.035 34 17.375 C11.89 17.375 -10.22 17.375 -33 17.375 C-33 17.045 -33 16.715 -33 16.375 C-26.73 16.045 -20.46 15.715 -14 15.375 C-14.66 15.045 -15.32 14.715 -16 14.375 C-15.54572404 9.49153339 -14.42657167 6.89675421 -11 3.375 C-7.23281062 0.67951105 -4.61659947 -0.03533112 0 0 Z " fill="#2F2F2F" transform="translate(180,236.625)"/>
<path d="M0 0 C22.11 0 44.22 0 67 0 C67 0.33 67 0.66 67 1 C51.82 1.33 36.64 1.66 21 2 C33.87 2.495 33.87 2.495 47 3 C47.495 3.99 47.495 3.99 48 5 C48.66 4.67 49.32 4.34 50 4 C48.73189061 9.91784383 45.7151965 12.58593084 41 16 C36.81142223 18.09428889 31.56140874 17.41793012 27 17 C21.53984591 14.56243121 19.50755899 11.20800712 17 6 C17 5.34 17 4.68 17 4 C10.4 4 3.8 4 -3 4 C-2.01 3.67 -1.02 3.34 0 3 C0 2.01 0 1.02 0 0 Z " fill="#373737" transform="translate(147,106)"/>
<path d="M0 0 C3.02124637 1.25321923 5.69021073 2.66717044 8 5 C8.33 6.65 8.66 8.3 9 10 C0.75 10 -7.5 10 -16 10 C-14.90260429 4.51302144 -14.35725308 3.97568503 -10 1 C-6.74320988 -0.62839506 -3.51855114 -0.54651143 0 0 Z " fill="#F3F3F3" transform="translate(184,240)"/>
<path d="M0 0 C8.25 0 16.5 0 25 0 C22.87969498 5.30076254 21.03294222 7.48352889 16 10 C11.75866358 10.58501192 9.36207663 10.86110946 5.6953125 8.54296875 C3.6104017 6.78081105 1.71290004 5.12745829 0 3 C0 2.01 0 1.02 0 0 Z " fill="#F8F8F8" transform="translate(168,110)"/>
<path d="M0 0 C0.66 0.33 1.32 0.66 2 1 C1.67 1.33 1.34 1.66 1 2 C1.66 2.66 2.32 3.32 3 4 C1.9275 4.515625 0.855 5.03125 -0.25 5.5625 C-4.31157985 7.91047212 -6.49950685 10.54371614 -8 15 C-8.63928199 19.72155412 -7.9289961 24.35501948 -7 29 C-8.32 28.67 -9.64 28.34 -11 28 C-11.495 25.03 -11.495 25.03 -12 22 C-24.21 22 -36.42 22 -49 22 C-49 21.67 -49 21.34 -49 21 C-37.12 21 -25.24 21 -13 21 C-13 20.34 -13 19.68 -13 19 C-24.88 19 -36.76 19 -49 19 C-49 18.67 -49 18.34 -49 18 C-36.79 18 -24.58 18 -12 18 C-11.34 15.03 -10.68 12.06 -10 9 C-7.22340106 4.94766641 -4.49606508 2.06575963 0 0 Z " fill="#373737" transform="translate(171,161)"/>
<path d="M0 0 C4.04320248 2.07433867 7.03581852 4.54178827 10 8 C10.8125 10.8125 10.8125 10.8125 11 13 C7.52964175 15.14517925 4.95214122 15.17412457 0.921875 14.9765625 C-0.23828125 14.925 -1.3984375 14.8734375 -2.59375 14.8203125 C-3.8003125 14.75585938 -5.006875 14.69140625 -6.25 14.625 C-8.08304688 14.53992188 -8.08304688 14.53992188 -9.953125 14.453125 C-12.9693502 14.31173944 -15.9847323 14.16033265 -19 14 C-18.67 13.01 -18.34 12.02 -18 11 C-18 11.66 -18 12.32 -18 13 C-9.75 13 -1.5 13 7 13 C5.06796737 8.16991843 4.44238504 6.99249862 -0.0078125 4.73046875 C-4.09866276 3.23049032 -7.8926414 3.08338467 -11.921875 4.8359375 C-13.65577357 5.82144395 -15.33074867 6.90856644 -17 8 C-18.32646156 8.6802367 -19.65608877 9.35492261 -21 10 C-19.88865835 5.67811582 -17.88887679 3.36218265 -14.265625 0.94921875 C-9.73215505 -0.95014883 -4.79038159 -0.78316865 0 0 Z " fill="#1D1D1D" transform="translate(186,237)"/>
<path d="M0 0 C5.94 0 11.88 0 18 0 C18 11.55 18 23.1 18 35 C16.515 35.495 16.515 35.495 15 36 C15 24.78 15 13.56 15 2 C10.38 2 5.76 2 1 2 C0.67 1.34 0.34 0.68 0 0 Z " fill="#020202" transform="translate(199,251)"/>
<path d="M0 0 C7.18505864 0.01033821 12.77022634 1.29234971 18.65234375 5.56640625 C20.71324378 7.81297295 22.09436167 9.91783672 23.65234375 12.56640625 C23.32234375 13.22640625 22.99234375 13.88640625 22.65234375 14.56640625 C21.66234375 14.56640625 20.67234375 14.56640625 19.65234375 14.56640625 C19.09546875 13.65890625 18.53859375 12.75140625 17.96484375 11.81640625 C15.03745603 7.70223972 12.51999035 5.8877331 7.65234375 4.56640625 C3.29534687 4.25697463 -0.98864683 4.32719232 -5.34765625 4.56640625 C-3.77815971 1.9609384 -3.02123677 0.72891736 0 0 Z " fill="#161616" transform="translate(176.34765625,159.43359375)"/>
<path d="M0 0 C14.85 0 29.7 0 45 0 C45 0.66 45 1.32 45 2 C43.87980469 2.04898438 42.75960937 2.09796875 41.60546875 2.1484375 C40.13278797 2.22347856 38.66013293 2.29902582 37.1875 2.375 C36.44951172 2.4059375 35.71152344 2.436875 34.95117188 2.46875 C31.18106885 2.67346148 29.20349259 2.86433827 26 5 C26 4.01 26 3.02 26 2 C17.09 2 8.18 2 -1 2 C-0.67 1.34 -0.34 0.68 0 0 Z " fill="#010101" transform="translate(168,107)"/>
<path d="M0 0 C2.475 0.495 2.475 0.495 5 1 C5 1.66 5 2.32 5 3 C5.99 3.33 6.98 3.66 8 4 C8.99 5.485 8.99 5.485 10 7 C15.37265857 9.47968857 21.17684832 9.60626377 27 10 C26.67 10.99 26.34 11.98 26 13 C11.83909181 13.76660556 11.83909181 13.76660556 6 9 C0 2.10267857 0 2.10267857 0 0 Z " fill="#232323" transform="translate(160,189)"/>
<path d="M0 0 C0.33 1.32 0.66 2.64 1 4 C1.66 4.66 2.32 5.32 3 6 C1.92173635 7.27513763 0.83714481 8.54492569 -0.25 9.8125 C-0.85328125 10.52019531 -1.4565625 11.22789062 -2.078125 11.95703125 C-3.93811214 13.9342127 -5.73103544 15.51392197 -8 17 C-8.66 17 -9.32 17 -10 17 C-10 16.34 -10 15.68 -10 15 C-10.99 14.67 -11.98 14.34 -13 14 C-7.25 11 -7.25 11 -5 11 C-4.67 10.01 -4.34 9.02 -4 8 C-3.34 8 -2.68 8 -2 8 C-1.34 5.36 -0.68 2.72 0 0 Z " fill="#272727" transform="translate(197,184)"/>
<path d="M0 0 C0.33 0.99 0.66 1.98 1 3 C-6.18276929 9.08973918 -6.18276929 9.08973918 -13.02734375 9.23046875 C-15 9 -15 9 -18 7 C-16.40035599 5.40035599 -14.44279514 5.45499735 -12.25 5.0625 C-5.50871455 3.81848386 -5.50871455 3.81848386 0 0 Z " fill="#0A0A0A" transform="translate(193,114)"/>
<path d="M0 0 C0.66 0.33 1.32 0.66 2 1 C1.67 1.33 1.34 1.66 1 2 C1.66 2.66 2.32 3.32 3 4 C1.9275 4.556875 0.855 5.11375 -0.25 5.6875 C-3.64916555 7.6111657 -5.75395721 9.76569838 -8 13 C-8 12.34 -8 11.68 -8 11 C-8.66 11 -9.32 11 -10 11 C-8.67367286 5.36310966 -4.53368235 3.06814317 0 0 Z " fill="#262626" transform="translate(171,161)"/>
<path d="M0 0 C8.91 0 17.82 0 27 0 C27.33 0.66 27.66 1.32 28 2 C28.66 1.67 29.32 1.34 30 1 C29.34 2.98 28.68 4.96 28 7 C27.01 7 26.02 7 25 7 C23.02 7.99 23.02 7.99 21 9 C22.65 6.36 24.3 3.72 26 1 C17.75 1 9.5 1 1 1 C0.67 1.66 0.34 2.32 0 3 C0 2.01 0 1.02 0 0 Z " fill="#303030" transform="translate(167,109)"/>
<path d="M0 0 C1.47919922 0.06960937 1.47919922 0.06960937 2.98828125 0.140625 C3.98214844 0.17671875 4.97601563 0.2128125 6 0.25 C7.13888672 0.31960937 7.13888672 0.31960937 8.30078125 0.390625 C8.63078125 1.710625 8.96078125 3.030625 9.30078125 4.390625 C4.35078125 4.390625 -0.59921875 4.390625 -5.69921875 4.390625 C-2.69921875 0.390625 -2.69921875 0.390625 0 0 Z " fill="#0C0C0C" transform="translate(176.69921875,159.609375)"/>
<path d="M0 0 C4.38462134 0.50109958 6.8000997 1.98295115 10 5 C10 5.66 10 6.32 10 7 C10.66 7.66 11.32 8.32 12 9 C8.02992844 8.72301826 6.27610788 8.23315777 3.1875 5.625 C1 3 1 3 0 0 Z " fill="#262626" transform="translate(166,114)"/>
<path d="M0 0 C4.62 0 9.24 0 14 0 C13.67 0.99 13.34 1.98 13 3 C8.71 3 4.42 3 0 3 C0 2.01 0 1.02 0 0 Z " fill="#0B0B0B" transform="translate(173,199)"/>
<path d="M0 0 C1.29611206 0.0314209 1.29611206 0.0314209 2.6184082 0.06347656 C3.55620117 0.07636719 4.49399414 0.08925781 5.46020508 0.10253906 C6.43666992 0.13605469 7.41313477 0.16957031 8.41918945 0.20410156 C9.40725586 0.22214844 10.39532227 0.24019531 11.41333008 0.25878906 C13.85375788 0.30594709 16.29223715 0.37174114 18.73168945 0.45410156 C18.73168945 0.78410156 18.73168945 1.11410156 18.73168945 1.45410156 C10.81168945 2.44410156 2.89168945 3.43410156 -5.26831055 4.45410156 C-2.26831055 0.45410156 -2.26831055 0.45410156 0 0 Z " fill="#EDEDED" transform="translate(147.268310546875,-0.4541015625)"/>
<path d="M0 0 C5.61 0 11.22 0 17 0 C16.01 0.495 16.01 0.495 15 1 C15 1.66 15 2.32 15 3 C11.7 3 8.4 3 5 3 C5 2.34 5 1.68 5 1 C3.35 1 1.7 1 0 1 C0 0.67 0 0.34 0 0 Z " fill="#F7F7F7" transform="translate(122,74)"/>
<path d="M0 0 C-2 2 -2 2 -3.87939453 2.22705078 C-4.62302246 2.21657715 -5.36665039 2.20610352 -6.1328125 2.1953125 C-7.34130859 2.18564453 -7.34130859 2.18564453 -8.57421875 2.17578125 C-9.41597656 2.15902344 -10.25773438 2.14226562 -11.125 2.125 C-12.39923828 2.11146484 -12.39923828 2.11146484 -13.69921875 2.09765625 C-15.79959884 2.07405647 -17.89983444 2.03818483 -20 2 C-20 1.67 -20 1.34 -20 1 C-17.41765641 0.63667026 -14.83460218 0.28405133 -12.25 -0.0625 C-11.52039063 -0.16626953 -10.79078125 -0.27003906 -10.0390625 -0.37695312 C-6.3892704 -0.85806208 -3.52327086 -1.04532842 0 0 Z " fill="#D3D3D3" transform="translate(212,358)"/>
<path d="M0 0 C1.875 1.5625 1.875 1.5625 3 3 C2.67 3.66 2.34 4.32 2 5 C-1.91211733 3.84414715 -4.8745041 2.64465038 -8 0 C-5.06317146 -1.46841427 -3.13175678 -0.76696084 0 0 Z " fill="#2B2B2B" transform="translate(102,338)"/>
<path d="M0 0 C0.33 0 0.66 0 1 0 C1.08089542 2.77141717 1.14044062 5.54047819 1.1875 8.3125 C1.21263672 9.09818359 1.23777344 9.88386719 1.26367188 10.69335938 C1.27333984 11.45068359 1.28300781 12.20800781 1.29296875 12.98828125 C1.3086792 13.68477783 1.32438965 14.38127441 1.34057617 15.09887695 C1 17 1 17 -2 20 C-1.34 13.4 -0.68 6.8 0 0 Z " fill="#D1D1D1" transform="translate(359,192)"/>
<path d="M0 0 C0.66 0.33 1.32 0.66 2 1 C-0.51407619 5.28324091 -2.12314139 7.64531705 -7 9 C-5.64978174 4.58110387 -3.73884332 2.65654657 0 0 Z " fill="#2A2A2A" transform="translate(172,238)"/>
<path d="M0 0 C-2.15167069 2.47442129 -3.71787754 3.56238367 -7 4 C-7.33 3.67 -7.66 3.34 -8 3 C-8.66 3.66 -9.32 4.32 -10 5 C-10.33 4.01 -10.66 3.02 -11 2 C-9.73392393 1.46770674 -8.46189588 0.94955456 -7.1875 0.4375 C-6.47980469 0.14746094 -5.77210937 -0.14257812 -5.04296875 -0.44140625 C-3 -1 -3 -1 0 0 Z " fill="#1E1E1E" transform="translate(125,10)"/>
<path d="M0 0 C-1.1875 1.5 -1.1875 1.5 -3 3 C-5.6875 3.1875 -5.6875 3.1875 -8 3 C-8 2.67 -8 2.34 -8 2 C-9.65 1.67 -11.3 1.34 -13 1 C-13 0.67 -13 0.34 -13 0 C-11.39679026 -0.19551338 -9.79237014 -0.38111983 -8.1875 -0.5625 C-7.29417969 -0.66691406 -6.40085938 -0.77132812 -5.48046875 -0.87890625 C-3 -1 -3 -1 0 0 Z " fill="#DADADA" transform="translate(189,202)"/>
<path d="M0 0 C0.99 0 1.98 0 3 0 C2.67 2.31 2.34 4.62 2 7 C1.01 7.33 0.02 7.66 -1 8 C-0.67 5.36 -0.34 2.72 0 0 Z " fill="#0C0C0C" transform="translate(160,172)"/>
<path d="M0 0 C5.57142857 5.14285714 5.57142857 5.14285714 6 9 C4.68 9 3.36 9 2 9 C1.34 6.03 0.68 3.06 0 0 Z " fill="#232323" transform="translate(194,165)"/>
<path d="M0 0 C0.33 0.99 0.66 1.98 1 3 C-0.28965176 4.37562854 -1.62689293 5.70766393 -3 7 C-3.66 7 -4.32 7 -5 7 C-5 6.34 -5 5.68 -5 5 C-5.66 4.67 -6.32 4.34 -7 4 C-5.824375 3.566875 -5.824375 3.566875 -4.625 3.125 C-1.90328368 2.15087746 -1.90328368 2.15087746 0 0 Z " fill="#121212" transform="translate(193,114)"/>
<path d="M0 0 C0.66 0.66 1.32 1.32 2 2 C1.8125 4.0625 1.8125 4.0625 1 6 C0.01 6.33 -0.98 6.66 -2 7 C-2.33 5.35 -2.66 3.7 -3 2 C-2.01 1.34 -1.02 0.68 0 0 Z " fill="#F0F0F0" transform="translate(166,183)"/>
<path d="M0 0 C0.99 0.33 1.98 0.66 3 1 C3.33 2.65 3.66 4.3 4 6 C3.34 6 2.68 6 2 6 C1.67 6.66 1.34 7.32 1 8 C0.67 5.36 0.34 2.72 0 0 Z " fill="#090909" transform="translate(197,173)"/>
<path d="M0 0 C0.99 0.33 1.98 0.66 3 1 C2.67 1.99 2.34 2.98 2 4 C-0.5625 5.1875 -0.5625 5.1875 -3 6 C-3.33 5.01 -3.66 4.02 -4 3 C-2.68 3 -1.36 3 0 3 C0 2.01 0 1.02 0 0 Z " fill="#181818" transform="translate(259,337)"/>
<path d="M0 0 C0.66 0.33 1.32 0.66 2 1 C1.67 2.98 1.34 4.96 1 7 C0.01 7 -0.98 7 -2 7 C-1.125 2.25 -1.125 2.25 0 0 Z " fill="#0A0A0A" transform="translate(347,238)"/>
</svg>
