<svg width="244" height="233" viewBox="0 0 244 233" fill="none" xmlns="http://www.w3.org/2000/svg">
<path fill-rule="evenodd" clip-rule="evenodd" d="M116.368 0.00387977C160.071 -0.306404 194.089 17.9945 218.421 54.9067C219.972 57.1566 221.055 59.5596 221.669 62.1162C219.853 62.7362 218.138 63.5681 216.526 64.6118C215.984 64.9817 215.443 64.9817 214.902 64.6118C190.626 23.7064 155.074 5.22059 108.247 9.15435C73.562 14.7045 47.3943 32.9131 29.7449 63.7799C29.3838 63.9646 29.0232 64.1498 28.6621 64.3345C26.1655 63.578 23.8195 62.561 21.624 61.2843C42.7605 24.0184 74.3422 3.59164 116.368 0.00387977Z" fill="#040004"/>
<path fill-rule="evenodd" clip-rule="evenodd" d="M117.451 29.951C135.502 29.3172 147.142 37.8206 152.371 55.4614C154.712 73.3159 147.944 85.9785 132.068 93.4497C116.998 97.9152 104.637 93.9405 94.9829 81.5264C85.8583 65.3367 87.7531 50.6405 100.668 37.4378C105.661 33.3981 111.256 30.9025 117.451 29.951Z" fill="#050207"/>
<path fill-rule="evenodd" clip-rule="evenodd" d="M116.91 38.2696C115.819 39.0592 114.556 39.4289 113.12 39.3787C114.211 38.5891 115.474 38.2194 116.91 38.2696Z" fill="#3F708C"/>
<path fill-rule="evenodd" clip-rule="evenodd" d="M112.578 39.3787C112.322 40.1586 111.781 40.5283 110.954 40.4878C111.21 39.7079 111.752 39.3382 112.578 39.3787Z" fill="#34708B"/>
<path fill-rule="evenodd" clip-rule="evenodd" d="M116.91 38.2696C120.783 37.6289 124.753 37.5365 128.82 37.9922C130.613 39.213 132.598 39.9524 134.775 40.2105C135.497 41.368 136.49 42.1998 137.753 42.7061C138.063 44.4846 139.055 45.4091 140.731 45.479C140.8 46.4306 140.981 47.3551 141.272 48.2519C137.378 43.5252 132.506 40.3826 126.654 38.8241C123.438 38.3179 120.19 38.1331 116.91 38.2696Z" fill="#101E2B"/>
<path fill-rule="evenodd" clip-rule="evenodd" d="M126.654 38.8241C132.506 40.3826 137.378 43.5252 141.272 48.2519C141.272 48.6218 141.272 48.9912 141.272 49.3611C139.348 48.3329 137.363 47.4085 135.317 46.5883C134.595 45.4791 133.873 44.37 133.151 43.2608C132.491 43.684 131.95 44.2385 131.527 44.9245C129.91 43.6424 130.091 42.7178 132.068 42.1517C131.978 41.9668 131.888 41.7819 131.798 41.5971C129.873 40.9963 128.159 40.0718 126.654 38.8241Z" fill="#4FBFE3"/>
<path fill-rule="evenodd" clip-rule="evenodd" d="M116.91 38.2696C120.19 38.1331 123.438 38.3179 126.654 38.8241C128.159 40.0718 129.873 40.9963 131.798 41.5971C131.888 41.7819 131.978 41.9668 132.068 42.1517C130.091 42.7178 129.91 43.6424 131.527 44.9245C131.95 44.2385 132.491 43.684 133.151 43.2608C133.873 44.37 134.595 45.4791 135.317 46.5883C137.363 47.4085 139.348 48.3329 141.272 49.3611C142.907 53.8449 143.991 58.5587 144.521 63.5027C144.037 65.5968 143.856 67.723 143.979 69.8803C143.412 71.9677 142.69 74.0014 141.814 75.9806C140.556 77.4369 139.292 78.916 138.024 80.4172C137.079 81.3888 135.996 82.1281 134.776 82.6355C132.403 83.2045 130.237 84.2211 128.279 85.6857C123.95 86.5347 119.619 86.6274 115.285 85.963C114.707 85.445 113.986 85.2598 113.12 85.4084C113.238 84.7568 113.058 84.2022 112.578 83.7447C111.526 83.3626 110.443 83.0853 109.33 82.9128C106.727 81.4382 104.381 79.6824 102.292 77.6444C101.44 76.8214 100.718 75.8969 100.126 74.8715C99.9461 74.1322 99.7653 73.3924 99.585 72.6532C99.879 72.6199 100.059 72.4352 100.126 72.0986C98.6414 69.7511 97.9191 67.1629 97.9608 64.3346C98.1157 60.1553 98.6571 56.0886 99.585 52.1339C101.751 46.5882 105.54 42.7061 110.954 40.4878C111.781 40.5283 112.322 40.1586 112.578 39.3787C112.759 39.3787 112.939 39.3787 113.12 39.3787C114.556 39.4289 115.819 39.0592 116.91 38.2696Z" fill="#4AC6F4"/>
<path fill-rule="evenodd" clip-rule="evenodd" d="M99.585 52.1339C98.6571 56.0886 98.1157 60.1553 97.9608 64.3346C97.9191 67.1629 98.6414 69.7511 100.126 72.0986C100.059 72.4352 99.879 72.6199 99.585 72.6532C99.1438 72.138 98.6928 71.5835 98.2315 70.9895C98.0117 69.1916 97.5607 67.5279 96.878 65.9983C96.2311 60.9495 97.133 56.3276 99.585 52.1339Z" fill="#4FA3C1"/>
<path fill-rule="evenodd" clip-rule="evenodd" d="M141.272 49.3611C143.153 51.5534 144.326 54.1416 144.791 57.1252C145.152 60.6373 145.152 64.15 144.791 67.6621C144.678 68.5262 144.407 69.2653 143.979 69.8803C143.856 67.723 144.037 65.5968 144.521 63.5027C143.991 58.5587 142.907 53.8449 141.272 49.3611Z" fill="#57B3D3"/>
<path fill-rule="evenodd" clip-rule="evenodd" d="M225.729 67.662C239.722 68.5282 245.678 76.015 243.595 90.1222C239.315 100.355 231.915 103.867 221.398 100.659C220.081 99.7541 218.728 98.9222 217.338 98.1636C188.922 112.072 159.055 120.576 127.737 123.674C142.942 147.247 158.282 170.723 173.756 194.105C177.722 193.862 181.692 194.139 185.666 194.937C195.996 200.429 198.793 208.656 194.058 219.615C188.022 228.268 180.353 230.209 171.049 225.438C164.587 220.751 162.151 214.373 163.74 206.306C164.402 204.023 165.485 201.99 166.988 200.205C167.349 199.651 167.349 199.096 166.988 198.541C151.551 175.044 136.122 151.567 120.699 128.111C105.272 151.777 89.9317 175.531 74.6806 199.373C78.995 204.444 80.1676 210.267 78.1997 216.842C73.463 226.658 65.9734 229.893 55.7318 226.547C45.4551 219.84 43.3799 211.06 49.5058 200.205C54.2592 194.804 60.1241 192.955 67.1011 194.659C67.9289 194.643 68.5607 194.273 68.996 193.55C83.7776 170.183 98.666 146.891 113.661 123.674C83.0408 120.94 53.896 112.807 26.2259 99.2727C18.186 103.689 10.787 102.765 4.02872 96.4998C-2.3333 86.7826 -1.16032 78.1867 7.54778 70.7122C15.7288 66.5151 23.0377 67.7163 29.4742 74.3169C31.0324 76.2851 32.1151 78.5034 32.7226 80.9718C33.114 84.9253 32.9337 88.8073 32.1812 92.6178C60.017 106.529 89.4325 114.109 120.428 115.355C143.594 114.497 166.061 109.968 187.832 101.768C195.036 98.8379 202.255 95.8804 209.488 92.8951C210.662 92.4454 211.565 91.7056 212.195 90.6768C209.866 78.7113 214.377 71.0399 225.729 67.662Z" fill="#050005"/>
<path fill-rule="evenodd" clip-rule="evenodd" d="M96.878 65.9983C97.5607 67.5279 98.0117 69.1916 98.2315 70.9895C98.6928 71.5835 99.1438 72.138 99.585 72.6532C99.7653 73.3924 99.9461 74.1322 100.126 74.8715C98.9819 74.0912 98.1697 72.9819 97.69 71.5439C97.2428 69.7177 96.9722 67.8695 96.878 65.9983Z" fill="#0B2335"/>
<path fill-rule="evenodd" clip-rule="evenodd" d="M225.73 75.9806C228.799 75.0833 231.776 75.4526 234.663 77.0897C234.992 78.007 235.262 78.9315 235.475 79.8626C234.933 79.4927 234.392 79.1234 233.85 78.7535C231.747 76.2778 229.04 75.3539 225.73 75.9806Z" fill="#0C1926"/>
<path fill-rule="evenodd" clip-rule="evenodd" d="M22.1653 78.7535C23.2481 79.1234 23.97 79.8627 24.3309 80.9718C24.4205 83.1979 24.3303 85.4162 24.0602 87.6267C23.1566 88.5523 22.7055 89.6614 22.7067 90.9542C21.1467 91.4416 19.8834 92.3661 18.917 93.727C18.7365 93.727 18.556 93.727 18.3756 93.727C16.3735 93.6982 14.3883 93.513 12.4203 93.1724C12.0593 93.1724 11.8789 92.9878 11.8789 92.6179C10.7534 90.9614 9.67057 89.2056 8.6305 87.3494C8.93806 85.2187 9.29901 83.0931 9.71328 80.9718C11.2308 80.1289 12.4037 80.4988 13.2323 82.081C13.9327 81.3301 14.023 80.5903 13.503 79.8627C14.8678 77.4896 16.5823 77.1203 18.6463 78.7535C18.8267 78.3836 19.0072 78.0143 19.1877 77.6444C20.1218 78.179 21.1144 78.5489 22.1653 78.7535Z" fill="#4AC6F4"/>
<path fill-rule="evenodd" clip-rule="evenodd" d="M223.564 92.6179C222.114 90.5731 220.67 88.5401 219.233 86.5175C219.233 85.0385 219.233 83.56 219.233 82.0809C219.594 81.8963 219.955 81.711 220.316 81.5264C221.208 80.7999 222.11 80.0606 223.023 79.3081C224.47 78.7912 225.913 78.6991 227.354 79.0308C227.534 78.8461 227.715 78.6609 227.895 78.4762C227.354 78.2915 226.813 78.1063 226.271 77.9216C230.75 76.7776 232.014 78.256 230.061 82.3582C231.505 83.0975 232.588 84.2066 233.309 85.6857C233.823 85.9535 234.364 86.0456 234.933 85.963C234.933 87.0721 234.933 88.1813 234.933 89.2904C234.133 89.1451 233.412 89.3298 232.768 89.845C232.881 90.17 233.062 90.4472 233.309 90.6768C232.609 90.9486 231.887 91.0412 231.144 90.9541C231.144 91.5087 231.144 92.0633 231.144 92.6179C228.617 92.6179 226.091 92.6179 223.564 92.6179Z" fill="#49C6F4"/>
<path fill-rule="evenodd" clip-rule="evenodd" d="M22.1653 78.7535C21.1144 78.5489 20.1218 78.179 19.1877 77.6444C19.0072 78.0143 18.8267 78.3836 18.6463 78.7535C16.5823 77.1203 14.8678 77.4896 13.503 79.8627C14.023 80.5903 13.9327 81.3301 13.2323 82.081C12.4037 80.4988 11.2308 80.1289 9.71328 80.9718C9.29901 83.0931 8.93806 85.2187 8.6305 87.3494C9.67057 89.2056 10.7534 90.9614 11.8789 92.6179C7.32953 89.5683 6.33696 85.5016 8.90117 80.4173C12.9034 75.2486 17.3248 74.694 22.1653 78.7535Z" fill="#50ACD0"/>
<path fill-rule="evenodd" clip-rule="evenodd" d="M141.814 75.9806C142.03 78.8406 140.767 80.3196 138.024 80.4172C139.292 78.916 140.556 77.4369 141.814 75.9806Z" fill="#0C1E30"/>
<path fill-rule="evenodd" clip-rule="evenodd" d="M220.316 80.4172C220.316 80.7871 220.316 81.1565 220.316 81.5264C219.955 81.711 219.594 81.8963 219.233 82.0809C219.194 81.2341 219.555 80.6795 220.316 80.4172Z" fill="#2D5771"/>
<path fill-rule="evenodd" clip-rule="evenodd" d="M225.73 75.9806C229.04 75.3539 231.747 76.2778 233.85 78.7535C235.331 81.6794 236.053 84.8223 236.016 88.1814C235.686 88.6755 235.505 89.2301 235.474 89.8451C232.138 93.7987 228.169 94.723 223.564 92.6179C226.091 92.6179 228.617 92.6179 231.144 92.6179C231.144 92.0633 231.144 91.5087 231.144 90.9541C231.887 91.0412 232.609 90.9486 233.309 90.6768C233.062 90.4472 232.881 90.17 232.768 89.845C233.412 89.3298 234.133 89.1451 234.933 89.2904C234.933 88.1813 234.933 87.0721 234.933 85.963C234.364 86.0456 233.823 85.9535 233.309 85.6857C232.588 84.2066 231.505 83.0975 230.061 82.3582C232.014 78.256 230.75 76.7776 226.271 77.9216C226.813 78.1063 227.354 78.2915 227.895 78.4762C227.715 78.6609 227.534 78.8461 227.354 79.0308C225.913 78.6991 224.47 78.7912 223.023 79.3081C222.11 80.0606 221.208 80.7999 220.316 81.5264C220.316 81.1565 220.316 80.7871 220.316 80.4172C221.462 78.1578 223.267 76.6788 225.73 75.9806Z" fill="#4FBFE8"/>
<path fill-rule="evenodd" clip-rule="evenodd" d="M102.292 77.6444C104.381 79.6824 106.727 81.4382 109.33 82.9128C110.443 83.0853 111.526 83.3626 112.578 83.7447C113.058 84.2022 113.238 84.7568 113.12 85.4084C113.986 85.2598 114.707 85.445 115.285 85.963C114.564 85.963 113.842 85.963 113.12 85.963C108.574 84.4473 104.965 81.6745 102.292 77.6444Z" fill="#55B5D6"/>
<path fill-rule="evenodd" clip-rule="evenodd" d="M233.85 78.7535C234.392 79.1234 234.933 79.4927 235.475 79.8626C235.984 80.7222 236.345 81.6463 236.558 82.6356C236.727 84.5999 236.546 86.4484 236.016 88.1814C236.053 84.8223 235.331 81.6794 233.85 78.7535Z" fill="#56A9D0"/>
<path fill-rule="evenodd" clip-rule="evenodd" d="M24.3309 80.9718C26.2695 85.2348 25.5477 89.0243 22.1653 92.3406C21.236 93.2052 20.1532 93.6671 18.917 93.727C19.8834 92.3661 21.1467 91.4416 22.7067 90.9542C22.7055 89.6614 23.1566 88.5523 24.0602 87.6267C24.3303 85.4162 24.4205 83.1979 24.3309 80.9718Z" fill="#53A8C7"/>
<path fill-rule="evenodd" clip-rule="evenodd" d="M113.12 85.963C113.842 85.963 114.564 85.963 115.285 85.963C115.827 86.3329 116.368 86.7021 116.91 87.072C115.474 87.1219 114.211 86.7527 113.12 85.963Z" fill="#447F97"/>
<path fill-rule="evenodd" clip-rule="evenodd" d="M134.776 82.6355C129.58 87.1542 123.625 88.6331 116.91 87.072C116.368 86.7021 115.827 86.3329 115.285 85.963C119.619 86.6274 123.95 86.5347 128.279 85.6857C130.237 84.2211 132.403 83.2045 134.776 82.6355Z" fill="#4EA4C8"/>
<path fill-rule="evenodd" clip-rule="evenodd" d="M219.233 86.5175C220.67 88.5401 222.114 90.5731 223.564 92.6179C221.965 91.9041 220.702 90.7949 219.774 89.2903C219.483 88.3936 219.303 87.4692 219.233 86.5175Z" fill="#529DBC"/>
<path fill-rule="evenodd" clip-rule="evenodd" d="M236.558 82.6356C237.266 84.7713 237.266 86.9894 236.557 89.2903C236.188 89.4916 235.826 89.6765 235.474 89.8451C235.505 89.2301 235.686 88.6755 236.016 88.1814C236.546 86.4484 236.727 84.5999 236.558 82.6356Z" fill="#0F2331"/>
<path fill-rule="evenodd" clip-rule="evenodd" d="M219.774 89.2903C220.702 90.7949 221.965 91.9041 223.564 92.6179C228.169 94.723 232.138 93.7987 235.474 89.8451C235.68 91.6708 234.959 92.9646 233.309 93.7271C230.509 94.798 227.622 95.0753 224.647 94.559C223.569 93.5879 222.306 93.0334 220.857 92.8953C220.036 91.8433 219.675 90.6413 219.774 89.2903Z" fill="#0E1824"/>
<path fill-rule="evenodd" clip-rule="evenodd" d="M12.4203 93.1724C14.3883 93.513 16.3735 93.6982 18.3756 93.727C17.6754 94.0919 16.8636 94.2771 15.9396 94.2815C14.5624 94.3725 13.3892 94.0026 12.4203 93.1724Z" fill="#40839D"/>
<path fill-rule="evenodd" clip-rule="evenodd" d="M8.63073 107.037C11.1573 107.591 13.6837 108.146 16.2102 108.701C14.7257 141.215 24.922 169.129 46.799 192.441C47.1601 192.996 47.1601 193.55 46.799 194.105C45.2241 195.683 43.7802 197.346 42.4678 199.096C26.4363 183.646 15.9693 164.79 11.067 142.53C8.50107 130.821 7.68898 118.99 8.63073 107.037Z" fill="#040004"/>
<path fill-rule="evenodd" clip-rule="evenodd" d="M231.685 107.591C232.925 107.449 234.099 107.634 235.204 108.146C237.166 140.064 228.143 168.162 208.134 192.441C205.773 195.229 203.247 197.817 200.554 200.205C199.331 197.934 197.797 195.901 195.953 194.105C218.161 170.335 228.718 141.867 227.624 108.7C229.035 108.355 230.389 107.985 231.685 107.591Z" fill="#040004"/>
<path fill-rule="evenodd" clip-rule="evenodd" d="M175.921 219.615C180.786 220.666 184.756 219.187 187.832 215.179C188.166 215.117 188.437 214.932 188.644 214.624C189.082 212.485 188.992 210.451 188.373 208.524C187.918 207.219 187.196 206.11 186.208 205.196C185.133 203.719 183.69 202.794 181.876 202.423C177.508 201.189 174.17 202.668 171.861 206.86C171.175 209.02 170.905 211.238 171.049 213.515C170.715 213.453 170.444 213.269 170.236 212.96C170.009 210.089 170.46 207.316 171.59 204.642C173.011 204.322 173.372 203.582 172.673 202.423C172.943 202.239 173.214 202.054 173.485 201.869C177.847 201.436 182.178 201.251 186.478 201.314C186.659 201.869 186.839 202.423 187.02 202.978C187.922 202.512 188.012 202.789 187.29 203.81C188.932 206.094 189.654 208.682 189.456 211.574C189.601 214.33 188.878 216.825 187.29 219.061C184.648 220.134 181.941 221.058 179.169 221.834C177.505 221.885 176.422 221.146 175.921 219.615Z" fill="#09101A"/>
<path fill-rule="evenodd" clip-rule="evenodd" d="M68.1837 203.533C67.5833 203.501 67.0419 203.316 66.5595 202.978C66.3792 202.978 66.1984 202.978 66.0181 202.978C62.773 201.383 59.7049 201.753 56.8144 204.087C56.8144 203.348 56.8144 202.608 56.8144 201.869C60.4288 201.287 64.0377 201.287 67.6423 201.869C67.9818 202.378 68.1626 202.932 68.1837 203.533Z" fill="#091323"/>
<path fill-rule="evenodd" clip-rule="evenodd" d="M66.0181 202.978C66.1984 202.978 66.3792 202.978 66.5595 202.978C66.6727 203.767 66.9437 204.506 67.3719 205.196C70.3718 207.101 71.5444 209.874 70.891 213.515C70.6571 214.186 70.296 214.741 69.8082 215.179C69.0865 215.179 68.3643 215.179 67.6426 215.179C67.7525 216.227 67.3919 217.059 66.5598 217.674C61.6716 219.454 57.9717 218.068 55.4612 213.515C55.1001 211.481 55.1001 209.448 55.4612 207.415C56.8207 206.206 57.9939 204.82 58.9803 203.255C61.3197 202.979 63.6652 202.886 66.0181 202.978Z" fill="#49C6F3"/>
<path fill-rule="evenodd" clip-rule="evenodd" d="M66.5595 202.978C67.0419 203.316 67.5833 203.501 68.1837 203.533C71.0905 206.355 71.9927 209.683 70.891 213.515C71.5444 209.874 70.3718 207.101 67.3719 205.196C66.9437 204.506 66.6727 203.767 66.5595 202.978Z" fill="#50A4C3"/>
<path fill-rule="evenodd" clip-rule="evenodd" d="M181.876 202.423C183.69 202.794 185.133 203.719 186.208 205.196C186.3 205.929 186.12 206.577 185.666 207.138C187.745 209.778 187.745 212.459 185.666 215.179C182.989 214.561 180.282 214.468 177.546 214.902C176.748 215.295 176.387 215.942 176.463 216.843C178.871 215.86 181.398 215.583 184.042 216.011C184.495 216.571 184.676 217.219 184.584 217.952C181.12 218.227 177.692 218.227 174.297 217.952C173.31 215.412 173.129 212.824 173.756 210.188C175.693 209.267 175.874 208.065 174.297 206.583C174.873 205.924 175.595 205.647 176.463 205.751C176.463 205.012 176.463 204.272 176.463 203.533C178.172 202.77 179.977 202.4 181.876 202.423Z" fill="#4AC6F4"/>
<path fill-rule="evenodd" clip-rule="evenodd" d="M55.7318 205.196C55.7713 206.043 55.4102 206.598 54.649 206.86C54.6095 206.013 54.9706 205.459 55.7318 205.196Z" fill="#215E73"/>
<path fill-rule="evenodd" clip-rule="evenodd" d="M54.649 206.86C54.649 209.263 54.6493 211.667 54.6493 214.07C53.4155 212.006 53.2352 209.788 54.1079 207.415C54.1079 207.045 54.2879 206.86 54.649 206.86Z" fill="#55A2BC"/>
<path fill-rule="evenodd" clip-rule="evenodd" d="M181.876 202.423C179.977 202.4 178.172 202.77 176.463 203.533C176.463 204.272 176.463 205.012 176.463 205.751C175.595 205.647 174.873 205.924 174.297 206.583C175.874 208.065 175.693 209.267 173.756 210.188C173.129 212.824 173.31 215.412 174.297 217.952C173.006 216.63 171.923 215.151 171.049 213.515C170.905 211.238 171.175 209.02 171.861 206.86C174.17 202.668 177.508 201.189 181.876 202.423Z" fill="#4EB8DE"/>
<path fill-rule="evenodd" clip-rule="evenodd" d="M188.373 208.524C188.992 210.451 189.082 212.485 188.644 214.624C188.437 214.932 188.166 215.117 187.832 215.179C188.297 212.997 188.478 210.779 188.373 208.524Z" fill="#0E313F"/>
<path fill-rule="evenodd" clip-rule="evenodd" d="M186.208 205.196C187.196 206.11 187.918 207.219 188.373 208.524C188.478 210.779 188.297 212.997 187.832 215.179C184.756 219.187 180.786 220.666 175.921 219.615C175.275 219.187 174.734 218.633 174.297 217.952C177.692 218.227 181.12 218.227 184.584 217.952C184.676 217.219 184.495 216.571 184.042 216.011C181.398 215.583 178.871 215.86 176.463 216.843C176.387 215.942 176.748 215.295 177.546 214.902C180.282 214.468 182.989 214.561 185.666 215.179C187.745 212.459 187.745 209.778 185.666 207.138C186.12 206.577 186.3 205.929 186.208 205.196Z" fill="#4EBBDF"/>
<path fill-rule="evenodd" clip-rule="evenodd" d="M84.4258 217.952C108.705 226.604 133.068 226.789 157.514 218.506C159.24 220.277 160.504 222.403 161.304 224.884C161.225 225.312 161.045 225.682 160.762 225.993C134.362 235.385 108.015 235.2 81.7188 225.438C81.4714 225.209 81.2905 224.931 81.1774 224.606C82.4924 222.516 83.5752 220.298 84.4258 217.952Z" fill="#040004"/>
<path fill-rule="evenodd" clip-rule="evenodd" d="M66.0181 202.978C63.6652 202.886 61.3197 202.979 58.9803 203.255C57.9939 204.82 56.8207 206.206 55.4612 207.415C55.1001 209.448 55.1001 211.481 55.4612 213.515C57.9717 218.068 61.6716 219.454 66.5598 217.674C67.3919 217.059 67.7525 216.227 67.6426 215.179C68.3643 215.179 69.0865 215.179 69.8082 215.179C69.8082 215.549 69.8081 215.918 69.8081 216.288C65.0124 221.438 60.2303 221.438 55.4612 216.288C55.0329 215.597 54.7625 214.858 54.6493 214.07C54.6493 211.667 54.649 209.263 54.649 206.86C55.4102 206.598 55.7713 206.043 55.7318 205.196C55.9121 204.642 56.2731 204.272 56.8144 204.087C59.7049 201.753 62.773 201.383 66.0181 202.978Z" fill="#52B4D4"/>
<path fill-rule="evenodd" clip-rule="evenodd" d="M54.1079 207.415C53.2352 209.788 53.4155 212.006 54.6493 214.07C54.7625 214.858 55.0329 215.597 55.4612 216.288C60.2303 221.438 65.0124 221.438 69.8081 216.288C69.8931 217.049 69.8031 217.789 69.5378 218.506C68.5389 218.811 67.7268 219.366 67.1015 220.17C63.8007 220.398 60.6427 221.137 57.6271 222.388C56.376 222.329 55.0225 222.052 53.5667 221.556C52.452 220.899 52.3615 220.252 53.296 219.615C54.094 220.955 55.2667 221.51 56.815 221.279C56.815 220.54 56.815 219.8 56.815 219.061C56.0934 219.061 55.3711 219.061 54.6495 219.061C53.7085 216.479 53.1671 213.798 53.0253 211.019C53.0432 209.572 53.4041 208.37 54.1079 207.415Z" fill="#0A0C16"/>
</svg>
